<svg width="352" height="218" viewBox="0 0 352 218" fill="none" xmlns="http://www.w3.org/2000/svg">
<path d="M0 10C0 4.47715 4.47715 0 10 0H342C347.523 0 352 4.47715 352 10V218H0V10Z" fill="#F1F0EE"/>
<path d="M206 91.7499V126.25C206 129.97 202.97 133 199.25 133H152.75C152.45 133 152.15 132.97 151.88 132.94C148.73 132.55 146.27 129.97 146.03 126.79C146 126.61 146 126.43 146 126.25V91.7499C146 88.03 149.03 85 152.75 85H199.25C202.97 85 206 88.03 206 91.7499Z" fill="white"/>
<path d="M166 99C166 102.313 163.314 105 160 105C156.686 105 154 102.313 154 99C154 95.6866 156.686 93 160 93C163.314 93 166 95.6866 166 99Z" fill="#98CFCA"/>
<path d="M206 118.049V126.352C206 130.016 202.977 133 199.265 133H152.868C152.569 133 152.27 132.97 152 132.94L182.831 102.507C184.867 100.498 188.219 100.498 190.255 102.507L206 118.049Z" fill="#00969F"/>
<path d="M188 133H152.696C152.397 133 152.098 132.973 151.829 132.945C148.69 132.591 146.239 130.244 146 127.352L160.199 114.391C162.232 112.536 165.58 112.536 167.613 114.391L188 133Z" fill="#80CBCF"/>
</svg>
