<svg width="24" height="24" viewBox="0 0 24 24" fill="none" xmlns="http://www.w3.org/2000/svg">
<g opacity="0.7">
<path d="M22.7816 8.76928L14.2996 1.18567C14.194 1.09169 14.0636 1.0302 13.9239 1.00861C13.7842 0.987018 13.6413 1.00624 13.5123 1.06396C13.3833 1.12168 13.2737 1.21545 13.1968 1.33398C13.1198 1.4525 13.0787 1.59075 13.0784 1.73207V5.34052C5.64517 5.36619 -0.145211 14.1416 1.19329 22.499C1.22391 22.5906 1.27233 22.6753 1.33577 22.7482C1.39922 22.8211 1.47643 22.8807 1.56299 22.9236C1.64954 22.9665 1.74372 22.9919 1.84013 22.9984C1.93653 23.0048 2.03325 22.9921 2.12474 22.9611C2.23807 22.922 2.34012 22.8558 2.42195 22.7683C2.50378 22.6807 2.5629 22.5744 2.59413 22.4587C4.09398 16.925 8.2965 13.2175 13.0784 13.2908V16.8883C13.0787 17.0296 13.1198 17.1679 13.1968 17.2864C13.2737 17.4049 13.3833 17.4987 13.5123 17.5564C13.6413 17.6141 13.7842 17.6334 13.9239 17.6118C14.0636 17.5902 14.194 17.5287 14.2996 17.4347L22.7816 9.86209C22.8585 9.7933 22.9199 9.70908 22.962 9.61493C23.0041 9.52077 23.0258 9.41881 23.0258 9.31569C23.0258 9.21256 23.0041 9.11059 22.962 9.01644C22.9199 8.92229 22.8585 8.83807 22.7816 8.76928ZM14.5453 15.2601V12.6088C14.5432 12.5073 14.5207 12.4072 14.4792 12.3146C14.4376 12.222 14.3777 12.1387 14.3033 12.0697C14.1847 11.9635 14.036 11.8969 13.8779 11.879C9.22062 11.4536 4.97409 14.1233 2.57213 18.5678C3.22487 11.7837 8.01047 6.55067 13.7972 6.80737C13.9917 6.80737 14.1783 6.7301 14.3158 6.59256C14.4533 6.45501 14.5306 6.26846 14.5306 6.07395V3.37128L21.1938 9.31569L14.5453 15.2601Z" fill="#666666"/>
</g>
</svg>
