<svg width="116" height="116" viewBox="0 0 116 116" fill="none" xmlns="http://www.w3.org/2000/svg">
<g filter="url(#filter0_d_958_19435)">
<circle cx="58" cy="46" r="38" fill="url(#paint0_linear_958_19435)"/>
</g>
<path d="M34.8628 55.2212C34.9088 57.5005 34.972 59.7797 35.0525 62.059C35.071 62.5782 35.5115 63.0133 36.0344 63.0292C38.2458 63.0962 40.4573 63.153 42.6687 63.1996C43.8365 59.3333 45.0609 55.4456 46.3176 51.5432C42.4867 52.7987 38.6658 54.0313 34.8628 55.2212Z" fill="url(#paint1_linear_958_19435)"/>
<path d="M76.065 51.5001C76.0287 55.3781 75.9537 59.2561 75.8398 63.1341C77.1035 63.1025 78.3672 63.0675 79.6308 63.0292C80.1538 63.0132 80.5943 62.5781 80.6127 62.0589C80.6931 59.7797 80.7563 57.5004 80.8025 55.2212C79.2328 53.9936 77.6525 52.7521 76.065 51.5001Z" fill="url(#paint2_linear_958_19435)"/>
<path d="M72.9967 63.1996C73.9444 63.1796 74.8922 63.1577 75.8399 63.1341C76.3632 63.1208 76.8008 62.6856 76.8162 62.1627C76.92 58.606 76.9895 55.0492 77.0245 51.4923C74.4657 51.5136 71.9067 51.5305 69.3477 51.5432C70.6043 55.4456 71.8288 59.3333 72.9967 63.1996Z" fill="url(#paint3_linear_958_19435)"/>
<path d="M34.9109 34.7708C34.7411 41.5876 34.725 48.4043 34.8628 55.2212C38.6911 55.286 42.5194 55.3346 46.3478 55.367C46.2789 48.4417 46.2869 41.5163 46.3718 34.5911C42.5515 34.6311 38.7311 34.691 34.9109 34.7708Z" fill="url(#paint4_linear_958_19435)"/>
<path d="M80.7546 34.7708C76.9342 34.691 73.114 34.6311 69.2937 34.5911C71.9255 41.543 74.537 48.4556 76.9745 55.2806C78.2506 55.2626 79.5267 55.2428 80.8027 55.2212C80.9405 48.4045 80.9243 41.5876 80.7546 34.7708Z" fill="url(#paint5_linear_958_19435)"/>
<path d="M69.2937 34.5911C69.3786 41.5163 69.3866 48.4417 69.3177 55.367C71.87 55.3453 74.4222 55.3166 76.9743 55.2806C77.0891 48.4196 77.0757 41.5586 76.9342 34.6976C74.3875 34.6532 71.8406 34.6177 69.2937 34.5911Z" fill="url(#paint6_linear_958_19435)"/>
<path d="M46.3972 32.6792C42.5853 32.7258 38.7735 32.7957 34.9617 32.8888C33.9096 32.9153 33.0292 33.7776 33.0007 34.8123C32.9722 35.8471 33.8107 36.6703 34.8678 36.6527C38.6953 36.5862 42.5228 36.5362 46.3502 36.5029C46.3633 35.2284 46.379 33.9538 46.3972 32.6792Z" fill="url(#paint7_linear_958_19435)"/>
<path d="M80.7037 32.889C79.4331 32.858 78.1625 32.8295 76.8918 32.8036C76.9222 34.0663 76.9482 35.3291 76.97 36.5918C78.2458 36.6103 79.5216 36.6307 80.7975 36.6528C81.8547 36.6706 82.6931 35.8473 82.6647 34.8125C82.6362 33.7778 81.7557 32.9153 80.7037 32.889Z" fill="url(#paint8_linear_958_19435)"/>
<path d="M76.8921 32.8035C74.3508 32.7517 71.8096 32.7103 69.2683 32.6792C69.2866 33.9538 69.3022 35.2285 69.3152 36.503C71.8668 36.5251 74.4184 36.5547 76.9702 36.5917C78.0273 36.6062 78.8687 35.7748 78.8446 34.7325C78.8204 33.6902 77.9442 32.8255 76.8921 32.8035Z" fill="url(#paint9_linear_958_19435)"/>
<path d="M72.8927 25.1171C64.1077 24.8893 55.3228 24.8608 46.5378 25.0317C53.7813 37.6312 61.8582 50.6433 69.2059 63.2695C70.4695 63.2495 71.7332 63.2262 72.9969 63.1996C73.1376 57.4872 73.2079 51.7748 73.2079 46.0625C73.2079 39.0807 73.1029 32.099 72.8927 25.1171Z" fill="url(#paint10_linear_958_19435)"/>
<path d="M69.1275 25.0317C60.3425 24.8608 51.5576 24.8893 42.7726 25.1171C42.3906 37.8112 42.356 50.5055 42.6685 63.1996C43.9321 63.2262 45.1959 63.2495 46.4595 63.2695C53.9477 58.291 61.6652 53.0861 69.3619 47.9743C69.3775 40.3268 69.2994 32.6792 69.1275 25.0317Z" fill="url(#paint11_linear_958_19435)"/>
<path d="M64.5134 33.9121C63.4529 33.9052 62.3925 33.9001 61.332 33.8965C61.3388 35.604 61.344 37.3115 61.3479 39.019C62.4132 39.0211 63.4784 39.0241 64.5438 39.028C65.073 39.0298 65.5004 38.6021 65.4974 38.0731C65.4914 37.0078 65.4842 35.9426 65.4757 34.8773C65.4714 34.3483 65.0402 33.9156 64.5134 33.9121Z" fill="url(#paint12_linear_958_19435)"/>
<path d="M62.304 38.061C62.3005 36.9941 62.2962 35.9272 62.2914 34.8603C62.2889 34.3305 61.859 33.8982 61.3324 33.8965C60.8054 33.8947 60.3766 33.4633 60.3751 32.933C60.3719 31.8656 60.3681 30.7981 60.364 29.7306C60.3617 29.2003 59.9355 28.7683 59.4125 28.7672C58.3595 28.765 57.3064 28.765 56.2534 28.7672C55.7304 28.7685 55.304 29.2005 55.3019 29.7306C55.2977 30.7981 55.2941 31.8655 55.2907 32.933C55.2892 33.4632 54.8604 33.8947 54.3335 33.8965C53.273 33.9 52.2126 33.9052 51.1521 33.9121C50.6254 33.9156 50.1941 34.3481 50.1897 34.8773C50.1812 35.9426 50.1741 37.0078 50.168 38.0731C50.165 38.6022 50.5922 39.0298 51.1216 39.028C52.1869 39.0241 53.2521 39.021 54.3175 39.019C54.8466 39.0178 55.2755 39.4476 55.2747 39.9781C55.2732 41.0455 55.2721 42.113 55.2714 43.1803C55.271 43.7106 55.7012 44.1408 56.2316 44.1407C57.2991 44.1405 58.3666 44.1405 59.4342 44.1407C59.9646 44.1408 60.3949 43.7106 60.3945 43.1803C60.3937 42.113 60.3926 41.0455 60.3911 39.9781C60.3904 39.4477 60.8192 39.018 61.3484 39.019C61.8775 39.02 62.3057 38.591 62.304 38.061Z" fill="url(#paint13_linear_958_19435)"/>
<path d="M69.362 47.9743C69.3516 53.0727 69.2995 58.1711 69.2057 63.2695C67.9421 63.2895 66.6783 63.3061 65.4147 63.3193C62.9275 60.0651 60.3887 56.7822 57.8327 53.4937C55.2767 56.7822 52.738 60.0651 50.2507 63.3193C48.9871 63.3061 47.7233 63.2893 46.4597 63.2695C46.366 58.1711 46.3138 53.0727 46.3035 47.9743C46.3012 46.9187 47.162 46.0628 48.2233 46.0625H67.4421C68.5035 46.0628 69.3642 46.9188 69.362 47.9743Z" fill="url(#paint14_linear_958_19435)"/>
<path d="M65.5149 49.8973C65.5028 54.3713 65.4693 58.8453 65.4146 63.3193C64.7828 63.3259 64.151 63.3318 63.5191 63.3368C61.6538 60.0676 59.7496 56.7822 57.8326 53.4937C55.9156 56.7822 54.0115 60.0676 52.1461 63.3368C51.5143 63.3318 50.8825 63.3259 50.2506 63.3193C50.1959 58.8453 50.1625 54.3713 50.1504 49.8973C55.2719 49.9092 60.3934 49.9092 65.5149 49.8973Z" fill="url(#paint15_linear_958_19435)"/>
<path d="M72.8328 23.213C71.5828 23.1775 70.3328 23.1463 69.0828 23.1197C69.114 24.3943 69.1426 25.6688 69.1688 26.9434C70.4283 26.9656 71.6879 26.9916 72.9474 27.0211C73.9915 27.0451 74.8115 26.2174 74.7751 25.1688C74.7389 24.1205 73.8674 23.2427 72.8328 23.213Z" fill="url(#paint16_linear_958_19435)"/>
<path d="M71.0101 25.0713C70.9817 24.0178 70.1173 23.1422 69.0827 23.1198C60.3327 22.9335 51.5827 22.9645 42.8327 23.2131C41.7981 23.243 40.9267 24.1207 40.8903 25.1691C40.8539 26.2176 41.6741 27.0453 42.7181 27.0213C51.5349 26.8142 60.3517 26.7883 69.1686 26.9437C70.2127 26.9615 71.0386 26.125 71.0101 25.0713Z" fill="url(#paint17_linear_958_19435)"/>
<path d="M55.9136 51.5711C54.6341 51.5701 53.3547 51.568 52.0752 51.5647C52.0884 56.1286 52.1183 60.6925 52.1648 65.2563C55.9434 65.2896 59.7221 65.2896 63.5008 65.2563C63.5212 63.2517 63.5384 61.247 63.5524 59.2423C61.0282 56.6982 58.4751 54.1353 55.9136 51.5711Z" fill="url(#paint18_linear_958_19435)"/>
<path d="M55.9136 51.5711C55.9234 55.8179 59.3448 59.2683 63.5523 59.2422C63.5702 56.6831 63.5828 54.1238 63.5903 51.5647C61.0314 51.5711 58.4726 51.5732 55.9136 51.5711Z" fill="url(#paint19_linear_958_19435)"/>
<path d="M63.5193 63.3368C65.221 64.4792 66.9119 65.6127 68.5896 66.7337C68.9262 66.9586 69.1223 67.3433 69.1126 67.7597C69.0963 68.4473 68.5357 69.0167 67.8616 69.0297C61.1758 69.1567 54.4901 69.1567 47.8043 69.0297C47.1302 69.0168 46.5696 68.4473 46.5533 67.7597C46.5436 67.3433 46.7397 66.9586 47.0763 66.7337C48.7538 65.6127 50.4448 64.4792 52.1466 63.3368C55.9373 63.3668 59.7283 63.3668 63.5193 63.3368Z" fill="url(#paint20_linear_958_19435)"/>
<defs>
<filter id="filter0_d_958_19435" x="0" y="0" width="116" height="116" filterUnits="userSpaceOnUse" color-interpolation-filters="sRGB">
<feFlood flood-opacity="0" result="BackgroundImageFix"/>
<feColorMatrix in="SourceAlpha" type="matrix" values="0 0 0 0 0 0 0 0 0 0 0 0 0 0 0 0 0 0 127 0" result="hardAlpha"/>
<feOffset dy="12"/>
<feGaussianBlur stdDeviation="10"/>
<feComposite in2="hardAlpha" operator="out"/>
<feColorMatrix type="matrix" values="0 0 0 0 0.00392157 0 0 0 0 0.54902 0 0 0 0 0.584314 0 0 0 0.28 0"/>
<feBlend mode="normal" in2="BackgroundImageFix" result="effect1_dropShadow_958_19435"/>
<feBlend mode="normal" in="SourceGraphic" in2="effect1_dropShadow_958_19435" result="shape"/>
</filter>
<linearGradient id="paint0_linear_958_19435" x1="20" y1="8" x2="109.316" y2="30.0418" gradientUnits="userSpaceOnUse">
<stop stop-color="#01AEB9"/>
<stop offset="1" stop-color="#018C95"/>
</linearGradient>
<linearGradient id="paint1_linear_958_19435" x1="34.8628" y1="63.1996" x2="48.5674" y2="59.1418" gradientUnits="userSpaceOnUse">
<stop stop-color="#96EAEF"/>
<stop offset="1" stop-color="#73D9E0"/>
</linearGradient>
<linearGradient id="paint2_linear_958_19435" x1="75.8398" y1="63.1341" x2="82.1928" y2="62.3176" gradientUnits="userSpaceOnUse">
<stop stop-color="#96EAEF"/>
<stop offset="1" stop-color="#73D9E0"/>
</linearGradient>
<linearGradient id="paint3_linear_958_19435" x1="69.3477" y1="63.1996" x2="78.9623" y2="61.3" gradientUnits="userSpaceOnUse">
<stop stop-color="#96EAEF"/>
<stop offset="1" stop-color="#73D9E0"/>
</linearGradient>
<linearGradient id="paint4_linear_958_19435" x1="34.7703" y1="55.367" x2="49.4517" y2="52.8968" gradientUnits="userSpaceOnUse">
<stop stop-color="#96EAEF"/>
<stop offset="1" stop-color="#73D9E0"/>
</linearGradient>
<linearGradient id="paint5_linear_958_19435" x1="69.2937" y1="55.2806" x2="83.9718" y2="52.8007" gradientUnits="userSpaceOnUse">
<stop stop-color="#96EAEF"/>
<stop offset="1" stop-color="#73D9E0"/>
</linearGradient>
<linearGradient id="paint6_linear_958_19435" x1="69.2937" y1="55.367" x2="79.2626" y2="54.2454" gradientUnits="userSpaceOnUse">
<stop stop-color="#96EAEF"/>
<stop offset="1" stop-color="#73D9E0"/>
</linearGradient>
<linearGradient id="paint7_linear_958_19435" x1="47.7267" y1="35.1493" x2="24.498" y2="55.6849" gradientUnits="userSpaceOnUse">
<stop stop-color="#07AEB9"/>
<stop offset="1" stop-color="#BDFBFF"/>
</linearGradient>
<linearGradient id="paint8_linear_958_19435" x1="83.2384" y1="35.1965" x2="67.793" y2="41.2709" gradientUnits="userSpaceOnUse">
<stop stop-color="#07AEB9"/>
<stop offset="1" stop-color="#BDFBFF"/>
</linearGradient>
<linearGradient id="paint9_linear_958_19435" x1="79.7954" y1="35.1114" x2="58.8439" y2="48.5585" gradientUnits="userSpaceOnUse">
<stop stop-color="#07AEB9"/>
<stop offset="1" stop-color="#BDFBFF"/>
</linearGradient>
<linearGradient id="paint10_linear_958_19435" x1="46.5378" y1="63.2695" x2="79.7837" y2="56.3029" gradientUnits="userSpaceOnUse">
<stop stop-color="#96EAEF"/>
<stop offset="1" stop-color="#C7FCFF"/>
</linearGradient>
<linearGradient id="paint11_linear_958_19435" x1="42.4575" y1="63.2695" x2="75.9728" y2="56.1842" gradientUnits="userSpaceOnUse">
<stop stop-color="#C0FBFF"/>
<stop offset="1" stop-color="#C7FCFF"/>
</linearGradient>
<linearGradient id="paint12_linear_958_19435" x1="65.9108" y1="37.0862" x2="44.5867" y2="47.5047" gradientUnits="userSpaceOnUse">
<stop stop-color="#07AEB9"/>
<stop offset="1" stop-color="#BDFBFF"/>
</linearGradient>
<linearGradient id="paint13_linear_958_19435" x1="63.5084" y1="38.3228" x2="46.3405" y2="45.341" gradientUnits="userSpaceOnUse">
<stop stop-color="#07AEB9"/>
<stop offset="1" stop-color="#BDFBFF"/>
</linearGradient>
<linearGradient id="paint14_linear_958_19435" x1="46.3035" y1="63.3193" x2="72.1244" y2="52.924" gradientUnits="userSpaceOnUse">
<stop stop-color="#4DD5DE"/>
<stop offset="1" stop-color="#9DF4FA"/>
</linearGradient>
<linearGradient id="paint15_linear_958_19435" x1="50.1504" y1="63.3368" x2="68.0235" y2="57.1803" gradientUnits="userSpaceOnUse">
<stop stop-color="#96EAEF"/>
<stop offset="1" stop-color="#EAFEFF"/>
</linearGradient>
<linearGradient id="paint16_linear_958_19435" x1="75.3413" y1="25.5451" x2="65.3746" y2="28.6644" gradientUnits="userSpaceOnUse">
<stop stop-color="#07AEB9"/>
<stop offset="1" stop-color="#BDFBFF"/>
</linearGradient>
<linearGradient id="paint17_linear_958_19435" x1="74" y1="25.5" x2="57.8301" y2="51.4744" gradientUnits="userSpaceOnUse">
<stop stop-color="#07AEB9"/>
<stop offset="1" stop-color="#BDFBFF"/>
</linearGradient>
<linearGradient id="paint18_linear_958_19435" x1="64.6914" y1="60.091" x2="48.7382" y2="67.0044" gradientUnits="userSpaceOnUse">
<stop stop-color="#07AEB9"/>
<stop offset="1" stop-color="#BDFBFF"/>
</linearGradient>
<linearGradient id="paint19_linear_958_19435" x1="64.3521" y1="56.3372" x2="54.3578" y2="61.5127" gradientUnits="userSpaceOnUse">
<stop stop-color="#07AEB9"/>
<stop offset="1" stop-color="#BDFBFF"/>
</linearGradient>
<linearGradient id="paint20_linear_958_19435" x1="71.3517" y1="66.9348" x2="64.012" y2="81.7506" gradientUnits="userSpaceOnUse">
<stop stop-color="#07AEB9"/>
<stop offset="1" stop-color="#BDFBFF"/>
</linearGradient>
</defs>
</svg>
