<svg width="116" height="116" viewBox="0 0 116 116" fill="none" xmlns="http://www.w3.org/2000/svg">
<g filter="url(#filter0_d_958_19407)">
<circle cx="58" cy="46" r="38" fill="url(#paint0_linear_958_19407)"/>
</g>
<path d="M52.7142 26.9244C52.6839 31.158 52.6637 35.3914 52.6539 39.625C56.0021 39.6173 59.3502 39.6173 62.6985 39.625C62.6887 35.3914 62.6686 31.158 62.6381 26.9244C63.4815 23.6312 61.0068 20.354 57.6761 20.3521C54.3455 20.3541 51.8707 23.6312 52.7142 26.9244Z" fill="url(#paint1_linear_958_19407)"/>
<path d="M44.0344 32.0344C46.0853 35.6474 48.1817 39.292 50.2943 42.951C51.898 40.6515 53.5039 38.3466 55.1032 36.0423C54.2961 33.0001 53.4972 29.9602 52.7142 26.9244C51.8568 23.622 48.1887 22.1079 45.2458 23.8785C42.2985 25.649 41.6619 29.6693 44.0344 32.0344Z" fill="url(#paint2_linear_958_19407)"/>
<path d="M38.9245 40.7142C42.5756 42.7783 46.2453 44.8833 49.9166 47.0002C50.1496 44.2129 50.3898 41.4246 50.6352 38.6352C48.4191 36.4191 46.2151 34.2151 44.0344 32.0344C41.6693 29.6619 37.649 30.2985 35.8785 33.2457C34.108 36.1887 35.6221 39.8569 38.9245 40.7142Z" fill="url(#paint3_linear_958_19407)"/>
<path d="M38.9244 50.638C43.158 50.6684 47.3914 50.6885 51.625 50.6984C50.4272 48.1621 49.2303 45.629 48.0422 43.1032C45.0001 42.2961 41.9602 41.4972 38.9244 40.7142C35.6311 39.8706 32.354 42.3454 32.3521 45.676C32.354 49.0066 35.6311 51.4814 38.9244 50.638Z" fill="url(#paint4_linear_958_19407)"/>
<path d="M44.0345 59.3178C47.6475 57.2669 51.2921 55.1705 54.9511 53.0579C52.6516 51.4542 50.3466 49.8483 48.0423 48.249C45.0002 49.0561 41.9602 49.855 38.9245 50.638C35.622 51.4954 34.108 55.1634 35.8786 58.1064C37.649 61.0536 41.6694 61.6903 44.0345 59.3178Z" fill="url(#paint5_linear_958_19407)"/>
<path d="M52.7142 64.4276C54.7782 60.7765 56.8833 57.1069 59.0002 53.4356C56.213 53.2025 53.4246 52.9623 50.6352 52.717C48.4191 54.9331 46.2151 57.1371 44.0344 59.3178C41.6619 61.6828 42.2985 65.7032 45.2458 67.4736C48.1887 69.2442 51.8568 67.7301 52.7142 64.4276Z" fill="url(#paint6_linear_958_19407)"/>
<path d="M62.638 64.4276C62.6684 60.1942 62.6885 55.9606 62.6984 51.727C60.162 52.9249 57.629 54.1217 55.1032 55.3098C54.296 58.3519 53.4971 61.3919 52.7141 64.4276C51.8706 67.7209 54.3455 70.9981 57.676 71C61.0066 70.9981 63.4814 67.7209 62.638 64.4276Z" fill="url(#paint7_linear_958_19407)"/>
<path d="M71.3178 59.3178C69.2669 55.7047 67.1705 52.0601 65.058 48.4012C63.4542 50.7007 61.8483 53.0056 60.249 55.3099C61.0561 58.3521 61.8551 61.392 62.6381 64.4278C63.4954 67.7302 67.1634 69.2443 70.1065 67.4736C73.0536 65.7032 73.6902 61.6828 71.3178 59.3178Z" fill="url(#paint8_linear_958_19407)"/>
<path d="M76.4276 50.638C72.7765 48.5739 69.1068 46.4689 65.4356 44.352C65.2025 47.1392 64.9623 49.9276 64.7169 52.717C66.933 54.9329 69.1371 57.1371 71.3177 59.3178C73.6828 61.6903 77.7032 61.0537 79.4736 58.1064C81.2441 55.1634 79.73 51.4953 76.4276 50.638Z" fill="url(#paint9_linear_958_19407)"/>
<path d="M76.4275 40.7142C72.194 40.6838 67.9605 40.6637 63.7269 40.6538C64.9248 43.1901 66.1216 45.7231 67.3097 48.249C70.3518 49.0561 73.3918 49.855 76.4275 50.638C79.7208 51.4814 82.9981 49.0067 82.9999 45.676C82.9981 42.3454 79.7208 39.8706 76.4275 40.7142Z" fill="url(#paint10_linear_958_19407)"/>
<path d="M71.3177 32.0344C67.7047 34.0853 64.0601 36.1816 60.4011 38.2943C62.7006 39.898 65.0055 41.5039 67.3098 43.1032C70.352 42.2961 73.3919 41.4972 76.4277 40.7142C79.7301 39.8568 81.2442 36.1887 79.4735 33.2457C77.7031 30.2985 73.6829 29.6619 71.3177 32.0344Z" fill="url(#paint11_linear_958_19407)"/>
<path d="M62.6379 26.9244C61.8549 29.96 61.056 33 60.2489 36.0423C61.736 36.9055 63.2257 37.7705 64.7169 38.6352C66.933 36.4191 69.137 34.2151 71.3177 32.0344C73.6902 29.6695 73.0536 25.6491 70.1064 23.8786C67.1634 22.108 63.4953 23.6221 62.6379 26.9244Z" fill="url(#paint12_linear_958_19407)"/>
<path d="M68.7939 45.676C68.7939 44.6302 68.3543 43.6863 67.6503 43.0128C67.9198 42.0814 67.8217 41.0458 67.2931 40.1366C66.7645 39.2277 65.9097 38.6233 64.9649 38.3871C64.7288 37.4423 64.1244 36.5875 63.2153 36.0589C62.3063 35.5303 61.2705 35.4321 60.3393 35.7017C59.6658 34.9977 58.7219 34.5581 57.6761 34.5581C56.6302 34.5581 55.6863 34.9976 55.0128 35.7017C54.0815 35.4322 53.0459 35.5303 52.1368 36.0589C51.2278 36.5874 50.6233 37.4423 50.3872 38.3871C49.4425 38.6232 48.5876 39.2276 48.059 40.1366C47.5305 41.0457 47.4323 42.0814 47.7018 43.0128C46.998 43.6861 46.5582 44.6302 46.5582 45.676C46.5582 46.7218 46.9979 47.6659 47.7018 48.3392C47.4323 49.2706 47.5305 50.3062 48.059 51.2153C48.5876 52.1243 49.4425 52.7288 50.3872 52.9649C50.6233 53.9096 51.2277 54.7645 52.1368 55.293C53.0459 55.8216 54.0816 55.9197 55.0128 55.6503C55.6863 56.3541 56.6302 56.794 57.6761 56.7939C58.7219 56.7939 59.6658 56.3542 60.3393 55.6503C61.2707 55.9197 62.3063 55.8216 63.2153 55.293C64.1243 54.7643 64.7288 53.9096 64.9649 52.9649C65.9097 52.7288 66.7645 52.1243 67.2931 51.2153C67.8217 50.3061 67.9198 49.2706 67.6503 48.3392C68.3543 47.6658 68.7939 46.7219 68.7939 45.676Z" fill="url(#paint13_linear_958_19407)"/>
<path d="M68.7939 45.676C68.7939 44.6302 68.3543 43.6863 67.6503 43.0128C67.9198 42.0814 67.8217 41.0458 67.2931 40.1366C66.7645 39.2277 65.9097 38.6233 64.9649 38.3871C64.7288 37.4423 64.1244 36.5875 63.2153 36.0589C62.3063 35.5303 61.2705 35.4321 60.3393 35.7017C59.6658 34.9977 58.7219 34.5581 57.6761 34.5581C56.6302 34.5581 55.6863 34.9976 55.0128 35.7017C54.0815 35.4322 53.0459 35.5303 52.1368 36.0589C51.2278 36.5874 50.6233 37.4423 50.3872 38.3871C49.4425 38.6232 48.5876 39.2276 48.059 40.1366C47.5305 41.0457 47.4323 42.0814 47.7018 43.0128C46.998 43.6861 46.5582 44.6302 46.5582 45.676C46.5582 46.7218 46.9979 47.6659 47.7018 48.3392C47.4323 49.2706 47.5305 50.3062 48.059 51.2153C48.5876 52.1243 49.4425 52.7288 50.3872 52.9649C50.6233 53.9096 51.2277 54.7645 52.1368 55.293C53.0459 55.8216 54.0816 55.9197 55.0128 55.6503C55.6863 56.3541 56.6302 56.794 57.6761 56.7939C58.7219 56.7939 59.6658 56.3542 60.3393 55.6503C61.2707 55.9197 62.3063 55.8216 63.2153 55.293C64.1243 54.7643 64.7288 53.9096 64.9649 52.9649C65.9097 52.7288 66.7645 52.1243 67.2931 51.2153C67.8217 50.3061 67.9198 49.2706 67.6503 48.3392C68.3543 47.6658 68.7939 46.7219 68.7939 45.676Z" fill="url(#paint14_linear_958_19407)"/>
<path d="M66.0144 45.676C66.0119 50.2638 62.2639 54.0119 57.676 54.0145C53.0882 54.0119 49.3402 50.2639 49.3375 45.676C49.3401 41.0882 53.0882 37.3401 57.676 37.3377C62.2638 37.3401 66.0119 41.0884 66.0144 45.676Z" fill="url(#paint15_linear_958_19407)"/>
<path d="M62.3085 45.676C62.308 48.2315 60.2314 50.3079 57.676 50.3085C55.1205 50.308 53.0439 48.2315 53.0435 45.676C53.0439 43.1205 55.1205 41.044 57.676 41.0436C60.2314 41.044 62.308 43.1207 62.3085 45.676Z" fill="url(#paint16_linear_958_19407)"/>
<path d="M58.6025 47.529C56.0449 47.529 53.9693 45.4545 53.9713 42.8981C53.3892 43.6724 53.0437 44.634 53.0437 45.676C53.0442 48.2315 55.1207 50.3079 57.6762 50.3085C60.2316 50.3082 62.3081 48.2315 62.3087 45.6761C61.4633 46.8002 60.1177 47.5288 58.6025 47.529Z" fill="url(#paint17_linear_958_19407)"/>
<defs>
<filter id="filter0_d_958_19407" x="0" y="0" width="116" height="116" filterUnits="userSpaceOnUse" color-interpolation-filters="sRGB">
<feFlood flood-opacity="0" result="BackgroundImageFix"/>
<feColorMatrix in="SourceAlpha" type="matrix" values="0 0 0 0 0 0 0 0 0 0 0 0 0 0 0 0 0 0 127 0" result="hardAlpha"/>
<feOffset dy="12"/>
<feGaussianBlur stdDeviation="10"/>
<feComposite in2="hardAlpha" operator="out"/>
<feColorMatrix type="matrix" values="0 0 0 0 0.00392157 0 0 0 0 0.54902 0 0 0 0 0.584314 0 0 0 0.28 0"/>
<feBlend mode="normal" in2="BackgroundImageFix" result="effect1_dropShadow_958_19407"/>
<feBlend mode="normal" in="SourceGraphic" in2="effect1_dropShadow_958_19407" result="shape"/>
</filter>
<linearGradient id="paint0_linear_958_19407" x1="20" y1="8" x2="109.316" y2="30.0418" gradientUnits="userSpaceOnUse">
<stop stop-color="#01AEB9"/>
<stop offset="1" stop-color="#018C95"/>
</linearGradient>
<linearGradient id="paint1_linear_958_19407" x1="52.548" y1="39.625" x2="65.5601" y2="37.5387" gradientUnits="userSpaceOnUse">
<stop stop-color="#65B7BC"/>
<stop offset="1" stop-color="#C7FCFF"/>
</linearGradient>
<linearGradient id="paint2_linear_958_19407" x1="42.5854" y1="42.951" x2="58.3056" y2="39.9597" gradientUnits="userSpaceOnUse">
<stop stop-color="#65B7BC"/>
<stop offset="1" stop-color="#C7FCFF"/>
</linearGradient>
<linearGradient id="paint3_linear_958_19407" x1="35.1304" y1="47.0002" x2="53.795" y2="41.6882" gradientUnits="userSpaceOnUse">
<stop stop-color="#65B7BC"/>
<stop offset="1" stop-color="#C7FCFF"/>
</linearGradient>
<linearGradient id="paint4_linear_958_19407" x1="32.3521" y1="50.8042" x2="51.3439" y2="40.0514" gradientUnits="userSpaceOnUse">
<stop stop-color="#65B7BC"/>
<stop offset="1" stop-color="#C7FCFF"/>
</linearGradient>
<linearGradient id="paint5_linear_958_19407" x1="35.1304" y1="60.7667" x2="56.1409" y2="50.743" gradientUnits="userSpaceOnUse">
<stop stop-color="#65B7BC"/>
<stop offset="1" stop-color="#C7FCFF"/>
</linearGradient>
<linearGradient id="paint6_linear_958_19407" x1="42.5854" y1="68.2218" x2="61.9733" y2="62.0374" gradientUnits="userSpaceOnUse">
<stop stop-color="#65B7BC"/>
<stop offset="1" stop-color="#C7FCFF"/>
</linearGradient>
<linearGradient id="paint7_linear_958_19407" x1="52.5479" y1="71" x2="65.5599" y2="68.9136" gradientUnits="userSpaceOnUse">
<stop stop-color="#65B7BC"/>
<stop offset="1" stop-color="#C7FCFF"/>
</linearGradient>
<linearGradient id="paint8_linear_958_19407" x1="60.249" y1="68.2219" x2="75.9691" y2="65.2306" gradientUnits="userSpaceOnUse">
<stop stop-color="#65B7BC"/>
<stop offset="1" stop-color="#C7FCFF"/>
</linearGradient>
<linearGradient id="paint9_linear_958_19407" x1="64.7169" y1="60.7667" x2="83.3816" y2="55.4548" gradientUnits="userSpaceOnUse">
<stop stop-color="#65B7BC"/>
<stop offset="1" stop-color="#C7FCFF"/>
</linearGradient>
<linearGradient id="paint10_linear_958_19407" x1="63.7269" y1="50.8042" x2="82.7188" y2="40.0514" gradientUnits="userSpaceOnUse">
<stop stop-color="#65B7BC"/>
<stop offset="1" stop-color="#C7FCFF"/>
</linearGradient>
<linearGradient id="paint11_linear_958_19407" x1="60.4011" y1="43.1032" x2="81.4117" y2="33.0795" gradientUnits="userSpaceOnUse">
<stop stop-color="#65B7BC"/>
<stop offset="1" stop-color="#C7FCFF"/>
</linearGradient>
<linearGradient id="paint12_linear_958_19407" x1="60.2489" y1="38.6352" x2="75.6283" y2="34.8941" gradientUnits="userSpaceOnUse">
<stop stop-color="#65B7BC"/>
<stop offset="1" stop-color="#C7FCFF"/>
</linearGradient>
<linearGradient id="paint13_linear_958_19407" x1="41.7594" y1="61.5927" x2="69.5105" y2="33.8416" gradientUnits="userSpaceOnUse">
<stop stop-color="#FF4747"/>
<stop offset="1" stop-color="#FFFA78"/>
</linearGradient>
<linearGradient id="paint14_linear_958_19407" x1="55.084" y1="60.0579" x2="72.294" y2="43.1511" gradientUnits="userSpaceOnUse">
<stop stop-color="#07AEB9"/>
<stop offset="1" stop-color="#BDFBFF"/>
</linearGradient>
<linearGradient id="paint15_linear_958_19407" x1="55.7319" y1="56.4624" x2="68.6393" y2="43.7822" gradientUnits="userSpaceOnUse">
<stop stop-color="#019099"/>
<stop offset="1" stop-color="#64CFD6"/>
</linearGradient>
<linearGradient id="paint16_linear_958_19407" x1="54.6977" y1="55.1271" x2="61.5242" y2="42.1065" gradientUnits="userSpaceOnUse">
<stop stop-color="#80F7FF"/>
<stop offset="1" stop-color="#F9FCFC"/>
</linearGradient>
<linearGradient id="paint17_linear_958_19407" x1="54.6979" y1="54.1627" x2="59.433" y2="42.8711" gradientUnits="userSpaceOnUse">
<stop stop-color="#80F7FF"/>
<stop offset="1" stop-color="#F9FCFC"/>
</linearGradient>
</defs>
</svg>
