<svg width="116" height="116" viewBox="0 0 116 116" fill="none" xmlns="http://www.w3.org/2000/svg">
<g filter="url(#filter0_d_958_19398)">
<circle cx="58" cy="46" r="38" fill="url(#paint0_linear_958_19398)"/>
</g>
<path d="M47.399 64.1385C43.7542 57.8888 40.059 51.6632 36.4646 45.5343C40.059 39.4053 43.7542 33.1798 47.399 26.9299C54.4868 26.8333 61.5747 26.8333 68.6626 26.9299C72.3073 33.1798 76.0026 39.4053 79.597 45.5343C76.0026 51.6633 72.3073 57.8888 68.6626 64.1385C61.5747 64.235 54.4868 64.235 47.399 64.1385Z" fill="url(#paint1_linear_958_19398)"/>
<path d="M83.1431 45.5342C84.2045 45.5334 85.0655 44.694 85.061 43.6592C85.0566 42.6245 84.1889 41.7789 83.1283 41.7713C82.3165 41.766 81.5046 41.761 80.6929 41.7563C80.0065 41.7527 79.3704 41.3883 79.0225 40.8002C76.8799 37.1768 74.7121 33.5229 72.5503 29.8535C72.1994 29.2579 72.1858 28.5299 72.5123 27.9454C72.8985 27.254 73.2828 26.5639 73.6646 25.8748C74.1636 24.9749 73.8194 23.8033 72.9045 23.2552C71.9895 22.7074 70.8488 22.9953 70.348 23.9004C70.8484 22.9962 70.5095 21.8217 69.6003 21.2749C68.6908 20.7285 67.5533 21.022 67.0501 21.9313C66.6655 22.6268 66.2786 23.3233 65.8899 24.0205C65.5613 24.6099 64.942 24.9688 64.2669 24.963C60.1093 24.9262 55.9516 24.9262 51.794 24.963C51.1191 24.9692 50.4996 24.61 50.171 24.0205C49.7823 23.3233 49.3954 22.6268 49.0108 21.9313C48.5078 21.0218 47.3701 20.7285 46.4606 21.2749C45.5513 21.8212 45.2125 22.9963 45.7129 23.9004C45.212 22.9953 44.0716 22.707 43.1565 23.2552C42.2416 23.8033 41.8973 24.9748 42.3964 25.8748C42.7783 26.5638 43.1625 27.254 43.5488 27.9454C43.8753 28.5298 43.8616 29.2579 43.5108 29.8535C41.3489 33.5229 39.1811 37.1768 37.0385 40.8002C36.6908 41.3885 36.0544 41.7525 35.3681 41.7563C34.5564 41.761 33.7445 41.766 32.9328 41.7713C31.8721 41.7787 31.0044 42.6245 31 43.6592C30.9955 44.694 31.8566 45.5334 32.9179 45.5342C31.8565 45.5348 30.9955 46.3743 31 47.4092C31.0044 48.4439 31.8721 49.2895 32.9328 49.297C33.7445 49.3023 34.5564 49.3073 35.3681 49.312C36.0544 49.3159 36.6908 49.68 37.0385 50.2682C39.1811 53.8915 41.3489 57.5454 43.5108 61.2149C43.8615 61.8104 43.8751 62.5385 43.5488 63.123C43.1625 63.8144 42.7783 64.5045 42.3964 65.1935C41.8973 66.0934 42.2415 67.265 43.1565 67.8132C44.0716 68.361 45.2121 68.0733 45.713 67.1679C45.2126 68.0723 45.5515 69.247 46.4608 69.7934C47.3703 70.3399 48.508 70.0463 49.0109 69.137C49.3955 68.4415 49.7824 67.745 50.1711 67.0478C50.4996 66.4585 51.119 66.0994 51.7941 66.1053C55.9518 66.1422 60.1094 66.1422 64.267 66.1053C64.942 66.0994 65.5615 66.4584 65.89 67.0478C66.2788 67.745 66.6656 68.4415 67.0503 69.137C67.5533 70.0464 68.6909 70.3398 69.6004 69.7934C70.5098 69.2472 70.8486 68.0723 70.3481 67.1679C70.849 68.0732 71.9894 68.361 72.9045 67.8132C73.8194 67.2652 74.1638 66.0933 73.6646 65.1935C73.2828 64.5045 72.8985 63.8143 72.5123 63.123C72.1859 62.5383 72.1993 61.8107 72.5503 61.2149C74.7121 57.5454 76.8799 53.8915 79.0225 50.2682C79.3703 49.6798 80.0068 49.3158 80.6929 49.312C81.5046 49.3073 82.3165 49.3023 83.1283 49.297C84.1889 49.2897 85.0566 48.4439 85.061 47.4092C85.0656 46.3745 84.2045 45.5347 83.1431 45.5342ZM76.2653 47.4348C73.9094 48.9348 71.5501 50.4467 69.1934 51.9629C69.0446 54.7443 68.8859 57.5267 68.7184 60.3098C68.0224 61.5013 68.005 62.9632 68.6625 64.1385C68.005 62.9634 66.7589 62.2468 65.4009 62.2582C62.957 61 60.4989 59.7268 58.0308 58.4455C55.5626 59.7268 53.1045 61 50.6606 62.2582C49.3028 62.2469 48.0565 62.9635 47.399 64.1385C48.0565 62.9629 48.0389 61.5017 47.3431 60.3098C47.1756 57.5267 47.0169 54.7444 46.8681 51.9629C44.5114 50.4467 42.1521 48.9348 39.7963 47.4348C39.1063 46.2568 37.8381 45.5339 36.4648 45.5343C37.8381 45.5347 39.1065 44.8118 39.7963 43.6338C42.1521 42.1338 44.5114 40.6219 46.8681 39.1057C47.0169 36.3243 47.1756 33.5419 47.3431 30.7588C48.039 29.5672 48.0565 28.1057 47.399 26.93C48.0565 28.1052 49.3028 28.8219 50.6606 28.8104C53.1045 30.0685 55.5626 31.3418 58.0308 32.623C60.4989 31.3418 62.957 30.0684 65.4009 28.8104C66.7589 28.8215 68.0051 28.1053 68.6625 26.93C68.0049 28.1057 68.0226 29.5669 68.7184 30.7588C68.8859 33.5419 69.0446 36.3242 69.1934 39.1057C71.5501 40.6219 73.9094 42.1338 76.2653 43.6338C76.955 44.8117 78.2234 45.5348 79.5968 45.5343C78.2234 45.5338 76.955 46.2567 76.2653 47.4348Z" fill="url(#paint2_linear_958_19398)"/>
<path d="M65.4008 28.8104C60.4874 28.769 55.5739 28.769 50.6605 28.8104C49.3033 28.8218 48.0393 29.5669 47.343 30.7588C44.8249 35.0724 42.2926 39.3719 39.7961 43.6337C39.1059 44.8113 39.1059 46.257 39.7961 47.4348C42.2926 51.6965 44.8249 55.996 47.343 60.3097C48.0394 61.5015 49.3033 62.2465 50.6605 62.258C55.5739 62.2995 60.4874 62.2995 65.4008 62.258C66.758 62.2467 68.022 61.5014 68.7183 60.3097C71.2364 55.996 73.7686 51.6965 76.2651 47.4348C76.9554 46.2569 76.9554 44.8115 76.2651 43.6337C73.7686 39.3719 71.2364 35.0724 68.7183 30.7588C68.0219 29.5668 66.758 28.822 65.4008 28.8104Z" fill="url(#paint3_linear_958_19398)"/>
<path d="M50.6264 58.4214C48.1249 54.1097 45.6069 49.806 43.1222 45.5342C45.6069 41.2623 48.1251 36.9587 50.6264 32.6469C55.5627 32.615 60.4988 32.615 65.4351 32.6469C67.9364 36.9587 70.4546 41.2623 72.9393 45.5342C70.4546 49.806 67.9364 54.1097 65.4351 58.4214C60.4988 58.4533 55.5626 58.4533 50.6264 58.4214Z" fill="url(#paint4_linear_958_19398)"/>
<path d="M58.0307 36.4668C54.7892 36.4674 52.146 39.1147 52.1393 42.3642C52.1344 45.6139 54.7775 48.2533 58.0307 48.2543C61.2837 48.2535 63.9269 45.6139 63.922 42.3642C63.9153 39.1145 61.2722 36.4677 58.0307 36.4668Z" fill="url(#paint5_linear_958_19398)"/>
<path d="M59.9524 44.4107C56.6974 44.4097 54.0583 41.7727 54.0667 38.5204C54.067 38.3409 54.0769 38.1633 54.0929 37.9878C52.8978 39.0687 52.1419 40.6295 52.1393 42.3642C52.1344 45.6139 54.7775 48.2533 58.0307 48.2543C61.104 48.2537 63.6319 45.8968 63.8977 42.8964C62.8543 43.8369 61.4705 44.4109 59.9524 44.4107Z" fill="url(#paint6_linear_958_19398)"/>
<path d="M66.762 39.7833C66.0974 39.7808 65.61 40.3823 65.7255 41.0371C65.8017 41.4694 65.8421 41.9139 65.8431 42.3669C65.8511 46.664 62.3336 50.1741 58.0306 50.176C53.7276 50.1739 50.2101 46.6641 50.2181 42.3669C50.219 41.9138 50.2594 41.4693 50.3357 41.0371C50.4512 40.3823 49.964 39.781 49.2992 39.7833C48.9156 39.7848 48.565 39.9874 48.3745 40.3153C47.733 41.4184 47.0921 42.5204 46.4526 43.6209C45.7636 44.8059 45.7637 46.2625 46.4526 47.4475C47.8319 49.8208 49.2175 52.2013 50.601 54.5849C51.2921 55.7751 52.5589 56.5131 53.9251 56.5174C56.6621 56.5256 59.3991 56.5256 62.1361 56.5174C63.5024 56.5133 64.7692 55.7751 65.4602 54.5849C66.8437 52.2013 68.2295 49.8208 69.6086 47.4475C70.2976 46.2626 70.2976 44.8061 69.6086 43.6209C68.9691 42.5204 68.3281 41.4184 67.6867 40.3153C67.4961 39.9875 67.1455 39.7845 66.762 39.7833Z" fill="url(#paint7_linear_958_19398)"/>
<defs>
<filter id="filter0_d_958_19398" x="0" y="0" width="116" height="116" filterUnits="userSpaceOnUse" color-interpolation-filters="sRGB">
<feFlood flood-opacity="0" result="BackgroundImageFix"/>
<feColorMatrix in="SourceAlpha" type="matrix" values="0 0 0 0 0 0 0 0 0 0 0 0 0 0 0 0 0 0 127 0" result="hardAlpha"/>
<feOffset dy="12"/>
<feGaussianBlur stdDeviation="10"/>
<feComposite in2="hardAlpha" operator="out"/>
<feColorMatrix type="matrix" values="0 0 0 0 0.00392157 0 0 0 0 0.54902 0 0 0 0 0.584314 0 0 0 0.28 0"/>
<feBlend mode="normal" in2="BackgroundImageFix" result="effect1_dropShadow_958_19398"/>
<feBlend mode="normal" in="SourceGraphic" in2="effect1_dropShadow_958_19398" result="shape"/>
</filter>
<linearGradient id="paint0_linear_958_19398" x1="20" y1="8" x2="109.316" y2="30.0418" gradientUnits="userSpaceOnUse">
<stop stop-color="#01AEB9"/>
<stop offset="1" stop-color="#018C95"/>
</linearGradient>
<linearGradient id="paint1_linear_958_19398" x1="53.0028" y1="69.694" x2="81.6897" y2="37.1523" gradientUnits="userSpaceOnUse">
<stop stop-color="#084A4F"/>
<stop offset="1" stop-color="#1E9CA5"/>
</linearGradient>
<linearGradient id="paint2_linear_958_19398" x1="51.7286" y1="77.271" x2="89.5936" y2="36.2879" gradientUnits="userSpaceOnUse">
<stop stop-color="#1BA8B0"/>
<stop offset="1" stop-color="#A7E4E8"/>
</linearGradient>
<linearGradient id="paint3_linear_958_19398" x1="53.6587" y1="67.2081" x2="79.4823" y2="38.8151" gradientUnits="userSpaceOnUse">
<stop stop-color="#019099"/>
<stop offset="1" stop-color="#64CFD6"/>
</linearGradient>
<linearGradient id="paint4_linear_958_19398" x1="48.4458" y1="71.8754" x2="65.8621" y2="33.5178" gradientUnits="userSpaceOnUse">
<stop stop-color="#A7ECF0"/>
<stop offset="1" stop-color="#EBFEFF"/>
</linearGradient>
<linearGradient id="paint5_linear_958_19398" x1="56.6571" y1="49.9846" x2="65.7803" y2="41.0257" gradientUnits="userSpaceOnUse">
<stop stop-color="#019099"/>
<stop offset="1" stop-color="#64CFD6"/>
</linearGradient>
<linearGradient id="paint6_linear_958_19398" x1="56.6478" y1="49.7613" x2="64.5401" y2="40.8813" gradientUnits="userSpaceOnUse">
<stop stop-color="#019099"/>
<stop offset="1" stop-color="#64CFD6"/>
</linearGradient>
<linearGradient id="paint7_linear_958_19398" x1="13.7463" y1="95.3612" x2="71.0239" y2="47.6544" gradientUnits="userSpaceOnUse">
<stop stop-color="#019099"/>
<stop offset="1" stop-color="#64CFD6"/>
</linearGradient>
</defs>
</svg>
