<svg width="22" height="22" viewBox="0 0 22 22" fill="none" xmlns="http://www.w3.org/2000/svg">
<g clip-path="url(#clip0_472_105806)">
<path d="M11.0002 0.916656C9.00591 0.916656 7.0564 1.50803 5.39821 2.61601C3.74001 3.72398 2.44761 5.29878 1.68442 7.14127C0.921239 8.98376 0.721555 11.0112 1.11062 12.9672C1.49969 14.9231 2.46004 16.7198 3.87021 18.13C5.28039 19.5402 7.07707 20.5005 9.03305 20.8896C10.989 21.2787 13.0164 21.079 14.8589 20.3158C16.7014 19.5526 18.2762 18.2602 19.3842 16.602C20.4922 14.9438 21.0835 12.9943 21.0835 11C21.0804 8.3267 20.017 5.76379 18.1267 3.87348C16.2364 1.98317 13.6735 0.91981 11.0002 0.916656ZM15.315 9.35641L10.7316 13.9397C10.5597 14.1116 10.3266 14.2081 10.0835 14.2081C9.84047 14.2081 9.60736 14.1116 9.43546 13.9397L6.68546 11.1897C6.59791 11.1052 6.52807 11.004 6.48003 10.8922C6.43199 10.7804 6.4067 10.6601 6.40564 10.5384C6.40459 10.4166 6.42778 10.2959 6.47387 10.1833C6.51996 10.0706 6.58803 9.96829 6.6741 9.88222C6.76016 9.79615 6.86251 9.72808 6.97517 9.68199C7.08782 9.6359 7.20853 9.61271 7.33024 9.61377C7.45196 9.61482 7.57224 9.64011 7.68408 9.68815C7.79592 9.73619 7.89706 9.80603 7.98162 9.89358L10.0835 11.9955L14.0188 8.06025C14.1917 7.89327 14.4232 7.80087 14.6636 7.80296C14.9039 7.80505 15.1338 7.90145 15.3038 8.07141C15.4737 8.24137 15.5702 8.47128 15.5722 8.71163C15.5743 8.95198 15.4819 9.18353 15.315 9.35641Z" fill="url(#paint0_linear_472_105806)"/>
</g>
<defs>
<linearGradient id="paint0_linear_472_105806" x1="0.91687" y1="0.916656" x2="24.617" y2="6.76547" gradientUnits="userSpaceOnUse">
<stop stop-color="#01AEB9"/>
<stop offset="1" stop-color="#018C95"/>
</linearGradient>
<clipPath id="clip0_472_105806">
<rect width="22" height="22" fill="white"/>
</clipPath>
</defs>
</svg>
