<svg width="40" height="40" viewBox="0 0 40 40" fill="none" xmlns="http://www.w3.org/2000/svg">
<path d="M20 40C31.0457 40 40 31.0457 40 20C40 8.95431 31.0457 0 20 0C8.95431 0 0 8.95431 0 20C0 31.0457 8.95431 40 20 40Z" fill="url(#paint0_linear_3819_1338)"/>
<path d="M24.0421 10H15.9579C14.3784 10.0021 12.8642 10.6305 11.7473 11.7473C10.6305 12.8642 10.0021 14.3784 10 15.9579V24.0421C10.0021 25.6216 10.6305 27.1358 11.7473 28.2527C12.8642 29.3695 14.3784 29.9979 15.9579 30H24.0421C25.6218 29.9986 27.1364 29.3705 28.2534 28.2534C29.3705 27.1364 29.9986 25.6218 30 24.0421V15.9579C29.9979 14.3784 29.3695 12.8642 28.2527 11.7473C27.1358 10.6305 25.6216 10.0021 24.0421 10ZM27.9895 24.0421C27.9895 25.089 27.5736 26.093 26.8333 26.8333C26.093 27.5736 25.089 27.9895 24.0421 27.9895H15.9579C14.911 27.9895 13.907 27.5736 13.1667 26.8333C12.4264 26.093 12.0105 25.089 12.0105 24.0421V15.9579C12.0105 14.911 12.4264 13.907 13.1667 13.1667C13.907 12.4264 14.911 12.0105 15.9579 12.0105H24.0421C25.089 12.0105 26.093 12.4264 26.8333 13.1667C27.5736 13.907 27.9895 14.911 27.9895 15.9579V24.0421Z" fill="white"/>
<path d="M19.9999 14.8291C18.9764 14.8286 17.9758 15.1316 17.1246 15.6999C16.2734 16.2682 15.6098 17.0762 15.2179 18.0217C14.826 18.9672 14.7233 20.0076 14.9229 21.0115C15.1224 22.0153 15.6152 22.9374 16.3389 23.6611C17.0627 24.3848 17.9848 24.8776 18.9886 25.0772C19.9924 25.2767 21.0329 25.1741 21.9784 24.7821C22.9239 24.3902 23.7319 23.7267 24.3001 22.8755C24.8684 22.0243 25.1715 21.0236 25.171 20.0002C25.1696 18.6291 24.6243 17.3147 23.6549 16.3452C22.6854 15.3757 21.3709 14.8305 19.9999 14.8291ZM19.9999 23.158C19.3754 23.158 18.7648 22.9728 18.2455 22.6258C17.7262 22.2789 17.3214 21.7857 17.0824 21.2086C16.8434 20.6316 16.7809 19.9967 16.9027 19.3841C17.0246 18.7715 17.3253 18.2088 17.767 17.7672C18.2086 17.3255 18.7713 17.0248 19.3838 16.9029C19.9964 16.7811 20.6314 16.8436 21.2084 17.0826C21.7854 17.3217 22.2786 17.7264 22.6256 18.2457C22.9726 18.765 23.1578 19.3756 23.1578 20.0002C23.1578 20.8377 22.8251 21.6409 22.2329 22.2331C21.6407 22.8253 20.8375 23.158 19.9999 23.158Z" fill="white"/>
<path d="M25.2027 16.1079C25.909 16.1079 26.4816 15.5353 26.4816 14.829C26.4816 14.1227 25.909 13.55 25.2027 13.55C24.4963 13.55 23.9237 14.1227 23.9237 14.829C23.9237 15.5353 24.4963 16.1079 25.2027 16.1079Z" fill="white"/>
<defs>
<linearGradient id="paint0_linear_3819_1338" x1="20" y1="39.8158" x2="20" y2="2.71053" gradientUnits="userSpaceOnUse">
<stop stop-color="#E09B3D"/>
<stop offset="0.24" stop-color="#C74C4D"/>
<stop offset="0.65" stop-color="#C21975"/>
<stop offset="1" stop-color="#7024C4"/>
</linearGradient>
</defs>
</svg>
