<svg width="140" height="43" viewBox="0 0 140 43" fill="none" xmlns="http://www.w3.org/2000/svg">
<g clip-path="url(#clip0_3819_1308)">
<path d="M9.35051 40.1507V37.5932C9.35051 36.6129 8.74907 35.9735 7.71802 35.9735C7.2025 35.9735 6.64402 36.144 6.25738 36.6981C5.95665 36.2292 5.52705 35.9735 4.88264 35.9735C4.45304 35.9735 4.02344 36.1014 3.67976 36.5702V36.0587H2.77759V40.1507H3.67976V37.8916C3.67976 37.167 4.06639 36.826 4.66784 36.826C5.26928 36.826 5.57001 37.2096 5.57001 37.8916V40.1507H6.47218V37.8916C6.47218 37.167 6.90177 36.826 7.46026 36.826C8.0617 36.826 8.36243 37.2096 8.36243 37.8916V40.1507H9.35051ZM22.7112 36.0587H21.2505V34.8226H20.3484V36.0587H19.5321V36.8686H20.3484V38.7441C20.3484 39.6819 20.735 40.236 21.766 40.236C22.1527 40.236 22.5823 40.1081 22.883 39.9376L22.6252 39.1704C22.3675 39.3409 22.0668 39.3835 21.852 39.3835C21.4224 39.3835 21.2505 39.1277 21.2505 38.7015V36.8686H22.7112V36.0587ZM30.3581 35.9735C29.8426 35.9735 29.4989 36.2292 29.2841 36.5702V36.0587H28.3819V40.1507H29.2841V37.849C29.2841 37.167 29.5848 36.7834 30.1433 36.7834C30.3151 36.7834 30.5299 36.826 30.7018 36.8686L30.9596 36.0161C30.7877 35.9735 30.5299 35.9735 30.3581 35.9735ZM18.8018 36.3997C18.3722 36.1013 17.7707 35.9735 17.1263 35.9735C16.0953 35.9735 15.4079 36.485 15.4079 37.2949C15.4079 37.9769 15.9234 38.3605 16.8256 38.4884L17.2552 38.531C17.7278 38.6162 17.9855 38.7441 17.9855 38.9572C17.9855 39.2556 17.6418 39.4687 17.0404 39.4687C16.439 39.4687 15.9664 39.2556 15.6657 39.0425L15.2361 39.7245C15.7086 40.0655 16.353 40.236 16.9975 40.236C18.2003 40.236 18.8877 39.6819 18.8877 38.9146C18.8877 38.19 18.3292 37.8064 17.47 37.6785L17.0404 37.6359C16.6538 37.5932 16.353 37.508 16.353 37.2522C16.353 36.9538 16.6538 36.7834 17.1263 36.7834C17.6419 36.7834 18.1574 36.9965 18.4151 37.1244L18.8018 36.3997ZM42.7736 35.9735C42.2581 35.9735 41.9144 36.2292 41.6996 36.5702V36.0587H40.7975V40.1507H41.6996V37.849C41.6996 37.167 42.0004 36.7834 42.5588 36.7834C42.7307 36.7834 42.9455 36.826 43.1173 36.8686L43.3751 36.0161C43.2032 35.9735 42.9455 35.9735 42.7736 35.9735ZM31.2603 38.1047C31.2603 39.3409 32.1195 40.236 33.4512 40.236C34.0527 40.236 34.4823 40.1081 34.9119 39.7671L34.4823 39.0425C34.1386 39.2982 33.7949 39.4261 33.4083 39.4261C32.678 39.4261 32.1624 38.9146 32.1624 38.1047C32.1624 37.3375 32.678 36.826 33.4083 36.7834C33.7949 36.7834 34.1386 36.9112 34.4823 37.167L34.9119 36.4423C34.4823 36.1013 34.0527 35.9735 33.4512 35.9735C32.1195 35.9735 31.2603 36.8686 31.2603 38.1047ZM39.5946 38.1047V36.0587H38.6924V36.5702C38.3917 36.1866 37.9621 35.9735 37.4036 35.9735C36.2437 35.9735 35.3415 36.8686 35.3415 38.1047C35.3415 39.3409 36.2437 40.236 37.4036 40.236C38.005 40.236 38.4346 40.0229 38.6924 39.6392V40.1507H39.5946V38.1047ZM36.2866 38.1047C36.2866 37.3801 36.7592 36.7834 37.5325 36.7834C38.2628 36.7834 38.7783 37.3375 38.7783 38.1047C38.7783 38.8294 38.2628 39.4261 37.5325 39.4261C36.7592 39.3835 36.2866 38.8294 36.2866 38.1047ZM25.5036 35.9735C24.3007 35.9735 23.4415 36.826 23.4415 38.1047C23.4415 39.3835 24.3007 40.236 25.5466 40.236C26.148 40.236 26.7494 40.0655 27.222 39.6819L26.7924 39.0425C26.4487 39.2982 26.0191 39.4687 25.5895 39.4687C25.031 39.4687 24.4725 39.213 24.3437 38.4884H27.3938V38.1474C27.4368 36.826 26.6635 35.9735 25.5036 35.9735ZM25.5036 36.7407C26.0621 36.7407 26.4487 37.0817 26.5346 37.7211H24.3866C24.4725 37.167 24.8592 36.7407 25.5036 36.7407ZM47.8859 38.1047V34.439H46.9837V36.5702C46.683 36.1866 46.2534 35.9735 45.6949 35.9735C44.535 35.9735 43.6328 36.8686 43.6328 38.1047C43.6328 39.3409 44.535 40.236 45.6949 40.236C46.2964 40.236 46.726 40.0229 46.9837 39.6392V40.1507H47.8859V38.1047ZM44.578 38.1047C44.578 37.3801 45.0505 36.7834 45.8238 36.7834C46.5541 36.7834 47.0697 37.3375 47.0697 38.1047C47.0697 38.8294 46.5541 39.4261 45.8238 39.4261C45.0505 39.3835 44.578 38.8294 44.578 38.1047ZM14.4198 38.1047V36.0587H13.5177V36.5702C13.2169 36.1866 12.7873 35.9735 12.2289 35.9735C11.0689 35.9735 10.1668 36.8686 10.1668 38.1047C10.1668 39.3409 11.0689 40.236 12.2289 40.236C12.8303 40.236 13.2599 40.0229 13.5177 39.6392V40.1507H14.4198V38.1047ZM11.0689 38.1047C11.0689 37.3801 11.5415 36.7834 12.3148 36.7834C13.0451 36.7834 13.5606 37.3375 13.5606 38.1047C13.5606 38.8294 13.0451 39.4261 12.3148 39.4261C11.5415 39.3835 11.0689 38.8294 11.0689 38.1047Z" fill="black"/>
<path d="M32.0335 4.98462H18.501V29.1105H32.0335V4.98462Z" fill="#FF5F00"/>
<path d="M19.3598 17.0472C19.3598 12.1453 21.6796 7.79757 25.2453 4.9843C22.6247 2.93829 19.3168 1.70215 15.7081 1.70215C7.15904 1.70215 0.242432 8.56482 0.242432 17.0472C0.242432 25.5297 7.15904 32.3924 15.7081 32.3924C19.3168 32.3924 22.6247 31.1562 25.2453 29.1102C21.6796 26.3396 19.3598 21.9492 19.3598 17.0472Z" fill="#EB001B"/>
<path d="M50.291 17.0472C50.291 25.5297 43.3744 32.3924 34.8253 32.3924C31.2166 32.3924 27.9087 31.1562 25.2881 29.1102C28.8968 26.2969 31.1737 21.9492 31.1737 17.0472C31.1737 12.1453 28.8538 7.79757 25.2881 4.9843C27.9087 2.93829 31.2166 1.70215 34.8253 1.70215C43.3744 1.70215 50.291 8.60744 50.291 17.0472Z" fill="#F79E1B"/>
</g>
<g clip-path="url(#clip1_3819_1308)">
<path d="M97.9761 31.0997L101.302 11.8997H106.592L103.267 31.0997H97.9761Z" fill="#292E67"/>
<path d="M122.465 12.5C121.406 12.05 119.744 11.75 117.779 11.75C112.639 11.75 108.86 14.3 108.86 18.05C108.86 20.75 111.43 22.4 113.546 23.3C115.662 24.2 116.267 24.8 116.267 25.7C116.267 27.05 114.604 27.65 113.093 27.65C110.976 27.65 109.918 27.35 108.104 26.6L107.5 26.3L106.593 30.5C107.802 31.1 110.069 31.55 112.488 31.55C118.081 31.55 121.709 29 121.709 24.95C121.709 22.7 120.348 21.05 117.325 19.7C115.511 18.8 114.302 18.2 114.302 17.3C114.302 16.55 115.209 15.65 117.325 15.65C118.988 15.65 120.348 15.95 121.255 16.4L121.709 16.55L122.465 12.5Z" fill="#292E67"/>
<path d="M135.918 12.05H131.837C130.627 12.05 129.569 12.35 129.116 13.7L121.255 31.25H126.848C126.848 31.25 127.755 28.85 127.907 28.4C128.511 28.4 133.953 28.4 134.709 28.4C134.86 29 135.314 31.25 135.314 31.25H140.151L135.918 12.05ZM129.418 24.35C129.872 23.3 131.534 18.95 131.534 18.95C131.534 18.95 131.988 17.9 132.29 17.15L132.593 18.8C132.593 18.8 133.651 23.45 133.802 24.35H129.418Z" fill="#292E67"/>
<path d="M93.5923 11.8997L88.4528 24.9497L87.8481 22.2497C86.9411 19.2497 83.9179 15.7997 80.5923 14.1497L85.2783 30.9497H90.8714L99.1853 11.8997H93.5923Z" fill="#292E67"/>
<path d="M83.6158 11.8997H75.1506V12.3497C81.8018 13.9997 86.1855 17.7497 87.9995 22.3997L86.1855 13.5497C85.732 12.3497 84.8251 12.0497 83.6158 11.8997Z" fill="#F7A600"/>
</g>
<defs>
<clipPath id="clip0_3819_1308">
<rect width="51" height="43" fill="white"/>
</clipPath>
<clipPath id="clip1_3819_1308">
<rect width="65" height="21" fill="white" transform="translate(75 11)"/>
</clipPath>
</defs>
</svg>
