<svg width="40" height="40" viewBox="0 0 40 40" fill="none" xmlns="http://www.w3.org/2000/svg">
<g clip-path="url(#clip0_3819_1333)">
<path d="M20 40C31.0457 40 40 31.0457 40 20C40 8.95431 31.0457 0 20 0C8.95431 0 0 8.95431 0 20C0 31.0457 8.95431 40 20 40Z" fill="#00A6DE"/>
<path d="M29.9605 13.9475C29.4877 14.6577 28.9101 15.2921 28.2473 15.8291C28.1638 15.8988 28.0968 15.9861 28.0513 16.0849C28.0057 16.1837 27.9828 16.2914 27.9842 16.4002V16.466C27.9764 17.8921 27.7144 19.3055 27.2105 20.6396C26.6912 22.0399 25.9197 23.3332 24.9342 24.4554C23.6098 25.9631 21.9062 27.0889 19.9999 27.716C18.7474 28.1225 17.4379 28.3259 16.121 28.3186C14.0319 28.3183 11.98 27.7654 10.1736 26.716C10.1089 26.6791 10.0579 26.6222 10.0285 26.5538C9.99905 26.4855 9.99272 26.4093 10.0105 26.337C10.0287 26.2658 10.0702 26.2028 10.1284 26.158C10.1866 26.1132 10.2581 26.0891 10.3315 26.0896H10.8315C12.4191 26.0935 13.9717 25.6225 15.2894 24.737C14.5041 24.6098 13.7691 24.2684 13.1655 23.7502C12.5618 23.232 12.113 22.5572 11.8684 21.8002C11.8558 21.7623 11.8536 21.7217 11.8618 21.6826C11.87 21.6436 11.8884 21.6074 11.9151 21.5777C11.9418 21.548 11.9759 21.526 12.0139 21.5137C12.0519 21.5015 12.0925 21.4995 12.1315 21.5081C12.371 21.5531 12.6141 21.576 12.8578 21.5765H12.9499C12.1909 21.2278 11.5492 20.6667 11.1023 19.961C10.6553 19.2554 10.4224 18.4354 10.4315 17.6002C10.4318 17.5611 10.4422 17.5227 10.4617 17.4889C10.4812 17.455 10.5091 17.4267 10.5428 17.4069C10.5764 17.387 10.6146 17.3762 10.6537 17.3755C10.6928 17.3747 10.7314 17.3842 10.7657 17.4028C11.0745 17.5752 11.4057 17.7036 11.7499 17.7844C11.0696 17.1112 10.6319 16.2312 10.5057 15.2825C10.3795 14.3337 10.5718 13.3699 11.0526 12.5423C11.0708 12.5105 11.0964 12.4836 11.1273 12.4639C11.1581 12.4442 11.1933 12.4323 11.2298 12.4292C11.2663 12.4261 11.303 12.4319 11.3368 12.4461C11.3705 12.4603 11.4003 12.4824 11.4236 12.5107C12.3741 13.6875 13.5513 14.6615 14.8852 15.3748C16.2192 16.0882 17.6829 16.5263 19.1894 16.6633H19.2105C19.2326 16.6627 19.2544 16.6575 19.2745 16.6482C19.2945 16.6389 19.3125 16.6256 19.3273 16.6091C19.3421 16.5926 19.3533 16.5733 19.3604 16.5523C19.3674 16.5313 19.3702 16.5091 19.3684 16.487C19.3096 15.9589 19.3435 15.4246 19.4684 14.9081C19.6382 14.206 19.9867 13.5598 20.4801 13.0323C20.9735 12.5047 21.595 12.1138 22.2842 11.8975C22.7263 11.7594 23.1867 11.6885 23.6499 11.687C24.7003 11.6858 25.7148 12.0686 26.5026 12.7633C26.6046 12.8546 26.7367 12.9052 26.8736 12.9054C26.9181 12.9045 26.9622 12.8983 27.0052 12.887C27.7454 12.7 28.4545 12.4066 29.1105 12.016C29.1497 11.9917 29.1955 11.9803 29.2415 11.9831C29.2876 11.9859 29.3316 12.0029 29.3676 12.0317C29.4037 12.0605 29.4299 12.0997 29.4427 12.144C29.4556 12.1883 29.4544 12.2355 29.4394 12.2791C29.2204 12.968 28.8302 13.5901 28.3052 14.087C28.7781 13.9743 29.2397 13.8183 29.6842 13.6212C29.728 13.6043 29.7761 13.6014 29.8216 13.6131C29.8672 13.6247 29.908 13.6502 29.9384 13.6861C29.9688 13.722 29.9872 13.7664 29.9912 13.8133C29.9951 13.8601 29.9844 13.9071 29.9605 13.9475Z" fill="white"/>
</g>
<defs>
<clipPath id="clip0_3819_1333">
<rect width="40" height="40" fill="white"/>
</clipPath>
</defs>
</svg>
