<svg width="56" height="56" viewBox="0 0 56 56" fill="none" xmlns="http://www.w3.org/2000/svg">
<circle opacity="0.2" cx="28" cy="28" r="28" fill="url(#paint0_linear_469_86515)"/>
<circle cx="27.9998" cy="28.0001" r="19.3333" fill="url(#paint1_linear_469_86515)"/>
<g clip-path="url(#clip0_469_86515)">
<path d="M33.603 26.7619L26.1968 21.6917C25.8548 21.4574 25.5102 21.3334 25.2238 21.3334C24.67 21.3334 24.3274 21.7778 24.3274 22.5218V33.48C24.3274 34.2231 24.6695 34.6667 25.222 34.6667C25.5089 34.6667 25.848 34.5426 26.1908 34.3076L33.6004 29.2375C34.0769 28.9109 34.3408 28.4714 34.3408 27.9994C34.3409 27.5278 34.08 27.0884 33.603 26.7619Z" fill="white"/>
</g>
<defs>
<linearGradient id="paint0_linear_469_86515" x1="0" y1="0" x2="65.8118" y2="16.2413" gradientUnits="userSpaceOnUse">
<stop stop-color="#01AEB9"/>
<stop offset="1" stop-color="#018C95"/>
</linearGradient>
<linearGradient id="paint1_linear_469_86515" x1="8.6665" y1="8.66675" x2="54.108" y2="19.881" gradientUnits="userSpaceOnUse">
<stop stop-color="#01AEB9"/>
<stop offset="1" stop-color="#018C95"/>
</linearGradient>
<clipPath id="clip0_469_86515">
<rect width="13.3333" height="13.3333" fill="white" transform="translate(22.6672 21.3334)"/>
</clipPath>
</defs>
</svg>
