<svg width="600" height="600" viewBox="0 0 600 600" fill="none" xmlns="http://www.w3.org/2000/svg">
<circle cx="300" cy="300" r="260" stroke="#F6DCD4" stroke-opacity="0.25" stroke-width="80"/>
<circle cx="300" cy="300" r="200" fill="#F9EDE9" stroke="white" stroke-width="80"/>
<g clip-path="url(#clip0_2617_15266)">
<path d="M129.953 392.89C126.995 396.059 126.011 400.368 124.062 403.744C122.762 405.995 122.762 405.995 120.053 407.432C119.652 406.825 119.695 406.1 119.499 404.486C118.243 406.011 117.311 406.974 116.943 408.262C113.489 414.896 109.915 421.086 106.743 427.883C104.426 432.547 100.742 435.673 98.143 440.174C97.8182 440.737 96.3658 440.649 95.3148 441.167C94.6413 437.777 96.667 435.571 97.2834 432.55L94.4649 430.923C94.2164 432.655 93.9679 434.387 93.4375 435.957C92.6253 437.364 91.4118 438.164 89.8304 440.252C92.6016 432.848 95.1673 426.452 97.4512 419.892C96.768 419.123 96.1613 419.523 95.8364 420.085C94.6993 422.055 93.7247 423.743 92.5876 425.713C91.5699 428.126 90.5522 430.54 89.5345 432.953C88.8417 434.804 87.8671 436.492 85.6456 437.085C85.2013 437.204 85.0389 437.485 84.5946 437.604C81.0735 440.448 81.0735 440.448 77.1179 440.79C77.1899 432.204 79.6792 424.637 83.6208 417.159C85.5701 413.783 86.6738 409.919 88.3413 406.38C91.5137 399.583 95.1305 392.668 98.5848 386.034C100.577 381.932 102.851 377.993 105.125 374.054C112.966 359.823 121.25 345.474 129.372 331.406C134.451 321.959 139.487 313.237 144.522 304.514C150.208 294.667 156.457 285.145 161.861 275.135C166.084 267.819 170.991 261.274 174.651 253.633C176.968 248.968 180.131 244.792 182.73 240.291C188.372 231.168 193.733 221.884 199.375 212.762C201.324 209.385 203.675 206.616 205.624 203.24C214.191 189.053 222.757 174.867 231.323 160.68C235.547 153.365 239.608 146.331 243.831 139.016C244.156 138.453 244.481 137.89 244.925 137.772C250.386 134.172 252.909 128.5 256.559 123.48C257.696 121.511 258.995 119.26 260.133 117.29C261.757 114.477 263.219 111.944 265.689 109.619C267.39 107.975 268.689 105.724 269.826 103.755C272.707 99.4157 275.708 95.5208 278.589 91.1818C280.982 87.6869 283.256 83.7479 285.65 80.253C286.3 79.1276 287.069 78.4462 288.044 76.7581C288.923 79.1412 287.102 80.3411 286.572 81.9107C286.042 83.4802 285.511 85.0497 288.091 85.7889L273.634 110.83C275.487 111.525 276.256 110.843 277.188 109.881C278.889 108.237 281.11 107.643 282.572 105.111C284.24 101.572 286.915 98.24 288.865 94.8638C290.694 91.0434 293.609 88.5994 297.65 86.8063C297.445 87.8131 297.684 88.7013 297.359 89.264C296.222 91.2335 295.247 92.9216 294.11 94.8911C293.135 96.5793 292.443 98.4301 292.194 100.162C293.885 101.139 294.535 100.013 295.022 99.1693C297.416 95.6744 300.091 92.3422 302.323 89.1286C303.135 87.7218 304.348 86.9219 306.288 86.166C305.638 87.2914 305.27 88.5796 304.62 89.705C301.209 95.6135 297.635 101.803 294.224 107.712C293.899 108.275 293.412 109.119 293.369 109.844C292.093 116.61 288.118 122.193 284.024 127.332C279.442 133.315 275.586 139.343 272.414 146.139C271.071 149.116 269.285 152.21 267.66 155.024C262.744 164.19 257.546 173.194 252.629 182.36C250.843 185.455 249.056 188.55 247.269 191.645C245.969 193.895 244.67 196.146 244.096 198.441C241.55 199.597 240.977 201.892 240.121 204.024C239.309 205.431 239.386 206.601 239.018 207.889C238.65 209.177 237.718 210.14 237.068 211.265C237.795 211.309 238.239 211.19 238.401 210.909C239.983 208.821 241.564 206.733 243.146 204.645C249.481 193.672 255.654 182.98 262.271 172.17C267.469 163.167 272.667 154.163 278.147 145.323C281.558 139.414 285.414 133.387 288.825 127.478C294.143 118.919 299.298 110.641 304.897 102.244C307.291 98.7495 309.522 95.536 312.078 91.7597C313.845 93.9056 314.323 95.6819 313.186 97.6514C310.63 101.428 309.483 106.018 306.363 109.468C306.039 110.031 305.269 110.712 305.226 111.438C304.242 115.746 301.404 119.36 299.011 122.855C298.036 124.543 296.779 126.069 297.333 129.014C298.265 128.052 299.316 127.533 299.966 126.408C302.684 122.35 304.958 118.411 307.395 114.191C308.207 112.784 308.738 111.214 310.959 110.621C310.429 112.191 310.223 113.198 310.3 114.367C310.094 115.374 310.171 116.543 309.76 118.557C312.23 116.232 313.931 114.588 315.068 112.618C318.154 107.272 321.522 102.089 324.891 96.9062C327.934 92.2859 331.259 87.8283 334.465 82.9266L336.72 84.2284C344.541 75.2386 350.432 64.3843 359.098 55.8828C359.098 55.8828 359.38 56.0455 360.106 56.0896C359.456 57.2151 359.088 58.5032 358.439 59.6286C354.464 65.2116 350.326 71.0761 346.351 76.6591C346.026 77.2218 345.821 78.2286 345.496 78.7913C344.196 81.0422 342.897 83.293 341.597 85.5439C339.486 89.2016 336.691 92.0896 335.425 96.2355C335.262 96.5168 335.219 97.2423 335.057 97.5237C331.493 101.093 329.62 105.639 327.465 110.022C325.31 114.405 322.592 118.463 320.437 122.846C319.582 124.978 318.445 126.948 317.026 128.754C316.094 129.717 315.119 131.405 316.768 133.107C317.374 132.707 317.819 132.588 318.143 132.026C323.623 123.185 329.667 114.67 334.865 105.666C338.926 98.6324 343.551 91.9239 347.894 85.0527C349.638 82.6832 350.937 80.4324 353.646 78.9952C355.022 77.9138 356.116 76.6698 357.373 75.1443C357.482 78.2088 356.302 80.9038 354.439 82.8292C349.456 88.2054 345.438 94.5139 341.864 100.704C340.89 102.392 339.633 103.917 338.659 105.605C338.009 106.731 337.197 108.138 336.829 109.426C336.666 109.707 336.905 110.595 337.469 110.921C337.751 111.084 338.759 111.29 338.921 111.009C339.528 110.609 340.297 109.928 340.622 109.365C342.246 106.551 344.315 103.619 345.939 100.806C347.076 98.8362 348.094 96.4226 347.66 93.9207C347.703 93.1953 347.746 92.4699 348.07 91.9072C349.446 90.8258 350.086 92.3208 350.975 92.0835C351.419 91.9649 351.864 91.8463 352.026 91.5649C353.565 90.2023 353.737 87.3005 357.042 88.0837C358.137 86.8397 359.393 85.3143 360.769 84.233C361.701 83.2702 362.231 81.7008 362.957 81.7449C365.742 81.4772 366.435 79.6263 367.572 77.6568C372.651 68.2092 379.421 59.7381 386.191 51.267C387.122 50.3042 387.891 49.6229 388.379 48.7788C390.232 49.4739 390.146 50.9248 389.778 52.213C389.411 53.5011 388.761 54.6265 387.949 56.0333C384.948 59.9282 382.392 63.7045 379.11 67.4366C374.409 72.9756 370.954 79.6096 366.936 85.918C363.525 91.8266 359.832 97.5723 356.421 103.481C355.771 104.606 355.566 105.613 354.428 107.583C355.924 106.945 356.65 106.989 356.975 106.427C359.813 102.813 362.369 99.0369 365.207 95.4233C368.857 90.403 372.789 85.5454 376.721 80.6878C377.046 80.1251 377.934 79.8879 378.259 79.3251C379.668 80.1388 379.463 81.1456 378.531 82.1083C375.173 84.6709 373.343 88.4913 370.667 91.8235C370.018 92.9489 369.53 93.793 369.043 94.6371C369.965 96.2948 370.973 96.5016 372.186 95.7016C374.007 94.5017 375.383 93.4204 376.639 91.895C378.177 90.5322 379.716 89.1696 380.972 87.6441C381.904 86.6815 382.955 86.1628 384.689 86.4138C386.141 86.502 387.637 85.8648 389.252 85.6716C390.379 86.3226 389.61 87.0039 389.567 87.7293C389.275 90.1871 389.275 90.187 392.744 90.6889C392.82 91.8584 392.734 93.3093 393.092 94.6415C393.818 94.6856 394.1 94.8484 394.263 94.5671C396.126 92.6417 398.152 90.4349 399.733 88.3467C404.195 81.9196 408.538 75.0485 413.001 68.6213C417.788 61.6315 423.258 55.4112 429.292 49.5164C430.386 48.2724 431.881 47.6351 433.898 48.0488C435.34 50.7574 435.775 53.2592 434.15 56.0728C432.851 58.3237 432.115 60.9 431.823 63.3577C431.575 65.0899 430.438 67.0594 429.463 68.7475C422.316 81.1272 414.203 92.5747 407.338 105.117C403.884 111.751 400.592 118.104 396.292 124.249C394.548 126.619 393.65 129.477 392.47 132.172C390.358 135.829 388.084 139.768 386.254 143.589C384.792 146.121 383.612 148.816 382.15 151.348C381.338 152.755 381.089 154.487 379.876 155.287C379.269 155.687 378.944 156.25 379.063 156.694C379.856 160.528 377.267 162.409 375.361 165.06C374.873 165.904 374.223 167.029 374.018 168.036C373.932 169.487 373.445 170.331 372.394 170.85C370.736 171.768 371.94 173.589 371.008 174.552C367.238 179.128 366.006 185.169 363.082 190.233C361.457 193.047 359.67 196.142 359.336 199.325C356.216 202.776 355.069 207.365 352.513 211.142C351.376 213.111 349.795 215.199 349.785 217.82C349.742 218.545 349.092 219.671 348.323 220.352C346.135 222.84 344.955 225.535 343.894 228.674C342.953 232.257 341.286 235.796 339.781 239.054C339.293 239.898 338.362 240.861 337.148 241.661C335.447 243.305 333.584 245.23 333.574 247.85C333.641 251.64 331.009 254.247 329.786 257.668C326.059 261.518 325.151 266.996 322.39 271.78C318.491 278.532 316.565 286.424 311.539 292.525C311.214 293.088 310.89 293.651 310.727 293.932C308.152 302.949 303.159 310.946 299.174 319.149L299.294 319.594C300.746 319.682 300.67 318.512 301.157 317.668C305.825 310.234 310.211 302.638 314.879 295.204C321.008 285.238 326.694 275.39 332.542 265.261C340.946 251.356 349.469 237.895 357.591 223.827C363.926 212.854 370.142 201.437 376.196 190.301C380.949 181.417 385.541 172.813 390.576 164.091C399.023 149.461 407.308 135.111 415.755 120.481C423.834 107.138 432.075 93.5146 440.436 80.3349C444.942 73.1823 449.848 66.6366 454.636 59.6468C456.055 57.84 457.593 56.4773 459.934 56.3282C461.625 57.3046 461.539 58.7555 461.171 60.0437C461.085 61.4946 460.555 63.0641 460.024 64.6336C456.895 70.7049 453.484 76.6133 451.08 82.7287C449.857 86.1491 447.344 89.1999 445.677 92.7389C443.847 96.5593 442.017 100.38 440.068 103.756C437.793 107.695 435.519 111.634 433.527 115.736C432.065 118.268 430.321 120.637 429.423 123.495C428.73 125.346 427.029 126.99 426.174 129.122C425.481 130.973 424.225 132.499 422.686 133.861C421.755 134.824 421.669 136.275 420.455 137.075C419.686 137.756 419.719 139.651 419.514 140.658C417.694 141.858 415.592 142.895 413.934 143.814C414.574 145.309 415.376 146.522 415.29 147.973C415.4 151.038 412.529 152.756 411.631 155.614C410.623 155.407 410.059 155.082 408.769 154.712C409.127 156.044 409.767 157.539 409.605 157.821C408.229 158.902 408.425 160.516 408.057 161.804C408.014 162.529 406.237 163.004 405.468 163.685C405.587 164.129 405.988 164.736 406.509 165.787C406.065 165.906 405.338 165.861 404.894 165.98C403.886 165.773 402.477 164.96 401.665 166.366C401.015 167.492 401.536 168.543 403.227 169.519C403.79 169.845 404.798 170.051 405.644 170.54C406.576 169.577 407.345 168.895 407.832 168.051C408.969 166.082 410.388 164.275 411.363 162.587C412.825 160.055 414.526 158.411 417.593 158.306C417.659 162.096 416.881 165.398 414.931 168.774C410.058 177.215 405.185 185.655 400.311 194.096C397.55 198.879 395.634 204.15 392.309 208.608C390.727 210.696 390.111 213.716 389.375 216.293C388.52 218.425 388.109 220.439 386.972 222.408C384.535 226.628 382.218 231.293 380.345 235.839C378.472 240.385 375.591 244.724 373.437 249.107C372.624 250.513 371.812 251.92 371.282 253.49C370.957 254.052 371.196 254.941 370.947 256.673C372.529 254.585 373.623 253.341 374.435 251.934C378.983 244.056 383.25 236.015 387.516 227.974C388.653 226.005 389.953 223.754 391.372 221.947C395.791 216.246 400.091 210.1 403.545 203.466C410.205 191.93 416.703 180.676 423.645 169.303C427.663 162.995 432.125 156.567 436.143 150.259C439.512 145.076 442.598 139.73 445.966 134.547C455.421 120.123 465.039 105.418 474.776 91.1572C477.819 86.5368 480.982 82.3606 484.025 77.7403C485.444 75.9335 486.982 74.5708 489.443 74.8659C490.647 76.6863 490.398 78.4186 489.705 80.2694C488.277 84.6966 486.284 88.7983 483.728 92.5746C481.01 96.6323 478.573 100.853 477.383 106.168C476.485 109.026 474.861 111.839 473.518 114.816C473.031 115.66 472.825 116.666 472.338 117.511C470.714 120.324 469.815 123.182 467.345 125.507C465.482 127.433 464.421 130.572 463.241 133.266C462.267 134.955 460.934 135.311 459.319 135.504C461.268 132.127 463.38 128.47 465.329 125.093L465.048 124.931C462.859 127.419 460.834 129.626 458.483 132.395C458.603 132.839 458.56 133.565 458.798 134.453C458.918 134.897 459.481 135.222 459.883 135.829C457.098 136.097 455.559 137.46 454.943 140.48C455.626 141.249 456.309 142.019 457.393 143.395C455.898 144.033 454.847 144.551 453.634 145.351C453.872 146.239 454.556 147.009 454.794 147.897C454.102 149.748 453.008 150.992 451.35 151.911C448.522 152.904 446.376 154.666 445.598 157.968C445.435 158.249 445.717 158.412 445.555 158.694C444.623 159.656 442.726 159.687 442.922 161.3C442.998 162.47 442.912 163.921 442.989 165.09C442.903 166.541 442.253 167.667 441.603 168.792C440.022 170.88 438.722 173.131 439.439 175.796C439.678 176.684 439.028 177.809 438.822 178.816C437.652 178.89 436.362 178.521 435.593 179.202C434.542 179.721 434.174 181.009 433.524 182.134C431.9 184.948 430.113 188.043 427.925 190.531C426.993 191.494 427.189 193.107 426.582 193.507C423.993 195.389 423.94 198.735 421.795 200.497C419.932 202.423 419.803 204.599 418.503 206.85C419.468 207.782 420.433 208.714 421.518 210.091C420.142 211.172 419.329 212.579 417.996 212.935C416.945 213.453 415.374 212.921 414.084 212.551C411.127 215.721 414.834 217.111 415.995 219.657C414.38 219.85 412.765 220.043 411.595 220.118L411.27 220.68C411.867 222.901 412.02 225.24 409.311 226.677C408.704 227.077 408.054 228.203 408.174 228.647C408.89 231.311 407.232 232.23 405.694 233.592C404.318 234.674 403.105 235.474 402.173 236.436C401.404 237.118 401.036 238.406 401.437 239.013C402.316 241.396 401.179 243.365 399.641 244.728C397.94 246.372 396.401 247.735 396.554 250.074C396.554 250.074 396.674 250.518 396.229 250.637C391.452 255.006 391.022 262.26 386.526 266.793C385.757 267.474 385.551 268.481 385.064 269.325C384.209 271.457 383.191 273.871 382.054 275.84C379.412 281.067 376.325 286.413 373.401 291.477C368.648 300.362 363.894 309.247 358.977 318.413C357.353 321.227 356.173 323.922 353.985 326.41C352.891 327.654 351.916 329.342 351.668 331.074C350.401 335.22 348.008 338.715 346.34 342.254C345.366 343.942 344.673 345.793 343.98 347.644C342.843 349.614 342.27 351.908 341.013 353.434C339.107 356.085 337.927 358.78 337.148 362.081C336.737 364.095 336.044 365.946 335.07 367.634C333.727 370.61 332.222 373.868 330.598 376.682C330.273 377.244 330.067 378.251 329.742 378.814C326.742 382.709 325.595 387.299 322.877 391.356C320.158 395.414 318.285 399.96 315.447 403.573C307.053 414.858 300.914 427.445 293.809 439.099C292.185 441.912 290.116 444.845 288.492 447.658C287.842 448.784 287.073 449.465 286.705 450.753C283.609 458.719 278.984 465.428 274.761 472.743C274.111 473.868 273.905 474.875 273.819 476.326C274.794 474.638 275.888 473.394 276.863 471.706C282.462 463.309 288.062 454.913 293.379 446.353C296.422 441.733 298.902 436.787 301.664 432.004C309.136 419.062 317.053 406.001 324.243 392.895C329.604 383.611 334.4 374 339.479 364.553C344.395 355.387 349.03 346.058 353.664 336.729C357.443 329.532 360.941 322.173 364.72 314.976C367.849 308.905 371.261 302.996 374.39 296.925C378.982 288.322 383.573 279.718 388.164 271.115C391.294 265.044 394.586 258.691 397.715 252.62C400.682 246.83 404.05 241.647 407.7 236.626C409.769 233.694 411.274 230.437 413.906 227.83C416.095 225.342 417.6 222.084 419.224 219.271C420.796 219.803 420.308 220.647 419.984 221.21C415.674 229.976 411.083 238.579 406.773 247.345C403.319 253.979 400.591 260.657 397.136 267.291C388.885 283.536 380.352 299.617 371.982 315.417C366.21 326.716 360.439 338.014 354.505 349.594C352.35 353.977 350.596 358.967 347.878 363.024C344.553 367.482 342.073 372.428 339.311 377.211C334.926 384.807 330.821 392.567 326.436 400.164C317.501 415.638 308.285 430.95 298.907 446.543C293.059 456.672 287.211 466.801 280.919 477.049C273.327 489.547 265.453 501.883 257.742 513.937C254.536 518.839 250.886 523.859 248.526 529.249C244.823 537.615 240.437 545.212 235.889 553.09C233.777 556.747 231.426 559.517 226.821 560.984C226.42 560.378 226.181 559.489 225.498 558.72C224.413 557.343 222.799 557.537 221.867 558.499C221.055 559.906 220.08 561.594 219.106 563.282C217.438 566.821 215.326 570.479 212.531 573.367C211.925 573.767 211.6 574.33 211.437 574.611C207.505 579.469 204.591 581.913 201.514 584.638C201.925 582.625 202.293 581.336 202.824 579.767C203.516 577.916 203.884 576.628 202.843 574.526C202.322 573.475 202.853 571.906 202.939 570.455C203.144 569.448 203.512 568.16 203.436 566.99C203.001 564.488 204.301 562.238 205.438 560.268C208.567 554.197 211.415 547.963 214.382 542.173C214.869 541.329 215.074 540.322 215.562 539.478C209.633 538.681 207.325 540.725 204.932 544.22C203.35 546.308 202.333 548.722 201.033 550.973C200.059 552.661 199.084 554.349 197.144 555.105C195.649 555.742 194.956 557.593 193.982 559.281C192.032 562.657 190.083 566.034 187.971 569.691C187.083 569.928 186.562 568.878 186.767 567.871C187.46 566.02 188.153 564.169 188.846 562.318C190.026 559.623 192.052 557.416 191.378 554.026C191.139 553.138 192.233 551.894 192.601 550.606C193.456 548.474 194.312 546.342 195.654 543.365C194.321 543.721 193.595 543.677 192.988 544.077C192.544 544.196 192.664 544.64 192.057 545.04C190.681 546.121 188.861 547.321 187.604 548.846C186.51 550.091 185.817 551.941 185.005 553.348C184.843 553.63 184.518 554.192 184.074 554.311C183.304 554.992 182.492 556.399 181.083 555.585C179.674 554.772 180.323 553.646 180.691 552.358C181.222 550.789 182.478 549.263 181.599 546.88C180.505 548.124 179.573 549.087 178.642 550.049C177.873 550.731 176.941 551.694 175.89 552.212C174.232 553.131 172.422 551.71 172.67 549.978C172.919 548.246 173.167 546.514 174.142 544.825C177.759 537.91 181.538 530.713 185.317 523.517C188.284 517.727 191.37 512.381 194.825 505.747C191.953 507.466 190.816 509.435 189.679 511.405C186.43 517.032 182.336 522.171 178.241 527.31C173.689 525.432 173.168 524.381 174.152 520.072C176.154 513.35 177.994 506.909 179.996 500.187C178.868 499.536 178.381 500.38 178.056 500.943C171.645 510.746 165.233 520.55 159.103 530.516C156.667 534.736 155.238 539.163 153.083 543.546C152.066 545.96 151.048 548.374 150.03 550.787C149.175 552.919 147.918 554.445 145.936 555.926C142.716 553.692 139.496 551.458 135.994 549.061C136.123 546.885 136.253 544.708 136.544 542.251C135.092 542.162 134.084 541.956 132.631 541.867C132.034 539.647 131.882 537.308 131.447 534.806C130.601 534.318 129.593 534.111 128.748 533.623C126.937 532.202 126.861 531.033 127.434 528.738C127.802 527.45 128.289 526.606 128.657 525.317C131.018 519.928 133.215 514.819 135.576 509.429C135.9 508.866 136.268 507.578 135.987 507.416C134.1 504.826 135.399 502.575 136.417 500.161C140.726 491.395 144.754 482.466 149.064 473.7C151.056 469.598 153.048 465.496 155.041 461.395C155.528 460.551 155.571 459.825 155.819 458.093C153.273 459.249 152.58 461.1 152.05 462.669C149.159 469.629 144.979 476.218 141.524 482.852C139.207 487.517 136.89 492.181 134.855 497.008C131.802 504.249 128.586 511.771 125.533 519.012C124.84 520.863 123.866 522.551 121.883 524.032C121.143 516.852 125.237 511.713 126.957 504.829C125.462 505.466 124.573 505.703 124.249 506.266C123.112 508.235 121.812 510.486 120.957 512.618C120.145 514.025 119.495 515.151 118.683 516.557C116.948 516.306 117.154 515.3 117.197 514.574C117.684 513.73 117.89 512.723 118.377 511.879C120.661 505.32 123.064 499.205 125.63 492.808C126.647 490.394 127.785 488.425 128.965 485.73C126.461 486.16 127.297 489.269 124.794 489.699C124.326 485.302 127.608 481.57 127.422 477.336C126.132 476.967 126.208 478.136 126.046 478.418C122.104 485.896 118.282 493.818 114.341 501.296C113.691 502.421 112.759 503.384 111.828 504.347C110.581 503.252 109.616 502.319 110.146 500.75C110.676 499.18 110.762 497.729 111.293 496.16C113.328 491.333 116.09 486.55 118.287 481.441C119.955 477.902 121.46 474.644 122.846 470.943C125.086 465.109 128.053 459.319 131.02 453.529C132.2 450.834 133.944 448.464 133.151 444.63C130.877 448.569 128.321 452.346 126.209 456.003C125.722 456.847 125.798 458.017 125.755 458.742C125.421 461.925 124.241 464.62 121.933 466.664C119.626 468.708 118.164 471.241 116.984 473.936C115.479 477.193 113.974 480.451 112.306 483.99C110.82 482.007 112.359 480.644 112.445 479.193C112.531 477.742 113.061 476.173 113.472 474.159C112.584 474.396 111.977 474.796 111.814 475.078C110.19 477.891 108.284 480.542 107.949 483.725C107.701 485.458 106.325 486.539 104.146 486.407C104.189 485.681 104.232 484.956 104.275 484.23C107.816 476.145 111.237 467.616 114.777 459.532C117.462 453.579 120.711 447.952 123.84 441.881C124.328 441.037 124.815 440.193 125.302 439.348C128.637 432.27 132.135 424.911 135.751 417.996C137.051 415.745 138.35 413.494 139.086 410.918C138.599 411.762 137.83 412.443 137.342 413.287C130.52 425.104 124.261 437.247 117.84 449.67C116.703 451.64 116.01 453.491 115.155 455.623C114.094 458.762 111.786 460.806 108.872 463.25C108.351 462.199 107.95 461.592 107.993 460.867C108.404 458.853 109.097 457.002 109.79 455.152C113.125 448.074 116.459 440.996 119.794 433.918C120.444 432.792 120.65 431.785 121.624 430.097C120.855 430.778 120.411 430.897 119.966 431.016C115.805 432.365 114.506 434.616 112.881 437.429C109.222 445.07 105.399 452.992 101.458 460.47C100.278 463.165 99.0975 465.86 97.9173 468.555C97.0621 470.687 96.0875 472.375 94.3867 474.019C95.6098 470.599 96.6705 467.46 98.1755 464.202C98.7059 462.633 99.5181 461.226 99.6041 459.775C99.7762 456.873 100.794 454.46 101.974 451.765C104.822 445.531 108.113 439.178 110.961 432.944C111.979 430.531 112.996 428.117 114.014 425.703C119.093 416.256 123.044 406.157 128.686 397.035C129.174 396.191 129.661 395.347 129.867 394.34C130.311 394.222 129.91 393.615 129.953 392.89C129.833 392.445 129.996 392.164 130.158 391.883C129.833 392.445 129.833 392.445 129.953 392.89ZM104.326 404.729C101.488 408.343 100.676 409.75 99.3671 414.621C101.436 411.689 103.505 408.757 104.326 404.729ZM390.848 189.007C392.744 188.977 392.744 188.977 395.95 184.075C394.498 183.987 393.772 183.943 392.319 183.855C393.6 186.845 393.6 186.845 390.848 189.007ZM366.447 131.028L370.671 123.713C369.089 125.801 367.107 127.282 366.447 131.028ZM274.98 358.451C275.262 358.614 275.262 358.614 275.544 358.777C276.194 357.651 277.006 356.244 277.656 355.119C277.656 355.119 277.536 354.675 277.255 354.512L274.98 358.451ZM145.394 363.54L144.831 363.215L142.881 366.591L143.163 366.754L145.112 363.377L145.394 363.54ZM361.584 136.848C361.866 137.011 361.866 137.011 362.147 137.174C362.635 136.33 362.96 135.767 363.447 134.923L363.328 134.479L362.883 134.597C362.558 135.16 362.071 136.004 361.584 136.848ZM395.602 180.122C396.653 179.604 397.259 179.204 398.148 178.967C397.866 178.804 397.909 178.078 397.465 178.197C396.457 177.99 395.688 178.672 395.602 180.122ZM267.974 420.056C268.094 420.5 267.931 420.782 268.051 421.226C268.495 421.107 268.82 420.544 269.264 420.426C269.427 420.145 269.145 419.982 269.025 419.538L267.974 420.056ZM156.999 455.398L157.444 455.279C157.606 454.998 157.606 454.998 157.769 454.717C157.487 454.554 157.324 454.835 157.043 454.672C156.88 454.954 156.999 455.398 156.999 455.398ZM387.871 197.418C387.145 197.373 386.863 197.211 386.863 197.211C386.701 197.492 386.538 197.773 386.658 198.217C386.658 198.217 387.221 198.543 387.503 198.706L388.153 197.58L387.871 197.418ZM414.82 209.975C414.657 210.257 414.777 210.701 414.614 210.982C414.896 211.145 415.34 211.026 415.622 211.189C415.785 210.907 415.665 210.463 415.546 210.019L414.82 209.975ZM359.997 271.734C360.279 271.897 360.279 271.897 360.561 272.059L360.441 271.615C360.279 271.897 359.997 271.734 359.997 271.734ZM271.137 415.88L271.581 415.761L271.137 415.88ZM380.117 210.197C379.954 210.479 379.51 210.597 379.348 210.879L379.467 211.323C379.911 211.204 380.356 211.085 380.356 211.085C380.518 210.804 380.399 210.36 380.117 210.197ZM247.475 409.347C247.475 409.347 247.637 409.065 247.356 408.902L246.911 409.021C246.911 409.021 246.749 409.302 247.031 409.465C247.313 409.628 247.313 409.628 247.475 409.347ZM443.915 296.925C443.461 299.664 441.154 301.708 439.854 303.959C439.367 304.803 438.034 305.159 436.983 305.678C437.222 306.566 437.46 307.454 437.537 308.623C436.768 309.305 435.836 310.267 434.666 310.342C432.888 310.817 431.914 312.505 430.82 313.749C429.563 315.274 429.358 316.281 430.28 317.939C429.272 317.732 428.545 317.688 427.819 317.644C427.375 317.762 427.169 318.769 427.289 319.213C428.765 323.817 425.449 325.654 422.698 327.817C422.091 328.217 421.083 328.01 420.476 328.41C418.981 329.047 418.57 331.061 419.21 332.556C419.85 334.051 420.772 335.708 421.293 336.759C417.026 344.8 410.992 350.695 407.332 358.336C405.178 362.719 402.741 366.939 399.177 370.508C398.083 371.752 396.826 373.278 397.586 375.217C397.825 376.105 396.893 377.068 396.286 377.468C395.355 378.43 394.141 379.23 393.21 380.193C392.44 380.874 392.235 381.881 393.2 382.814C393.883 383.583 395.66 383.109 396.31 381.983C396.797 381.139 397.003 380.132 397.49 379.288C398.302 377.881 399.559 376.356 400.371 374.949C401.661 375.319 401.9 376.207 401.131 376.888C395.694 385.004 391.384 393.77 385.383 401.56C384.452 402.522 383.921 404.092 383.272 405.217C380.673 409.719 378.355 414.383 375.756 418.885C369.746 429.295 363.573 439.987 358.408 450.885C355.604 456.394 352.236 461.577 349.149 466.923C347.2 470.299 344.969 473.513 343.139 477.333C339.078 484.367 335.299 491.563 330.956 498.435C328.194 503.218 325.433 508.001 324.525 513.479C323.378 518.069 321.505 522.615 320.076 527.042C319.546 528.611 319.016 530.181 320.382 531.72C321.347 532.652 320.296 533.171 319.971 533.734C318.91 536.873 318.012 539.73 317.114 542.588C315.848 546.734 314.462 550.436 312.914 554.419C312.059 556.551 310.802 558.076 308.418 558.951C306.89 557.693 306.13 555.754 306.541 553.74C307.655 547.256 309.05 540.933 310.163 534.448C309.198 533.516 308.83 534.804 308.505 535.367C307.899 535.767 307.574 536.33 307.411 536.611C305.018 540.106 302.744 544.045 301.195 548.028C300.794 547.421 300.111 546.652 300.436 546.089C301.984 542.106 303.651 538.567 305.481 534.747C307.636 530.363 309.953 525.699 312.108 521.316C312.758 520.19 312.963 519.184 313.331 517.896C314.11 514.594 314.607 511.129 314.942 507.946C314.985 507.221 315.028 506.495 314.789 505.607C313.055 505.356 312.969 506.807 312.644 507.37C311.301 510.346 310.121 513.041 307.087 515.041C306.036 515.559 305.062 517.248 304.856 518.254C303.428 522.682 301.196 525.895 297.795 529.183C294.231 532.753 291.512 536.81 289.759 541.8C287.15 548.922 282.85 555.068 278.106 561.333C276.687 563.139 275.268 564.946 273.969 567.197C273.156 568.604 272.062 569.848 271.131 570.81C270.361 571.492 269.592 572.173 269.105 573.017C267.351 578.007 263.061 581.532 261.59 586.685C260.18 585.871 259.053 585.221 257.925 584.57C256.636 584.2 255.346 583.83 253.893 583.742C254.338 583.624 254.381 582.898 254.868 582.054C255.68 580.647 256.373 578.796 257.348 577.108C260.477 571.037 260.477 571.037 260.549 562.45C257.668 566.789 255.394 570.728 253.12 574.667C251.008 578.325 249.016 582.427 246.904 586.084C245.442 588.617 243.98 591.149 241.391 593.03C240.177 593.83 239.484 595.681 238.835 596.806C238.022 598.213 237.21 599.62 236.398 601.027C235.39 600.82 235.108 600.657 234.544 600.332C233.981 600.006 233.861 599.562 233.178 598.793C234.033 596.66 234.889 594.528 235.462 592.233C236.317 590.101 236.728 588.087 237.302 585.792C235.892 584.979 234.602 584.609 233.193 583.796C235.878 577.843 238.563 571.89 241.086 566.219L240.804 566.056L235.606 575.06C234.034 574.527 232.744 574.158 231.736 573.951C230.934 572.737 231.703 572.056 232.19 571.212C239.424 557.381 246.657 543.551 255.42 530.978C257.163 528.608 258.181 526.195 259.643 523.663C262.524 519.324 265.405 514.985 268.004 510.483C269.466 507.951 270.928 505.419 272.39 502.886C273.202 501.48 274.014 500.073 274.827 498.666C281.238 488.863 286.804 478.571 292.37 468.279C294.157 465.184 295.662 461.927 295.151 458.255C295.032 457.811 295.356 457.249 295.356 457.249C298.065 455.811 297.674 452.584 298.811 450.615C300.923 446.957 302.915 442.855 305.308 439.36C311.677 430.282 316.474 420.672 321.997 411.106C325.408 405.198 328.939 399.733 332.632 393.987C333.932 391.736 333.941 389.116 336.65 387.679C336.65 387.679 336.813 387.397 336.975 387.116C336.832 382.157 340.96 378.913 342.508 374.93C342.833 374.367 343.32 373.523 344.49 373.448L339.779 381.608C341.471 382.584 342.402 381.621 342.89 380.777C345.661 373.374 349.841 366.784 354.304 360.357C355.441 358.387 356.133 356.536 357.271 354.567C359.22 351.191 361.169 347.814 363.563 344.319C364.375 342.913 365.469 341.669 365.999 340.099C374.37 324.299 382.578 308.78 390.949 292.98C397.37 280.556 403.791 268.132 410.212 255.709C413.342 249.637 416.916 243.448 420.045 237.376C422.037 233.275 424.03 229.173 426.304 225.234C427.603 222.983 428.74 221.013 430.604 219.088C432.013 219.902 431.081 220.864 430.756 221.427C424.173 234.132 417.589 246.837 410.723 259.38C407.107 266.295 403.208 273.048 399.873 280.126C396.17 288.492 391.34 296.207 386.911 304.529C386.749 304.811 386.868 305.255 386.543 305.818C387.064 306.868 387.79 306.913 388.278 306.069C390.877 301.567 393.356 296.621 395.955 292.119C397.255 289.868 399.118 287.943 400.699 285.855C402.725 283.648 404.307 281.56 405.487 278.865C409.233 269.773 413.704 260.726 418.578 252.285C419.39 250.878 419.92 249.309 420.733 247.902C423.829 239.936 427.77 232.458 431.874 224.698C433.174 222.448 434.593 220.641 436.294 218.997C437.388 217.753 439.327 216.997 438.893 214.495C438.773 214.051 439.098 213.488 439.261 213.207C441.406 211.444 442.022 208.424 443.603 206.336C446.441 202.722 447.87 198.295 450.144 194.356C454.649 187.203 458.71 180.169 462.934 172.854C463.259 172.292 463.703 172.173 464.31 171.773C464.874 172.098 465.882 172.305 466.445 172.631C468.385 171.875 469.164 168.573 472.188 169.194C472.47 169.356 473.401 168.394 473.889 167.549C476.12 164.336 478.633 161.285 480.745 157.627C484.481 151.156 488.336 145.129 492.918 139.146C496.688 134.57 499.492 129.061 502.134 123.834C504.084 120.458 505.307 117.037 506.974 113.498C507.992 111.085 508.274 111.248 511.666 110.58C512.707 112.682 511.852 114.814 510.996 116.946C509.816 119.641 508.636 122.336 507.456 125.031C506.438 127.445 505.54 130.302 504.241 132.553C502.898 135.529 501.154 137.899 499.53 140.713C499.769 141.601 499.845 142.77 499.64 143.777C498.741 146.635 497.561 149.33 496.099 151.862C492.038 158.896 488.823 166.418 485.044 173.615C480.29 182.499 475.135 190.777 470.099 199.499C468.637 202.032 467.175 204.564 465.269 207.215C463.2 210.147 460.849 212.916 458.781 215.849C455.9 220.188 452.737 224.364 450.138 228.866C446.564 235.055 443.272 241.408 439.699 247.598C437.587 251.256 435.193 254.75 433.082 258.408C429.952 264.479 426.942 270.995 424.095 277.229C422.265 281.049 420.272 285.151 418.161 288.808C412.552 299.825 406.661 310.68 400.77 321.534C399.795 323.222 398.82 324.91 397.282 326.273C394.487 329.161 392.538 332.537 391.998 336.727C391.792 337.734 391.587 338.741 391.1 339.585C388.945 343.968 386.671 347.907 383.67 351.802C382.576 353.046 381.602 354.734 381.071 356.304C380.378 358.155 380.813 360.656 378.267 361.812C377.822 361.931 377.736 363.382 377.411 363.944C376.556 366.077 375.863 367.928 374.444 369.734C371.931 372.785 370.546 376.487 368.434 380.145C367.622 381.551 368.305 382.321 369.552 383.416C370.765 382.616 371.578 381.209 372.227 380.084C378.118 369.229 384.009 358.375 389.9 347.521C392.337 343.3 394.654 338.636 396.809 334.253C397.458 333.127 398.271 331.721 399.202 330.758C401.672 328.433 403.459 325.338 403.794 322.155C404.205 320.141 404.897 318.29 405.872 316.602C409.164 310.249 412.738 304.059 416.03 297.707C418.953 292.642 421.715 287.859 424.075 282.469C426.923 276.235 429.933 269.72 434.753 264.625C435.36 264.225 435.847 263.381 436.172 262.819C440.114 255.341 444.218 247.581 448.441 240.266C451.041 235.764 453.921 231.425 456.521 226.923C457.495 225.235 458.188 223.384 459.163 221.696C460.462 219.445 461.48 217.032 462.779 214.781C469.602 202.964 476.262 191.428 483.085 179.611C484.222 177.642 485.239 175.228 486.539 172.977C487.752 172.177 489.41 171.259 491.23 170.059C493.442 172.086 493.313 174.262 491.851 176.795C489.902 180.171 488.397 183.429 486.61 186.524C487.413 187.737 488.019 187.337 488.507 186.493C490.456 183.117 493.251 180.229 493.791 176.039C494.202 174.025 495.74 172.663 498.492 170.5C498.157 173.683 498.592 176.185 497.13 178.717C493.762 183.9 491.239 189.571 487.025 194.266C486.7 194.829 485.931 195.51 485.888 196.236C485.229 199.982 482.716 203.032 480.766 206.409C475.85 215.575 470.088 224.253 465.736 233.744C462.195 241.829 457.083 249.382 452.817 257.423C451.355 259.955 450.175 262.65 448.995 265.345C448.02 267.033 447.327 268.884 446.353 270.572C442.616 277.043 439.043 283.233 435.588 289.867C438.46 288.148 439.52 285.009 441.427 282.358C445.683 276.938 447.404 270.053 451.259 264.026C453.328 261.094 454.833 257.836 456.902 254.904C457.389 254.06 459.004 253.867 460.217 253.067C460.141 251.897 460.064 250.728 460.27 249.721C460.475 248.714 461.245 248.033 461.732 247.189C464.211 242.243 468.545 237.992 469.897 232.395C472.204 230.351 473.265 227.212 475.453 224.724C478.411 221.555 480.685 217.616 483.078 214.121C486.241 209.945 489.566 205.487 492.729 201.311C493.379 200.185 494.029 199.06 495.123 197.816C496.379 196.29 497.354 194.602 498.892 193.24C500.268 192.158 501.362 190.914 502.337 189.226C502.824 188.382 503.474 187.257 504.363 187.019C507.31 186.47 507.884 184.175 508.739 182.043C508.944 181.036 509.876 180.074 510.808 179.111C512.227 177.304 513.483 175.779 515.021 174.416C515.791 173.735 516.842 173.216 518.456 173.023C517.969 173.867 517.926 174.593 517.157 175.274C514.481 178.606 511.968 181.657 509.293 184.989C508.968 185.552 508.361 185.952 508.199 186.233C506.608 190.942 502.643 193.904 500.206 198.125C499.394 199.531 498.701 201.382 496.479 201.975C496.035 202.094 495.71 202.657 495.667 203.382C495.571 207.454 492.495 210.179 490.426 213.111C489.332 214.355 488.075 215.881 487.263 217.287C484.382 221.626 481.339 226.247 478.458 230.586C477.158 232.836 475.978 235.531 474.115 237.457C472.252 239.382 472.242 242.003 470.943 244.254C469.643 246.504 469.027 249.525 467.727 251.776C465.897 255.596 463.666 258.81 461.23 263.03C461.187 263.755 461.827 265.25 461.296 266.82C460.928 268.108 459.552 269.189 458.458 270.433C456.39 273.366 453.074 275.203 452.415 278.949C452.534 279.393 450.757 279.867 449.868 280.104C450.107 280.993 450.346 281.881 450.585 282.769C450.336 284.501 448.363 283.362 447.269 284.606C447.064 285.613 447.097 287.508 446.447 288.633C445.635 290.04 444.541 291.284 443.328 292.084C444.488 294.63 444.283 295.637 443.915 296.925C443.633 296.762 443.232 296.156 442.95 295.993C443.514 296.318 443.796 296.481 443.915 296.925ZM301.618 499.128C298.833 499.396 297.815 501.809 296.678 503.779C295.66 506.193 294.805 508.325 295.76 511.878C296.41 510.752 297.179 510.071 297.504 509.508C297.633 507.332 298.89 505.806 300.146 504.281C301.078 503.318 301.565 502.474 302.215 501.349C306.926 493.189 311.918 485.193 316.467 477.315C318.579 473.657 320.853 469.718 323.008 465.335C321.23 465.809 320.179 466.328 319.291 466.565C318.273 468.979 317.7 471.274 316.844 473.406C316.682 473.687 316.075 474.087 316.075 474.087C314.384 473.111 313.854 474.681 313.648 475.687C312.143 478.945 309.229 481.389 309.133 485.46C308.971 485.742 308.808 486.023 308.646 486.304C305.689 489.474 304.021 493.013 301.909 496.671C301.585 497.233 301.661 498.403 301.618 499.128ZM266.374 525.673C262.409 528.636 260.135 532.575 257.861 536.514C255.586 540.453 253.03 544.229 251.038 548.331C248.926 551.988 246.088 555.602 245.104 559.911C252.046 548.538 259.432 537.046 266.374 525.673ZM368.849 387.887C367.841 387.68 367.115 387.636 365.825 387.267C365.816 389.887 365.405 391.901 363.422 393.382C362.815 393.782 362.328 394.626 362.003 395.189C361.841 395.47 362.08 396.358 362.199 396.802C362.882 397.572 363.771 397.335 364.096 396.772C366.284 394.284 368.352 391.352 368.849 387.887ZM487.294 165.16C490.662 159.977 494.107 155.964 495.502 149.641C491.852 154.662 488.126 158.513 487.294 165.16ZM290.83 513.908L288.556 517.847C289.401 518.335 290.128 518.379 290.973 518.867C291.948 517.179 294.05 516.142 293.735 514.084C292.727 513.877 291.556 513.952 290.83 513.908ZM480.07 176.37C483.993 174.133 484.317 173.57 483.969 169.618L480.07 176.37ZM472.631 191.208C473.682 190.689 474.614 189.726 474.256 188.394L472.631 191.208ZM415.474 339.027C415.593 339.471 415.431 339.752 415.713 339.915C415.994 340.078 416.439 339.959 416.721 340.122L416.644 338.952C415.918 338.908 415.918 338.908 415.474 339.027ZM380.572 404.034C381.504 403.071 381.948 402.953 382.273 402.39C382.273 402.39 382.154 401.946 382.034 401.502L381.59 401.62C381.265 402.183 381.222 402.909 380.572 404.034ZM461.492 268.433C461.655 268.152 462.099 268.033 462.261 267.752C461.979 267.589 461.86 267.145 461.578 266.983L461.134 267.101C461.535 267.708 461.655 268.152 461.492 268.433ZM410.276 348.03L410.113 348.312C410.113 348.312 410.395 348.474 410.233 348.756C410.233 348.756 410.395 348.474 410.677 348.637C410.557 348.193 410.276 348.03 410.276 348.03ZM461.94 300.204C463.349 301.018 464.639 301.387 465.614 299.699C466.751 297.73 468.05 295.479 469.187 293.509C470.162 291.821 470.855 289.97 471.829 288.282C472.154 287.719 472.642 286.875 473.248 286.475C478.222 283.719 480.701 278.774 483.301 274.272C490.199 263.625 497.944 253.465 505.407 243.143C506.826 241.336 507.518 239.486 508.937 237.679C513.443 230.526 517.786 223.655 522.573 216.665C522.898 216.103 523.342 215.984 523.667 215.421C524.957 215.791 524.914 216.516 524.426 217.36C522.477 220.737 520.81 224.276 518.698 227.933C517.073 230.747 516.295 234.049 515.516 237.35C514.737 240.652 514.522 244.279 512.735 247.374C512.41 247.937 512.205 248.944 512.606 249.551C513.604 252.378 512.185 254.185 511.048 256.154C506.586 262.581 502.243 269.452 497.781 275.88C497.131 277.005 496.037 278.249 495.669 279.537C495.182 280.381 495.42 281.269 495.497 282.439C497.838 282.29 498.65 280.883 499.462 279.476C504.412 272.205 509.925 265.259 514.593 257.825C517.474 253.487 520.594 250.036 523.876 246.304C528.252 241.327 532.509 235.907 536.202 230.161C536.527 229.599 537.134 229.199 537.296 228.917C540.201 229.094 540.201 229.094 542.608 232.734C539.403 237.636 536.197 242.538 532.991 247.44C530.597 250.935 527.759 254.548 526.493 258.694C526.288 259.701 525.519 260.382 524.749 261.063C522.074 264.396 519.398 267.728 517.97 272.155C517.764 273.162 516.551 273.962 515.901 275.087C515.251 276.213 514.482 276.894 514.114 278.182C513.498 281.202 511.635 283.128 509.49 284.891C506.9 286.772 504.755 288.534 505.266 292.206C505.505 293.094 504.573 294.057 504.086 294.901C502.137 298.277 499.624 301.328 496.829 304.216C494.359 306.541 491.444 308.985 491.793 312.938C491.912 313.382 491.143 314.063 490.981 314.345C488.1 318.684 485.501 323.186 482.62 327.525C481.808 328.931 480.996 330.338 479.901 331.582C475.157 337.847 471.378 345.043 466.753 351.752C461.436 360.311 455.999 368.426 450.399 376.823C450.075 377.386 449.75 377.948 449.425 378.511C445.765 386.152 440.252 393.098 436.028 400.413C431.805 407.728 427.137 415.162 422.913 422.477C416.091 434.294 408.824 446.23 402.283 458.21C395.136 470.589 388.552 483.295 381.687 495.837C377.626 502.871 373.727 509.624 369.666 516.657C365.237 524.98 360.646 533.583 355.935 541.742C354.473 544.275 353.173 546.525 351.711 549.058C347.12 557.661 342.528 566.265 337.937 574.868C336.8 576.838 335.945 578.97 333.16 579.237C332.195 578.305 331.11 576.929 330.145 575.996C329.18 575.064 327.89 574.695 326.481 573.881C325.884 571.661 327.021 569.691 327.432 567.677C327.962 566.108 328.33 564.82 327.853 563.043C327.614 562.155 328.144 560.586 328.631 559.742C329.768 557.772 330.906 555.803 331.24 552.62C329.3 553.375 328.933 554.664 328.001 555.626C327.351 556.752 326.582 557.433 325.607 559.121C324.447 556.575 323.849 554.355 322.971 551.972C323.143 549.07 326.816 548.565 326.587 545.056C325.699 545.294 325.254 545.412 324.648 545.812C323.272 546.894 323.262 549.514 320.596 550.226C320.357 549.338 319.956 548.731 320.281 548.168C320.486 547.161 320.692 546.154 321.179 545.31C324.796 538.395 328.293 531.036 331.91 524.12C332.56 522.995 332.928 521.707 333.296 520.419C333.501 519.412 333.425 518.242 333.391 516.347C332.46 517.31 331.246 518.11 330.315 519.073C329.068 517.978 329.555 517.134 329.761 516.127C333.54 508.93 335.91 500.92 341.098 494.537C341.261 494.255 341.423 493.974 341.748 493.411C347.075 482.232 353.53 471.703 359.139 460.686C364.055 451.52 368.971 442.353 373.888 433.187C376.974 427.841 380.342 422.658 383.711 417.475C385.66 414.099 387.447 411.004 389.396 407.628C390.533 405.658 391.508 403.97 392.927 402.163C395.277 399.394 397.346 396.462 399.133 393.367C403.075 385.889 408.144 379.062 412.53 371.465C418.865 360.492 426.327 350.17 433.226 339.523C439.519 329.275 446.494 319.797 453.068 309.712C455.786 305.655 458.342 301.878 461.061 297.821C461.548 296.977 462.317 296.295 462.805 295.451C463.813 295.658 464.376 295.984 465.222 296.472C464.171 296.99 464.324 299.33 461.94 300.204C459.016 305.268 455.691 309.726 452.767 314.79C452.442 315.353 451.467 317.041 453.765 317.618C456.364 313.116 459.126 308.333 461.887 303.55C462.375 302.706 462.016 301.374 461.94 300.204ZM415.63 373.255C419.227 371.581 419.161 367.791 421.067 365.14C419.161 367.791 417.536 370.604 415.63 373.255ZM361.136 466.34L357.562 472.53C358.981 470.723 361.527 469.567 361.136 466.34ZM405.559 390.699C403.576 392.18 402.439 394.15 401.703 396.726C403.003 394.475 404.421 392.669 405.559 390.699ZM440.832 334.16C443.097 332.841 443.097 332.841 444.482 329.14C443.226 330.665 442.251 332.353 440.832 334.16ZM353.458 480.289C353.176 480.127 353.176 480.127 352.894 479.964C352.569 480.527 352.407 480.808 352.082 481.371C352.689 480.971 353.133 480.852 353.458 480.289ZM394.068 409.95C393.786 409.787 393.786 409.787 394.068 409.95C393.461 410.35 393.137 410.913 392.812 411.476L393.094 411.638L394.068 409.95ZM430.522 350.716C430.804 350.879 431.086 351.041 431.086 351.041C431.411 350.479 431.454 349.753 431.778 349.191L431.497 349.028L430.522 350.716ZM338.676 505.893L338.795 506.337C339.239 506.218 339.239 506.218 339.684 506.1L339.564 505.656C339.12 505.774 338.838 505.612 338.676 505.893ZM386.4 421.279C386.238 421.56 386.357 422.004 386.195 422.286C386.639 422.167 386.921 422.33 387.083 422.048C387.246 421.767 387.408 421.486 387.289 421.042C387.126 421.323 386.844 421.16 386.4 421.279ZM335.822 546.636L335.54 546.474C335.215 547.036 334.89 547.599 334.565 548.162L334.847 548.325L335.822 546.636ZM428.692 354.536L428.248 354.655C428.085 354.936 427.923 355.218 428.042 355.662L428.487 355.543C428.367 355.099 428.53 354.818 428.692 354.536ZM413.475 377.638L413.8 377.075L413.475 377.638ZM396.992 404.886C397.155 404.604 397.155 404.604 397.317 404.323L397.035 404.16C396.873 404.442 396.873 404.442 396.71 404.723C396.873 404.442 396.873 404.442 396.992 404.886ZM342.488 500.591C342.044 500.71 341.48 500.384 341.318 500.666C341.155 500.947 341.275 501.391 341.394 501.835C341.676 501.998 341.958 502.161 342.24 502.324C342.283 501.598 342.608 501.035 342.488 500.591ZM381.766 430.608L381.928 430.326L381.646 430.164C381.928 430.326 381.646 430.164 381.766 430.608C381.484 430.445 381.766 430.608 381.766 430.608ZM434.745 343.401L434.865 343.845L434.745 343.401ZM449.079 187.739C453.336 182.318 457.029 176.573 460.039 170.057C456.356 173.183 451.038 181.742 449.079 187.739ZM420.537 344.576C417.451 349.922 413.357 355.061 411.116 360.895C414.604 356.156 418.091 351.417 421.459 346.234C421.784 345.671 421.827 344.946 422.315 344.102C421.264 344.62 420.537 344.576 420.537 344.576ZM258.091 517.89C260.756 517.178 260.756 517.178 263.485 510.5C259.639 513.906 259.639 513.906 258.091 517.89ZM467.864 291.245C469.89 289.038 471.753 287.113 472.737 282.804C470.549 285.292 468.968 287.38 467.549 289.187C466.78 289.868 467.019 290.757 467.864 291.245ZM246.968 535.852C244.704 537.171 244.704 537.171 244.207 540.635C246.796 538.754 246.796 538.754 246.968 535.852ZM352.536 358.211C349.459 360.936 349.125 364.119 347.782 367.096C349.526 364.726 351.834 362.682 352.536 358.211ZM253.91 524.479C250.996 526.923 250.996 526.923 250.618 530.832C254.063 526.818 254.063 526.818 253.91 524.479ZM326.134 525.662C327.391 524.137 328.322 523.174 328.972 522.049C329.135 521.768 329.178 521.042 328.939 520.154C327.443 520.791 326.555 521.028 325.222 521.384C325.58 522.717 325.657 523.886 326.134 525.662ZM311.165 109.614C312.985 108.414 313.678 106.564 314.089 104.55C313.362 104.506 313.081 104.343 312.918 104.625C311.824 105.869 310.849 107.557 310.037 108.964C310.482 108.845 310.601 109.289 311.165 109.614ZM272.624 494.018L270.025 498.52C272.853 497.527 272.853 497.527 272.624 494.018ZM356.478 350.733L360.214 344.262C358.069 346.024 357.495 348.319 356.478 350.733ZM238.932 548.469C238.77 548.751 239.171 549.357 239.615 549.239C239.897 549.402 240.341 549.283 240.504 549.002C241.436 548.039 242.367 547.076 241.001 545.537C239.506 546.174 238.856 547.3 238.932 548.469ZM403.806 373.556L406.73 368.492C405.192 369.854 403.935 371.38 403.806 373.556ZM323.348 88.5126C325.049 86.8686 326.305 85.3432 327.399 84.0991C325.46 84.855 323.802 85.7736 323.348 88.5126ZM421.183 213.274C420.858 213.837 420.533 214.399 420.046 215.243C419.721 215.806 419.84 216.25 419.516 216.813C419.797 216.976 419.797 216.976 420.079 217.138C420.729 216.013 421.097 214.725 421.584 213.881C421.465 213.437 421.465 213.437 421.183 213.274ZM369.97 324.76L372.731 319.977C370.51 320.57 370.424 322.021 369.97 324.76ZM421.169 206.138C422.22 205.619 422.144 204.45 421.905 203.562C421.785 203.118 421.059 203.074 421.059 203.074C420.734 203.636 420.128 204.036 419.922 205.043C419.76 205.324 419.879 205.768 419.998 206.213C420.443 206.094 421.169 206.138 421.169 206.138ZM276.642 487.71C276.924 487.872 277.206 488.035 277.488 488.198C277.65 487.917 277.813 487.635 277.693 487.191C277.693 487.191 277.412 487.028 277.13 486.866C277.249 487.31 277.087 487.591 276.642 487.71ZM301.434 548.916C300.665 549.598 299.777 549.835 299.007 550.516C298.845 550.798 299.084 551.686 299.117 553.581C300.135 551.167 300.785 550.042 301.434 548.916ZM407.317 252.912L407.599 253.074L407.48 252.63L407.317 252.912ZM236.734 553.578L237.58 554.066C237.742 553.785 237.905 553.503 238.067 553.222L237.785 553.059C237.059 553.015 236.897 553.296 236.734 553.578ZM438.606 204.576C438.282 205.139 438.401 205.583 438.52 206.027L438.965 205.908C439.29 205.346 439.452 205.064 439.657 204.057C439.213 204.176 438.769 204.295 438.606 204.576ZM362.292 338.709C362.13 338.99 362.249 339.434 362.087 339.716C362.249 339.434 362.693 339.316 362.693 339.316C362.856 339.034 362.736 338.59 362.899 338.309C362.736 338.59 362.455 338.428 362.292 338.709ZM296.972 555.343C296.972 555.343 297.091 555.787 297.373 555.95C297.536 555.669 297.698 555.388 297.861 555.106L297.741 554.662C297.579 554.943 297.134 555.062 296.972 555.343ZM526.798 165.084C526.636 165.365 526.755 165.81 526.593 166.091C526.755 165.81 527.08 165.247 527.405 164.684C526.96 164.803 526.679 164.64 526.798 165.084ZM475.012 278.865C475.174 278.584 475.456 278.746 475.618 278.465C475.618 278.465 475.781 278.184 475.943 277.902C475.781 278.184 475.499 278.021 475.336 278.302L475.012 278.865ZM319.903 92.5262C319.741 92.8075 319.86 93.2516 320.142 93.4144C320.586 93.2957 321.031 93.1771 321.193 92.8957C321.355 92.6144 321.236 92.1703 320.954 92.0076C320.51 92.1262 320.066 92.2448 319.903 92.5262ZM351.171 553.248L351.453 553.41C351.616 553.129 351.616 553.129 351.94 552.566C351.496 552.685 351.334 552.966 351.171 553.248ZM465.428 295.465C466.24 294.058 467.052 292.651 468.027 290.963C467.052 292.651 466.24 294.058 465.428 295.465ZM424.384 198.616C424.666 198.779 424.504 199.06 424.786 199.223C425.068 199.385 425.512 199.267 425.794 199.43C425.674 198.985 425.674 198.986 425.555 198.541C424.991 198.216 424.547 198.335 424.384 198.616ZM424.264 340.726L424.426 340.444L424.264 340.726ZM396.998 272.088C396.835 272.37 397.117 272.532 397.236 272.976C397.399 272.695 397.843 272.576 398.006 272.295C398.168 272.014 397.604 271.688 397.767 271.407C397.322 271.525 396.878 271.644 396.998 272.088ZM382.368 300.031L382.65 300.193C382.812 299.912 382.812 299.912 382.975 299.631L382.693 299.468C382.531 299.749 382.368 300.031 382.368 300.031ZM384.805 295.81L384.642 296.092L384.924 296.254C384.924 296.254 385.087 295.973 384.805 295.81C385.087 295.973 384.805 295.81 384.805 295.81ZM367.739 327.973L368.021 328.136C368.183 327.855 368.183 327.855 368.345 327.573L368.064 327.411L367.739 327.973ZM442.137 199.112L442.299 198.83L442.137 199.112ZM399.716 268.031L399.879 267.749L399.716 268.031ZM476.938 248.84L477.382 248.722L477.545 248.44C477.545 248.44 477.101 248.559 476.938 248.84ZM457.728 140.212L458.01 140.375L458.172 140.094L457.89 139.931C457.89 139.931 457.89 139.931 457.728 140.212ZM432.788 184.711L432.463 185.273C432.463 185.273 432.745 185.436 432.908 185.155L433.07 184.874C432.908 185.155 432.908 185.155 432.788 184.711ZM429.941 190.945C430.103 190.663 430.103 190.663 430.266 190.382C429.984 190.219 429.984 190.219 429.702 190.057L429.54 190.338C429.659 190.782 429.659 190.782 429.941 190.945ZM494.528 249.618C494.528 249.618 494.81 249.78 494.528 249.618C494.973 249.499 494.973 249.499 495.135 249.218C494.691 249.336 494.691 249.336 494.528 249.618ZM118.817 502.004L118.654 502.286L118.817 502.004ZM116.38 506.225L116.218 506.506C116.5 506.669 116.662 506.387 116.662 506.387C116.5 506.669 116.662 506.387 116.38 506.225ZM120.083 497.859C120.083 497.859 120.527 497.74 120.083 497.859C120.527 497.74 120.527 497.74 120.69 497.459C120.246 497.577 120.246 497.577 120.083 497.859ZM315.928 98.1092C315.928 98.1092 315.766 98.3906 316.048 98.5533L316.492 98.4347C316.492 98.4347 316.654 98.1533 316.372 97.9906C316.372 97.9906 316.091 97.8278 315.928 98.1092ZM301.618 499.128C301.943 498.566 302.55 498.166 302.874 497.603C302.593 497.44 302.593 497.44 302.311 497.277C302.268 498.003 302.225 498.728 301.618 499.128C301.737 499.572 301.618 499.128 301.618 499.128Z" fill="#F9EDE9"/>
</g>
<defs>
<clipPath id="clip0_2617_15266">
<rect width="588.689" height="308.537" fill="white" transform="translate(35.8491 492.742) rotate(-60)"/>
</clipPath>
</defs>
</svg>
