<svg width="106" height="108" viewBox="0 0 106 108" fill="none" xmlns="http://www.w3.org/2000/svg">
<g clip-path="url(#clip0_472_106849)">
<path d="M12.4138 35.8539C12.2678 35.8539 12.1217 35.927 12.1217 36C12.1217 36.073 12.1217 36.2191 12.1217 36.3651C12.1948 36.7302 12.2678 37.0953 12.3408 37.4604C12.4138 37.7525 12.4138 38.1176 12.3408 38.4828C12.2678 38.8479 12.1948 39.286 12.0487 39.6511C11.6836 40.6734 11.0994 41.4767 10.3692 42.0608C9.63899 42.645 8.76272 43.0101 7.74041 43.0832C6.7181 43.1562 5.62276 43.0101 4.4544 42.499C3.28605 42.0608 2.33676 41.4767 1.60653 40.6734C0.87631 39.8702 0.438177 39.0669 0.21911 38.1176C4.25875e-05 37.1683 0.0730649 36.2191 0.511199 35.1967C0.730266 34.5395 1.02236 34.0284 1.38747 33.6633C1.75258 33.2982 2.19071 32.9331 2.62885 32.641C2.77489 32.5679 2.84791 32.4949 2.92094 32.3489C2.99396 32.1298 2.77489 31.9107 2.11769 31.6187L2.26373 31.2535C2.92094 31.5456 4.16231 32.0568 5.91485 32.714L5.76881 33.0791C5.1116 33.0791 4.67347 33.0061 4.38138 32.9331C4.08929 32.9331 3.87023 32.86 3.65116 32.9331C3.43209 32.9331 3.21302 33.0061 2.92094 33.0791C2.40978 33.2251 1.89862 33.5172 1.53351 33.9554C1.1684 34.3935 0.803288 34.8316 0.584221 35.4158C0.292132 36.073 0.292132 36.8032 0.584221 37.4604C0.87631 38.1176 1.31444 38.7748 2.04467 39.432C2.77489 40.0162 3.72418 40.5274 4.81952 40.9655C5.98787 41.4036 7.01019 41.6227 7.95948 41.6227C8.90876 41.6227 9.71201 41.4767 10.2962 41.0385C10.9534 40.6734 11.3915 40.1623 11.6106 39.432C11.8297 38.9209 11.9027 38.3367 11.9027 37.7525C11.9027 37.1683 11.7566 36.6572 11.4645 36.2191C11.2455 35.927 11.0264 35.6349 10.7343 35.4158C10.4422 35.1967 9.93108 34.9047 9.27388 34.5395L9.41992 34.1744C11.2455 34.9047 12.4869 35.3428 13.2171 35.5619L13.071 35.927C12.852 35.927 12.6329 35.8539 12.4138 35.8539Z" fill="#272525"/>
<path d="M12.0488 17.9636C12.925 17.6715 13.8743 17.6715 14.8966 17.8905C15.9189 18.1826 16.8682 18.6938 17.8175 19.497C18.7668 20.3003 19.497 21.1765 19.9352 22.1258C20.3733 23.0751 20.5193 24.0974 20.3733 25.0467C20.2273 25.996 19.8621 26.8723 19.2049 27.6755C18.4747 28.4788 17.7445 29.0629 16.7952 29.355C15.9189 29.6471 14.9696 29.6471 13.9473 29.4281C12.925 29.136 11.9757 28.6248 11.0264 27.8216C10.0772 27.0183 9.34693 26.142 8.90879 25.1928C8.47066 24.2435 8.32462 23.2212 8.47066 22.2719C8.61671 21.3226 8.98182 20.4463 9.63902 19.6431C10.3692 18.8398 11.1725 18.3287 12.0488 17.9636ZM9.20088 21.9068C9.20088 22.637 9.49297 23.4402 10.0041 24.2435C10.5153 25.0467 11.1725 25.85 12.1218 26.5802C12.998 27.3104 13.9473 27.8946 14.8236 28.1867C15.6999 28.4788 16.5761 28.6248 17.3064 28.4788C18.0366 28.3327 18.6208 28.0406 19.0589 27.5295C19.497 26.9453 19.7161 26.3611 19.7161 25.5579C19.7161 24.8276 19.424 24.0244 18.9129 23.2212C18.4017 22.4179 17.7445 21.6147 16.7952 20.8844C15.9189 20.1542 14.9696 19.57 14.0934 19.278C13.2171 18.9859 12.4139 18.8398 11.6106 18.9859C10.8804 19.1319 10.2962 19.424 9.85808 19.9352C9.41995 20.5193 9.20088 21.1035 9.20088 21.9068Z" fill="#272525"/>
<path d="M26.5802 19.0589C27.3834 19.424 28.1867 19.2779 29.0629 18.7668C29.355 18.5477 29.6471 18.3286 29.8662 17.9635C30.0853 17.6714 30.1583 17.3063 30.1583 16.8682C30.1583 16.5031 30.0122 16.0649 29.7201 15.6268C29.5011 15.2617 29.209 14.9696 28.8439 14.8236C28.4788 14.6775 28.0406 14.5315 27.6025 14.4585C27.1644 14.3854 26.5802 14.3854 25.85 14.3854C25.0467 14.3854 24.3895 14.3854 23.8784 14.3124C23.3672 14.2394 22.8561 14.0933 22.4179 13.8743C21.9798 13.6552 21.5416 13.2901 21.2496 12.7789C20.8844 12.2678 20.7384 11.6836 20.7384 11.1725C20.7384 10.6613 20.8844 10.1501 21.1765 9.71201C21.4686 9.27387 21.8337 8.90876 22.3449 8.61667C22.637 8.3976 22.9291 8.32458 23.1481 8.17854C23.3672 8.10552 23.5863 8.03249 23.8053 8.03249C24.0244 8.03249 24.1705 8.03249 24.4625 8.03249C24.7546 8.03249 24.9737 8.03249 25.0467 7.95947C25.1197 7.88645 25.1928 7.81343 25.1197 7.66738C25.1197 7.52134 25.0467 7.37529 24.9007 7.0832L25.2658 6.86414C25.5579 7.44831 26.1421 8.47063 27.0183 9.85805L26.6532 10.0771C26.2881 9.63898 25.923 9.20085 25.4849 8.90876C25.0467 8.61667 24.6086 8.3976 24.0974 8.3976C23.5863 8.32458 23.0751 8.47063 22.564 8.83574C22.1988 9.05481 21.9798 9.27387 21.7607 9.63898C21.5416 10.0041 21.4686 10.2962 21.5416 10.5883C21.5416 10.9534 21.6877 11.2455 21.8337 11.6106C22.1258 12.1217 22.564 12.4138 23.0751 12.5599C23.5863 12.7059 24.1705 12.7059 24.6816 12.7059C25.2658 12.7059 25.6309 12.7059 25.85 12.7059C26.7262 12.7059 27.3834 12.7059 27.8946 12.7789C28.4057 12.852 28.9169 12.998 29.355 13.2171C29.7932 13.4361 30.1583 13.8013 30.4504 14.3124C30.8155 14.8966 31.0345 15.4808 30.9615 16.0649C30.9615 16.6491 30.7425 17.1603 30.4504 17.6714C30.0853 18.1826 29.6471 18.6207 29.136 18.9858C28.6978 19.2779 28.2597 19.497 27.8946 19.57C27.5295 19.643 27.1644 19.7161 26.7993 19.7161C26.5072 19.7161 26.2881 19.7161 26.2151 19.7891C26.2881 19.8621 26.2881 19.9351 26.2881 20.0812C26.2881 20.2272 26.3611 20.3733 26.5072 20.6654L26.1421 20.8844C25.85 20.3733 25.1197 19.2049 24.0244 17.3793L24.3895 17.1603C25.0467 18.0366 25.7769 18.6938 26.5802 19.0589Z" fill="#272525"/>
<path d="M45.2739 0.730297C45.1279 0.876341 44.9819 1.02239 44.9819 1.16843C44.9819 1.3875 44.9819 1.67959 45.1279 2.11772L47.0265 10.2962C47.0995 10.7344 47.2456 11.0264 47.3186 11.1725C47.4646 11.3185 47.6107 11.4646 47.7567 11.4646C47.9758 11.4646 48.2679 11.4646 48.633 11.3916L48.706 11.7567C48.1948 11.8297 47.4646 11.9757 46.5883 12.1948C45.6391 12.4139 44.9088 12.6329 44.4707 12.706V12.4139C44.8358 12.3408 45.1279 12.1948 45.2739 12.0488C45.42 11.9027 45.493 11.7567 45.566 11.6106C45.566 11.3916 45.566 11.0995 45.42 10.6613L43.4484 1.89865L41.9879 13.5092L41.6959 13.5822L34.9778 3.79723L37.0224 12.4869C37.0955 12.925 37.2415 13.2171 37.3875 13.4362C37.5336 13.6552 37.6796 13.7283 37.8987 13.8013C38.1178 13.8743 38.4829 13.8013 38.921 13.7283L38.994 14.0934C38.6289 14.1664 38.0447 14.2394 37.3145 14.4585C36.6573 14.6045 36.1462 14.7506 35.781 14.8966L35.708 14.5315C36.0731 14.4585 36.3652 14.3124 36.5113 14.1664C36.6573 14.0204 36.7303 13.8743 36.8034 13.5822C36.8034 13.3632 36.8034 12.998 36.6573 12.6329L34.7587 4.60048C34.6857 4.16235 34.5397 3.87026 34.4666 3.72421C34.3206 3.57817 34.1746 3.43212 34.0285 3.43212C33.8094 3.43212 33.5174 3.43212 33.1522 3.50514L33.0792 3.14003C33.4443 3.06701 33.9555 2.99399 34.6127 2.84794C35.1969 2.7019 35.635 2.55585 36.0001 2.48283L41.8419 11.2455L43.1563 0.876341L43.9595 0.657274C44.8358 0.438207 45.566 0.292163 46.0772 0.146118L46.1502 0.51123C45.7121 0.51123 45.42 0.657274 45.2739 0.730297Z" fill="#272525"/>
<path d="M61.6309 10.7343C61.5579 11.3915 61.4848 12.1217 61.4848 12.925C60.7546 12.7789 59.4402 12.6329 57.6147 12.4138C55.424 12.1947 53.8175 11.9757 52.7222 11.9026L52.7952 11.5375C53.2333 11.5375 53.5254 11.5375 53.6715 11.5375C53.8905 11.4645 54.0366 11.3915 54.1096 11.1724C54.1826 10.9533 54.2556 10.6613 54.3287 10.2961L55.2779 1.89858C55.351 1.46045 55.351 1.16836 55.2779 0.94929C55.2049 0.730223 55.1319 0.584179 54.9128 0.511156C54.7668 0.438134 54.4747 0.365112 54.0366 0.292089V0C55.1319 0.146045 56.7384 0.365112 58.9291 0.584179C60.6086 0.803245 61.7769 0.876268 62.4341 0.94929C62.2881 1.67951 62.142 2.33671 62.069 2.92089C62.069 3.35903 62.069 3.72414 62.069 3.94321L61.7039 3.87018C61.7039 3.13996 61.6309 2.55578 61.5579 2.19067C61.4848 1.82556 61.2658 1.53347 61.0467 1.3144C60.7546 1.09533 60.3165 1.02231 59.7323 0.94929L58.3449 0.803245C57.9068 0.730223 57.6147 0.730223 57.4686 0.803245C57.2496 0.876268 57.1035 0.94929 57.0305 1.16836C56.9575 1.3144 56.8844 1.67951 56.8114 2.04462L56.3733 5.98783L57.4686 6.13387C58.0528 6.27992 58.4179 6.13387 58.637 5.84179C58.856 5.5497 59.0021 5.18458 59.0751 4.81947C59.1481 4.45436 59.2212 4.23529 59.2212 4.16227L59.5863 4.23529C59.5132 4.81947 59.4402 5.33063 59.3672 5.84179V6.57201C59.2942 7.15619 59.2212 7.95943 59.2212 8.98174L58.856 8.90872C58.856 8.8357 58.856 8.54361 58.856 8.10548C58.856 7.66734 58.71 7.22921 58.4909 7.01014C58.2719 6.71805 57.9068 6.57201 57.4686 6.49899L56.3733 6.35294L55.9351 10.3692C55.8621 10.8073 55.8621 11.0994 55.9351 11.3185C56.0082 11.5375 56.0812 11.6836 56.3003 11.7566C56.4463 11.8296 56.7384 11.9026 57.1765 11.9757L58.4179 12.1217C59.1481 12.1947 59.6593 12.1947 60.0244 12.0487C60.3895 11.9026 60.6816 11.6105 60.9007 11.2454C61.1197 10.8803 61.2658 10.2961 61.4848 9.4929L61.85 9.56592C61.7039 9.85801 61.6309 10.2231 61.6309 10.7343Z" fill="#272525"/>
<path d="M69.2981 4.89252C69.5902 4.30835 69.8093 3.57812 70.0284 2.8479C70.9046 3.28603 72.3651 3.94323 74.4097 4.8195C76.4543 5.69577 77.9148 6.35297 78.7911 6.71808C78.4259 7.44831 78.0608 8.10551 77.8418 8.68968C77.6227 9.20084 77.4767 9.63897 77.3306 10.0041L76.9655 9.85804C77.2576 8.98177 77.4036 8.3976 77.4036 7.95946C77.4767 7.52133 77.3306 7.15622 77.1115 6.79111C76.8925 6.49902 76.4543 6.20693 75.7971 5.91484L74.9209 5.54973L71.0507 14.3854C70.8316 14.8236 70.7586 15.1156 70.7586 15.4077C70.7586 15.6268 70.8316 15.8459 71.0507 15.9919C71.1967 16.138 71.5618 16.357 72 16.5761L71.9269 16.7952C71.4158 16.5031 70.6125 16.211 69.6633 15.7729C68.6409 15.3347 67.8377 14.9696 67.3265 14.8236L67.4726 14.5315C67.9107 14.7505 68.2758 14.8236 68.5679 14.8236C68.787 14.8236 69.0061 14.7505 69.2251 14.6045C69.3712 14.4584 69.5902 14.1664 69.7363 13.7282L73.6065 4.89252L72.7302 4.52741C72.073 4.23532 71.5618 4.1623 71.1967 4.1623C70.8316 4.23532 70.4665 4.38137 70.1744 4.74648C69.8823 5.11159 69.5172 5.62275 69.0791 6.42599L68.714 6.27995C68.86 5.84182 69.0791 5.40368 69.2981 4.89252Z" fill="#272525"/>
<path d="M86.9696 12.9979C86.7505 12.9249 86.6045 12.9979 86.4584 13.0709C86.3124 13.217 86.0933 13.4361 85.8012 13.7281L80.6166 20.3732C80.3245 20.7383 80.1785 20.9574 80.1055 21.1764C80.0324 21.3955 80.0324 21.5415 80.1785 21.7606C80.2515 21.9066 80.4706 22.1257 80.8357 22.4178L80.6166 22.7099C80.2515 22.3448 79.6673 21.9066 78.9371 21.3225C78.1339 20.7383 77.6227 20.3001 77.1846 20.0081L77.4036 19.716C77.7688 19.935 77.9878 20.0811 78.2069 20.1541C78.426 20.2271 78.572 20.1541 78.718 20.0811C78.8641 19.935 79.0832 19.716 79.3752 19.4239L84.5598 12.7789C84.8519 12.4137 84.998 12.1947 85.071 11.9756C85.144 11.7565 85.144 11.6105 84.998 11.3914C84.9249 11.2454 84.7059 11.0263 84.3408 10.7342L84.5598 10.4421C84.9249 10.7342 85.4361 11.2454 86.2393 11.8296C86.9696 12.4137 87.5537 12.8519 87.9919 13.144L87.7728 13.4361C87.4077 13.144 87.1886 12.9979 86.9696 12.9979Z" fill="#272525"/>
<path d="M89.9635 32.1298C90.0366 31.9838 90.0366 31.8378 89.9635 31.7647C89.8905 31.6917 89.8175 31.6187 89.6715 31.5457C89.3063 31.3996 88.9412 31.3266 88.6491 31.1806C88.3571 31.0345 88.065 30.8885 87.7729 30.6694C87.4808 30.4503 87.1887 30.1582 86.8966 29.7931C86.2394 28.9169 85.8743 28.0406 85.7283 27.0913C85.6552 26.142 85.8013 25.1927 86.2394 24.3165C86.6775 23.3672 87.4078 22.5639 88.4301 21.7607C89.4524 21.0304 90.4747 20.5193 91.497 20.3002C92.5193 20.0812 93.5416 20.1542 94.4179 20.4463C95.3672 20.7384 96.0974 21.3225 96.7546 22.1988C97.1927 22.71 97.4118 23.2211 97.5579 23.7323C97.7039 24.2434 97.7769 24.7546 97.7769 25.3388C97.7769 25.4848 97.7769 25.6309 97.8499 25.7039C97.996 25.9229 98.3611 25.7769 98.9453 25.4118L99.1644 25.7039C98.5802 26.142 97.4848 26.8722 96.0244 28.0406L95.8053 27.7485C96.1704 27.3834 96.4625 27.0913 96.6086 26.8722C96.7546 26.6532 96.9007 26.4341 97.0467 26.215C97.1197 25.996 97.2658 25.7769 97.2658 25.5578C97.4118 25.0467 97.4118 24.4625 97.2658 23.9513C97.1197 23.3672 96.9007 22.856 96.4625 22.4179C96.0244 21.8337 95.4402 21.4686 94.71 21.3225C93.9798 21.1765 93.1765 21.2495 92.3003 21.5416C91.424 21.8337 90.4747 22.3449 89.5254 23.0751C88.5761 23.8053 87.7729 24.6085 87.3347 25.4118C86.8236 26.215 86.6045 27.0183 86.5315 27.7485C86.5315 28.4787 86.7506 29.1359 87.1887 29.7201C87.5538 30.1582 87.9189 30.5234 88.4301 30.8154C88.9412 31.1075 89.4524 31.2536 89.9635 31.2536C90.3287 31.2536 90.6938 31.1806 91.0589 31.0345C91.424 30.8885 91.9352 30.5964 92.5924 30.2313L92.8114 30.5234C91.2779 31.6917 90.1826 32.568 89.5984 33.0791L89.3794 32.787C89.6715 32.495 89.8905 32.2759 89.9635 32.1298Z" fill="#272525"/>
<path d="M93.3226 38.0446C92.8114 38.7748 92.7384 39.5781 93.1035 40.5274C93.2495 40.8925 93.4686 41.1846 93.6877 41.4767C93.9798 41.7688 94.2719 41.9148 94.637 41.9878C95.0021 42.0609 95.4402 41.9878 95.9514 41.8418C96.3895 41.6957 96.6816 41.4767 96.9737 41.1116C97.1927 40.8195 97.4118 40.3813 97.5579 39.9432C97.7039 39.5051 97.8499 38.9209 97.996 38.2637C98.142 37.4604 98.2881 36.8763 98.4341 36.3651C98.5802 35.854 98.7992 35.4158 99.1643 35.0507C99.4564 34.6856 99.9676 34.3205 100.479 34.1014C101.063 33.8824 101.647 33.8093 102.158 33.9554C102.669 34.1014 103.108 34.3205 103.473 34.6856C103.838 35.0507 104.13 35.4888 104.349 36.073C104.495 36.3651 104.568 36.6572 104.568 36.9493C104.568 37.2414 104.641 37.4604 104.568 37.6065C104.568 37.8256 104.495 37.9716 104.422 38.2637C104.349 38.5558 104.349 38.7748 104.422 38.9209C104.422 38.9939 104.568 39.0669 104.641 39.0669C104.787 39.0669 104.933 39.0669 105.225 38.9939L105.371 39.359C104.714 39.5051 103.619 39.9432 102.085 40.4544L101.939 40.0893C102.45 39.8702 102.962 39.5781 103.327 39.213C103.692 38.8479 103.984 38.4097 104.13 37.9716C104.276 37.4604 104.276 36.9493 104.057 36.4381C103.911 36.073 103.692 35.7809 103.473 35.4888C103.181 35.2698 102.888 35.1237 102.596 35.0507C102.231 34.9777 101.939 35.0507 101.574 35.1237C100.99 35.3428 100.625 35.7079 100.406 36.146C100.187 36.6572 100.041 37.1684 99.8946 37.6795C99.7485 38.2637 99.6755 38.6288 99.6755 38.8479C99.5295 39.6511 99.3104 40.3083 99.1643 40.8195C99.0183 41.3306 98.7262 41.7688 98.4341 42.1339C98.142 42.499 97.7039 42.7911 97.1197 43.0101C96.4625 43.2292 95.8783 43.3022 95.2942 43.1562C94.71 43.0101 94.2718 42.7181 93.8337 42.3529C93.3956 41.9148 93.1035 41.4036 92.8844 40.7464C92.6654 40.2353 92.5923 39.7972 92.5923 39.432C92.5923 39.0669 92.5923 38.7018 92.6654 38.3367C92.7384 38.0446 92.7384 37.8256 92.6654 37.6795C92.6654 37.6065 92.5193 37.5335 92.4463 37.5335C92.3002 37.5335 92.1542 37.5335 91.8621 37.6065L91.7161 37.2414C92.3002 37.0953 93.6146 36.5842 95.5862 35.927L95.7323 36.2921C94.637 36.8032 93.8337 37.3874 93.3226 38.0446Z" fill="#272525"/>
<path d="M6.64501 68.6409L5.84176 68.86C6.57199 69.0061 7.01012 69.4442 7.22919 70.1744C7.37523 70.6856 7.37523 71.1967 7.15617 71.7079C6.9371 72.219 6.42594 72.5111 5.76874 72.7302L2.92087 73.7525L2.7018 73.1683L5.47665 72.2921C5.98781 72.146 6.35292 71.8539 6.57199 71.4888C6.79105 71.1237 6.79105 70.7586 6.64501 70.3205C6.49897 69.8823 6.2799 69.5902 5.91479 69.3712C5.54968 69.2251 5.11154 69.2251 4.52736 69.3712L1.75251 70.2474L1.53345 69.5902L6.42594 68.0568L6.64501 68.6409Z" fill="#BFA674"/>
<path d="M6.49897 80.1054C6.71804 79.4482 7.15617 78.9371 7.81337 78.499C8.47057 78.1338 9.12777 77.9878 9.78497 78.1338C10.4422 78.2799 10.9533 78.718 11.3184 79.3022C11.5375 79.6673 11.6836 80.1055 11.6105 80.5436C11.6105 80.9817 11.4645 81.3468 11.2454 81.6389L12.1947 81.0547L12.5598 81.6389L8.10546 84.2677L7.74035 83.6835L8.68964 83.0994C8.32453 83.0994 7.8864 83.0263 7.52128 82.8803C7.15617 82.6612 6.86408 82.3691 6.57199 82.004C6.35293 81.4199 6.2799 80.7626 6.49897 80.1054ZM8.47057 82.7343C8.98173 82.8803 9.49289 82.7343 10.0771 82.4422C10.5882 82.1501 10.9533 81.7119 11.0994 81.2008C11.2454 80.6896 11.1724 80.1785 10.8803 79.7403C10.5882 79.3022 10.2231 79.0101 9.71195 78.8641C9.2008 78.718 8.68964 78.791 8.10546 79.1562C7.59431 79.4482 7.22919 79.8864 7.08315 80.3975C6.9371 80.9087 7.01013 81.4198 7.22919 81.858C7.52128 82.2961 7.95942 82.5882 8.47057 82.7343Z" fill="#BFA674"/>
<path d="M17.3062 88.43L16.3569 87.3347L13.8011 89.5984C13.5821 89.7444 13.509 89.8904 13.509 90.0365C13.509 90.1825 13.5821 90.3286 13.7281 90.5476L14.2393 91.1318L13.8742 91.4969L13.29 90.8397C12.7788 90.2556 12.7788 89.6714 13.363 89.1602L15.9188 86.8965L15.4076 86.3854L15.7727 86.0203L16.2839 86.5314L17.2332 85.6552L17.6713 86.1663L16.722 87.0426L17.6713 88.1379L17.3062 88.43Z" fill="#BFA674"/>
<path d="M24.5356 94.0527L25.0467 94.4909L21.9068 98.5801L21.3956 98.142L21.9068 97.4848C21.2496 97.7769 20.5924 97.6308 20.0082 97.1927C19.5701 96.8276 19.278 96.3894 19.2049 95.8783C19.1319 95.3671 19.278 94.783 19.7161 94.2718L21.6147 91.8621L22.1258 92.2272L20.3003 94.5639C19.9352 95.002 19.7891 95.4402 19.8621 95.8053C19.8621 96.1704 20.0812 96.5355 20.4463 96.8276C20.8114 97.1197 21.1765 97.1927 21.6147 97.1927C21.9798 97.1197 22.4179 96.9006 22.71 96.3894L24.5356 94.0527Z" fill="#BFA674"/>
<path d="M30.7424 97.8499L30.3773 98.5801C30.8884 98.1419 31.5456 98.0689 32.2028 98.434L31.9108 99.0182L31.7647 98.9452C31.3266 98.7261 30.9615 98.7261 30.6694 98.7991C30.3773 98.9452 30.0122 99.2373 29.7931 99.7484L28.4787 102.377L27.8945 102.085L30.2312 97.4847L30.7424 97.8499Z" fill="#BFA674"/>
<path d="M36.5112 105.079C36.2191 104.495 36.1461 103.765 36.3652 103.034C36.5842 102.304 36.9493 101.72 37.5335 101.355C38.1177 100.99 38.7749 100.917 39.4321 101.136C39.8702 101.282 40.2354 101.501 40.5274 101.793C40.8195 102.085 40.9656 102.45 41.0386 102.815L41.3307 101.72L41.9879 101.866L40.6005 106.832L39.9433 106.685L40.2354 105.59C39.9433 105.882 39.6512 106.101 39.213 106.247C38.8479 106.393 38.4098 106.393 37.9717 106.247C37.3145 106.101 36.8033 105.663 36.5112 105.079ZM39.7242 105.59C40.1623 105.298 40.5274 104.86 40.6735 104.276C40.8195 103.692 40.8195 103.107 40.5274 102.669C40.2354 102.231 39.8702 101.866 39.3591 101.72C38.8479 101.574 38.3368 101.647 37.8986 101.866C37.4605 102.158 37.0954 102.523 36.9493 103.18C36.8033 103.765 36.8033 104.349 37.0954 104.787C37.3145 105.298 37.7526 105.59 38.2638 105.736C38.7749 105.882 39.213 105.809 39.7242 105.59Z" fill="#BFA674"/>
<path d="M47.3915 107.927L47.9757 100.99L48.6329 101.063L48.0487 108L47.3915 107.927Z" fill="#BFA674"/>
<path d="M64.2597 101.355C64.9899 101.209 65.5741 101.282 66.1582 101.574C66.7424 101.939 67.1075 102.45 67.3266 103.253C67.5457 103.984 67.4727 104.714 67.1075 105.298C66.7424 105.882 66.2313 106.32 65.5741 106.466C65.1359 106.613 64.6978 106.539 64.3327 106.466C63.9676 106.32 63.6025 106.101 63.3834 105.809L63.6755 106.905L63.0183 107.051L61.2657 100.26L61.9229 100.114L62.6532 102.961C62.7262 102.596 62.8722 102.231 63.1643 101.939C63.4564 101.647 63.8215 101.428 64.2597 101.355ZM65.355 106.028C65.8662 105.882 66.2313 105.59 66.5234 105.079C66.8154 104.568 66.8155 104.057 66.6694 103.473C66.5234 102.888 66.2313 102.45 65.7931 102.158C65.355 101.866 64.8438 101.793 64.3327 101.939C63.8215 102.085 63.4564 102.377 63.1643 102.815C62.8722 103.253 62.8722 103.838 63.0183 104.422C63.1643 105.006 63.4564 105.444 63.9676 105.736C64.3327 106.028 64.8438 106.101 65.355 106.028Z" fill="#BFA674"/>
<path d="M76.1622 102.45C75.505 102.815 74.8478 102.815 74.2636 102.596C73.6064 102.377 73.1683 101.866 72.8032 101.209C72.438 100.479 72.365 99.8214 72.5111 99.1642C72.7301 98.507 73.1683 97.9958 73.8255 97.7037C74.4827 97.3386 75.1399 97.2656 75.7241 97.4847C76.3082 97.7037 76.7464 98.0689 77.1115 98.7261C77.1845 98.8721 77.2575 99.0181 77.3306 99.1642L73.5334 101.063C73.8255 101.574 74.1906 101.939 74.6287 102.085C75.0669 102.231 75.505 102.158 76.0162 101.939C76.3813 101.793 76.6003 101.501 76.8194 101.209C77.0385 100.917 77.0385 100.625 77.0385 100.333L77.6957 100.04C77.7687 100.479 77.6957 100.99 77.4766 101.355C77.1115 101.866 76.7464 102.231 76.1622 102.45ZM76.4543 99.0181C76.1622 98.507 75.8701 98.2149 75.3589 98.0689C74.9208 97.9228 74.4827 97.9958 73.9715 98.2149C73.5334 98.434 73.2413 98.7991 73.0953 99.2372C72.9492 99.6753 73.0222 100.186 73.2413 100.698L76.4543 99.0181Z" fill="#BFA674"/>
<path d="M83.7566 96.8275C83.0994 96.7545 82.4422 96.3894 82.004 95.8052C81.4929 95.221 81.2738 94.5638 81.3468 93.9066C81.4198 93.2494 81.7119 92.6653 82.2231 92.2271C82.5882 91.935 82.9533 91.789 83.3914 91.716C83.8296 91.6429 84.1947 91.716 84.5598 91.862L83.8296 90.9857L84.3407 90.5476L87.6267 94.4908L87.1156 94.9289L86.3854 94.0527C86.4584 94.4178 86.4584 94.8559 86.3123 95.221C86.1663 95.5861 85.9472 95.9513 85.5821 96.2434C85.071 96.6815 84.4868 96.9006 83.7566 96.8275ZM86.0203 94.4178C86.0933 93.9066 85.8742 93.3955 85.5091 92.8843C85.071 92.3732 84.6328 92.1541 84.1217 92.0811C83.6105 92.0081 83.0994 92.1541 82.7342 92.5192C82.2961 92.8843 82.077 93.3225 82.077 93.8336C82.004 94.3448 82.2231 94.8559 82.5882 95.3671C83.0263 95.8782 83.4645 96.0973 83.9756 96.1703C84.4868 96.2433 84.9979 96.0973 85.3631 95.8052C85.8012 95.4401 86.0203 95.002 86.0203 94.4178Z" fill="#BFA674"/>
<path d="M90.6937 83.3914L91.1319 82.8802L95.2211 86.0202L94.783 86.5314L94.1258 86.0202C94.4179 86.6774 94.2718 87.3346 93.8337 87.9188C93.4686 88.3569 93.0304 88.649 92.5193 88.722C92.0081 88.795 91.4239 88.649 90.9128 88.2109L88.5031 86.3123L88.8682 85.8011L91.2049 87.6267C91.643 87.9918 92.0811 88.1378 92.4463 88.0648C92.8114 88.0648 93.1765 87.8458 93.4686 87.4806C93.7607 87.1155 93.9067 86.7504 93.8337 86.3123C93.7607 85.9472 93.5416 85.509 93.0304 85.217L90.6937 83.3914Z" fill="#BFA674"/>
<path d="M95.5863 75.9432L94.9291 77.1846L97.996 78.718C98.2151 78.8641 98.4341 78.8641 98.5802 78.8641C98.7262 78.7911 98.8723 78.718 98.9453 78.4259L99.3104 77.7687L99.7486 77.9878L99.3834 78.7911C99.0183 79.5213 98.5072 79.6673 97.7769 79.3022L94.71 77.7687L94.4179 78.4259L93.9798 78.2069L94.2719 77.5497L93.1035 76.9655L93.3956 76.3813L94.564 76.9655L95.2212 75.7241L95.5863 75.9432Z" fill="#BFA674"/>
<path d="M102.45 70.6855L96.9735 71.1967L97.1926 70.5395L101.866 70.1744L98.1419 67.3265L98.3609 66.6693L104.714 71.7078L104.495 72.365L102.45 70.6855Z" fill="#BFA674"/>
<path d="M79.3022 53.8174C79.2292 53.2332 78.8641 52.6491 78.2799 52.43C76.6004 51.6998 74.1907 50.5314 72.6572 49.7282C73.4604 48.1947 74.7748 45.785 75.6511 44.1785C75.9432 43.6673 75.9432 43.0101 75.6511 42.4259C75.359 41.9148 74.7748 41.5497 74.1907 41.5497L65.574 41.3306C64.7708 41.3306 63.9676 41.2576 63.1643 41.3306C62.9452 40.5274 62.6531 39.7971 62.3611 39.0669L59.5132 30.9614C59.2941 30.3773 58.783 29.9391 58.1988 29.8661C57.6146 29.7201 56.9574 29.9391 56.5923 30.3773C55.3509 31.6917 53.5254 33.6633 52.284 34.9046C51.0426 33.6633 49.217 31.6917 47.9757 30.3773C47.5375 29.9391 46.9534 29.7201 46.3692 29.8661C45.785 30.0121 45.2738 30.4503 45.0548 30.9614L42.2069 39.0669C41.9148 39.7971 41.6957 40.6004 41.4037 41.3306C40.6004 41.3306 39.7241 41.3306 38.9939 41.3306L30.3043 41.6227C29.7201 41.6227 29.1359 41.9878 28.8438 42.499C28.5517 43.0101 28.5517 43.6673 28.8438 44.2515C29.7201 45.858 31.0345 48.1947 31.8377 49.8012C30.2312 50.6044 27.8215 51.7728 26.215 52.503C25.6308 52.7221 25.2657 53.3063 25.1927 53.8904C25.1197 54.4746 25.4118 55.1318 25.8499 55.4969L32.641 60.7545C33.2252 61.1927 33.8824 61.7038 34.6126 62.215C34.3205 63.0182 34.1014 63.7485 33.8824 64.5517L31.4726 72.8032C31.3266 73.3874 31.4726 74.0446 31.8377 74.4827C32.2759 74.9209 32.86 75.1399 33.4442 74.9939C35.1968 74.6288 37.8986 74.1906 39.5781 73.8255C39.7972 75.5781 40.1623 78.2069 40.3813 80.0324C40.4544 80.6166 40.8195 81.2008 41.4037 81.4199C41.6227 81.4929 41.9148 81.5659 42.1339 81.5659C42.499 81.5659 42.7911 81.4929 43.1562 81.2738L50.2394 76.3813C50.8966 75.9432 51.5538 75.505 52.211 74.9939C52.8682 75.505 53.5254 75.9432 54.1826 76.3813L61.2657 81.2738C61.5578 81.4929 61.9229 81.5659 62.288 81.5659C62.5071 81.5659 62.7992 81.4929 63.0183 81.4199C63.6024 81.2008 63.9675 80.6166 64.0406 80.0324C64.2596 78.2069 64.6248 75.5781 64.8438 73.8255C66.5964 74.1176 69.2252 74.6288 70.9777 74.9939C71.5619 75.1399 72.2191 74.9209 72.5842 74.4827C73.0223 74.0446 73.1684 73.3874 72.9493 72.8032L70.5396 64.5517C70.3205 63.8215 70.1014 63.0182 69.8093 62.215C70.4665 61.7038 71.1237 61.2657 71.7809 60.7545L78.572 55.4969C79.1562 55.0588 79.3753 54.4016 79.3022 53.8174ZM45.4199 40.2353L47.3185 34.8316C49.071 36.6572 50.8966 38.5558 50.9696 38.6288C51.2617 38.9939 51.7728 39.1399 52.211 39.1399C52.6491 39.1399 53.1602 38.9209 53.4523 38.6288C53.5254 38.5558 55.3509 36.6572 57.1035 34.8316L59.002 40.2353C59.1481 40.7464 59.3671 41.2576 59.5132 41.7687C59.2211 41.8418 59.002 41.9148 58.7099 41.9878C55.9351 42.7911 53.6714 44.7627 52.1379 47.3184C50.6045 44.7627 48.3408 42.7911 45.5659 41.9878C45.2738 41.9148 45.0548 41.8418 44.7627 41.7687C45.0548 41.2576 45.2008 40.7464 45.4199 40.2353ZM60.3895 45.785C60.4625 48.7789 58.5639 51.7728 55.7891 53.3793C55.2779 53.4523 54.6937 53.5984 54.1826 53.7444C54.1826 53.1602 54.1095 52.6491 54.0365 52.0649C54.7667 48.9249 56.9574 46.2231 59.8053 45.3468C60.0243 45.2738 60.1704 45.2738 60.3895 45.2008C60.3895 45.3468 60.3895 45.5659 60.3895 45.785ZM52.6491 69.7363C52.503 69.8823 52.43 70.0284 52.284 70.1744C52.1379 70.0284 51.9919 69.8823 51.9189 69.7363C50.0933 67.3265 49.9473 63.8215 51.1886 60.9006C51.5538 60.5355 51.9189 60.0973 52.284 59.6592C52.6491 60.0973 53.0142 60.5355 53.3793 60.9006C54.6207 63.8215 54.4746 67.3265 52.6491 69.7363ZM44.1055 45.1278C44.3245 45.2008 44.4706 45.2008 44.6897 45.2738C47.6106 46.1501 49.8012 48.8519 50.4584 51.9919C50.3854 52.503 50.3124 53.0872 50.3124 53.6714C49.8012 53.5253 49.217 53.3793 48.7059 53.3063C45.931 51.6998 44.0325 48.7789 44.1055 45.7119C44.0325 45.5659 44.1055 45.3468 44.1055 45.1278ZM47.6105 56.7383C48.1217 57.0304 48.6329 57.2495 49.144 57.3955C48.8519 57.8336 48.5598 58.3448 48.3408 58.856C45.931 60.9736 42.572 61.9229 39.7241 60.9006C39.5051 60.8276 39.359 60.7545 39.14 60.6815C39.213 60.5355 39.359 60.3164 39.4321 60.1704C41.1116 57.6146 44.3976 56.3732 47.6105 56.7383ZM55.3509 57.3955C55.8621 57.1764 56.3732 56.9574 56.8844 56.7383C60.0974 56.4462 63.3834 57.6876 65.0629 60.1704C65.2089 60.3164 65.282 60.5355 65.355 60.6815C65.1359 60.7545 64.9899 60.8276 64.7708 60.9006C61.9229 61.9229 58.5639 60.9736 56.1542 58.856C55.9351 58.3448 55.716 57.8336 55.3509 57.3955ZM34.7586 57.8336L30.2312 54.3286C32.4949 53.2332 34.8316 52.0649 34.9777 51.9919C35.4158 51.7728 35.7079 51.4077 35.854 50.9696C36 50.5314 35.927 50.0203 35.7079 49.6551C35.6349 49.5091 34.4665 47.2454 33.2252 44.9817L38.9939 44.8357C39.5051 44.8357 40.0893 44.8357 40.6004 44.8357C40.6004 45.1278 40.5274 45.4199 40.5274 45.6389C40.4544 48.4868 41.6227 51.2616 43.5943 53.5253C40.7465 54.1825 38.1177 55.789 36.5112 58.1257C36.3651 58.3448 36.2191 58.5639 36.073 58.856C35.6349 58.4908 35.1968 58.1988 34.7586 57.8336ZM43.5943 76.6734C43.2292 74.1176 42.8641 71.5618 42.8641 71.4158C42.7911 70.9777 42.572 70.5395 42.1339 70.2474C41.8418 70.0284 41.4767 69.8823 41.1116 69.8823C41.0385 69.8823 40.8925 69.8823 40.8195 69.8823C40.6734 69.8823 38.1177 70.3205 35.6349 70.8316L37.2414 65.3549C37.3874 64.8438 37.5335 64.3326 37.6795 63.8215C37.8986 63.8945 38.1907 64.0405 38.4828 64.1136C39.5781 64.4787 40.8195 64.6977 41.9878 64.6977C43.6673 64.6977 45.3469 64.3326 46.8803 63.6754C46.5882 66.5963 47.3185 69.5172 49.071 71.8539C49.217 72.073 49.4361 72.2921 49.5822 72.5111C49.144 72.8032 48.7059 73.0953 48.2677 73.4604L43.5943 76.6734ZM67.2536 65.428L68.86 70.9046C66.3773 70.4665 63.8215 70.0284 63.6755 69.9554C63.2373 69.8823 62.7262 69.9553 62.3611 70.2474C61.9959 70.5395 61.7039 70.9046 61.6308 71.4158C61.6308 71.5618 61.2657 74.1176 60.9006 76.6734L56.1542 73.3874C55.716 73.0953 55.2779 72.8032 54.8398 72.4381C54.9858 72.219 55.2049 72 55.3509 71.7809C57.1035 69.5172 57.7607 66.5233 57.5416 63.6024C59.1481 64.2596 60.8276 64.6247 62.4341 64.6247C63.6024 64.6247 64.8438 64.4057 65.9392 64.0405C66.2312 63.9675 66.4503 63.8215 66.7424 63.7485C66.9615 64.3326 67.1075 64.9168 67.2536 65.428ZM69.6633 57.8336C69.2252 58.1257 68.787 58.4909 68.3489 58.7829C68.2028 58.5639 68.0568 58.3448 67.9108 58.0527C66.3043 55.716 63.6755 54.1095 60.8276 53.4523C62.7262 51.2616 63.8945 48.4138 63.8945 45.5659C63.8945 45.2738 63.8945 44.9817 63.8215 44.7627C64.3327 44.7627 64.9168 44.7627 65.428 44.7627L71.1968 44.9087C69.9554 47.1724 68.787 49.4361 68.714 49.5821C68.4949 50.0203 68.4219 50.4584 68.568 50.8965C68.714 51.3347 69.0061 51.6998 69.4442 51.9188C69.5903 51.9919 71.927 53.1602 74.1907 54.2556L69.6633 57.8336Z" fill="#E4B5B1"/>
</g>
<defs>
<clipPath id="clip0_472_106849">
<rect width="105.444" height="108" fill="white"/>
</clipPath>
</defs>
</svg>
