<svg width="172" height="59" viewBox="0 0 172 59" fill="none" xmlns="http://www.w3.org/2000/svg">
<g clip-path="url(#clip0_472_106818)">
<path d="M116.799 17.4449C115.897 16.5398 114.503 15.9637 107.039 18.7615C104.332 19.749 100.805 21.3124 97.9342 22.8759C97.5241 21.8884 97.196 21.0656 96.95 20.4895C92.8489 10.9442 91.2084 10.9442 90.2242 10.9442C89.2399 10.9442 87.5995 10.9442 83.4984 20.4895C83.2523 20.9833 82.9242 21.8061 82.5141 22.8759C79.6433 21.3124 76.1164 19.8312 73.4097 18.7615C65.9457 15.9637 64.5513 16.5398 63.6491 17.4449C62.9109 18.1855 61.7626 19.3375 65.6176 28.9651C66.4378 31.0223 69.3086 38.0167 71.8513 40.5676C73.9018 42.6248 76.6085 43.6123 79.3152 43.6123C81.2018 43.6123 83.0883 43.1185 84.8107 42.0488C86.3691 43.0363 88.2556 43.6123 90.3062 43.6123C92.3567 43.6123 94.1612 43.0363 95.8017 42.0488C97.4421 43.0363 99.3286 43.6123 101.297 43.6123C104.004 43.6123 106.711 42.5425 108.761 40.5676C111.304 38.0167 114.175 31.0223 114.995 28.9651C118.686 19.3375 117.537 18.1032 116.799 17.4449ZM74.722 37.7699C72.3434 35.3835 68.0782 25.0976 67.176 20.9833C70.2928 21.7239 77.0186 24.357 81.2018 26.7434C80.4636 29.0474 79.8074 31.516 79.8074 33.2441C79.8074 35.4658 80.5456 37.6053 81.6939 39.3333C79.3973 40.0739 76.6085 39.5802 74.722 37.7699ZM83.7444 33.0795C83.7444 29.7057 88.0096 19.4198 90.2242 15.7992C92.4388 19.4198 96.7039 29.7057 96.7039 33.0795C96.7039 36.7001 93.7511 39.5802 90.2242 39.5802C86.6972 39.5802 83.7444 36.7001 83.7444 33.0795ZM105.808 37.7699C103.922 39.6625 101.215 40.1562 98.8365 39.251C100.067 37.523 100.723 35.4658 100.723 33.1618C100.723 31.4338 100.067 29.0474 99.3286 26.6611C103.512 24.2748 110.238 21.6416 113.354 20.901C112.452 25.0976 108.187 35.3013 105.808 37.7699Z" fill="#E4B5B1"/>
<path d="M90.3062 6.33613C92.0286 6.33613 93.505 4.93725 93.505 3.12693C93.505 1.3989 92.1106 -0.0822754 90.3062 -0.0822754C88.5837 -0.0822754 87.1073 1.31661 87.1073 3.12693C87.1073 4.93725 88.5017 6.33613 90.3062 6.33613Z" fill="#E4B5B1"/>
<path d="M104.496 15.6346C106.218 15.6346 107.695 14.2357 107.695 12.4254C107.695 10.6974 106.3 9.21619 104.496 9.21619C102.774 9.21619 101.297 10.6151 101.297 12.4254C101.297 14.1534 102.774 15.6346 104.496 15.6346Z" fill="#E4B5B1"/>
<path d="M76.0344 15.6346C77.7569 15.6346 79.2333 14.2357 79.2333 12.4254C79.2333 10.6974 77.8389 9.21619 76.0344 9.21619C74.2299 9.21619 72.8356 10.6151 72.8356 12.4254C72.8356 14.1534 74.312 15.6346 76.0344 15.6346Z" fill="#E4B5B1"/>
<path d="M8.03815 37.1939L2.29661 22.1353V35.795L4.1011 36.5356V36.9471H0V36.5356L1.80448 35.795V22.1353L0 21.8885V21.4771H4.26514L9.10444 33.9024L14.0258 21.4771H18.0448V21.8885L16.2403 22.1353V36.2888L18.0448 36.6179V37.0294H12.3853V36.6179L14.1898 36.2888V22.7114L8.44826 37.1939H8.03815Z" fill="#272525"/>
<path d="M23.4583 36.9471V36.5356L25.2627 36.2065V22.1353L23.4583 21.8885V21.4771H35.1054V25.9206H34.6132L33.1368 21.9708H27.3953V28.9652H29.938L31.0863 26.1674H31.5784V32.339H31.0863L29.938 29.4589H27.4773V36.6179H33.547L35.1054 32.339H35.5975V37.1116H23.4583V36.9471Z" fill="#272525"/>
<path d="M41.2571 36.5356L43.0616 36.2065V22.1353L41.2571 21.8885V21.4771H48.6391C50.0334 21.4771 51.3458 21.8062 52.4121 22.4645C53.4784 23.1228 54.3806 24.028 55.0368 25.18C55.6929 26.332 55.939 27.7309 55.939 29.2943C55.939 30.8578 55.6109 32.1744 55.0368 33.4087C54.3806 34.5607 53.5604 35.4659 52.4121 36.1242C51.2638 36.7825 50.0334 37.1116 48.6391 37.1116H41.2571V36.5356ZM48.7211 36.5356C49.6233 36.5356 50.5256 36.2888 51.2638 35.8773C52.002 35.4659 52.5761 34.8076 52.9862 33.9024C53.3963 32.9973 53.6424 32.0098 53.6424 30.6932V27.7309C53.6424 26.4966 53.3963 25.4268 52.9862 24.604C52.5761 23.6988 52.002 23.1228 51.2638 22.6291C50.5256 22.2176 49.7053 21.9708 48.7211 21.9708H45.1941V36.5356H48.7211Z" fill="#272525"/>
<path d="M128.528 36.1242L126.888 36.9471H126.478V31.9275H126.888L128.528 35.5482C129.595 36.2888 130.825 36.7002 132.219 36.7002C133.368 36.7002 134.27 36.371 135.008 35.795C135.746 35.219 136.156 34.3139 136.156 33.2441C136.156 32.4212 135.91 31.8452 135.418 31.3515C134.926 30.8578 134.188 30.5286 133.122 30.2818L129.923 29.4589C128.774 29.1298 127.954 28.636 127.38 27.8954C126.806 27.1549 126.56 26.332 126.56 25.3445C126.56 24.4394 126.724 23.6988 127.052 22.9582C127.38 22.2999 127.954 21.7239 128.61 21.3125C129.267 20.901 130.087 20.7365 131.071 20.7365C132.219 20.7365 133.286 20.901 134.188 21.3125L135.582 20.7365H135.992V24.6862H135.582L134.188 21.8885C133.204 21.3947 132.137 21.2302 131.071 21.2302C129.923 21.2302 129.102 21.5593 128.446 22.1353C127.79 22.7113 127.462 23.4519 127.462 24.4394C127.462 25.0977 127.708 25.6737 128.118 26.0851C128.61 26.4966 129.267 26.8257 130.169 27.0726L133.614 27.9777C134.762 28.2246 135.582 28.7183 136.156 29.4589C136.731 30.1172 136.977 31.1869 136.977 32.5858C136.977 33.9847 136.566 35.1367 135.664 35.9596C134.762 36.7825 133.614 37.1939 132.137 37.1939C130.907 37.1939 129.677 36.8648 128.528 36.1242Z" fill="#272525"/>
<path d="M142.718 36.3711L144.523 36.0419V21.9708L142.718 21.7239V21.3125H148.788C150.674 21.3125 152.151 21.7239 153.053 22.5468C153.955 23.3697 154.447 24.5217 154.447 26.0852C154.447 27.6486 153.955 28.8006 153.053 29.6235C152.151 30.4464 150.674 30.8578 148.788 30.8578H146.655V36.2065L148.46 36.5357V36.9471H142.718V36.3711ZM148.542 30.2818C150.92 30.2818 152.151 28.9652 152.151 26.4143V25.6737C152.151 23.1228 150.92 21.8062 148.542 21.8062H146.655V30.3641H148.542V30.2818Z" fill="#272525"/>
<path d="M157.154 36.7825V36.371L159.041 35.6304L164.618 20.901H164.946L170.196 36.1242L172 36.4533V36.8647H166.34V36.4533L167.899 36.2064L166.258 31.5984H161.091L159.533 35.7127L161.255 36.4533V36.8647H157.154V36.7825ZM161.255 31.1046H166.094L163.798 24.2748L161.255 31.1046Z" fill="#272525"/>
<path d="M47.5727 53.8159H48.393L46.5065 58.9177H45.6862L44.2099 54.9679L42.7335 58.9177H41.9132L40.0267 53.8159H40.847L42.3233 57.9303L43.7997 53.8159H44.5379L46.0143 57.9303L47.5727 53.8159Z" fill="#BFA674"/>
<path d="M55.693 56.3668H51.92C51.92 57.0251 52.084 57.5189 52.3301 57.848C52.6581 58.1772 53.0683 58.3417 53.6424 58.3417C54.2166 58.3417 54.7907 58.1772 55.2828 57.7657L55.5289 58.3417C55.2828 58.5886 55.0368 58.7532 54.7087 58.8355C54.3806 58.9177 53.9705 59 53.6424 59C52.8222 59 52.248 58.7532 51.7559 58.2594C51.2638 57.7657 51.0997 57.1074 51.0997 56.3668C51.0997 55.8731 51.1818 55.3794 51.4278 54.968C51.5919 54.5565 51.92 54.2274 52.248 54.0628C52.5761 53.8159 52.9862 53.7336 53.4784 53.7336C54.1345 53.7336 54.7087 53.9805 55.0368 54.3919C55.4469 54.8034 55.6109 55.4617 55.6109 56.2023V56.3668H55.693ZM52.4941 54.7211C52.248 54.9679 52.084 55.3794 52.002 55.7908H54.9548C54.9548 55.2971 54.7907 54.9679 54.5447 54.7211C54.2986 54.4742 53.9705 54.3097 53.5604 54.3097C53.0683 54.3097 52.7402 54.4742 52.4941 54.7211Z" fill="#BFA674"/>
<path d="M58.8918 58.9177V51.4296H59.7121V58.9177H58.8918Z" fill="#BFA674"/>
<path d="M63.3209 58.9177V51.4296H64.1411V58.9177H63.3209Z" fill="#BFA674"/>
<path d="M72.1794 55.7085V58.9177H71.3592V55.7908C71.3592 55.2971 71.2772 54.9679 71.1131 54.7211C70.9491 54.4742 70.621 54.3919 70.2109 54.3919C69.7188 54.3919 69.3907 54.5565 69.0626 54.8034C68.8165 55.1325 68.6525 55.4617 68.6525 55.9554V58.9177H67.8323V55.2148C67.8323 54.7211 67.8323 54.2273 67.7502 53.8159H68.4884L68.5705 54.7211C68.7345 54.3919 68.9806 54.1451 69.3087 53.9805C69.6368 53.8159 69.9648 53.7336 70.375 53.7336C71.5233 53.6513 72.1794 54.3919 72.1794 55.7085Z" fill="#BFA674"/>
<path d="M79.9714 56.3668H76.2804C76.2804 57.0251 76.4445 57.5189 76.6905 57.848C77.0186 58.1772 77.4287 58.3417 78.0029 58.3417C78.577 58.3417 79.1512 58.1772 79.6433 57.7657L79.8894 58.3417C79.6433 58.5886 79.3973 58.7532 79.0692 58.8355C78.7411 58.9177 78.331 59 78.0029 59C77.1827 59 76.6085 58.7532 76.1164 58.2594C75.6243 57.7657 75.4602 57.1074 75.4602 56.3668C75.4602 55.8731 75.5422 55.3794 75.7883 54.968C75.9523 54.5565 76.2804 54.2274 76.6085 54.0628C76.9366 53.8159 77.3467 53.7336 77.8388 53.7336C78.495 53.7336 79.0692 53.9805 79.3973 54.3919C79.8074 54.8034 79.9714 55.4617 79.9714 56.2023V56.3668ZM76.7726 54.7211C76.5265 54.9679 76.3624 55.3794 76.2804 55.7908H79.2332C79.2332 55.2971 79.0692 54.9679 78.8231 54.7211C78.577 54.4742 78.2489 54.3097 77.8388 54.3097C77.4287 54.3097 77.1006 54.4742 76.7726 54.7211Z" fill="#BFA674"/>
<path d="M82.9242 58.3417L83.1703 57.7657C83.4163 58.0126 83.7444 58.1771 83.9905 58.2594C84.2365 58.3417 84.5646 58.424 84.9747 58.424C85.3849 58.424 85.6309 58.3417 85.877 58.2594C86.041 58.0948 86.2051 57.9303 86.2051 57.6834C86.2051 57.5188 86.1231 57.3543 86.041 57.1897C85.877 57.1074 85.7129 56.9428 85.3849 56.9428L84.5646 56.7782C84.1545 56.696 83.8264 56.5314 83.5804 56.2845C83.3343 56.0377 83.2523 55.7908 83.2523 55.3794C83.2523 54.9679 83.4163 54.5565 83.8264 54.3096C84.1545 54.0628 84.6467 53.8982 85.2208 53.8982C85.5489 53.8982 85.877 53.9805 86.2051 54.0628C86.5332 54.1451 86.7792 54.3096 87.0253 54.5565L86.7792 55.1325C86.2871 54.7211 85.795 54.5565 85.2208 54.5565C84.8927 54.5565 84.5646 54.6388 84.4006 54.8034C84.2365 54.9679 84.0725 55.1325 84.0725 55.3794C84.0725 55.6262 84.1545 55.7908 84.2365 55.8731C84.4006 55.9554 84.5646 56.1199 84.8107 56.1199L85.6309 56.3668C86.1231 56.4491 86.4511 56.6137 86.6972 56.8605C86.9433 57.1074 87.0253 57.3543 87.0253 57.7657C87.0253 58.1771 86.8612 58.5886 86.4511 58.8354C86.1231 59.0823 85.6309 59.2469 84.9747 59.2469C84.1545 59 83.4163 58.7531 82.9242 58.3417Z" fill="#BFA674"/>
<path d="M89.9781 58.3417L90.2242 57.7657C90.4703 58.0126 90.7984 58.1771 91.0444 58.2594C91.2905 58.3417 91.6186 58.424 92.0287 58.424C92.4388 58.424 92.6849 58.3417 92.9309 58.2594C93.095 58.0948 93.259 57.9303 93.259 57.6834C93.259 57.5188 93.177 57.3543 93.095 57.1897C92.9309 57.1074 92.7669 56.9428 92.4388 56.9428L91.6186 56.7782C91.2085 56.696 90.8804 56.5314 90.6343 56.2845C90.3883 56.0377 90.3062 55.7908 90.3062 55.3794C90.3062 54.9679 90.4703 54.5565 90.8804 54.3096C91.2085 54.0628 91.7006 53.8982 92.2748 53.8982C92.6029 53.8982 92.9309 53.9805 93.259 54.0628C93.5871 54.1451 93.8332 54.3096 94.0793 54.5565L93.8332 55.1325C93.3411 54.7211 92.8489 54.5565 92.2748 54.5565C91.9467 54.5565 91.6186 54.6388 91.4545 54.8034C91.2905 54.9679 91.1265 55.1325 91.1265 55.3794C91.1265 55.6262 91.2085 55.7908 91.2905 55.8731C91.4546 55.9554 91.6186 56.1199 91.8647 56.1199L92.6849 56.3668C93.177 56.4491 93.5051 56.6137 93.7512 56.8605C93.9972 57.1074 94.0793 57.3543 94.0793 57.7657C94.0793 58.1771 93.9152 58.5886 93.5051 58.8354C93.177 59.0823 92.6849 59.2469 92.0287 59.2469C91.1265 59 90.4703 58.7531 89.9781 58.3417Z" fill="#BFA674"/>
<path d="M102.855 58.6709C102.527 58.424 102.199 58.1772 102.035 57.7657C101.871 57.3543 101.707 56.9428 101.707 56.3668C101.707 55.8731 101.789 55.3794 102.035 54.968C102.199 54.5565 102.527 54.2274 102.937 54.0628C103.348 53.8159 103.758 53.7336 104.25 53.7336C104.578 53.7336 104.906 53.8159 105.234 53.8982C105.562 53.9805 105.808 54.1451 106.054 54.3919L105.808 54.968C105.562 54.8034 105.316 54.6388 105.07 54.5565C104.824 54.4742 104.578 54.3919 104.332 54.3919C103.84 54.3919 103.43 54.5565 103.102 54.8857C102.773 55.2148 102.691 55.7085 102.691 56.3668C102.691 56.9428 102.855 57.4366 103.102 57.7657C103.43 58.0949 103.84 58.2594 104.332 58.2594C104.578 58.2594 104.824 58.1772 105.07 58.0949C105.316 58.0126 105.562 57.848 105.808 57.6834L106.054 58.2594C105.808 58.424 105.562 58.5886 105.234 58.7532C104.906 58.8355 104.578 58.9177 104.25 58.9177C103.676 59 103.184 58.9177 102.855 58.6709Z" fill="#BFA674"/>
<path d="M113.272 56.3668H109.499C109.499 57.0251 109.663 57.5189 109.909 57.848C110.237 58.1772 110.648 58.3417 111.222 58.3417C111.796 58.3417 112.37 58.1772 112.862 57.7657L113.108 58.3417C112.862 58.5886 112.616 58.7532 112.288 58.8355C111.96 58.9177 111.55 59 111.222 59C110.402 59 109.827 58.7532 109.335 58.2594C108.843 57.7657 108.679 57.1074 108.679 56.3668C108.679 55.8731 108.761 55.3794 109.007 54.968C109.171 54.5565 109.499 54.2274 109.827 54.0628C110.155 53.8159 110.566 53.7336 111.058 53.7336C111.714 53.7336 112.288 53.9805 112.616 54.3919C113.026 54.8034 113.19 55.4617 113.19 56.2023V56.3668H113.272ZM110.073 54.7211C109.827 54.9679 109.663 55.3794 109.581 55.7908H112.534C112.534 55.2971 112.37 54.9679 112.124 54.7211C111.878 54.4742 111.55 54.3097 111.14 54.3097C110.73 54.3097 110.32 54.4742 110.073 54.7211Z" fill="#BFA674"/>
<path d="M120.9 55.7085V58.9177H120.08V55.7908C120.08 55.2971 119.998 54.9679 119.834 54.7211C119.67 54.4742 119.342 54.3919 118.932 54.3919C118.44 54.3919 118.112 54.5565 117.784 54.8034C117.537 55.1325 117.373 55.4617 117.373 55.9554V58.9177H116.553V55.2148C116.553 54.7211 116.553 54.2273 116.471 53.8159H117.209L117.291 54.7211C117.455 54.3919 117.702 54.1451 118.03 53.9805C118.358 53.8159 118.686 53.7336 119.096 53.7336C120.326 53.6513 120.9 54.3919 120.9 55.7085Z" fill="#BFA674"/>
<path d="M125.576 54.4742V57.272C125.576 57.6834 125.658 57.9303 125.822 58.0948C125.986 58.2594 126.232 58.3417 126.478 58.3417C126.642 58.3417 126.888 58.3417 127.052 58.2594V59C126.806 59.0823 126.642 59.0823 126.314 59.0823C125.822 59.0823 125.412 58.9177 125.166 58.6709C124.919 58.424 124.755 58.0126 124.755 57.4365V54.5565H123.771V53.8982H124.755V52.5816L125.576 52.2524V53.8159H127.052V54.4742H125.576Z" fill="#BFA674"/>
<path d="M134.352 56.3668H130.579C130.579 57.0251 130.743 57.5189 130.989 57.848C131.317 58.1772 131.727 58.3417 132.301 58.3417C132.876 58.3417 133.45 58.1772 133.942 57.7657L134.188 58.3417C133.942 58.5886 133.696 58.7532 133.368 58.8355C133.04 58.9177 132.63 59 132.301 59C131.481 59 130.907 58.7532 130.415 58.2594C129.923 57.7657 129.759 57.1074 129.759 56.3668C129.759 55.8731 129.841 55.3794 130.087 54.968C130.251 54.5565 130.579 54.2274 130.907 54.0628C131.235 53.8159 131.645 53.7336 132.137 53.7336C132.794 53.7336 133.368 53.9805 133.696 54.3919C134.106 54.8034 134.27 55.4617 134.27 56.2023V56.3668H134.352ZM131.153 54.7211C130.907 54.9679 130.743 55.3794 130.661 55.7908H133.614C133.614 55.2971 133.45 54.9679 133.204 54.7211C132.958 54.4742 132.63 54.3097 132.219 54.3097C131.809 54.3097 131.399 54.4742 131.153 54.7211Z" fill="#BFA674"/>
<path d="M140.422 53.7337V54.4742C140.258 54.392 140.093 54.392 139.847 54.392C139.355 54.392 139.027 54.5565 138.781 54.8857C138.535 55.2148 138.453 55.544 138.453 56.0377V58.9178H137.633V55.2148C137.633 54.7211 137.633 54.2274 137.551 53.8159H138.289L138.371 54.7211C138.535 54.392 138.699 54.1451 139.027 53.8982C139.273 53.7337 139.601 53.6514 140.011 53.6514C140.093 53.6514 140.258 53.7337 140.422 53.7337Z" fill="#BFA674"/>
</g>
<defs>
<clipPath id="clip0_472_106818">
<rect width="172" height="59" fill="white"/>
</clipPath>
</defs>
</svg>
