<svg width="124" height="108" viewBox="0 0 124 108" fill="none" xmlns="http://www.w3.org/2000/svg">
<g clip-path="url(#clip0_472_106876)">
<path d="M24.3 36.045C24.3 36.1125 24.3675 36.2475 24.435 36.2475C24.5025 36.315 24.6375 36.3825 24.84 36.45L28.9576 38.07L28.89 38.205L23.2875 39.285L26.9325 40.7025C27.135 40.77 27.27 40.8375 27.3375 40.8375C27.4725 40.8375 27.5401 40.8375 27.6076 40.77C27.675 40.7025 27.7425 40.5675 27.81 40.365L27.945 40.4325C27.8776 40.5675 27.7425 40.8375 27.675 41.1075C27.54 41.3775 27.4725 41.58 27.4725 41.7825L27.3375 41.715C27.405 41.58 27.405 41.445 27.405 41.31C27.405 41.2425 27.3376 41.1075 27.2701 41.1075C27.2025 41.04 27.0675 40.9725 26.865 40.905L23.5575 39.555C23.355 39.4875 23.2875 39.42 23.1525 39.42C23.085 39.42 23.0175 39.42 22.95 39.4875C22.8825 39.555 22.815 39.69 22.7475 39.825L22.6125 39.7575C22.68 39.6225 22.7475 39.42 22.8825 39.15C22.95 38.9475 23.0175 38.745 23.085 38.61L27.81 37.665L24.84 36.5175C24.6375 36.45 24.5025 36.3825 24.435 36.3825C24.3 36.3825 24.2325 36.3825 24.165 36.45C24.0975 36.5175 24.03 36.6525 23.9625 36.855L23.8275 36.7875C23.895 36.6525 24.03 36.3825 24.0975 36.1125C24.2325 35.8425 24.3 35.64 24.3 35.4375L24.435 35.505C24.3675 35.775 24.3 35.91 24.3 36.045Z" fill="#BFA674"/>
<path d="M32.13 32.0625L32.265 32.13C32.13 32.265 31.995 32.535 31.86 32.805C31.6575 33.1425 31.455 33.4125 31.3875 33.615L31.2525 33.5475C31.32 33.4125 31.3875 33.2775 31.3875 33.1425C31.3875 33.075 31.3875 33.0075 31.2525 32.94C31.185 32.8725 31.05 32.8725 30.915 32.805L29.6325 32.535L28.6875 34.0875L29.2275 34.7625C29.3625 34.965 29.565 35.1 29.7 35.235C29.835 35.3025 29.97 35.3025 30.0375 35.3025C30.1725 35.235 30.24 35.1 30.375 34.965L30.51 35.0325C30.375 35.235 30.1725 35.505 30.0375 35.775C29.9025 35.9775 29.835 36.1125 29.7675 36.2475L29.6325 36.18C29.7 35.91 29.6325 35.64 29.3625 35.37L26.46 31.5225L26.5275 31.3875L31.455 32.265C31.7925 32.3325 31.995 32.265 32.13 32.0625ZM27.2025 32.13L28.62 34.02L29.4975 32.6025L27.2025 32.13Z" fill="#BFA674"/>
<path d="M29.7001 28.485C29.4976 28.2825 29.2276 28.08 28.9576 27.945C29.2276 27.675 29.7001 27.135 30.3076 26.3925C30.9151 25.65 31.3876 25.11 31.6576 24.7725C31.9276 25.0425 32.1301 25.245 32.3326 25.4475C32.5351 25.5825 32.6701 25.7175 32.8051 25.8525L32.6701 25.9875C32.3326 25.785 32.1301 25.65 31.9276 25.5825C31.7251 25.515 31.5901 25.515 31.3876 25.5825C31.2526 25.65 31.0501 25.785 30.8476 25.9875L30.5776 26.325L33.8176 29.025C33.9526 29.16 34.0876 29.2275 34.2226 29.295C34.2901 29.295 34.4251 29.295 34.4926 29.295C34.5601 29.2275 34.6951 29.16 34.8301 28.9575L34.9651 29.025C34.7626 29.2275 34.5601 29.4975 34.2226 29.835C33.8851 30.24 33.6826 30.51 33.5476 30.7125L33.4126 30.645C33.5476 30.4425 33.6151 30.3075 33.6826 30.24C33.7501 30.1725 33.6826 30.0375 33.6826 29.97C33.6151 29.9025 33.5476 29.7675 33.3451 29.6325L30.1051 26.9325L29.9026 27C29.7001 27.2025 29.5651 27.405 29.5651 27.6075C29.5651 27.7425 29.5651 27.945 29.7001 28.08C29.8351 28.215 29.9701 28.485 30.2401 28.755L30.1051 28.89C30.0376 28.755 29.8351 28.62 29.7001 28.485Z" fill="#BFA674"/>
<path d="M36.7875 20.3175C36.72 20.385 36.72 20.52 36.7875 20.5875C36.855 20.655 36.9225 20.79 37.0575 20.925L38.475 22.6125C38.6775 22.8825 38.88 23.1525 39.015 23.355C39.15 23.5575 39.2175 23.8275 39.285 24.03C39.3525 24.3 39.285 24.5025 39.2175 24.7725C39.0825 25.0425 38.9475 25.245 38.745 25.4475C38.34 25.785 37.935 25.9875 37.53 25.92C37.3275 25.92 37.125 25.8525 36.99 25.785C36.855 25.7175 36.6525 25.5825 36.5175 25.4475C36.3825 25.3125 36.18 25.11 35.91 24.84L34.425 23.085C34.29 22.95 34.2225 22.8825 34.155 22.815C34.0875 22.7475 34.02 22.7475 33.885 22.815C33.8175 22.815 33.6825 22.8825 33.5475 23.0175L33.48 22.8825C33.6825 22.7475 33.885 22.545 34.2225 22.275C34.4925 22.005 34.7625 21.8025 34.8975 21.6675L34.965 21.8025C34.83 21.9375 34.7625 22.005 34.695 22.0725C34.6275 22.14 34.6275 22.2075 34.695 22.3425C34.695 22.41 34.83 22.545 34.8975 22.68L36.45 24.57C36.72 24.84 36.9225 25.11 37.125 25.245C37.3275 25.38 37.53 25.515 37.8 25.515C38.0025 25.515 38.2725 25.4475 38.5425 25.1775C38.9475 24.84 39.0825 24.5025 39.0825 24.0975C39.015 23.6925 38.8125 23.2875 38.4075 22.815L36.9225 21.06C36.7875 20.925 36.72 20.8575 36.585 20.79C36.5175 20.7225 36.3825 20.7225 36.315 20.79C36.2475 20.79 36.1125 20.8575 35.9775 20.9925L35.91 20.8575C36.045 20.7225 36.2475 20.5875 36.5175 20.385C36.72 20.1825 36.9225 20.0475 37.0575 19.9125L37.125 20.0475C36.9225 20.115 36.855 20.25 36.7875 20.3175Z" fill="#BFA674"/>
<path d="M45.4275 20.7224C45.36 20.8574 45.225 20.9249 45.09 21.0599C44.8875 21.1949 44.7525 21.1949 44.55 21.1274C44.3475 21.0599 44.2125 20.9924 44.01 20.7224L43.47 20.1824C43.2675 19.9799 43.1325 19.8449 42.9975 19.7774C42.8625 19.7099 42.7275 19.6424 42.66 19.6424C42.525 19.6424 42.39 19.6424 42.255 19.7774L41.6475 20.1149L42.525 21.5999C42.5925 21.7349 42.7275 21.8699 42.795 21.9374C42.8625 22.0049 42.93 22.0049 42.9975 22.0049C43.065 22.0049 43.2 21.9374 43.335 21.8699L43.4025 22.0049C43.2 22.1399 42.93 22.2749 42.5925 22.4774C42.255 22.6799 41.985 22.8824 41.7825 22.9499L41.715 22.8149C41.85 22.7474 41.985 22.6124 42.0525 22.5449C42.12 22.4774 42.12 22.4099 42.12 22.3424C42.12 22.2749 42.0525 22.1399 41.985 22.0049L40.095 18.8324C40.0275 18.6974 39.8925 18.5624 39.825 18.4949C39.7575 18.4274 39.69 18.4274 39.6225 18.4274C39.555 18.4274 39.42 18.4949 39.285 18.5624L39.15 18.3599C39.3525 18.2924 39.6225 18.0899 39.96 17.8874C40.095 17.8199 40.2975 17.6849 40.5 17.5499C40.7025 17.4149 40.8375 17.3474 40.905 17.2799C41.2425 17.0774 41.5125 16.9424 41.85 16.9424C42.12 16.8749 42.39 16.9424 42.5925 17.0099C42.795 17.0774 42.9975 17.2799 43.1325 17.4824C43.2 17.6174 43.2675 17.8199 43.335 18.0224C43.335 18.2249 43.335 18.4949 43.2 18.6974C43.065 18.9674 42.93 19.1699 42.66 19.3724H42.7275C42.93 19.3049 43.1325 19.2374 43.2675 19.2374C43.4025 19.2374 43.5375 19.2374 43.6725 19.3049C43.8075 19.3724 43.9425 19.5074 44.0775 19.6424L44.6175 20.1824C44.7525 20.3174 44.82 20.3849 44.8875 20.4524C44.955 20.5199 45.0225 20.5199 45.09 20.5874C45.1575 20.5874 45.225 20.5874 45.2925 20.5874C45.36 20.5199 45.4275 20.5199 45.4275 20.4524C45.4275 20.3849 45.495 20.3174 45.495 20.1824H45.63C45.5625 20.4524 45.495 20.5874 45.4275 20.7224ZM42.5925 19.1699C42.7275 18.9674 42.7275 18.7649 42.7275 18.6299C42.7275 18.4274 42.5925 18.2249 42.525 18.0224C42.3225 17.6849 42.0525 17.4824 41.7825 17.3474C41.5125 17.2799 41.175 17.3474 40.8375 17.5499C40.7025 17.6174 40.635 17.6849 40.5675 17.7524C40.5 17.8199 40.5 17.8874 40.5 18.0224C40.5 18.0899 40.5675 18.2249 40.635 18.3599L41.58 19.9124L41.985 19.6424C42.255 19.5074 42.4575 19.3724 42.5925 19.1699Z" fill="#BFA674"/>
<path d="M51.1651 18.2249L51.2326 18.3599C51.0301 18.4274 50.7601 18.4949 50.4901 18.6299C50.0851 18.7649 49.8151 18.8999 49.6126 18.9674L49.5451 18.8324C49.7476 18.7649 49.8151 18.6974 49.8826 18.6299C49.9501 18.5624 49.9501 18.4949 49.9501 18.4274C49.9501 18.3599 49.8826 18.2249 49.7476 18.1574L48.8701 17.2124L47.1826 17.8874V18.6974C47.1826 18.9674 47.1826 19.1699 47.2501 19.3049C47.3176 19.4399 47.3851 19.5074 47.5201 19.5749C47.6551 19.5749 47.7901 19.5749 47.9926 19.5074L48.0601 19.6424C47.7901 19.7099 47.5201 19.8449 47.2501 19.9124C47.0476 19.9799 46.8451 20.0474 46.7101 20.1149L46.6426 19.9799C46.8451 19.8449 46.9801 19.5749 46.9801 19.1699V14.3774L47.1151 14.3099L50.4901 18.0224C50.6926 18.2249 50.9626 18.2924 51.1651 18.2249ZM47.1826 15.2549V17.6174L48.7351 17.0099L47.1826 15.2549Z" fill="#BFA674"/>
<path d="M52.9874 12.7575C52.9199 12.825 52.8524 12.8925 52.8524 12.96C52.8524 13.0275 52.8524 13.1625 52.9199 13.365L53.6624 16.9425C53.7299 17.145 53.7299 17.28 53.7974 17.3475C53.8649 17.415 53.9324 17.4825 53.9999 17.4825C54.0674 17.4825 54.2024 17.4825 54.4049 17.415L54.9449 17.28C55.2149 17.2125 55.4849 17.145 55.6199 17.01C55.7549 16.875 55.8224 16.74 55.8899 16.5375C55.8899 16.335 55.8899 16.065 55.8899 15.66L56.0249 15.5925C56.0249 15.7275 56.0924 15.93 56.1599 16.2C56.2274 16.47 56.2949 16.8075 56.4299 17.145C56.0924 17.2125 55.5524 17.28 54.7424 17.4825C53.7974 17.685 53.1224 17.82 52.6499 17.955V17.82C52.8524 17.7525 52.9199 17.7525 52.9874 17.685C53.0549 17.6175 53.1224 17.55 53.1224 17.4825C53.1224 17.415 53.1224 17.28 53.0549 17.0775L52.1774 13.5C52.1099 13.2975 52.1099 13.1625 52.0424 13.095C51.9749 13.0275 51.9074 12.96 51.8399 12.96C51.7724 12.96 51.6374 12.96 51.4349 12.96V12.825C51.6374 12.825 51.9749 12.7575 52.3799 12.6225C52.7849 12.555 53.0549 12.4875 53.3249 12.42V12.555C53.1899 12.69 53.0549 12.69 52.9874 12.7575Z" fill="#BFA674"/>
<path d="M65.3401 16.5375C65.3401 16.47 65.2726 16.4025 65.2051 16.4025C65.1376 16.4025 65.1376 16.4025 65.0701 16.47C64.9351 16.5375 64.8001 16.6725 64.6651 16.74C64.5301 16.8075 64.3951 16.875 64.2601 16.875C64.1251 16.9425 63.9226 16.9425 63.7201 16.9425C63.2476 16.9425 62.8426 16.8075 62.5051 16.605C62.1676 16.4025 61.8976 16.065 61.6951 15.66C61.4926 15.255 61.4251 14.7825 61.4926 14.2425C61.4926 13.7025 61.6276 13.23 61.8301 12.825C62.0326 12.42 62.3701 12.0825 62.7076 11.88C63.0451 11.6775 63.4501 11.5425 63.9226 11.61C64.1926 11.61 64.4626 11.6775 64.6651 11.745C64.8676 11.8125 65.0701 11.9475 65.2726 12.15C65.3401 12.2175 65.3401 12.2175 65.4076 12.2175C65.4751 12.2175 65.6101 12.0825 65.6101 11.8125H65.8126C65.8126 12.15 65.7451 12.69 65.7451 13.5H65.5426C65.5426 13.2975 65.4751 13.095 65.4751 12.96C65.4751 12.825 65.4076 12.7575 65.4076 12.6225C65.3401 12.555 65.3401 12.42 65.2726 12.3525C65.1376 12.15 64.9351 12.015 64.7326 11.88C64.5301 11.745 64.2601 11.745 63.9901 11.6775C63.6526 11.6775 63.3826 11.745 63.1126 11.9475C62.8426 12.15 62.6401 12.42 62.5051 12.825C62.3701 13.23 62.3026 13.7025 62.2351 14.175C62.2351 14.715 62.2351 15.1875 62.3701 15.5925C62.5051 15.9975 62.7076 16.2675 62.9101 16.47C63.1801 16.6725 63.4501 16.8075 63.7876 16.8075C64.0576 16.8075 64.2601 16.8075 64.5301 16.6725C64.8001 16.605 64.9351 16.47 65.0701 16.2675C65.2051 16.1325 65.2726 15.9975 65.2726 15.8625C65.3401 15.7275 65.4076 15.4575 65.4076 15.12H65.6101C65.5426 15.9975 65.5426 16.5375 65.5426 16.875H65.3401C65.4076 16.74 65.4076 16.605 65.3401 16.5375Z" fill="#BFA674"/>
<path d="M72.2925 13.0275C72.5625 13.2975 72.765 13.7025 72.9 14.1075C73.035 14.5125 72.9675 15.0525 72.9 15.5925C72.765 16.1325 72.5625 16.605 72.2925 16.9425C72.0225 17.28 71.685 17.55 71.28 17.685C70.875 17.82 70.47 17.8875 69.9975 17.7525C69.525 17.6175 69.1875 17.4825 68.85 17.145C68.58 16.875 68.3775 16.47 68.2425 16.065C68.1075 15.66 68.175 15.12 68.2425 14.58C68.3775 14.04 68.58 13.5675 68.85 13.23C69.12 12.8925 69.4575 12.6225 69.8625 12.4875C70.2675 12.3525 70.6725 12.285 71.145 12.42C71.6175 12.555 72.0225 12.7575 72.2925 13.0275ZM70.2 12.69C69.93 12.825 69.66 13.095 69.4575 13.5C69.255 13.8375 69.0525 14.31 68.985 14.7825C68.85 15.255 68.85 15.7275 68.9175 16.1325C68.985 16.5375 69.12 16.875 69.3225 17.145C69.525 17.415 69.795 17.55 70.065 17.6175C70.4025 17.685 70.6725 17.6175 70.9425 17.4825C71.2125 17.3475 71.4825 17.0775 71.685 16.6725C71.8875 16.335 72.09 15.8625 72.1575 15.39C72.2925 14.9175 72.2925 14.445 72.225 14.04C72.1575 13.635 72.0225 13.2975 71.82 13.0275C71.6175 12.7575 71.3475 12.6225 71.0775 12.555C70.8075 12.4875 70.47 12.555 70.2 12.69Z" fill="#BFA674"/>
<path d="M74.9926 18.6299C75.0601 18.9674 75.3301 19.2374 75.7351 19.4399C75.8701 19.5074 76.0726 19.5074 76.2076 19.5074C76.3426 19.5074 76.5451 19.4399 76.6801 19.3049C76.8151 19.1699 76.9501 19.0349 77.0176 18.8324C77.0851 18.6299 77.0851 18.4949 77.0851 18.2924C77.0851 18.0899 77.0176 17.9549 76.8826 17.7524C76.8151 17.5499 76.6126 17.3474 76.4776 17.1449C76.2751 16.8749 76.1401 16.6049 76.0051 16.4699C75.8701 16.2674 75.8026 16.0649 75.8026 15.8624C75.8026 15.6599 75.8026 15.3899 75.8701 15.1874C76.0051 14.9174 76.1401 14.7149 76.3426 14.5799C76.5451 14.4449 76.7476 14.3774 76.9501 14.3774C77.1526 14.3774 77.4226 14.4449 77.6251 14.5124C77.7601 14.5799 77.8951 14.6474 77.9626 14.7149C78.0301 14.7824 78.0976 14.8499 78.1651 14.9174C78.2326 14.9849 78.3001 15.0524 78.3001 15.1199C78.3676 15.2549 78.4351 15.3224 78.5026 15.3224C78.5701 15.3224 78.5701 15.3224 78.6376 15.3224C78.7051 15.2549 78.7051 15.1874 78.7726 15.1199L78.9076 15.1874C78.7726 15.4574 78.5701 15.9299 78.3001 16.6049L78.1651 16.5374C78.2326 16.2674 78.3001 16.0649 78.3001 15.7949C78.3001 15.5924 78.2326 15.3224 78.0976 15.1874C77.9626 14.9849 77.8276 14.8499 77.5576 14.7824C77.4226 14.7149 77.2201 14.7149 77.0851 14.7149C76.9501 14.7149 76.8151 14.7824 76.6801 14.8499C76.5451 14.9174 76.4776 15.0524 76.4101 15.2549C76.3426 15.5249 76.2751 15.7274 76.4101 15.9299C76.4776 16.1324 76.6126 16.3349 76.7476 16.5374C76.8826 16.7399 77.0176 16.8749 77.0176 16.9424C77.2201 17.2124 77.4226 17.4824 77.4901 17.6849C77.6251 17.8874 77.6926 18.0899 77.6926 18.2924C77.6926 18.4949 77.6926 18.7649 77.6251 18.9674C77.4901 19.2374 77.3551 19.4399 77.1526 19.5749C76.9501 19.7099 76.6801 19.7774 76.4776 19.7774C76.2076 19.7774 75.9376 19.7099 75.6676 19.6424C75.4651 19.5749 75.2626 19.4399 75.1276 19.3724C74.9926 19.2374 74.9251 19.1699 74.7901 19.0349C74.7226 18.8999 74.6551 18.8324 74.5876 18.8324C74.5201 18.8324 74.5201 18.8324 74.4526 18.8324C74.3851 18.8999 74.3851 18.9674 74.3176 19.0349L74.1826 18.9674C74.3176 18.6974 74.5201 18.1574 74.8576 17.3474L74.9926 17.4149C74.9926 17.8199 74.9251 18.2249 74.9926 18.6299Z" fill="#BFA674"/>
<path d="M86.2651 19.5075C86.1976 19.5075 86.1301 19.5075 86.0626 19.575C85.9951 19.6425 85.9276 19.71 85.7926 19.9125L83.8351 23.0175C83.7676 23.1525 83.7001 23.2875 83.6326 23.355C83.6326 23.4225 83.6326 23.49 83.7001 23.5575C83.7676 23.625 83.8351 23.6925 83.9701 23.8275L83.9026 23.9625C83.7001 23.8275 83.4301 23.625 83.0926 23.4225C82.7551 23.22 82.4851 23.0175 82.2826 22.95L82.3501 22.815C82.4851 22.8825 82.6201 22.95 82.6876 22.95C82.7551 22.95 82.8226 22.95 82.8901 22.8825C82.9576 22.815 83.0251 22.7475 83.1601 22.545L85.2526 19.17L81.2026 22.275L81.1351 22.2075L82.1476 17.145L80.0551 20.4525C79.9201 20.5875 79.9201 20.7225 79.8526 20.8575C79.8526 20.925 79.8526 21.06 79.9201 21.1275C79.9876 21.195 80.0551 21.33 80.2576 21.3975L80.1901 21.5325C80.0551 21.3975 79.8526 21.2625 79.5826 21.1275C79.3126 20.9925 79.1101 20.8575 78.9751 20.79L79.0426 20.655C79.1776 20.7225 79.3126 20.79 79.3801 20.79C79.4476 20.79 79.5826 20.79 79.6501 20.7225C79.7176 20.655 79.7851 20.52 79.9201 20.385L81.8101 17.3475C81.8776 17.2125 81.9451 17.0775 82.0126 17.01C82.0126 16.9425 82.0126 16.875 81.9451 16.8075C81.8776 16.74 81.8101 16.6725 81.6751 16.5375L81.7426 16.4025C81.8776 16.47 82.0801 16.605 82.2826 16.8075C82.4851 16.9425 82.6876 17.0775 82.8226 17.145L81.8776 21.6675L85.5226 18.9L85.7926 19.1025C86.1301 19.305 86.4001 19.5075 86.6026 19.575L86.5351 19.71C86.4676 19.575 86.4001 19.5075 86.2651 19.5075Z" fill="#BFA674"/>
<path d="M88.7626 27.0675C88.5601 27.27 88.3576 27.54 88.1551 27.81C87.9526 27.54 87.4801 27.2025 86.9401 26.6625C86.2651 25.9875 85.7251 25.515 85.3201 25.245L85.3876 25.11C85.5226 25.245 85.6576 25.3125 85.7251 25.3125C85.7926 25.3125 85.8601 25.3125 85.9951 25.3125C86.0626 25.245 86.1976 25.1775 86.3326 25.0425L88.8301 22.3425C88.9651 22.2075 89.0326 22.0725 89.1001 22.005C89.1676 21.9375 89.1676 21.87 89.1001 21.735C89.0326 21.6675 88.9651 21.5325 88.8301 21.3975L88.8976 21.2625C89.2351 21.6 89.7751 22.0725 90.4501 22.7475C90.9901 23.22 91.3951 23.5575 91.5976 23.76C91.3276 23.9625 91.1251 24.165 90.9901 24.3675C90.8551 24.5025 90.7876 24.6375 90.7201 24.705L90.5851 24.57C90.7876 24.3 90.9226 24.0975 90.9901 23.9625C91.0576 23.8275 91.0576 23.6925 90.9901 23.5575C90.9226 23.4225 90.8551 23.2875 90.6526 23.085L90.1801 22.68C90.0451 22.545 89.9776 22.4775 89.8426 22.4775C89.7751 22.4775 89.7076 22.4775 89.6401 22.4775C89.5726 22.545 89.4376 22.6125 89.3026 22.7475L88.0876 24.03L88.4251 24.3675C88.6276 24.57 88.7626 24.57 88.9651 24.57C89.1001 24.5025 89.2351 24.435 89.3701 24.3675C89.5051 24.3 89.5726 24.2325 89.5726 24.165L89.7751 24.3C89.5726 24.435 89.4376 24.6375 89.3026 24.7725L89.0326 25.0425C88.8301 25.245 88.6276 25.515 88.3576 25.8525L88.2226 25.7175C88.2226 25.7175 88.2901 25.5825 88.4251 25.4475C88.5601 25.3125 88.6276 25.11 88.6276 24.975C88.6276 24.84 88.5601 24.705 88.4251 24.57L88.0876 24.2325L86.8726 25.515C86.7376 25.65 86.6701 25.785 86.6026 25.8525C86.5351 25.92 86.6026 25.9875 86.6026 26.055C86.6701 26.1225 86.7376 26.2575 86.8726 26.325L87.2776 26.6625C87.4801 26.865 87.6826 27 87.8851 27.0675C88.0876 27.135 88.2226 27.0675 88.4251 27C88.6276 26.9325 88.8301 26.73 89.1001 26.5275L89.2351 26.6625C89.0326 26.7975 88.9651 26.9325 88.7626 27.0675Z" fill="#BFA674"/>
<path d="M92.8802 26.5275C93.0827 26.325 93.3527 26.1225 93.6227 25.92C93.8927 26.2575 94.2977 26.7975 94.9052 27.6075C95.5127 28.35 95.9177 28.89 96.1877 29.2275C95.9177 29.43 95.6477 29.565 95.3777 29.7675C95.1752 29.9025 95.0402 30.0375 94.9052 30.1725L94.7702 30.0375C95.0402 29.7675 95.2427 29.565 95.3777 29.43C95.5127 29.295 95.5127 29.0925 95.5127 28.9575C95.5127 28.755 95.3777 28.5525 95.1752 28.35L94.9052 28.0125L91.5977 30.5775C91.4627 30.7125 91.3277 30.78 91.2602 30.915C91.1927 30.9825 91.1927 31.1175 91.2602 31.185C91.3277 31.32 91.3952 31.455 91.5302 31.59L91.3952 31.6575C91.2602 31.455 91.0577 31.185 90.7202 30.78C90.3827 30.375 90.1802 30.105 90.0452 29.9025L90.1802 29.835C90.3152 29.97 90.4502 30.105 90.5177 30.1725C90.5852 30.24 90.7202 30.24 90.7877 30.24C90.8552 30.24 90.9902 30.105 91.1927 30.0375L94.5002 27.4725L94.2302 27.135C94.0277 26.865 93.8927 26.73 93.6902 26.6625C93.5552 26.595 93.3527 26.595 93.1502 26.6625C92.9477 26.73 92.7452 26.865 92.4077 27.0675L92.2727 26.9325C92.4752 26.7975 92.6777 26.73 92.8802 26.5275Z" fill="#BFA674"/>
<path d="M98.0775 32.7375C98.01 32.67 97.9425 32.67 97.875 32.67C97.8075 32.67 97.6725 32.7374 97.47 32.8049L94.2975 34.6274C94.1625 34.6949 94.0275 34.8299 93.96 34.8974C93.8925 34.9649 93.8925 35.0324 93.8925 35.0999C93.8925 35.1674 93.96 35.3024 94.0275 35.4374L93.8925 35.5049C93.7575 35.3024 93.6225 35.0324 93.42 34.695C93.2175 34.3575 93.015 34.0875 92.9475 33.885L93.0825 33.8174C93.15 33.9524 93.285 34.0874 93.3525 34.1549C93.42 34.2224 93.4875 34.2225 93.555 34.2225C93.6225 34.2225 93.7575 34.1549 93.96 34.0874L97.1325 32.265C97.2675 32.1975 97.4025 32.0625 97.47 31.995C97.5375 31.9275 97.5375 31.8599 97.5375 31.7924C97.5375 31.7249 97.47 31.59 97.4025 31.455L97.5375 31.3875C97.605 31.59 97.8075 31.86 98.01 32.1975C98.2125 32.535 98.3475 32.805 98.4825 33.0075L98.3475 33.075C98.2125 32.8725 98.145 32.805 98.0775 32.7375Z" fill="#BFA674"/>
<path d="M96.7275 40.9049C96.795 40.8374 96.795 40.7699 96.795 40.7699C96.795 40.7024 96.7275 40.7024 96.66 40.6349C96.525 40.5674 96.39 40.4324 96.255 40.3649C96.12 40.2974 96.0525 40.1624 95.9175 40.0274C95.85 39.8924 95.715 39.7574 95.6475 39.5549C95.445 39.1499 95.3775 38.6774 95.445 38.2724C95.5125 37.8674 95.715 37.4624 95.985 37.1924C96.255 36.8549 96.66 36.5849 97.2 36.3824C97.6725 36.1799 98.2125 36.1124 98.6175 36.1124C99.09 36.1124 99.495 36.2474 99.8325 36.5174C100.17 36.7874 100.44 37.0574 100.642 37.5299C100.777 37.7999 100.777 38.0699 100.845 38.2724C100.845 38.4749 100.845 38.7449 100.777 38.9474C100.777 39.0149 100.777 39.0824 100.777 39.0824C100.845 39.1499 100.98 39.1499 101.25 39.0824L101.317 39.2174C101.047 39.3524 100.507 39.5549 99.765 39.8249L99.6975 39.6899C99.9 39.5549 100.035 39.4874 100.17 39.4199C100.305 39.3524 100.372 39.2849 100.44 39.2174C100.507 39.1499 100.575 39.0824 100.642 38.9474C100.777 38.7449 100.845 38.4749 100.845 38.2724C100.845 38.0024 100.777 37.7999 100.71 37.5299C100.575 37.2599 100.372 36.9899 100.102 36.8549C99.8325 36.7199 99.495 36.6524 99.0225 36.6524C98.6175 36.6524 98.145 36.7874 97.6725 36.9899C97.2 37.1924 96.795 37.4624 96.4575 37.7324C96.1875 38.0024 95.985 38.3399 95.85 38.6099C95.7825 38.9474 95.7825 39.2174 95.9175 39.4874C95.985 39.6899 96.12 39.8924 96.3225 40.0949C96.525 40.2974 96.7275 40.3649 96.93 40.4324C97.065 40.4999 97.2675 40.4999 97.4025 40.4324C97.5375 40.4324 97.8075 40.3649 98.145 40.2974L98.2125 40.4324C97.4025 40.7699 96.8625 40.9724 96.5925 41.1074L96.525 40.9724C96.525 41.0399 96.66 40.9724 96.7275 40.9049Z" fill="#BFA674"/>
<path d="M28.1475 72.495C28.08 72.4275 28.0125 72.4275 27.8775 72.4275C27.81 72.4275 27.675 72.495 27.4725 72.5625L23.49 74.4525L23.4225 74.3175L26.46 69.525L22.95 71.2125C22.7475 71.28 22.68 71.3475 22.6125 71.415C22.545 71.4825 22.4775 71.55 22.4775 71.685C22.4775 71.7525 22.545 71.8875 22.6125 72.09L22.4775 72.1575C22.41 72.0225 22.3425 71.7525 22.2075 71.4825C22.0725 71.2125 22.005 71.01 21.87 70.875L22.005 70.8075C22.0725 70.9425 22.14 71.0775 22.2075 71.0775C22.275 71.145 22.3425 71.145 22.4775 71.145C22.545 71.145 22.68 71.0775 22.8825 71.01L26.1225 69.4575C26.2575 69.39 26.3925 69.3225 26.46 69.255C26.5275 69.1875 26.5275 69.12 26.5275 69.0525C26.5275 68.985 26.46 68.85 26.3925 68.715L26.5275 68.6475C26.595 68.7825 26.6625 68.985 26.7975 69.255C26.865 69.4575 27 69.5925 27.0675 69.7275L24.57 73.71L27.405 72.36C27.6075 72.2925 27.675 72.225 27.7425 72.1575C27.81 72.09 27.8775 72.0225 27.8775 71.8875C27.8775 71.82 27.81 71.685 27.7425 71.4825L27.8775 71.415C27.945 71.55 28.0125 71.82 28.1475 72.09C28.2825 72.36 28.35 72.5625 28.485 72.6975L28.35 72.765C28.2825 72.63 28.215 72.5625 28.1475 72.495Z" fill="#BFA674"/>
<path d="M28.4175 81.6751L28.2825 81.7426C28.1475 81.6076 28.0125 81.3376 27.8775 81.1351C27.6075 80.7976 27.4725 80.5951 27.3375 80.3926L27.4725 80.3251C27.6075 80.4601 27.675 80.5276 27.7425 80.5951C27.81 80.6626 27.8775 80.5951 27.945 80.5951C28.0125 80.5276 28.08 80.4601 28.1475 80.3251L28.89 79.2451L27.8775 77.8276L27.0675 78.0301C26.7975 78.0976 26.595 78.1651 26.46 78.3001C26.325 78.3676 26.2575 78.5026 26.2575 78.6376C26.2575 78.7726 26.325 78.9076 26.46 79.1101L26.325 79.1776C26.19 78.9751 26.055 78.7051 25.8525 78.5026C25.7175 78.3001 25.65 78.1651 25.515 78.0976L25.65 78.0301C25.8525 78.1651 26.1225 78.2326 26.5275 78.0976L31.1175 76.8151L31.185 76.8826L28.4175 81.0001C28.35 81.2701 28.35 81.5401 28.4175 81.6751ZM30.375 77.2201L28.08 77.8276L29.025 79.1101L30.375 77.2201Z" fill="#BFA674"/>
<path d="M33.48 81.1351C33.6825 80.9326 33.885 80.6626 34.0875 80.3926C34.3575 80.6626 34.83 81.1351 35.505 81.8101C36.18 82.4851 36.6525 82.9576 36.9225 83.2276C36.6525 83.4301 36.45 83.7001 36.2475 83.8351C36.045 84.0376 35.91 84.1726 35.8425 84.3076L35.7075 84.1726C35.9775 83.9026 36.1125 83.6326 36.18 83.4976C36.2475 83.2951 36.315 83.1601 36.2475 83.0251C36.18 82.8901 36.1125 82.6876 35.8425 82.4851L35.5725 82.2151L32.6025 85.1851C32.4675 85.3201 32.4 85.4551 32.3325 85.5226C32.265 85.5901 32.265 85.7251 32.3325 85.7926C32.4 85.8601 32.4675 85.9951 32.6025 86.1301L32.4675 86.2651C32.3325 86.0626 32.0625 85.8601 31.725 85.5226C31.3875 85.1851 31.1175 84.9826 30.9825 84.7801L31.1175 84.6451C31.2525 84.7801 31.3875 84.8476 31.5225 84.9151C31.59 84.9826 31.725 84.9826 31.7925 84.9151C31.86 84.8476 31.995 84.7801 32.13 84.6451L35.1 81.6751L34.83 81.4051C34.6275 81.2026 34.425 81.0676 34.29 81.0676C34.155 81.0001 33.9525 81.0676 33.8175 81.1351C33.615 81.2026 33.4125 81.4051 33.1425 81.6751L33.0075 81.5401C33.1425 81.4726 33.2775 81.3376 33.48 81.1351Z" fill="#BFA674"/>
<path d="M42.39 87.6151C42.3225 87.6151 42.1875 87.6151 42.12 87.6826C42.0525 87.7501 41.9175 87.8851 41.85 88.0201L40.5675 89.8426C40.365 90.1126 40.1625 90.3826 40.0275 90.5851C39.825 90.7876 39.69 90.9226 39.4875 90.9901C39.285 91.1251 39.015 91.1251 38.745 91.1251C38.475 91.1251 38.205 90.9901 38.0025 90.8551C37.5975 90.5851 37.3275 90.2476 37.26 89.8426C37.1925 89.6401 37.1925 89.4376 37.26 89.3026C37.26 89.1676 37.3275 88.9651 37.4625 88.7626C37.53 88.5601 37.7325 88.3576 37.8675 88.0201L39.15 86.1301C39.285 85.9951 39.285 85.8601 39.3525 85.7926C39.3525 85.7251 39.3525 85.6576 39.285 85.5901C39.2175 85.5226 39.15 85.4551 39.015 85.3201L39.0825 85.1851C39.2175 85.3201 39.4875 85.4551 39.825 85.7251C40.1625 85.9276 40.365 86.1301 40.5675 86.1976L40.5 86.3326C40.365 86.2651 40.23 86.1976 40.1625 86.1976C40.095 86.1976 40.0275 86.1976 39.96 86.2651C39.8925 86.3326 39.825 86.4001 39.69 86.6026L38.34 88.6276C38.1375 88.9651 37.935 89.2351 37.8675 89.5051C37.7325 89.7751 37.7325 89.9776 37.8 90.1801C37.8675 90.3826 38.0025 90.5851 38.2725 90.7876C38.6775 91.0576 39.0825 91.1251 39.42 90.9901C39.7575 90.8551 40.095 90.5176 40.5 89.9776L41.7825 88.0876C41.9175 87.9526 41.9175 87.8176 41.985 87.6826C41.985 87.5476 41.985 87.4801 41.9175 87.4126C41.85 87.3451 41.7825 87.2101 41.6475 87.1426L41.715 87.0076C41.85 87.1426 42.0525 87.2776 42.3225 87.4126C42.525 87.5476 42.7275 87.6826 42.8625 87.7501L42.795 87.8851C42.5925 87.6826 42.4575 87.6151 42.39 87.6151Z" fill="#BFA674"/>
<path d="M47.0476 95.445C46.9126 95.445 46.7776 95.445 46.5751 95.3775C46.3726 95.31 46.3051 95.175 46.2376 95.04C46.1701 94.905 46.1701 94.635 46.2376 94.365L46.3726 93.6225C46.4401 93.3525 46.4401 93.15 46.4401 93.015C46.4401 92.88 46.4401 92.745 46.3726 92.61C46.3051 92.475 46.1701 92.4075 46.0351 92.34L45.4276 92.07L44.7526 93.6225C44.6851 93.825 44.6176 93.8925 44.6176 94.0275C44.6176 94.095 44.6176 94.1625 44.6851 94.23C44.7526 94.2975 44.8201 94.365 45.0226 94.4325L44.9551 94.5675C44.7526 94.5 44.4826 94.365 44.1451 94.1625C43.7401 94.0275 43.4701 93.8925 43.3351 93.825L43.4026 93.69C43.5376 93.7575 43.6726 93.7575 43.7401 93.7575C43.8076 93.7575 43.8751 93.7575 43.9426 93.69C44.0101 93.6225 44.0776 93.4875 44.1451 93.3525L45.6301 89.9775C45.6976 89.775 45.7651 89.7075 45.7651 89.5725C45.7651 89.505 45.7651 89.4375 45.6976 89.37C45.6301 89.3025 45.5626 89.235 45.3601 89.1675L45.4276 89.0325C45.6301 89.1 45.9001 89.235 46.2376 89.37C46.4401 89.4375 46.5751 89.505 46.7776 89.64C46.9801 89.7075 47.1151 89.775 47.1826 89.8425C47.5201 89.9775 47.7901 90.18 47.9926 90.3825C48.1951 90.585 48.3301 90.7875 48.3301 91.0575C48.3976 91.26 48.3301 91.53 48.2626 91.7325C48.1951 91.935 48.0601 92.07 47.9251 92.205C47.7901 92.34 47.5876 92.475 47.3176 92.5425C47.0476 92.61 46.7776 92.61 46.4401 92.475L46.5076 92.5425C46.7101 92.6775 46.8451 92.745 46.9126 92.88C46.9801 93.015 47.0476 93.15 47.0476 93.285C47.0476 93.42 47.0476 93.6225 46.9801 93.825L46.8451 94.5675C46.8451 94.7025 46.7776 94.8375 46.7776 94.905C46.7776 94.9725 46.7776 95.04 46.7776 95.1075C46.7776 95.175 46.8451 95.175 46.9126 95.2425C46.9801 95.2425 47.0476 95.31 47.1151 95.2425C47.1826 95.2425 47.2501 95.175 47.3851 95.1075L47.4526 95.2425C47.3176 95.3775 47.1826 95.3775 47.0476 95.445ZM46.7101 92.2725C46.9126 92.2725 47.1151 92.1375 47.2501 92.0025C47.3851 91.8675 47.5201 91.665 47.5876 91.4625C47.7226 91.0575 47.7901 90.7875 47.7226 90.5175C47.6551 90.2475 47.3851 90.045 47.0476 89.8425C46.9126 89.775 46.7776 89.775 46.7101 89.775C46.6426 89.775 46.5751 89.8425 46.5076 89.91C46.4401 89.9775 46.3726 90.1125 46.3051 90.2475L45.5626 91.935L46.0351 92.1375C46.2376 92.205 46.5076 92.2725 46.7101 92.2725Z" fill="#BFA674"/>
<path d="M55.0125 97.47V97.605C54.81 97.5375 54.6075 97.47 54.27 97.4025C53.865 97.335 53.595 97.2675 53.3925 97.2V97.065C53.595 97.065 53.73 97.1325 53.7975 97.065C53.865 97.065 53.9325 96.9975 53.9325 96.8625C53.9325 96.795 53.9325 96.66 53.9325 96.525L53.7975 95.2426L52.11 94.8375L51.6375 95.5125C51.5025 95.715 51.3675 95.9175 51.3675 96.0525C51.3 96.1875 51.3675 96.3225 51.435 96.39C51.5025 96.4575 51.6375 96.5251 51.84 96.5926V96.7275C51.57 96.66 51.3 96.5925 51.03 96.525C50.8275 96.4575 50.625 96.4575 50.49 96.4575V96.3225C50.76 96.3225 50.9625 96.12 51.165 95.85L53.7975 91.8676H53.9325L54.6075 96.795C54.675 97.2 54.81 97.4025 55.0125 97.47ZM53.46 92.8125L52.1775 94.77L53.73 95.1075L53.46 92.8125Z" fill="#BFA674"/>
<path d="M60.075 93.015C60.0075 93.015 59.94 93.0825 59.94 93.15C59.94 93.2175 59.8724 93.3525 59.8724 93.555L59.7375 97.2C59.7375 97.4025 59.7375 97.5375 59.7375 97.605C59.7375 97.6725 59.8049 97.74 59.8724 97.8075C59.9399 97.8075 60.0749 97.875 60.2099 97.875H60.7499C61.0199 97.875 61.2899 97.875 61.4249 97.74C61.5599 97.6725 61.6949 97.5375 61.7624 97.335C61.8299 97.1325 61.8975 96.8625 61.965 96.525H62.0999C62.0999 96.66 62.0324 96.8625 62.0324 97.1325C62.0324 97.4025 62.0324 97.74 62.0324 98.0775C61.695 98.0775 61.1549 98.01 60.4124 98.01C59.535 97.9425 58.7925 97.9425 58.3875 97.9425V97.8075C58.59 97.8075 58.6574 97.8075 58.7924 97.74C58.8599 97.74 58.9275 97.6725 58.9275 97.605C58.9275 97.5375 58.995 97.4025 58.995 97.2L59.1299 93.555C59.1299 93.3525 59.1299 93.2175 59.1299 93.15C59.1299 93.0825 59.0625 93.015 58.995 92.9475C58.9275 92.88 58.7925 92.88 58.6575 92.88V92.745C58.86 92.745 59.1299 92.8125 59.5349 92.8125C59.9399 92.8125 60.21 92.8125 60.4124 92.8125V92.9475C60.2775 93.015 60.1425 93.015 60.075 93.015Z" fill="#BFA674"/>
<path d="M73.7099 94.0275C73.9799 94.23 74.1824 94.4325 74.2499 94.77C74.3174 95.04 74.3174 95.31 74.2499 95.5125C74.1824 95.7825 74.0474 95.985 73.7774 96.1875C73.5749 96.39 73.3049 96.525 72.9674 96.5925C72.8999 96.5925 72.6974 96.66 72.4949 96.7275C72.2924 96.795 72.0224 96.8625 71.8199 96.93C71.4149 96.9975 71.1449 97.1325 70.9424 97.2L70.8749 97.065C71.0099 96.9975 71.1449 96.93 71.2124 96.93C71.2799 96.8625 71.3474 96.795 71.3474 96.7275C71.3474 96.66 71.3474 96.525 71.2799 96.3225L70.3349 92.745C70.2674 92.5425 70.2674 92.4075 70.1999 92.34C70.1324 92.2725 70.0649 92.205 69.9974 92.205C69.9299 92.205 69.7949 92.205 69.5924 92.2725L69.5249 92.1375C69.7274 92.07 69.9974 92.0025 70.3349 91.935C70.5374 91.8675 70.7399 91.8 70.9424 91.8C71.1449 91.7325 71.2799 91.665 71.4149 91.665C71.7524 91.5975 72.0224 91.53 72.2249 91.5975C72.4949 91.665 72.6974 91.7325 72.8324 91.8675C72.9674 92.0025 73.1024 92.205 73.1699 92.4075C73.2374 92.6775 73.2374 92.9475 73.1024 93.2175C72.9674 93.4875 72.7649 93.69 72.4274 93.96C73.0349 93.825 73.4399 93.8925 73.7099 94.0275ZM72.6299 93.4875C72.6974 93.2175 72.6974 92.9475 72.6299 92.61C72.5624 92.2725 72.3599 92.0025 72.1574 91.8675C71.9549 91.7325 71.6849 91.7325 71.3474 91.8C71.2124 91.8675 71.0774 91.8675 71.0099 91.935C70.9424 92.0025 70.9424 92.07 70.9424 92.1375C70.9424 92.205 70.9424 92.34 71.0099 92.5425L71.4149 94.1625L71.8874 94.0275C72.2924 93.96 72.4949 93.7575 72.6299 93.4875ZM72.0899 96.4575C72.1574 96.525 72.2249 96.5925 72.2924 96.5925C72.3599 96.5925 72.4949 96.5925 72.6299 96.525C73.5074 96.3225 73.7774 95.7825 73.5749 94.905C73.5074 94.5 73.3049 94.2975 73.0349 94.095C72.7649 93.96 72.4274 93.96 72.0224 94.0275L71.4149 94.1625L71.8874 95.985C72.0224 96.255 72.0224 96.39 72.0899 96.4575Z" fill="#BFA674"/>
<path d="M81.2699 92.4076C81.4049 92.6776 81.5399 92.9476 81.7424 93.2176C81.4724 93.3526 80.9324 93.5551 80.2574 93.8926C79.4474 94.2976 78.8399 94.5676 78.4349 94.7701L78.3674 94.6351C78.5024 94.5676 78.6374 94.5001 78.7049 94.4326C78.7724 94.3651 78.7724 94.2976 78.7724 94.2301C78.7724 94.1626 78.7049 94.0276 78.6374 93.8251L77.0849 90.5176C77.0174 90.3826 76.9499 90.2476 76.8824 90.1801C76.8149 90.1126 76.7474 90.1126 76.6799 90.1126C76.6124 90.1126 76.4774 90.1801 76.3424 90.2476L76.2749 90.1126C76.6799 89.9101 77.3549 89.6401 78.1649 89.2351C78.7724 88.9651 79.2449 88.6951 79.5149 88.5601C79.6499 88.8976 79.7174 89.1676 79.8524 89.3701C79.9199 89.5726 79.9874 89.7076 80.0549 89.7751L79.9199 89.8426C79.7849 89.5726 79.5824 89.3701 79.5149 89.2351C79.3799 89.1001 79.2449 89.0326 79.1099 89.0326C78.9749 89.0326 78.7724 89.1001 78.5699 89.1676L78.0299 89.4376C77.8949 89.5051 77.7599 89.5726 77.6924 89.6401C77.6249 89.7076 77.6249 89.7751 77.6249 89.8426C77.6249 89.9101 77.6924 90.0451 77.7599 90.2476L78.5024 91.8001L78.9074 91.5976C79.1099 91.4626 79.2449 91.3276 79.2449 91.1926C79.2449 91.0576 79.2449 90.8551 79.1774 90.7201C79.1099 90.5851 79.1099 90.4501 79.1099 90.4501L79.2449 90.3826C79.3124 90.5851 79.4474 90.8551 79.5149 90.9901L79.6499 91.3276C79.7849 91.5301 79.9199 91.8676 80.1224 92.2726L79.9874 92.3401C79.9874 92.3401 79.9199 92.2051 79.7849 92.0026C79.6499 91.8001 79.5824 91.7326 79.3799 91.6651C79.2449 91.5976 79.1099 91.6651 78.9074 91.7326L78.5024 91.9351L79.2449 93.5551C79.3124 93.6901 79.3799 93.8251 79.4474 93.8926C79.5149 93.9601 79.5824 93.9601 79.6499 93.9601C79.7174 93.9601 79.8524 93.8926 79.9874 93.8251L80.4599 93.6226C80.7299 93.4876 80.9324 93.3526 80.9999 93.2176C81.1349 93.0826 81.1349 92.8801 81.1349 92.7451C81.1349 92.5426 81.0674 92.2726 80.9324 91.9351L81.0674 91.8676C81.1349 92.0026 81.2024 92.2051 81.2699 92.4076Z" fill="#BFA674"/>
<path d="M88.56 88.56L88.6275 88.695C88.4925 88.83 88.2225 88.965 88.02 89.1C87.6824 89.3025 87.48 89.505 87.2775 89.64L87.21 89.505C87.345 89.37 87.4125 89.3025 87.48 89.235C87.5475 89.1675 87.48 89.1 87.48 89.0325C87.4125 88.965 87.345 88.8975 87.21 88.83L86.13 88.0875L84.7125 89.1L84.915 89.91C84.9825 90.18 85.05 90.3825 85.185 90.5175C85.2525 90.6525 85.3875 90.72 85.5225 90.72C85.6575 90.72 85.7925 90.6525 85.995 90.5175L86.0625 90.6525C85.86 90.7875 85.59 90.9225 85.3875 91.125C85.185 91.26 85.05 91.3275 84.9825 91.4625L84.915 91.3275C85.05 91.125 85.1175 90.855 84.9825 90.45L83.7 85.86L83.7675 85.7925L87.885 88.56C88.155 88.695 88.3575 88.695 88.56 88.56ZM84.0375 86.67L84.645 88.965L85.9275 88.02L84.0375 86.67Z" fill="#BFA674"/>
<path d="M90.5176 79.92C90.5176 79.9875 90.5176 80.1225 90.5851 80.19C90.6526 80.2575 90.7201 80.3925 90.8551 80.5275L92.4751 82.08C92.7451 82.35 92.9476 82.5525 93.0826 82.755C93.2176 82.9575 93.3526 83.16 93.4201 83.3625C93.4876 83.565 93.4876 83.835 93.4201 84.105C93.3526 84.375 93.2176 84.5775 93.0151 84.78C92.6776 85.185 92.2726 85.32 91.8676 85.3875C91.6651 85.3875 91.4626 85.3875 91.3276 85.32C91.1926 85.2525 90.9901 85.185 90.7876 85.05C90.5851 84.915 90.3826 84.7125 90.1801 84.51L88.4926 82.89C88.3576 82.755 88.2226 82.6875 88.1551 82.62C88.0876 82.5525 88.0201 82.5525 87.9526 82.62C87.8851 82.6875 87.7501 82.755 87.6826 82.8225L87.5476 82.6875C87.6826 82.5525 87.8851 82.35 88.2226 82.08C88.4926 81.81 88.6951 81.6075 88.8301 81.405L88.9651 81.54C88.8301 81.675 88.7626 81.7425 88.7626 81.8775C88.7626 81.945 88.7626 82.0125 88.7626 82.08C88.8301 82.1475 88.8976 82.2825 89.0326 82.4175L90.7876 84.105C91.0576 84.375 91.3276 84.5775 91.5301 84.7125C91.7326 84.8475 92.0026 84.915 92.2051 84.915C92.4076 84.915 92.6776 84.78 92.8801 84.5775C93.2176 84.24 93.3526 83.835 93.2176 83.4975C93.1501 83.0925 92.8801 82.6875 92.4076 82.2825L90.7201 80.6625C90.5851 80.5275 90.4501 80.46 90.3826 80.3925C90.3151 80.325 90.1801 80.325 90.1126 80.3925C90.0451 80.46 89.9101 80.5275 89.7751 80.595L89.6401 80.46C89.7751 80.325 89.9101 80.19 90.1801 79.92C90.3826 79.7175 90.5176 79.5825 90.6526 79.4475L90.7876 79.5825C90.6526 79.7175 90.5851 79.8525 90.5176 79.92Z" fill="#BFA674"/>
<path d="M93.2175 77.76C92.9475 77.625 92.6775 77.4225 92.4075 77.2875C92.61 76.95 93.015 76.41 93.555 75.6675C94.095 74.8575 94.4325 74.3175 94.635 73.98C94.905 74.1825 95.175 74.385 95.3775 74.52C95.58 74.655 95.7825 74.79 95.9175 74.8575L95.85 74.9925C95.5125 74.79 95.2425 74.7225 95.04 74.655C94.8375 74.5875 94.7025 74.5875 94.5675 74.655C94.4325 74.7225 94.23 74.8575 94.095 75.1275L93.8925 75.465L97.4025 77.8275C97.605 77.9625 97.74 78.03 97.8075 78.03C97.875 78.03 98.01 78.03 98.0775 77.9625C98.145 77.895 98.28 77.76 98.415 77.625L98.55 77.6925C98.415 77.895 98.2125 78.165 97.9425 78.57C97.6725 78.975 97.47 79.245 97.4025 79.4475L97.2675 79.38C97.4025 79.1775 97.47 79.0425 97.47 78.975C97.47 78.9075 97.47 78.7725 97.4025 78.705C97.335 78.6375 97.2 78.5025 97.065 78.435L93.555 76.0725L93.3525 76.41C93.2175 76.68 93.0825 76.8825 93.0825 77.0175C93.0825 77.1525 93.15 77.355 93.285 77.49C93.42 77.625 93.6225 77.8275 93.8925 78.0975L93.825 78.2325C93.6225 78.03 93.42 77.895 93.2175 77.76Z" fill="#BFA674"/>
<path d="M97.4701 68.2425C97.5376 68.04 97.6051 67.905 97.6726 67.77L97.8076 67.8375C97.8076 67.905 97.8076 68.04 97.8751 68.175C97.9426 68.31 98.0101 68.445 98.2126 68.6475L99.8326 70.605L101.048 71.145C101.25 71.2125 101.318 71.28 101.453 71.28C101.52 71.28 101.588 71.28 101.655 71.2125C101.723 71.145 101.79 71.0775 101.858 70.875L101.993 70.9425C101.858 71.145 101.79 71.415 101.588 71.7525C101.453 72.09 101.318 72.4275 101.25 72.5625L101.115 72.495C101.183 72.36 101.183 72.225 101.183 72.1575C101.183 72.09 101.183 72.0225 101.115 71.955C101.048 71.8875 100.913 71.82 100.778 71.7525L99.7651 71.28L96.6601 71.4825C96.4576 71.4825 96.3226 71.55 96.2551 71.55C96.1876 71.6175 96.1201 71.6175 96.1201 71.685L95.9851 71.6175C96.0526 71.4825 96.1876 71.28 96.2551 71.0775C96.4576 70.6725 96.5926 70.335 96.6601 70.1325L96.7951 70.2C96.6601 70.47 96.6601 70.6725 96.8626 70.74C96.9301 70.74 96.9976 70.8075 97.1326 70.8075L99.7651 70.6725L98.4151 69.0525C98.2126 68.85 98.0776 68.6475 97.9426 68.6475C97.8076 68.58 97.6726 68.58 97.6051 68.6475C97.5376 68.715 97.4026 68.85 97.3351 69.0525L97.2001 68.985C97.2676 68.7825 97.3351 68.5125 97.4701 68.2425Z" fill="#BFA674"/>
<path d="M61.9651 108C49.6801 108 38.1376 103.95 28.4851 96.39C19.1701 89.0325 12.4201 78.6375 9.58506 67.1625C9.38256 66.285 9.92256 65.4075 10.7326 65.205C11.6101 65.0025 12.4876 65.5425 12.6901 66.3525C15.3901 77.1525 21.7351 86.8725 30.5101 93.825C39.5551 100.98 50.4226 104.76 61.9651 104.76C73.5076 104.76 84.3751 100.98 93.4201 93.825C102.195 86.8725 108.54 77.1525 111.24 66.3525C111.443 65.475 112.32 64.935 113.198 65.205C114.075 65.4075 114.615 66.285 114.345 67.1625C111.443 78.6375 104.76 89.0325 95.4451 96.39C85.7926 104.018 74.2501 108 61.9651 108Z" fill="#E4B5B1"/>
<path d="M112.792 42.8625C112.05 42.8625 111.442 42.39 111.24 41.6475C108.54 30.8475 102.195 21.1275 93.42 14.175C84.375 7.02 73.5075 3.24 61.965 3.24C50.4225 3.24 39.4875 7.02 30.4425 14.175C21.6675 21.1275 15.3225 30.8475 12.6225 41.6475C12.42 42.525 11.5425 43.065 10.665 42.795C9.7875 42.5925 9.2475 41.715 9.5175 40.8375C12.42 29.3625 19.1025 18.9675 28.4175 11.61C38.07 4.05 49.68 0 61.965 0C74.25 0 85.7925 4.05 95.445 11.61C104.76 18.9675 111.51 29.3625 114.345 40.8375C114.547 41.715 114.007 42.5925 113.197 42.795C112.995 42.8625 112.86 42.8625 112.792 42.8625Z" fill="#E4B5B1"/>
<path d="M1.89 58.9275C0.6075 57.7125 0 56.0925 0 54.2025C0 52.3125 0.6075 50.6925 1.89 49.4775C3.1725 48.2625 4.725 47.5875 6.615 47.5875C8.0325 47.5875 9.315 47.9925 10.4625 48.735C11.61 49.4775 12.3525 50.5575 12.825 51.9075H9.045C8.5725 50.9625 7.7625 50.49 6.6825 50.49C5.6025 50.49 4.725 50.8275 4.1175 51.5025C3.51 52.1775 3.1725 53.055 3.1725 54.2025C3.1725 55.35 3.51 56.2275 4.1175 56.9025C4.725 57.5775 5.6025 57.915 6.6825 57.915C7.7625 57.915 8.5725 57.4425 9.045 56.4975H12.825C12.3525 57.8475 11.61 58.9275 10.4625 59.67C9.315 60.4125 8.1 60.8175 6.615 60.8175C4.7925 60.75 3.1725 60.1425 1.89 58.9275Z" fill="#272525"/>
<path d="M19.6426 58.9275C18.3601 57.645 17.7526 56.0925 17.7526 54.2025C17.7526 52.3125 18.3601 50.6925 19.6426 49.4775C20.9251 48.2625 22.4776 47.5875 24.3676 47.5875C26.2576 47.5875 27.8101 48.195 29.0251 49.4775C30.3076 50.6925 30.9151 52.3125 30.9151 54.2025C30.9151 56.0925 30.3076 57.7125 29.0251 58.9275C27.7426 60.1425 26.1901 60.75 24.3001 60.75C22.4776 60.75 20.9251 60.1425 19.6426 58.9275ZM26.7976 56.835C27.4051 56.16 27.7426 55.2825 27.7426 54.135C27.7426 52.9875 27.4051 52.11 26.7976 51.435C26.1901 50.76 25.3801 50.4225 24.3001 50.4225C23.2876 50.4225 22.4101 50.76 21.8026 51.435C21.1951 52.11 20.8576 52.9875 20.8576 54.135C20.8576 55.2825 21.1951 56.16 21.8026 56.835C22.4101 57.51 23.2201 57.8475 24.3001 57.8475C25.3801 57.8475 26.1901 57.51 26.7976 56.835Z" fill="#272525"/>
<path d="M40.9724 50.0175C40.5674 50.0175 40.2299 50.1525 40.0274 50.355C39.7574 50.5575 39.6224 50.895 39.6224 51.2325C39.6224 51.6375 39.7574 51.9075 39.9599 52.1775C40.1624 52.4475 40.4999 52.5825 40.8374 52.7175C41.2424 52.8525 41.6474 52.9875 42.1199 53.055C42.5924 53.19 43.0649 53.325 43.4699 53.46C43.9424 53.595 44.3474 53.7975 44.6849 54.0675C45.0899 54.3375 45.3599 54.675 45.5624 55.08C45.7649 55.5525 45.8999 56.0925 45.8999 56.7C45.8999 57.78 45.4274 58.725 44.5499 59.535C43.6724 60.345 42.5249 60.6825 41.0399 60.6825C39.5549 60.6825 38.4074 60.345 37.5299 59.6025C36.6524 58.9275 36.1799 57.915 36.1799 56.6325H39.5549C39.6224 57.645 40.1624 58.185 41.1074 58.185C41.5799 58.185 41.9174 58.05 42.1874 57.8475C42.4574 57.5775 42.5924 57.3075 42.5924 56.97C42.5924 56.6325 42.4574 56.295 42.2549 56.0925C42.0524 55.89 41.7149 55.6875 41.3774 55.5525C40.9724 55.4175 40.5674 55.2825 40.0949 55.1475C39.6224 55.0125 39.1499 54.8775 38.7449 54.7425C38.2724 54.54 37.8674 54.3375 37.5299 54.135C37.1249 53.865 36.8549 53.5275 36.6524 53.1225C36.4499 52.65 36.3149 52.1775 36.3149 51.5025C36.3149 50.2875 36.7874 49.3425 37.6649 48.6C38.5424 47.8575 39.6899 47.52 41.1074 47.52C42.5249 47.52 43.6049 47.8575 44.4824 48.465C45.3599 49.0725 45.7649 50.085 45.8324 51.435H42.3899C42.3224 50.9625 42.1874 50.625 41.9174 50.355C41.7149 50.1525 41.3774 50.0175 40.9724 50.0175Z" fill="#272525"/>
<path d="M66.8251 47.7225V60.615H63.6526V53.3925L60.6826 60.6825H58.3201L55.3501 53.3925V60.6825H52.1776V47.7225H55.7551L59.4676 56.6325L63.1801 47.7225H66.8251Z" fill="#272525"/>
<path d="M81.0675 47.7225V50.085H76.41V52.8525H80.5275V55.215H76.41V58.185H81.0675V60.5475H73.2375V47.7225H81.0675Z" fill="#272525"/>
<path d="M86.5349 50.1525V47.79H96.7274V50.1525H93.2174V60.6825H90.0449V50.1525H86.5349Z" fill="#272525"/>
<path d="M102.262 60.6825V47.7225H105.435V60.615H102.262V60.6825Z" fill="#272525"/>
<path d="M112.995 58.9275C111.712 57.7125 111.105 56.0925 111.105 54.2025C111.105 52.3125 111.712 50.6925 112.995 49.4775C114.277 48.2625 115.83 47.5875 117.72 47.5875C119.137 47.5875 120.42 47.9925 121.567 48.735C122.715 49.4775 123.457 50.5575 123.93 51.9075H120.15C119.677 50.9625 118.867 50.49 117.787 50.49C116.707 50.49 115.83 50.8275 115.222 51.5025C114.615 52.1775 114.277 53.055 114.277 54.2025C114.277 55.35 114.615 56.2275 115.222 56.9025C115.83 57.5775 116.707 57.915 117.787 57.915C118.867 57.915 119.677 57.4425 120.15 56.4975H123.93C123.457 57.8475 122.715 58.9275 121.567 59.67C120.42 60.4125 119.205 60.8175 117.72 60.8175C115.83 60.75 114.277 60.1425 112.995 58.9275Z" fill="#272525"/>
</g>
<defs>
<clipPath id="clip0_472_106876">
<rect width="123.863" height="108" fill="white"/>
</clipPath>
</defs>
</svg>
