<svg width="108" height="108" viewBox="0 0 108 108" fill="none" xmlns="http://www.w3.org/2000/svg">
<g clip-path="url(#clip0_472_106965)">
<path d="M78.0299 52.38C77.9624 51.84 77.6249 51.3675 77.0849 51.0975C75.5999 50.4225 73.5074 49.3425 72.1574 48.6675C72.8999 47.25 73.9799 45.1575 74.7899 43.6725C75.0599 43.2 75.0599 42.5925 74.7899 42.12C74.5199 41.6475 73.9799 41.31 73.4399 41.31L65.8124 41.1075C65.1374 41.1075 64.4624 41.04 63.7199 41.1075C63.5174 40.4325 63.2474 39.69 63.0449 39.0825L60.4799 31.725C60.2774 31.185 59.8049 30.78 59.2649 30.645C58.7249 30.51 58.1174 30.7125 57.7124 31.1175C56.6324 32.3325 55.0124 34.02 53.9324 35.1675C52.8524 34.02 51.2324 32.3325 50.1524 31.1175C49.7474 30.7125 49.2074 30.51 48.5999 30.645C48.0599 30.78 47.5874 31.185 47.3849 31.725L44.8199 39.0825C44.6174 39.7575 44.3474 40.4325 44.1449 41.1075C43.4024 41.1075 42.7274 41.1075 42.0524 41.1075L34.4249 41.31C33.8849 41.31 33.3449 41.6475 33.0749 42.12C32.8049 42.5925 32.8049 43.2 33.0749 43.6725C33.8849 45.09 34.9649 47.25 35.7074 48.6675C34.2899 49.3425 32.1974 50.4225 30.7799 51.0975C30.2399 51.3675 29.9024 51.84 29.8349 52.38C29.7674 52.92 29.9699 53.46 30.4424 53.865L36.4499 58.59C36.9899 58.995 37.5299 59.4675 38.1374 59.8725C37.8674 60.615 37.6649 61.29 37.5299 61.965L35.3699 69.39C35.2349 69.93 35.3699 70.5375 35.7074 70.9425C36.1124 71.3475 36.6524 71.55 37.1924 71.415C38.7449 71.0775 41.0399 70.6725 42.5249 70.4025C42.7274 71.955 43.0649 74.3175 43.2674 75.9375C43.3349 76.4775 43.6724 77.0175 44.2124 77.22C44.4149 77.2875 44.6174 77.355 44.8874 77.355C45.2249 77.355 45.5624 77.2875 45.8324 77.085L52.1099 72.6975C52.6499 72.2925 53.2574 71.8875 53.7974 71.4825C54.3374 71.8875 54.9449 72.2925 55.4849 72.6975L61.7624 77.085C62.0324 77.2875 62.3699 77.355 62.7074 77.355C62.9099 77.355 63.1799 77.2875 63.3824 77.22C63.9224 77.0175 64.2599 76.4775 64.3274 75.9375C64.5299 74.3175 64.7999 71.955 65.0699 70.4025C66.6224 70.6725 68.8499 71.0775 70.4024 71.415C70.9424 71.55 71.5499 71.3475 71.8874 70.9425C72.2924 70.5375 72.4274 69.93 72.2249 69.39L70.0649 61.965C69.8624 61.29 69.6599 60.615 69.4574 59.8725C70.0649 59.4675 70.6049 58.995 71.1449 58.59L77.1524 53.865C77.8274 53.46 78.0299 52.92 78.0299 52.38ZM48.0599 40.095L49.6799 35.3025C51.2324 36.9225 52.7174 38.5425 52.8524 38.61C53.1899 38.9475 53.5949 39.0825 53.9999 39.0825C54.4724 39.0825 54.8774 38.88 55.1474 38.61C55.2149 38.5425 56.7674 36.9225 58.3199 35.3025L59.9399 40.095C60.0749 40.5675 60.2774 40.9725 60.4124 41.445C60.2099 41.5125 59.9399 41.58 59.7374 41.6475C57.3749 42.39 55.3499 44.01 53.9999 46.305C52.5824 44.01 50.5574 42.3225 48.2624 41.6475C48.0599 41.58 47.7899 41.5125 47.5874 41.445C47.7224 40.9725 47.9249 40.5675 48.0599 40.095ZM61.1549 45.09C61.2224 47.79 59.5349 50.4225 57.1049 51.9075C56.6324 51.975 56.2274 52.0425 55.7549 52.1775C55.7549 51.705 55.6874 51.2325 55.6199 50.76C56.2274 47.925 58.1849 45.4275 60.6824 44.685C60.8174 44.6175 60.9524 44.6175 61.0874 44.55C61.1549 44.7525 61.1549 44.8875 61.1549 45.09ZM54.2699 66.7575C54.2024 66.8925 54.0674 66.96 53.9999 67.095C53.9324 66.96 53.7974 66.8925 53.7299 66.7575C52.1099 64.5975 51.9749 61.425 53.1224 58.725C53.4599 58.3875 53.7299 58.1175 53.9999 57.7125C54.2699 58.05 54.5399 58.3875 54.8774 58.725C56.0249 61.425 55.8899 64.5975 54.2699 66.7575ZM46.9124 44.6175C47.0474 44.685 47.1824 44.685 47.3174 44.7525C49.8149 45.495 51.7724 47.9925 52.3799 50.8275C52.3124 51.3 52.2449 51.7725 52.2449 52.245C51.8399 52.11 51.3674 52.0425 50.8949 51.975C48.4649 50.49 46.7774 47.8575 46.8449 45.1575C46.8449 44.8875 46.8449 44.7525 46.9124 44.6175ZM49.8824 55.0125C50.2874 55.215 50.6924 55.4175 51.1649 55.62C50.8949 56.025 50.6249 56.4975 50.4224 56.9025C48.3299 58.7925 45.3599 59.6025 42.9299 58.725C42.7949 58.6575 42.5924 58.59 42.4574 58.5225C42.5249 58.3875 42.6599 58.2525 42.7274 58.05C44.2124 55.8225 47.0474 54.7425 49.8824 55.0125ZM57.5774 56.9025C57.3749 56.43 57.1049 56.025 56.8349 55.62C57.2399 55.4175 57.7124 55.2825 58.1174 55.0125C60.8849 54.7425 63.7874 55.8225 65.2724 58.05C65.3399 58.185 65.4749 58.32 65.5424 58.5225C65.4074 58.59 65.2724 58.6575 65.0699 58.725C62.6399 59.6025 59.7374 58.7925 57.5774 56.9025ZM38.6774 56.025L34.6949 52.92C36.7199 51.9075 38.7449 50.895 38.8799 50.8275C39.2849 50.625 39.5549 50.2875 39.6899 49.8825C39.8249 49.4775 39.7574 49.005 39.6224 48.6675C39.5549 48.5325 38.5424 46.5075 37.4624 44.4825L42.4574 44.3475C42.9299 44.3475 43.3349 44.3475 43.8074 44.3475C43.8074 44.6175 43.7399 44.82 43.7399 45.09C43.6724 47.655 44.6849 50.1525 46.3724 52.1775C43.8749 52.785 41.5799 54.2025 40.1624 56.3625C40.0274 56.565 39.8924 56.7675 39.8249 56.9025C39.3524 56.565 39.0149 56.295 38.6774 56.025ZM46.3724 72.9C46.1024 70.6725 45.7649 68.3775 45.7649 68.2425C45.6974 67.8375 45.4949 67.4325 45.0899 67.1625C44.8199 66.96 44.4824 66.825 44.1449 66.825C44.0774 66.825 43.9424 66.825 43.8749 66.825C43.7399 66.825 41.5799 67.23 39.3524 67.635L40.7699 62.7075C40.9049 62.235 41.0399 61.83 41.1749 61.3575C41.3774 61.425 41.5799 61.4925 41.7824 61.6275C42.7949 61.965 43.8749 62.1675 44.8874 62.1675C46.3049 62.1675 47.7899 61.83 49.1399 61.29C48.9374 63.99 49.6124 66.555 51.0974 68.58C51.2324 68.7825 51.3674 68.985 51.5699 69.12C51.1649 69.39 50.8274 69.66 50.4224 69.93L46.3724 72.9ZM67.2299 62.8425L68.6474 67.77C66.4874 67.365 64.2599 66.96 64.1249 66.96C63.7199 66.8925 63.2474 66.96 62.9099 67.23C62.5724 67.5 62.3024 67.905 62.2349 68.31C62.2349 68.445 61.8974 70.6725 61.6274 72.9675L57.5774 70.1325C57.1724 69.8625 56.8349 69.5925 56.4299 69.3225C56.5649 69.12 56.7674 68.9175 56.9024 68.7825C58.3874 66.7575 59.0624 64.1925 58.8599 61.4925C60.2099 62.0325 61.6949 62.37 63.1124 62.37C64.1924 62.37 65.2049 62.1675 66.2174 61.83C66.4199 61.7625 66.6224 61.695 66.8249 61.56C66.9599 61.965 67.0949 62.37 67.2299 62.8425ZM69.3899 56.025C69.0524 56.295 68.7149 56.565 68.3099 56.835C68.1749 56.6325 68.1074 56.43 67.9724 56.295C66.5549 54.2025 64.2599 52.7175 61.7624 52.11C63.4499 50.085 64.4624 47.5875 64.3949 45.0225C64.3949 44.7525 64.3949 44.55 64.3274 44.28C64.7999 44.28 65.2049 44.28 65.6774 44.28L70.6724 44.415C69.5924 46.44 68.5799 48.465 68.5124 48.6C68.3099 49.005 68.3099 49.41 68.4449 49.815C68.5799 50.22 68.8499 50.5575 69.2549 50.76C69.3899 50.8275 71.4149 51.84 73.4399 52.8525L69.3899 56.025Z" fill="#BFA674"/>
<path d="M13.635 49.7475L14.04 47.115C14.175 46.44 14.3775 45.9675 14.7825 45.63C15.1875 45.2925 15.5925 45.1575 16.1325 45.225C16.875 45.36 17.28 45.8325 17.415 46.71C17.55 46.305 17.82 45.9675 18.1575 45.765C18.495 45.5625 18.9 45.495 19.305 45.5625C19.845 45.63 20.1825 45.9 20.4525 46.3725C20.7225 46.7775 20.79 47.385 20.655 47.9925L20.1825 50.76L13.635 49.7475ZM14.85 48.6L16.5375 48.87L16.74 47.655C16.8075 47.385 16.74 47.115 16.605 46.9125C16.47 46.71 16.2675 46.575 15.9975 46.575C15.7275 46.5075 15.525 46.575 15.3225 46.71C15.12 46.845 15.0525 47.0475 14.985 47.385L14.85 48.6ZM19.3725 49.3425L19.575 47.9925C19.6425 47.7225 19.575 47.4525 19.44 47.25C19.305 47.0475 19.1025 46.9125 18.8325 46.845C18.5625 46.7775 18.2925 46.845 18.1575 46.98C17.955 47.115 17.82 47.385 17.82 47.655L17.55 49.0725L19.3725 49.3425Z" fill="#272525"/>
<path d="M18.4274 34.4926L19.3724 34.9651L18.2924 37.1251L19.8449 37.8676L20.7899 35.9101L21.7349 36.3826L20.7899 38.3401L22.4099 39.1501L23.4899 36.9226L24.4349 37.3951L22.7474 40.8376L16.8074 37.9351L18.4274 34.4926Z" fill="#272525"/>
<path d="M30.4425 29.565L29.2275 29.025L27.4725 30.915L28.08 32.0625L27.135 33.075L23.895 26.865L24.975 25.7175L31.3875 28.5525L30.4425 29.565ZM27 29.97L28.2825 28.62L25.65 27.405L27 29.97Z" fill="#272525"/>
<path d="M34.29 23.22L32.3325 19.6425L33.48 19.035L35.4375 22.6125C35.64 23.0175 35.91 23.2875 36.2475 23.355C36.585 23.4225 36.9225 23.4225 37.26 23.22C37.665 23.0175 37.8675 22.7475 37.935 22.41C38.0025 22.0725 37.935 21.735 37.7325 21.33L35.775 17.7525L36.9225 17.145L38.88 20.7225C39.285 21.465 39.3525 22.14 39.0825 22.815C38.8125 23.49 38.4075 23.9625 37.7325 24.3C37.0575 24.6375 36.45 24.7725 35.775 24.6375C35.235 24.435 34.695 23.9625 34.29 23.22Z" fill="#272525"/>
<path d="M44.0775 15.7275L43.875 14.715L48.6675 13.77L48.87 14.7825L47.115 15.12L48.195 20.5875L46.9125 20.8575L45.8325 15.39L44.0775 15.7275Z" fill="#272525"/>
<path d="M58.185 20.3175L56.835 20.1825L57.0375 17.955L55.2825 13.4325L56.7675 13.5675L57.8475 16.8075L59.535 13.8375L61.02 13.9725L58.3875 18.0225L58.185 20.3175Z" fill="#272525"/>
<path d="M16.4027 92.1375C15.9977 92.1375 15.5927 92.0025 15.2552 91.665C14.6477 91.0575 14.6477 90.0449 15.2552 89.3699L29.9702 74.655C30.5777 74.0475 31.5902 74.0475 32.2652 74.655C32.8727 75.2625 32.8727 76.275 32.2652 76.95L17.5502 91.665C17.2802 92.0025 16.8752 92.1375 16.4027 92.1375Z" fill="#E4B5B1"/>
<path d="M8.57258 84.105C5.40008 84.105 2.36258 81.6075 1.35008 77.9625C0.270084 74.25 2.43008 63.7875 2.70008 62.5725C2.83508 61.965 3.24008 61.4925 3.84758 61.3575C4.45508 61.2225 5.06258 61.3575 5.46758 61.83C6.27758 62.7075 13.6351 70.47 14.6476 74.1825C15.8626 78.5025 13.8376 82.8225 10.1926 83.835C9.65258 84.0375 9.11258 84.105 8.57258 84.105ZM5.26508 66.3525C4.52258 70.4025 3.91508 75.33 4.45508 77.085C5.19758 79.65 7.35758 81.3375 9.38258 80.7975C11.3401 80.2575 12.3526 77.6925 11.6101 75.06C11.0701 73.305 7.96508 69.4575 5.26508 66.3525Z" fill="#E4B5B1"/>
<path d="M30.9825 105.233C29.97 105.233 29.025 105.165 28.35 104.963C26.325 104.423 24.57 103.208 23.4225 101.588C22.2075 99.9 21.87 97.9425 22.3425 96.12C22.8825 94.2975 24.165 92.8125 26.055 91.935C27.8775 91.125 29.97 90.99 31.995 91.5975C35.7075 92.61 43.5375 99.9 44.415 100.71C44.82 101.115 45.0225 101.723 44.8875 102.33C44.7525 102.938 44.28 103.343 43.6725 103.478C42.795 103.68 35.64 105.233 30.9825 105.233ZM29.565 94.4325C28.8225 94.4325 28.08 94.5675 27.4725 94.8375C26.46 95.31 25.785 96.0525 25.515 96.93C25.245 97.8075 25.515 98.82 26.1225 99.6975C26.7975 100.71 27.945 101.453 29.2275 101.79C30.9825 102.263 35.91 101.655 39.96 100.913C36.855 98.2125 32.94 95.175 31.2525 94.635C30.645 94.5 30.105 94.4325 29.565 94.4325Z" fill="#E4B5B1"/>
<path d="M49.2075 87.75L51.9075 87.9525C52.5825 88.02 53.1225 88.2225 53.5275 88.56C53.9325 88.8975 54.0675 89.37 54 89.91C53.9325 90.6525 53.46 91.125 52.5825 91.3275C53.055 91.395 53.3925 91.665 53.595 92.0025C53.865 92.34 53.9325 92.745 53.9325 93.15C53.865 93.69 53.6625 94.095 53.2575 94.365C52.8525 94.635 52.3125 94.77 51.57 94.7025L48.6675 94.5L49.2075 87.75ZM50.1525 93.555L51.5025 93.6225C51.7725 93.6225 52.0425 93.555 52.245 93.42C52.4475 93.285 52.515 93.0825 52.5825 92.745C52.5825 92.475 52.515 92.205 52.38 92.07C52.1775 91.8675 51.975 91.8 51.6375 91.7325L50.2875 91.665L50.1525 93.555ZM50.49 88.8975L50.355 90.6525L51.57 90.72C51.84 90.72 52.11 90.6525 52.3125 90.5175C52.515 90.3825 52.5825 90.18 52.65 89.91C52.65 89.64 52.5825 89.4375 52.4475 89.235C52.3125 89.1 52.0425 88.965 51.7725 88.965L50.49 88.8975Z" fill="#272525"/>
<path d="M64.1925 93.555C63.2475 93.825 62.37 93.69 61.56 93.2175C60.75 92.745 60.21 92.0025 60.0075 91.0575C59.7375 90.1125 59.8725 89.235 60.345 88.425C60.8175 87.615 61.56 87.075 62.505 86.8725C63.45 86.6025 64.3275 86.7375 65.1375 87.21C65.9475 87.6825 66.4875 88.425 66.7575 89.37C67.0275 90.315 66.8925 91.1925 66.42 92.0025C65.88 92.8125 65.1375 93.285 64.1925 93.555ZM65.205 91.395C65.475 90.9225 65.5425 90.315 65.34 89.7075C65.205 89.0325 64.8675 88.56 64.395 88.29C63.9225 88.02 63.3825 87.9525 62.775 88.0875C62.1675 88.2225 61.7625 88.56 61.4925 89.0325C61.2225 89.505 61.155 90.1125 61.3575 90.72C61.4925 91.395 61.83 91.8675 62.3025 92.1375C62.775 92.4075 63.315 92.475 63.9225 92.34C64.4625 92.205 64.935 91.8675 65.205 91.395Z" fill="#272525"/>
<path d="M72.765 87.345L70.47 83.9025L71.6175 83.16L73.9125 86.6025C74.1825 87.0075 74.4525 87.21 74.79 87.2775C75.1275 87.345 75.465 87.2775 75.8025 87.0075C76.14 86.7375 76.41 86.4675 76.4775 86.13C76.545 85.7925 76.4775 85.455 76.2075 85.05L73.9125 81.6075L75.06 80.865L77.355 84.3075C77.8275 85.05 77.9625 85.725 77.76 86.4C77.5575 87.075 77.1525 87.615 76.4775 88.0875C75.8025 88.4925 75.195 88.695 74.52 88.56C73.7775 88.4925 73.2375 88.0875 72.765 87.345Z" fill="#272525"/>
<path d="M79.5825 78.0975L78.7725 77.4225L81.945 73.575L82.755 74.25L81.6075 75.6675L85.995 79.3125L85.1175 80.3925L80.73 76.7475L79.5825 78.0975Z" fill="#272525"/>
<path d="M90.6525 71.82L84.51 68.985L85.1175 67.77L91.26 70.605L90.6525 71.82Z" fill="#272525"/>
<path d="M94.2976 60.5475C94.1626 61.4925 93.6901 62.235 92.9476 62.8425C92.2051 63.3825 91.3276 63.585 90.3151 63.45C89.3026 63.315 88.5601 62.8425 88.0201 62.1C87.4801 61.3575 87.2776 60.48 87.4126 59.535C87.5476 58.59 88.0201 57.8475 88.7626 57.24C89.5051 56.7 90.3826 56.4975 91.3951 56.6325C92.0026 56.7 92.4751 56.9025 92.9476 57.24C93.4201 57.5775 93.7576 57.9825 93.9601 58.455L95.9176 57.24L95.6476 58.9275L94.2976 59.7375C94.3651 59.94 94.3651 60.2775 94.2976 60.5475ZM88.6951 59.67C88.6276 60.2775 88.6951 60.8175 89.0326 61.2225C89.3701 61.695 89.8426 61.965 90.5176 62.0325C91.1926 62.1675 91.7326 62.0325 92.2051 61.695C92.6776 61.3575 92.9476 60.885 93.0151 60.345C93.0826 59.7375 93.0151 59.1975 92.6776 58.7925C92.3401 58.32 91.8676 58.05 91.1926 57.9825C90.5176 57.8475 89.9776 57.9825 89.5051 58.32C89.1001 58.59 88.8301 59.0625 88.6951 59.67Z" fill="#272525"/>
<path d="M92.0701 50.22L87.9526 50.895L87.7501 49.545L91.8676 48.87C92.3401 48.8025 92.6776 48.6 92.8801 48.33C93.0826 48.06 93.1501 47.7225 93.0826 47.25C93.0151 46.845 92.8126 46.5075 92.5426 46.305C92.2726 46.1025 91.8676 46.035 91.4626 46.1025L87.3451 46.7775L87.1426 45.4275L91.2601 44.7525C92.0701 44.6175 92.8126 44.7525 93.3526 45.225C93.8926 45.6975 94.2301 46.305 94.3651 47.0475C94.5001 47.79 94.3651 48.465 94.0276 49.0725C93.5551 49.7475 92.9476 50.085 92.0701 50.22Z" fill="#272525"/>
<path d="M83.4299 36.9225L84.3749 36.45L85.5224 38.745L87.0749 37.935L86.0624 35.91L87.0074 35.4375L88.0199 37.4625L89.7074 36.585L88.5599 34.29L89.5049 33.8175L91.2599 37.3275L85.1849 40.365L83.4299 36.9225Z" fill="#272525"/>
<path d="M75.87 32.6701C75.465 32.6701 75.06 32.5351 74.7225 32.1976C74.115 31.5901 74.115 30.5776 74.7225 29.9026L89.4375 15.1876C90.045 14.5801 91.0575 14.5801 91.7325 15.1876C92.34 15.7951 92.34 16.8076 91.7325 17.4826L77.0175 32.1976C76.68 32.5351 76.275 32.6701 75.87 32.6701Z" fill="#E4B5B1"/>
<path d="M54 108C53.1225 108 52.38 107.258 52.38 106.38C52.38 105.503 53.1225 104.76 54 104.76C67.5675 104.76 80.325 99.495 89.91 89.91C99.495 80.325 104.76 67.5675 104.76 54C104.76 40.4325 99.495 27.675 89.91 18.09C80.325 8.505 67.5675 3.24 54 3.24C40.4325 3.24 27.675 8.505 18.09 18.09C8.505 27.675 3.24 40.4325 3.24 54C3.24 54.8775 2.4975 55.62 1.62 55.62C0.7425 55.62 0 54.8775 0 54C0 39.555 5.6025 25.9875 15.795 15.795C25.9875 5.6025 39.555 0 54 0C68.445 0 82.0125 5.6025 92.205 15.795C102.398 25.9875 108 39.555 108 54C108 68.445 102.398 82.0125 92.205 92.205C82.0125 102.398 68.445 108 54 108Z" fill="#E4B5B1"/>
</g>
<defs>
<clipPath id="clip0_472_106965">
<rect width="108" height="108" fill="white"/>
</clipPath>
</defs>
</svg>
