<svg width="108" height="108" viewBox="0 0 108 108" fill="none" xmlns="http://www.w3.org/2000/svg">
<g clip-path="url(#clip0_472_106785)">
<path d="M63.8793 31.9076C64.5826 31.3961 64.7105 30.4369 64.199 29.7975C63.6874 29.0941 62.7283 28.9662 62.0889 29.4778C57.8047 32.547 54.1599 36.5115 51.5382 40.9875C48.7247 45.7193 47.1261 50.8987 46.8704 55.9502C46.8064 56.7815 47.5098 57.4849 48.3411 57.5488H48.405C49.2363 57.5488 49.8757 56.9094 49.9396 56.0781C50.3872 47.0621 55.7585 37.7904 63.8793 31.9076Z" fill="#BFA674"/>
<path d="M45.5916 32.9307C46.9983 34.913 48.7887 35.9361 50.4512 35.9361C50.707 35.9361 51.0267 35.9361 51.2825 35.8721C52.3056 35.6803 54.16 34.7851 54.8633 31.524C55.4388 28.9023 55.5667 25.1936 54.4157 22.444C53.7123 20.8455 52.4974 19.3748 50.707 17.968C50.5152 17.7762 49.8758 17.4565 48.1493 16.3694C47.4459 15.9218 46.5507 15.4103 46.3589 15.2824C46.231 15.1545 46.0392 15.0906 45.8473 15.0266C45.0161 14.7709 44.1848 15.2185 43.929 16.0497C42.7141 20.206 42.3944 24.1066 43.0978 27.4316C43.6093 29.4139 44.4406 31.2682 45.5916 32.9307ZM46.4228 18.8632C46.4868 18.9272 46.5507 18.9272 46.6786 18.9911C47.5099 19.5027 48.7887 20.27 48.9806 20.3979C50.3873 21.4849 51.2186 22.508 51.7301 23.659C52.6253 25.7052 52.4335 28.8384 51.9859 30.8845C51.7301 32.0355 51.2825 32.8028 50.707 32.9307C50.1315 33.0586 49.1084 32.5471 48.0853 31.1403C47.1901 29.8615 46.5507 28.3908 46.1671 26.7922C45.6555 24.4263 45.7834 21.7407 46.4228 18.8632Z" fill="#BFA674"/>
<path d="M47.1901 43.2255C46.9983 40.9236 46.167 37.7903 44.5045 35.8081C43.4814 34.6571 42.1386 33.7619 40.2842 33.0585C40.0285 32.9946 39.5169 32.8667 37.7904 32.4191C37.151 32.2912 36.3198 32.0355 36.064 31.9715C35.8722 31.9076 35.6803 31.8436 35.4885 31.8436C34.6572 31.8436 33.9539 32.547 33.9539 33.3783C33.9539 37.1509 34.7212 40.3481 36.1919 42.9058C37.0871 44.5044 38.2381 45.7832 39.5809 46.8703C40.8597 47.8294 42.1386 48.341 43.3535 48.341C43.9929 48.341 44.6324 48.2131 45.2079 47.8934C46.6785 47.126 47.4459 45.3996 47.1901 43.2255ZM43.8011 45.2078C43.4174 45.3996 42.5862 45.2717 41.4992 44.4404C40.4761 43.6731 39.5809 42.65 38.9414 41.4351C38.0462 39.7726 37.4068 37.7264 37.215 35.3605C37.9823 35.5523 39.0693 35.8081 39.3251 35.872C40.6039 36.4475 41.5631 37.087 42.2025 37.8543C43.3535 39.1971 43.9929 41.6269 44.1848 43.5452C44.2487 44.3765 44.1208 45.0799 43.8011 45.2078Z" fill="#BFA674"/>
<path d="M79.6092 34.8491C76.0284 33.3784 72.6394 32.8029 69.5702 33.1226C67.7158 33.3145 65.9894 33.8899 64.4547 34.7852C62.2167 36.064 61.0657 37.9184 61.3215 39.7088C61.5133 41.3713 62.8561 42.7141 64.9663 43.4175C66.373 43.8651 68.2274 44.2487 70.0178 44.2487C71.1048 44.2487 72.1279 44.1209 73.087 43.8011C74.6217 43.2896 76.0284 42.3304 77.3712 40.8598C77.5631 40.6679 77.8828 40.2203 78.9698 38.7496C79.3535 38.1741 79.929 37.4708 80.0568 37.2789C80.1847 37.151 80.3126 36.9592 80.3766 36.8313C80.7602 36.064 80.3766 35.1688 79.6092 34.8491ZM75.1332 38.8775C74.1101 39.9645 73.151 40.604 72.1279 40.9876C70.4014 41.5631 67.7158 41.1795 65.8615 40.604C64.9663 40.2843 64.3908 39.9006 64.3268 39.453C64.2629 39.0054 64.7744 38.2381 65.9893 37.4708C67.1403 36.7674 68.4831 36.3837 69.8899 36.1919C71.8721 35.9361 74.1101 36.2558 76.476 37.0232C76.0284 37.6626 75.2611 38.6857 75.1332 38.8775Z" fill="#BFA674"/>
<path d="M68.8029 47.19C68.8029 47.1261 68.8029 47.1261 68.8029 47.19C65.8615 45.9112 63.1119 45.3996 60.6182 45.5914C59.0835 45.7193 57.6128 46.1669 56.334 46.8703C54.4157 47.9573 53.3926 49.492 53.5205 51.0906C53.6484 52.5612 54.7354 53.7762 56.5897 54.4156C57.8047 54.8632 59.4672 55.1829 61.0018 55.1829C61.7691 55.1829 62.6004 55.119 63.3038 54.8632C64.5826 54.4795 65.7976 53.7122 66.9485 52.4973C67.0764 52.3694 67.3961 51.9858 68.2913 50.7708C68.6111 50.3232 69.0587 49.8117 69.1865 49.6199C69.3144 49.492 69.4423 49.3641 69.5063 49.1723C69.8899 48.4049 69.5702 47.5097 68.8029 47.19ZM64.7745 50.3872C63.9432 51.2184 63.2398 51.666 62.4725 51.9218C61.1297 52.3055 59.0835 51.9858 57.6128 51.4742C56.8455 51.2184 56.5897 50.8987 56.5897 50.7708C56.5897 50.579 56.8455 50.0675 57.8047 49.492C58.6999 48.9804 59.723 48.6607 60.8739 48.5968C61.1297 48.5968 61.3855 48.5328 61.7052 48.5328C62.9201 48.5328 64.2629 48.7886 65.6697 49.1723C65.286 49.6838 64.9024 50.2593 64.7745 50.3872Z" fill="#BFA674"/>
<path d="M29.0942 66.373H30.8846V75.1333H29.4779L25.1298 69.5702V75.1333H23.3394V66.373H24.7461L29.0942 71.9361V66.373Z" fill="#272525"/>
<path d="M41.7551 75.1333L40.9238 73.215H36.8315L36.0002 75.1333H34.0819L38.1103 66.373H39.645L43.6734 75.1333H41.7551ZM37.4709 71.7443H40.2844L38.8776 68.4832L37.4709 71.7443Z" fill="#272525"/>
<path d="M47.7657 75.1333V67.9716H45.0161V66.437H52.4335V67.9716H49.684V75.1333H47.7657Z" fill="#272525"/>
<path d="M56.8456 74.302C56.2062 73.6626 55.8865 72.7674 55.8865 71.5525V66.437H57.7408V71.6804C57.7408 72.3837 57.9327 72.8953 58.2524 73.2789C58.5721 73.6626 59.0197 73.8544 59.6591 73.8544C60.2346 73.8544 60.7462 73.6626 61.0659 73.2789C61.3856 72.8953 61.5135 72.3837 61.5135 71.6804V66.437H63.4318V71.5525C63.4318 72.7674 63.1121 73.6626 62.4726 74.302C61.8332 74.9415 60.874 75.2612 59.6591 75.2612C58.3803 75.1972 57.4851 74.8775 56.8456 74.302Z" fill="#272525"/>
<path d="M74.9415 75.1333H72.8953L71.8083 72.1919C71.7443 71.9361 71.5525 71.8082 71.4246 71.7443C71.2328 71.6803 71.0409 71.6164 70.7212 71.6164H69.5063V75.1333H67.588V66.373H71.4885C72.5116 66.373 73.279 66.5649 73.7905 67.0125C74.302 67.4601 74.5578 68.0995 74.5578 68.9308C74.5578 69.5063 74.4299 70.0178 74.1102 70.4015C73.7905 70.8491 73.3429 71.1048 72.7674 71.2967C73.279 71.4246 73.6626 71.7443 73.8544 72.3837L74.9415 75.1333ZM71.1688 70.1457C71.7443 70.1457 72.128 70.0818 72.3837 69.8899C72.6395 69.6981 72.7674 69.4423 72.7674 68.9947C72.7674 68.6111 72.6395 68.2913 72.3837 68.0995C72.128 67.9077 71.7443 67.8437 71.1688 67.8437H69.4424V70.1457H71.1688Z" fill="#272525"/>
<path d="M78.7141 75.1333V66.373H84.7248V67.8437H80.5685V69.8899H84.469V71.3606H80.5685V73.5986H84.7248V75.0693H78.7141V75.1333Z" fill="#272525"/>
<path d="M40.8598 89.2008C40.2204 89.009 39.7728 88.7532 39.3252 88.4335L39.9646 87.0267C40.7959 87.6022 41.755 87.9219 42.7781 87.9219C43.3536 87.9219 43.7373 87.858 44.057 87.6662C44.3767 87.4743 44.5046 87.2185 44.5046 86.8988C44.5046 86.6431 44.3767 86.3873 44.1209 86.2594C43.8652 86.1315 43.3536 85.9397 42.6502 85.8118C41.8829 85.6839 41.2435 85.4921 40.7959 85.2363C40.3483 84.9805 40.0286 84.7248 39.7728 84.405C39.581 84.0853 39.4531 83.7017 39.4531 83.1901C39.4531 82.6786 39.581 82.167 39.9007 81.7834C40.2204 81.3358 40.6041 81.0161 41.1156 80.8242C41.6272 80.5685 42.2666 80.5045 42.906 80.5045C43.5454 80.5045 44.1209 80.5685 44.6964 80.7603C45.2719 80.9521 45.7195 81.2079 46.1032 81.5276L45.4637 82.9344C44.6964 82.3589 43.8652 82.0392 42.906 82.0392C42.3945 82.0392 42.0108 82.167 41.755 82.3589C41.4353 82.5507 41.3074 82.8065 41.3074 83.1262C41.3074 83.318 41.3714 83.5098 41.4993 83.6377C41.6272 83.7656 41.819 83.8935 42.0748 83.9574C42.3305 84.0853 42.7142 84.1493 43.1618 84.2772C44.3128 84.5329 45.0801 84.8527 45.5916 85.2363C46.1032 85.62 46.3589 86.1955 46.3589 86.8349C46.3589 87.6662 46.0392 88.3056 45.3998 88.7532C44.7604 89.2008 43.8652 89.4566 42.7142 89.4566C42.1387 89.5205 41.4993 89.3926 40.8598 89.2008Z" fill="#272525"/>
<path d="M50.2595 80.6324H54.224C55.1831 80.6324 55.9505 80.8882 56.462 81.3358C56.9736 81.7834 57.2933 82.4229 57.2933 83.2541C57.2933 84.0214 57.0375 84.6609 56.462 85.1724C55.9505 85.62 55.1831 85.8758 54.224 85.8758H52.1778V89.3927H50.2595V80.6324ZM53.9682 84.4051C54.9913 84.4051 55.4389 84.0214 55.4389 83.2541C55.4389 82.4868 54.9274 82.1031 53.9682 82.1031H52.1778V84.4051H53.9682Z" fill="#272525"/>
<path d="M66.7568 89.3927L65.9255 87.4744H61.8332L61.0019 89.3927H59.0836L63.112 80.6324H64.6467L68.6751 89.3927H66.7568ZM62.4726 86.0037H65.2861L63.8794 82.7426L62.4726 86.0037Z" fill="#272525"/>
<path d="M54.0321 105.186C40.3482 105.186 27.4957 99.8792 17.8402 90.2238C8.18482 80.5684 2.8136 67.6518 2.8136 54.032C2.8136 40.3481 8.12088 27.4955 17.7763 17.8401C27.4317 8.1847 40.3482 2.81348 54.0321 2.81348C67.7159 2.81348 80.5685 8.12076 90.2239 17.7762C99.8793 27.4316 105.187 40.2842 105.187 53.968C105.187 67.6518 99.8793 80.5044 90.2239 90.1598C80.5685 99.8153 67.652 105.186 54.0321 105.186ZM54.0321 5.88275C41.1795 5.88275 29.0942 10.8703 20.0143 19.9502C10.8704 29.0941 5.88287 41.1794 5.88287 54.032C5.88287 66.8845 10.8704 78.9698 19.9504 88.0497C29.0303 97.1296 41.1156 102.117 53.9681 102.117C66.8207 102.117 78.906 97.1296 87.9859 88.0497C97.0658 78.9698 102.053 66.8845 102.053 54.032C102.053 41.1794 97.0658 29.0941 87.9859 20.0142C78.906 10.8703 66.8847 5.88275 54.0321 5.88275Z" fill="#E4B5B1"/>
<path d="M54.032 108C39.5808 108 26.0249 102.373 15.8579 92.206C5.627 81.9751 0 68.4192 0 54.032C0 39.5808 5.627 26.0249 15.794 15.8579C26.0249 5.627 39.5808 0 54.032 0C68.4831 0 82.0391 5.627 92.206 15.794C102.437 26.0249 108 39.5808 108 53.968C108 68.4192 102.373 81.9751 92.206 92.1421C81.9751 102.373 68.4192 108 54.032 108ZM54.032 1.53464C40.0284 1.53464 26.8561 6.9698 16.9449 16.881C7.03375 26.7922 1.59858 39.9645 1.59858 53.968C1.59858 67.9716 7.03375 81.1439 16.9449 91.0551C26.8561 100.966 40.0284 106.401 54.032 106.401C68.0355 106.401 81.2078 100.966 91.119 91.0551C101.03 81.1439 106.465 67.9716 106.465 53.968C106.465 39.9645 101.03 26.7922 91.119 16.881C81.2078 6.9698 68.0355 1.53464 54.032 1.53464Z" fill="#F4E4DC"/>
</g>
<defs>
<clipPath id="clip0_472_106785">
<rect width="108" height="108" fill="white"/>
</clipPath>
</defs>
</svg>
