<svg width="96" height="773" viewBox="0 0 96 773" fill="none" xmlns="http://www.w3.org/2000/svg">
<path d="M-0.750005 672.4L-1.75 672.4L-1.75 672.412L-1.74971 672.424L-0.750005 672.4ZM4.49999 681.55L3.86311 682.321L4.49999 681.55ZM95.1 686.2L95.7368 686.971L95.7734 686.941L95.8071 686.907L95.1 686.2ZM11.55 755.2L10.9132 754.429L10.8968 754.442L10.881 754.457L11.55 755.2ZM10.05 756.55L9.38103 755.807L7.44404 757.55L10.05 757.55L10.05 756.55ZM87.9 753.85L88.5163 754.637L88.5353 754.623L88.5536 754.607L87.9 753.85ZM92.85 750.55L91.8529 750.473L91.8508 750.502L91.8502 750.53L92.85 750.55ZM92.7 758.05L91.7002 758.03L91.6998 758.05L91.7002 758.07L92.7 758.05ZM92.85 765.7L91.8502 765.72L91.8507 765.745L91.8525 765.771L92.85 765.7ZM87.9 762.7L88.5332 761.926L88.5248 761.919L88.5163 761.912L87.9 762.7ZM6.45 760L6.45 759L6.01216 759L5.71519 759.322L6.45 760ZM-0.75 771.85L-1.74963 771.823L-1.75 771.836L-1.75 771.85L-0.75 771.85ZM-0.600003 766.3L-1.59655 766.217L-1.59888 766.245L-1.59964 766.273L-0.600003 766.3ZM-0.600003 755.95L-1.59746 756.021L-0.600003 755.95ZM-0.15001 751L0.449996 751.8L0.564276 751.714L0.649989 751.6L-0.15001 751ZM2.1 749.2L2.6547 750.032L2.6547 750.032L2.1 749.2ZM7.05 745.6L7.67472 746.381L7.68127 746.376L7.05 745.6ZM78 687.85L78.6313 688.626L80.8127 686.85L78 686.85L78 687.85ZM4.49999 690.55L5.09438 691.354L5.10545 691.346L5.1163 691.337L4.49999 690.55ZM-0.750003 699.25L-1.74968 699.224L-1.75 699.237L-1.75 699.25L-0.750003 699.25ZM-0.600006 693.4L-1.59779 693.333L-1.59915 693.354L-1.59968 693.374L-0.600006 693.4ZM-0.600007 678.55L-1.59971 678.574L-1.59924 678.593L-1.59806 678.612L-0.600007 678.55ZM0.249995 672.4C0.249995 672.5 0.222125 672.632 0.138293 672.758C0.0586349 672.877 -0.0341652 672.935 -0.0777939 672.957C-0.117509 672.977 -0.126366 672.972 -0.0793579 672.965C-0.0350464 672.957 0.038974 672.95 0.149993 672.95L0.149993 670.95C-0.201081 670.95 -0.613255 670.989 -0.972215 671.168C-1.16584 671.265 -1.37114 671.416 -1.5258 671.648C-1.68463 671.887 -1.75 672.15 -1.75 672.4L0.249995 672.4ZM0.149993 672.95C0.261012 672.95 0.335033 672.957 0.379344 672.965C0.426353 672.972 0.417495 672.977 0.37778 672.957C0.334151 672.935 0.241351 672.877 0.161693 672.758C0.077861 672.632 0.0499908 672.5 0.0499908 672.4L2.04999 672.4C2.04999 672.15 1.98462 671.887 1.82579 671.648C1.67113 671.416 1.46583 671.265 1.2722 671.168C0.913241 670.989 0.501063 670.95 0.149993 670.95L0.149993 672.95ZM0.0499908 672.4C0.049991 676.771 1.25043 680.163 3.86311 682.321L5.13687 680.779C3.14955 679.137 2.04999 676.429 2.04999 672.4L0.0499908 672.4ZM3.86311 682.321C6.43393 684.445 10.4735 685.4 15.75 685.4L15.75 683.4C10.6265 683.4 7.16605 682.455 5.13687 680.779L3.86311 682.321ZM15.75 685.4L94.8 685.4L94.8 683.4L15.75 683.4L15.75 685.4ZM94.8 685.4C94.6256 685.4 94.4718 685.341 94.3594 685.261C94.2593 685.189 94.2144 685.118 94.205 685.102C94.1944 685.084 94.2012 685.091 94.2169 685.138C94.232 685.183 94.2503 685.251 94.2694 685.346L96.2306 684.954C96.1723 684.663 96.0823 684.344 95.92 684.073C95.7546 683.797 95.397 683.4 94.8 683.4L94.8 685.4ZM94.2694 685.346C94.2871 685.434 94.2955 685.503 94.2986 685.556C94.3017 685.608 94.2989 685.637 94.2975 685.646C94.2963 685.655 94.2974 685.639 94.3115 685.608C94.3265 685.575 94.3525 685.533 94.3929 685.493L95.8071 686.907C96.3825 686.332 96.3448 685.525 96.2306 684.954L94.2694 685.346ZM94.4632 685.429L10.9132 754.429L12.1868 755.971L95.7368 686.971L94.4632 685.429ZM10.881 754.457L9.38103 755.807L10.719 757.293L12.219 755.943L10.881 754.457ZM10.05 757.55L76.65 757.55L76.65 755.55L10.05 755.55L10.05 757.55ZM76.65 757.55C81.9185 757.55 85.9484 756.647 88.5163 754.637L87.2837 753.062C85.2516 754.653 81.7815 755.55 76.65 755.55L76.65 757.55ZM88.5536 754.607C91.0525 752.449 92.2 749.117 92.2 744.85L90.2 744.85C90.2 748.783 89.1475 751.451 87.2464 753.093L88.5536 754.607ZM92.2 744.85C92.2 744.95 92.1721 745.082 92.0883 745.208C92.0086 745.327 91.9158 745.385 91.8722 745.407C91.8325 745.427 91.8236 745.422 91.8706 745.415C91.915 745.407 91.989 745.4 92.1 745.4L92.1 743.4C91.7489 743.4 91.3367 743.439 90.9778 743.618C90.7842 743.715 90.5789 743.866 90.4242 744.098C90.2654 744.337 90.2 744.6 90.2 744.85L92.2 744.85ZM92.1 745.4C92.211 745.4 92.285 745.407 92.3293 745.415C92.3764 745.422 92.3675 745.427 92.3278 745.407C92.2842 745.385 92.1914 745.327 92.1117 745.208C92.0279 745.082 92 744.95 92 744.85L94 744.85C94 744.6 93.9346 744.337 93.7758 744.098C93.6211 743.866 93.4158 743.715 93.2222 743.618C92.8632 743.439 92.4511 743.4 92.1 743.4L92.1 745.4ZM92 744.85C92 747.343 91.9499 749.212 91.8529 750.473L93.8471 750.627C93.9501 749.288 94 747.357 94 744.85L92 744.85ZM91.8502 750.53L91.7002 758.03L93.6998 758.07L93.8498 750.57L91.8502 750.53ZM91.7002 758.07L91.8502 765.72L93.8498 765.68L93.6998 758.03L91.7002 758.07ZM91.8525 765.771C91.95 767.135 92 769.156 92 771.85L94 771.85C94 769.144 93.9501 767.065 93.8475 765.629L91.8525 765.771ZM92 771.85C92 771.747 92.0201 771.635 92.0668 771.526C92.1129 771.419 92.1757 771.335 92.2366 771.274C92.3495 771.161 92.4528 771.128 92.4588 771.126C92.4724 771.122 92.4531 771.13 92.3833 771.137C92.317 771.145 92.2242 771.15 92.1 771.15L92.1 773.15C92.4292 773.15 92.7849 773.126 93.0912 773.024C93.3719 772.93 94 772.614 94 771.85L92 771.85ZM92.1 771.15C91.9758 771.15 91.8829 771.145 91.8167 771.137C91.7469 771.13 91.7276 771.122 91.7412 771.126C91.7472 771.128 91.8505 771.161 91.9634 771.274C92.0243 771.335 92.0871 771.419 92.1332 771.526C92.1799 771.635 92.2 771.747 92.2 771.85L90.2 771.85C90.2 772.614 90.8281 772.93 91.1088 773.024C91.4151 773.126 91.7708 773.15 92.1 773.15L92.1 771.15ZM92.2 771.85C92.2 767.407 91.0641 763.997 88.5332 761.926L87.2668 763.474C89.1359 765.003 90.2 767.693 90.2 771.85L92.2 771.85ZM88.5163 761.912C85.9484 759.903 81.9185 759 76.65 759L76.65 761C81.7815 761 85.2516 761.897 87.2837 763.487L88.5163 761.912ZM76.65 759L6.45 759L6.45 761L76.65 761L76.65 759ZM5.71519 759.322C2.00167 763.345 0.049995 767.526 0.0499952 771.85L2.05 771.85C2.04999 768.174 3.69832 764.455 7.1848 760.678L5.71519 759.322ZM0.0499952 771.85C0.0499951 771.75 0.0778653 771.618 0.161693 771.492C0.241352 771.373 0.334152 771.315 0.377781 771.293C0.417495 771.273 0.426353 771.278 0.379345 771.285C0.335033 771.293 0.261017 771.3 0.149997 771.3L0.149998 773.3C0.501072 773.3 0.91325 773.261 1.27221 773.082C1.46584 772.985 1.67114 772.834 1.82579 772.602C1.98463 772.363 2.05 772.1 2.05 771.85L0.0499952 771.85ZM0.149997 771.3C0.0389783 771.3 -0.0350421 771.293 -0.0793536 771.285C-0.126358 771.278 -0.117501 771.273 -0.0777858 771.293C-0.0341571 771.315 0.0586431 771.373 0.138302 771.492C0.22213 771.618 0.25 771.75 0.25 771.85L-1.75 771.85C-1.75 772.1 -1.68463 772.363 -1.5258 772.602C-1.37114 772.834 -1.16584 772.985 -0.972214 773.082C-0.613255 773.261 -0.201077 773.3 0.149998 773.3L0.149997 771.3ZM0.249634 771.877L0.399631 766.327L-1.59964 766.273L-1.74963 771.823L0.249634 771.877ZM0.396545 766.383C0.499923 765.142 0.549995 763.461 0.549995 761.35L-1.45001 761.35C-1.45001 763.439 -1.49993 765.058 -1.59655 766.217L0.396545 766.383ZM0.549995 761.35C0.549995 759.138 0.499816 757.312 0.397456 755.879L-1.59746 756.021C-1.49982 757.388 -1.45001 759.162 -1.45001 761.35L0.549995 761.35ZM0.397456 755.879C0.298095 754.488 0.249999 753.415 0.249999 752.65L-1.75 752.65C-1.75 753.485 -1.6981 754.612 -1.59746 756.021L0.397456 755.879ZM0.249999 752.65C0.249999 751.974 0.422782 751.82 0.449996 751.8L-0.750016 750.2C-1.52279 750.78 -1.75 751.726 -1.75 752.65L0.249999 752.65ZM0.649989 751.6C0.722243 751.504 0.904422 751.317 1.26219 751.031C1.60645 750.755 2.06813 750.423 2.6547 750.032L1.5453 748.368C0.931868 748.777 0.41854 749.145 0.0128009 749.469C-0.379438 749.783 -0.722257 750.096 -0.950006 750.4L0.649989 751.6ZM2.6547 750.032C4.47581 748.818 6.14951 747.601 7.67469 746.381L6.4253 744.819C4.95049 745.999 3.32418 747.182 1.5453 748.368L2.6547 750.032ZM7.68127 746.376L78.6313 688.626L77.3687 687.074L6.41873 744.824L7.68127 746.376ZM78 686.85L15.75 686.85L15.75 688.85L78 688.85L78 686.85ZM15.75 686.85C10.4815 686.85 6.45162 687.753 3.88368 689.762L5.1163 691.337C7.14836 689.747 10.6185 688.85 15.75 688.85L15.75 686.85ZM3.9056 689.746C1.25258 691.707 0.0499918 694.978 0.049992 699.25L2.04999 699.25C2.04999 695.322 3.1474 692.793 5.09438 691.354L3.9056 689.746ZM0.049992 699.25C0.049992 699.147 0.0701374 699.035 0.11678 698.926C0.16293 698.819 0.225674 698.735 0.286629 698.674C0.399475 698.561 0.502804 698.528 0.508759 698.526C0.522374 698.522 0.503094 698.53 0.433308 698.537C0.367039 698.545 0.274163 698.55 0.149994 698.55L0.149994 700.55C0.479176 700.55 0.834885 700.526 1.14122 700.424C1.42188 700.33 2.04999 700.014 2.04999 699.25L0.049992 699.25ZM0.149994 698.55C0.025822 698.55 -0.0670544 698.545 -0.13332 698.537C-0.203109 698.53 -0.222385 698.522 -0.20877 698.526C-0.202816 698.528 -0.0994908 698.561 0.0133594 698.674C0.0743145 698.735 0.137059 698.819 0.183205 698.926C0.229851 699.035 0.249997 699.147 0.249997 699.25L-1.75 699.25C-1.75 700.014 -1.12189 700.33 -0.841236 700.424C-0.5349 700.526 -0.179191 700.55 0.149994 700.55L0.149994 698.55ZM0.249668 699.276L0.399666 693.426L-1.59968 693.374L-1.74968 699.224L0.249668 699.276ZM0.397781 693.467C0.598511 690.455 0.699989 687.981 0.699989 686.05L-1.30001 686.05C-1.30001 687.919 -1.39853 690.344 -1.59779 693.333L0.397781 693.467ZM0.699989 686.05C0.699989 684.219 0.59851 681.695 0.398048 678.488L-1.59806 678.612C-1.39853 681.805 -1.30001 684.281 -1.30001 686.05L0.699989 686.05ZM0.399696 678.526L0.249698 672.376L-1.74971 672.424L-1.59971 678.574L0.399696 678.526ZM92.7 558.016L91.7012 557.966L92.7 558.016ZM92.7 575.116L91.7017 575.174L91.7019 575.178L92.7 575.116ZM90.15 574.366L89.2253 574.746L90.15 574.366ZM80.1 573.766L79.6909 572.853L79.683 572.857L79.6751 572.86L80.1 573.766ZM43.35 591.016L42.9251 590.11L42.35 590.38L42.35 591.016L43.35 591.016ZM43.35 619.366L42.35 619.366L42.35 620.029L42.9615 620.287L43.35 619.366ZM73.95 632.266L73.5615 633.187L73.5692 633.19L73.95 632.266ZM92.7 627.466L91.7017 627.407L91.7014 627.413L92.7 627.466ZM92.7 646.366L91.7017 646.424L91.7022 646.432L92.7 646.366ZM89.7 646.816L90.5849 646.35L90.5806 646.342L90.5762 646.334L89.7 646.816ZM84.15 641.266L83.5953 642.098L83.6027 642.103L84.15 641.266ZM72.6 635.416L72.2099 636.336L72.2128 636.338L72.6 635.416ZM-2.10001 603.766L-2.6547 604.598L-2.57658 604.65L-2.49013 604.686L-2.10001 603.766ZM-2.10001 601.816L-1.78378 602.764L-1.72604 602.745L-1.67106 602.719L-2.10001 601.816ZM72.45 566.416L72.0325 565.507L72.021 565.512L72.45 566.416ZM87.45 557.716L88.1283 558.45L88.1355 558.444L88.1425 558.437L87.45 557.716ZM40.2 618.016L39.8119 618.937L41.2 619.522L41.2 618.016L40.2 618.016ZM40.2 592.516L41.2 592.516L41.2 590.935L39.7719 591.612L40.2 592.516ZM11.7 606.016L11.2719 605.112L9.25061 606.069L11.3119 606.937L11.7 606.016ZM92.2 549.166C92.2 549.191 92.1947 549.262 92.1507 549.35C92.1045 549.443 92.0383 549.509 91.9797 549.548C91.9278 549.582 91.8991 549.585 91.9232 549.579C91.9468 549.574 92.0024 549.566 92.1 549.566L92.1 547.566C91.7205 547.566 91.2609 547.623 90.8703 547.884C90.4081 548.192 90.2 548.674 90.2 549.166L92.2 549.166ZM92.1 549.566C92.1976 549.566 92.2531 549.574 92.2768 549.579C92.3009 549.585 92.2722 549.582 92.2203 549.548C92.1617 549.509 92.0954 549.443 92.0493 549.35C92.0052 549.262 92 549.191 92 549.166L94 549.166C94 548.674 93.7919 548.192 93.3297 547.884C92.939 547.623 92.4795 547.566 92.1 547.566L92.1 549.566ZM92 549.166C92 551.039 91.9011 553.968 91.7012 557.966L93.6987 558.066C93.8989 554.063 94 551.092 94 549.166L92 549.166ZM91.7012 557.966C91.5012 561.967 91.4 564.889 91.4 566.716L93.4 566.716C93.4 564.943 93.4988 562.064 93.6987 558.066L91.7012 557.966ZM91.4 566.716C91.4 568.943 91.5011 571.764 91.7017 575.174L93.6983 575.057C93.4989 571.667 93.4 568.889 93.4 566.716L91.4 566.716ZM91.7019 575.178C91.9016 578.372 92 580.797 92 582.466L94 582.466C94 580.734 93.8984 578.259 93.6981 575.053L91.7019 575.178ZM92 582.466C92 582.44 92.0052 582.369 92.0493 582.281C92.0955 582.189 92.1617 582.123 92.2203 582.084C92.2722 582.049 92.3009 582.047 92.2768 582.052C92.2531 582.057 92.1976 582.066 92.1 582.066L92.1 584.066C92.4795 584.066 92.939 584.008 93.3297 583.748C93.7919 583.44 94 582.957 94 582.466L92 582.466ZM92.1 582.066C92.0024 582.066 91.9468 582.057 91.9232 582.052C91.8991 582.047 91.9278 582.049 91.9797 582.084C92.0383 582.123 92.1045 582.189 92.1507 582.281C92.1947 582.369 92.2 582.44 92.2 582.466L90.2 582.466C90.2 582.957 90.4081 583.44 90.8703 583.748C91.2609 584.008 91.7205 584.066 92.1 584.066L92.1 582.066ZM92.2 582.466C92.2 578.74 91.853 575.875 91.0747 573.985L89.2253 574.746C89.847 576.256 90.2 578.791 90.2 582.466L92.2 582.466ZM91.0747 573.985C90.6706 573.004 90.0918 572.196 89.303 571.637C88.5087 571.074 87.5737 570.816 86.55 570.816L86.55 572.816C87.2263 572.816 87.7413 572.982 88.147 573.269C88.5581 573.56 88.9294 574.028 89.2253 574.746L91.0747 573.985ZM86.55 570.816C84.918 570.816 82.5966 571.551 79.6909 572.853L80.509 574.678C83.4034 573.381 85.382 572.816 86.55 572.816L86.55 570.816ZM79.6751 572.86L42.9251 590.11L43.7749 591.921L80.5249 574.671L79.6751 572.86ZM42.35 591.016L42.35 619.366L44.35 619.366L44.35 591.016L42.35 591.016ZM42.9615 620.287L73.5615 633.187L74.3385 631.344L43.7384 618.444L42.9615 620.287ZM73.5692 633.19C77.0198 634.611 79.9604 635.366 82.35 635.366L82.35 633.366C80.3396 633.366 77.6802 632.72 74.3307 631.341L73.5692 633.19ZM82.35 635.366C85.6372 635.366 88.1814 633.968 89.8442 631.206C91.4581 628.526 92.2 624.633 92.2 619.666L90.2 619.666C90.2 624.498 89.4669 627.956 88.1308 630.175C86.8436 632.313 84.9628 633.366 82.35 633.366L82.35 635.366ZM92.2 619.666C92.2 619.639 92.2042 619.66 92.1847 619.709C92.1627 619.764 92.1222 619.824 92.0652 619.871C92.012 619.916 91.9717 619.927 91.9739 619.926C91.9786 619.925 92.0162 619.916 92.1 619.916L92.1 617.916C91.6858 617.916 91.1889 617.998 90.7848 618.335C90.3458 618.701 90.2 619.209 90.2 619.666L92.2 619.666ZM92.1 619.916C92.1838 619.916 92.2214 619.925 92.2261 619.926C92.2283 619.927 92.188 619.916 92.1348 619.871C92.0778 619.824 92.0372 619.764 92.0153 619.709C91.9957 619.66 92 619.639 92 619.666L94 619.666C94 619.209 93.8542 618.701 93.4152 618.335C93.0111 617.998 92.5142 617.916 92.1 617.916L92.1 619.916ZM92 619.666C92 621.436 91.9014 624.013 91.7017 627.407L93.6983 627.524C93.8986 624.119 94 621.495 94 619.666L92 619.666ZM91.7014 627.413C91.5008 631.225 91.4 634.543 91.4 637.366L93.4 637.366C93.4 634.588 93.4992 631.306 93.6986 627.518L91.7014 627.413ZM91.4 637.366C91.4 639.99 91.5009 643.01 91.7017 646.424L93.6983 646.307C93.4991 642.921 93.4 639.941 93.4 637.366L91.4 637.366ZM91.7022 646.432C91.9014 649.42 92 651.896 92 653.866L94 653.866C94 651.835 93.8986 649.311 93.6978 646.299L91.7022 646.432ZM92 653.866C92 653.893 91.9957 653.871 92.0153 653.822C92.0372 653.767 92.0778 653.707 92.1348 653.66C92.188 653.616 92.2283 653.605 92.2261 653.605C92.2214 653.607 92.1838 653.616 92.1 653.616L92.1 655.616C92.5142 655.616 93.0111 655.533 93.4152 655.196C93.8542 654.83 94 654.323 94 653.866L92 653.866ZM92.1 653.616C92.0162 653.616 91.9786 653.607 91.9739 653.605C91.9717 653.605 92.012 653.616 92.0652 653.66C92.1222 653.707 92.1627 653.767 92.1847 653.822C92.2042 653.871 92.2 653.893 92.2 653.866L90.2 653.866C90.2 654.323 90.3458 654.83 90.7848 655.196C91.1889 655.533 91.6858 655.616 92.1 655.616L92.1 653.616ZM92.2 653.866C92.2 650.951 91.68 648.43 90.5849 646.35L88.8151 647.281C89.72 649.001 90.2 651.18 90.2 653.866L92.2 653.866ZM90.5762 646.334C89.374 644.148 87.3871 642.187 84.6972 640.429L83.6027 642.103C86.1128 643.744 87.826 645.483 88.8238 647.298L90.5762 646.334ZM84.7047 640.434C81.9285 638.583 78.0124 636.604 72.9872 634.494L72.2128 636.338C77.1875 638.427 80.9715 640.348 83.5953 642.098L84.7047 640.434ZM72.9901 634.495L-1.70988 602.845L-2.49013 604.686L72.2099 636.336L72.9901 634.495ZM-1.54531 602.934C-1.539 602.938 -1.53043 602.945 -1.52293 602.954C-1.51571 602.963 -1.51516 602.967 -1.51837 602.959C-1.52614 602.941 -1.55001 602.871 -1.55001 602.716L-3.55001 602.716C-3.55001 603.409 -3.33283 604.146 -2.6547 604.598L-1.54531 602.934ZM-1.55001 602.716C-1.55001 602.639 -1.54414 602.59 -1.53901 602.562C-1.53388 602.535 -1.5313 602.539 -1.54308 602.563C-1.55599 602.589 -1.58342 602.632 -1.63252 602.676C-1.68256 602.72 -1.7369 602.749 -1.78378 602.764L-2.41624 600.867C-3.34641 601.177 -3.55001 602.078 -3.55001 602.716L-1.55001 602.716ZM-1.67106 602.719L72.8789 567.319L72.021 565.512L-2.52895 600.912L-1.67106 602.719ZM72.8675 567.324C80.2713 563.923 85.4013 560.968 88.1283 558.45L86.7717 556.981C84.2987 559.264 79.4286 562.109 72.0325 565.507L72.8675 567.324ZM88.1425 558.437C90.8279 555.859 92.2 552.753 92.2 549.166L90.2 549.166C90.2 552.178 89.0721 554.772 86.7575 556.994L88.1425 558.437ZM41.2 618.016L41.2 592.516L39.2 592.516L39.2 618.016L41.2 618.016ZM39.7719 591.612L11.2719 605.112L12.1281 606.919L40.6281 593.419L39.7719 591.612ZM11.3119 606.937L39.8119 618.937L40.588 617.094L12.088 605.094L11.3119 606.937ZM6.74998 530.14L6.04287 530.847L6.04849 530.853L6.05419 530.858L6.74998 530.14ZM23.1 536.89L22.9211 537.874L23.0098 537.89L23.1 537.89L23.1 536.89ZM23.1 538.54L22.9896 539.534L23.0446 539.54L23.1 539.54L23.1 538.54ZM8.99999 537.19L9.08588 536.194L8.99999 537.19ZM-0.750011 526.69L-1.74939 526.655L-1.75001 526.673L-1.75001 526.69L-0.750011 526.69ZM-0.600015 477.79L-1.59991 477.805L-1.59979 477.813L-1.59956 477.821L-0.600015 477.79ZM-0.750014 467.59L-1.75001 467.59L-1.75001 467.598L-1.74991 467.605L-0.750014 467.59ZM-1.50002 459.64L-2.46354 459.908L-2.46152 459.915L-2.45939 459.922L-1.50002 459.64ZM-4.50002 456.19L-4.18379 455.242L-4.22023 455.229L-4.25749 455.22L-4.50002 456.19ZM-4.50002 454.54L-4.39712 453.546L-4.44843 453.54L-4.50002 453.54L-4.50002 454.54ZM8.69998 455.44L8.6492 456.439L8.69998 455.44ZM23.1 457.69L23.1 456.69L23.0808 456.69L23.0615 456.691L23.1 457.69ZM6.74998 462.49L7.4215 463.231L7.42736 463.226L7.43314 463.22L6.74998 462.49ZM87.6 490.39L87.1528 489.496L87.6 490.39ZM90.45 486.34L91.4201 486.583L90.45 486.34ZM92.85 484.84L91.8512 484.79L91.8503 484.809L91.8501 484.827L92.85 484.84ZM92.7 496.54L91.7001 496.527L91.6999 496.54L91.7001 496.554L92.7 496.54ZM92.85 507.79L91.8501 507.804L91.8503 507.822L91.8512 507.84L92.85 507.79ZM87.6 502.54L87.1294 503.423L87.141 503.429L87.1528 503.435L87.6 502.54ZM4.94998 502.39L5.42409 503.271L5.43911 503.263L5.45386 503.254L4.94998 502.39ZM2.54998 506.29L3.52853 506.496L3.53377 506.471L3.53775 506.446L2.54998 506.29ZM0.949982 515.89C0.949982 522.35 2.59187 527.396 6.04287 530.847L7.45709 529.433C4.5081 526.484 2.94998 522.031 2.94998 515.89L0.949982 515.89ZM6.05419 530.858C9.46814 534.166 15.1558 536.462 22.9211 537.874L23.2789 535.906C15.6442 534.518 10.4318 532.315 7.44578 529.422L6.05419 530.858ZM23.1 537.89C22.9965 537.89 22.8852 537.87 22.7764 537.823C22.6687 537.777 22.5851 537.715 22.5241 537.654C22.4113 537.541 22.3783 537.437 22.3763 537.431C22.3718 537.418 22.3796 537.437 22.3874 537.507C22.3947 537.573 22.4 537.666 22.4 537.79L24.4 537.79C24.4 537.461 24.3758 537.105 24.2737 536.799C24.1801 536.518 23.8642 535.89 23.1 535.89L23.1 537.89ZM22.4 537.79C22.4 537.884 22.3952 537.948 22.39 537.986C22.3844 538.028 22.3812 538.02 22.3965 537.981C22.411 537.945 22.4618 537.833 22.5911 537.725C22.738 537.603 22.9222 537.54 23.1 537.54L23.1 539.54C23.3777 539.54 23.6495 539.447 23.8714 539.262C24.0756 539.091 24.189 538.885 24.2535 538.724C24.3754 538.419 24.4 538.077 24.4 537.79L22.4 537.79ZM23.2104 537.546C19.5989 537.145 14.8898 536.694 9.08588 536.194L8.9141 538.187C14.7102 538.686 19.4011 539.135 22.9896 539.534L23.2104 537.546ZM9.08588 536.194C3.27968 535.693 -1.10533 535.44 -4.05001 535.44L-4.05001 537.44C-1.19469 537.44 3.12029 537.687 8.9141 538.187L9.08588 536.194ZM-4.05001 535.44C-4.14587 535.44 -4.03408 535.417 -3.90541 535.546C-3.77672 535.674 -3.80001 535.786 -3.80001 535.69L-5.80001 535.69C-5.80001 536.094 -5.6983 536.581 -5.31962 536.96C-4.94094 537.339 -4.45416 537.44 -4.05001 537.44L-4.05001 535.44ZM-3.80001 535.69C-3.80001 535.606 -3.79092 535.569 -3.78962 535.564C-3.789 535.562 -3.80001 535.602 -3.84429 535.655C-3.8918 535.712 -3.95182 535.753 -4.00675 535.775C-4.05556 535.794 -4.07707 535.79 -4.05001 535.79L-4.05001 533.79C-4.50695 533.79 -5.01488 533.936 -5.38073 534.375C-5.71749 534.779 -5.80001 535.276 -5.80001 535.69L-3.80001 535.69ZM-4.05001 535.79C-3.27718 535.79 -2.57029 535.547 -1.97303 535.058C-1.39257 534.583 -0.964828 533.918 -0.648917 533.143C-0.0246308 531.61 0.249989 529.428 0.249989 526.69L-1.75001 526.69C-1.75001 529.352 -2.02539 531.22 -2.5011 532.388C-2.73519 532.963 -2.99495 533.31 -3.2395 533.51C-3.46724 533.696 -3.72285 533.79 -4.05001 533.79L-4.05001 535.79ZM0.249367 526.726C0.549896 518.21 0.699981 508.148 0.699981 496.54L-1.30002 496.54C-1.30002 508.132 -1.44992 518.17 -1.74939 526.655L0.249367 526.726ZM0.699981 496.54C0.699981 490.629 0.599795 484.369 0.399527 477.76L-1.59956 477.821C-1.39983 484.412 -1.30002 490.651 -1.30002 496.54L0.699981 496.54ZM0.399878 477.776L0.24988 467.576L-1.74991 467.605L-1.59991 477.805L0.399878 477.776ZM0.249986 467.59C0.249986 463.972 0.00174091 461.202 -0.54066 459.358L-2.45939 459.922C-2.00177 461.478 -1.75001 464.009 -1.75001 467.59L0.249986 467.59ZM-0.536505 459.373C-1.10692 457.319 -2.30742 455.867 -4.18379 455.242L-4.81625 457.139C-3.69262 457.513 -2.89312 458.361 -2.46354 459.908L-0.536505 459.373ZM-4.25749 455.22C-4.26202 455.219 -4.24081 455.224 -4.20782 455.246C-4.17296 455.269 -4.1412 455.301 -4.11797 455.336C-4.07366 455.402 -4.10002 455.417 -4.10002 455.29L-6.10002 455.29C-6.10002 455.664 -6.02639 456.078 -5.78207 456.445C-5.52424 456.832 -5.1468 457.059 -4.74255 457.16L-4.25749 455.22ZM-4.10002 455.29C-4.10002 455.147 -4.06702 455.225 -4.16915 455.352C-4.22573 455.423 -4.30031 455.478 -4.37791 455.51C-4.4494 455.54 -4.49758 455.54 -4.50002 455.54L-4.50002 453.54C-4.92073 453.54 -5.39466 453.683 -5.73089 454.103C-6.03302 454.481 -6.10002 454.933 -6.10002 455.29L-4.10002 455.29ZM-4.60292 455.535C-1.67582 455.838 2.74561 456.139 8.6492 456.439L8.75076 454.442C2.85435 454.142 -1.52422 453.843 -4.39712 453.546L-4.60292 455.535ZM8.6492 456.439C14.5574 456.739 19.3762 456.89 23.1 456.89L23.1 454.89C19.4238 454.89 14.6425 454.741 8.75076 454.442L8.6492 456.439ZM23.1 456.89C22.9965 456.89 22.8852 456.87 22.7764 456.823C22.6687 456.777 22.5851 456.715 22.5241 456.654C22.4113 456.541 22.3783 456.437 22.3763 456.431C22.3718 456.418 22.3796 456.437 22.3874 456.507C22.3947 456.573 22.4 456.666 22.4 456.79L24.4 456.79C24.4 456.461 24.3758 456.105 24.2737 455.799C24.1801 455.518 23.8642 454.89 23.1 454.89L23.1 456.89ZM22.4 456.79C22.4 456.914 22.3947 457.007 22.3874 457.074C22.3796 457.143 22.3718 457.163 22.3763 457.149C22.3783 457.143 22.4113 457.04 22.5241 456.927C22.5851 456.866 22.6687 456.803 22.7764 456.757C22.8852 456.71 22.9965 456.69 23.1 456.69L23.1 458.69C23.8642 458.69 24.1801 458.062 24.2737 457.781C24.3758 457.475 24.4 457.119 24.4 456.79L22.4 456.79ZM23.0615 456.691C15.1999 456.993 9.43942 458.605 6.06682 461.76L7.43314 463.22C10.2605 460.575 15.4001 458.987 23.1384 458.689L23.0615 456.691ZM6.07846 461.749C2.57733 464.922 0.94998 470.062 0.94998 476.89L2.94998 476.89C2.94998 470.318 4.52263 465.858 7.4215 463.231L6.07846 461.749ZM0.94998 476.89C0.94998 481.393 1.14802 484.685 1.57143 486.696L3.52853 486.284C3.15194 484.495 2.94998 481.387 2.94998 476.89L0.94998 476.89ZM1.57143 486.696C2.01169 488.787 2.99057 490.39 4.62588 491.271L5.57408 489.51C4.6094 488.99 3.88827 487.993 3.52853 486.284L1.57143 486.696ZM4.62588 491.271C6.16035 492.097 8.57867 492.44 11.7 492.44L11.7 490.44C8.62129 490.44 6.63962 490.083 5.57408 489.51L4.62588 491.271ZM11.7 492.44L80.85 492.44L80.85 490.44L11.7 490.44L11.7 492.44ZM80.85 492.44C83.9817 492.44 86.429 492.094 88.0472 491.285L87.1528 489.496C85.9709 490.087 83.9182 490.44 80.85 490.44L80.85 492.44ZM88.0472 491.285C89.7851 490.416 90.8732 488.77 91.4201 486.583L89.4798 486.098C89.0268 487.91 88.2148 488.965 87.1528 489.496L88.0472 491.285ZM91.4201 486.583C91.9516 484.457 92.2 481.204 92.2 476.89L90.2 476.89C90.2 481.177 89.9484 484.224 89.4798 486.098L91.4201 486.583ZM92.2 476.89C92.2 476.99 92.1721 477.122 92.0883 477.248C92.0086 477.368 91.9158 477.425 91.8722 477.447C91.8325 477.467 91.8236 477.463 91.8706 477.455C91.9149 477.447 91.989 477.44 92.1 477.44L92.1 475.44C91.7489 475.44 91.3367 475.479 90.9778 475.658C90.7842 475.755 90.5788 475.907 90.4242 476.139C90.2654 476.377 90.2 476.64 90.2 476.89L92.2 476.89ZM92.1 477.44C92.211 477.44 92.285 477.447 92.3293 477.455C92.3763 477.463 92.3675 477.467 92.3278 477.447C92.2842 477.425 92.1913 477.368 92.1117 477.248C92.0278 477.122 92 476.99 92 476.89L94 476.89C94 476.64 93.9346 476.377 93.7758 476.139C93.6211 475.907 93.4158 475.755 93.2222 475.658C92.8632 475.479 92.4511 475.44 92.1 475.44L92.1 477.44ZM92 476.89C92 480.183 91.95 482.814 91.8512 484.79L93.8487 484.89C93.9499 482.866 94 480.198 94 476.89L92 476.89ZM91.8501 484.827L91.7001 496.527L93.6999 496.553L93.8499 484.853L91.8501 484.827ZM91.7001 496.554L91.8501 507.804L93.8499 507.777L93.6999 496.527L91.7001 496.554ZM91.8512 507.84C91.95 509.816 92 512.547 92 516.04L94 516.04C94 512.534 93.95 509.765 93.8487 507.74L91.8512 507.84ZM92 516.04C92 515.937 92.0201 515.825 92.0668 515.717C92.1129 515.609 92.1757 515.525 92.2366 515.464C92.3495 515.352 92.4528 515.319 92.4588 515.317C92.4724 515.312 92.4531 515.32 92.3833 515.328C92.317 515.335 92.2242 515.34 92.1 515.34L92.1 517.34C92.4292 517.34 92.7849 517.316 93.0912 517.214C93.3719 517.12 94 516.804 94 516.04L92 516.04ZM92.1 515.34C91.9758 515.34 91.8829 515.335 91.8167 515.328C91.7469 515.32 91.7276 515.312 91.7412 515.317C91.7472 515.319 91.8505 515.352 91.9634 515.464C92.0243 515.525 92.087 515.609 92.1332 515.717C92.1798 515.825 92.2 515.937 92.2 516.04L90.2 516.04C90.2 516.804 90.8281 517.12 91.1088 517.214C91.4151 517.316 91.7708 517.34 92.1 517.34L92.1 515.34ZM92.2 516.04C92.2 511.727 91.9516 508.474 91.4201 506.348L89.4798 506.833C89.9484 508.707 90.2 511.754 90.2 516.04L92.2 516.04ZM91.4201 506.348C90.8732 504.16 89.7851 502.515 88.0472 501.646L87.1528 503.435C88.2148 503.966 89.0268 505.02 89.4798 506.833L91.4201 506.348ZM88.0706 501.658C86.3536 500.742 83.9062 500.34 80.85 500.34L80.85 502.34C83.7938 502.34 85.8463 502.738 87.1294 503.423L88.0706 501.658ZM80.85 500.34L11.4 500.34L11.4 502.34L80.85 502.34L80.85 500.34ZM11.4 500.34C8.29137 500.34 5.89808 500.679 4.44611 501.526L5.45386 503.254C6.40189 502.701 8.30859 502.34 11.4 502.34L11.4 500.34ZM4.47589 501.51C2.82133 502.401 1.89484 504.028 1.56222 506.134L3.53775 506.446C3.80513 504.753 4.47864 503.78 5.42409 503.271L4.47589 501.51ZM1.57143 506.084C1.14803 508.095 0.949981 511.387 0.949982 515.89L2.94998 515.89C2.94998 511.393 3.15194 508.285 3.52853 506.496L1.57143 506.084ZM-0.750018 361.422L-1.74975 361.399L-1.75002 361.41L-1.75002 361.422L-0.750018 361.422ZM-0.600021 354.972L-1.59848 354.916L-1.59938 354.932L-1.59975 354.949L-0.600021 354.972ZM-0.600021 339.072L-1.59974 339.096L-1.59928 339.115L-1.59807 339.134L-0.600021 339.072ZM-0.750019 332.772L-1.75002 332.772L-1.75002 332.784L-1.74974 332.796L-0.750019 332.772ZM85.35 354.372L86.0571 353.665L86.0516 353.659L85.35 354.372ZM90.6 399.672L91.4846 400.138L91.488 400.132L90.6 399.672ZM78.3 412.572L78.7856 413.446L78.7953 413.441L78.8049 413.435L78.3 412.572ZM4.79998 417.972L5.1939 418.891L5.1939 418.891L4.79998 417.972ZM1.94998 421.572L2.89297 421.905L2.90435 421.872L2.91349 421.84L1.94998 421.572ZM-0.750015 429.822L-1.74981 429.801L-1.75002 429.812L-1.75002 429.822L-0.750015 429.822ZM-0.600018 422.472L-1.59888 422.424L-1.59953 422.438L-1.59981 422.451L-0.600018 422.472ZM-0.600019 401.772L-1.5998 401.793L-1.59952 401.806L-1.59889 401.819L-0.600019 401.772ZM-0.750017 394.572L-1.75002 394.572L-1.75002 394.582L-1.7498 394.593L-0.750017 394.572ZM1.94998 402.822L1.00129 403.138L1.94998 402.822ZM5.09998 406.422L5.4939 405.503L5.48269 405.498L5.47137 405.493L5.09998 406.422ZM81.15 399.372L81.7937 400.137L81.8003 400.132L81.8068 400.126L81.15 399.372ZM82.05 355.872L82.716 355.126L82.7094 355.12L82.05 355.872ZM15.75 347.372C10.7232 347.372 6.76635 348.485 4.06109 350.887C1.33312 353.308 0.049977 356.885 0.0499772 361.422L2.04998 361.422C2.04998 357.259 3.21683 354.31 5.38887 352.382C7.5836 350.434 10.9767 349.372 15.75 349.372L15.75 347.372ZM0.0499772 361.422C0.0499772 361.322 0.0778474 361.19 0.161675 361.064C0.241334 360.945 0.334134 360.887 0.377763 360.865C0.417477 360.845 0.426335 360.85 0.379331 360.857C0.335019 360.865 0.260999 360.872 0.149979 360.872L0.14998 362.872C0.501054 362.872 0.913228 362.833 1.27219 362.654C1.46582 362.557 1.67112 362.405 1.82578 362.173C1.98461 361.935 2.04998 361.672 2.04998 361.422L0.0499772 361.422ZM0.149979 360.872C0.0389603 360.872 -0.03506 360.865 -0.0793716 360.857C-0.12638 360.85 -0.117519 360.845 -0.0778037 360.865C-0.034175 360.887 0.0586251 360.945 0.138284 361.064C0.222112 361.19 0.249982 361.322 0.249982 361.422L-1.75002 361.422C-1.75002 361.672 -1.68465 361.935 -1.52582 362.173C-1.37116 362.405 -1.16586 362.557 -0.972232 362.654C-0.613273 362.833 -0.201095 362.872 0.14998 362.872L0.149979 360.872ZM0.249711 361.445L0.399708 354.995L-1.59975 354.949L-1.74975 361.399L0.249711 361.445ZM0.398438 355.027C0.598851 351.42 0.699974 348.549 0.699974 346.422L-1.30003 346.422C-1.30003 348.495 -1.39889 351.324 -1.59848 354.916L0.398438 355.027ZM0.699974 346.422C0.699974 344.69 0.598408 342.216 0.398033 339.009L-1.59807 339.134C-1.39845 342.328 -1.30003 344.754 -1.30003 346.422L0.699974 346.422ZM0.399696 339.048L0.249698 332.748L-1.74974 332.796L-1.59974 339.096L0.399696 339.048ZM0.249981 332.772C0.249981 332.875 0.229835 332.987 0.183185 333.095C0.137035 333.203 0.074287 333.287 0.013332 333.348C-0.0995182 333.461 -0.202843 333.494 -0.208794 333.496C-0.222409 333.5 -0.203129 333.492 -0.133339 333.484C-0.0670704 333.477 0.0258061 333.472 0.149978 333.472L0.149978 331.472C-0.179203 331.472 -0.534909 331.496 -0.841244 331.598C-1.12189 331.692 -1.75002 332.008 -1.75002 332.772L0.249981 332.772ZM0.149978 333.472C0.27415 333.472 0.367027 333.477 0.433296 333.484C0.503086 333.492 0.522365 333.5 0.508751 333.496C0.5028 333.494 0.399471 333.461 0.286621 333.348C0.225669 333.287 0.162922 333.203 0.116768 333.095C0.0701214 332.987 0.049976 332.875 0.049976 332.772L2.04998 332.772C2.04998 332.008 1.42184 331.692 1.1412 331.598C0.834865 331.496 0.47916 331.472 0.149978 331.472L0.149978 333.472ZM0.049976 332.772C0.0499761 336.986 1.35032 340.308 4.0926 342.547C6.79604 344.753 10.7395 345.772 15.75 345.772L15.75 343.772C10.9604 343.772 7.55391 342.79 5.35735 340.997C3.19963 339.236 2.04998 336.558 2.04998 332.772L0.049976 332.772ZM15.75 345.772L58.35 345.772L58.35 343.772L15.75 343.772L15.75 345.772ZM58.35 345.772C69.6594 345.772 78.3811 348.914 84.6484 355.084L86.0516 353.659C79.3189 347.03 70.0406 343.772 58.35 343.772L58.35 345.772ZM84.6429 355.079C90.8198 361.256 93.95 369.582 93.95 380.172L95.95 380.172C95.95 369.162 92.6802 360.288 86.0571 353.665L84.6429 355.079ZM93.95 380.172C93.95 387.44 92.5266 393.777 89.712 399.212L91.488 400.132C94.4733 394.367 95.95 387.704 95.95 380.172L93.95 380.172ZM89.7154 399.205C86.9013 404.543 82.9319 408.704 77.7951 411.709L78.8049 413.435C84.2681 410.24 88.4987 405.801 91.4846 400.138L89.7154 399.205ZM77.8143 411.698C72.5858 414.602 66.4584 416.072 59.4 416.072L59.4 418.072C66.7416 418.072 73.2141 416.541 78.7856 413.446L77.8143 411.698ZM59.4 416.072L11.4 416.072L11.4 418.072L59.4 418.072L59.4 416.072ZM11.4 416.072C8.37041 416.072 6.00056 416.369 4.40607 417.053L5.1939 418.891C6.39941 418.374 8.42955 418.072 11.4 418.072L11.4 416.072ZM4.40607 417.053C2.66427 417.799 1.54738 419.285 0.986457 421.304L2.91349 421.84C3.35258 420.259 4.13569 419.345 5.1939 418.891L4.40607 417.053ZM1.00698 421.239C0.346702 423.11 0.04998 426.006 0.0499802 429.822L2.04998 429.822C2.04998 426.038 2.35325 423.434 2.89297 421.905L1.00698 421.239ZM0.0499802 429.822C0.0499802 429.718 0.0701256 429.607 0.116772 429.498C0.162922 429.391 0.22567 429.307 0.286621 429.246C0.399471 429.133 0.5028 429.1 0.508751 429.098C0.522366 429.094 0.503086 429.101 0.4333 429.109C0.367031 429.117 0.274151 429.122 0.149982 429.122L0.149983 431.122C0.479164 431.122 0.834873 431.098 1.14121 430.996C1.42186 430.902 2.04998 430.586 2.04998 429.822L0.0499802 429.822ZM0.149982 429.122C0.0258103 429.122 -0.0670662 429.117 -0.133335 429.109C-0.203121 429.101 -0.222401 429.094 -0.208786 429.098C-0.202835 429.1 -0.0995064 429.133 0.0133438 429.246C0.0742951 429.307 0.137043 429.391 0.183193 429.498C0.229839 429.607 0.249985 429.718 0.249985 429.822L-1.75002 429.822C-1.75002 430.586 -1.12189 430.902 -0.841244 430.996C-0.534908 431.098 -0.179199 431.122 0.149983 431.122L0.149982 429.122ZM0.249775 429.842L0.399776 422.492L-1.59981 422.451L-1.74981 429.801L0.249775 429.842ZM0.398849 422.519C0.599205 418.312 0.699977 414.894 0.699977 412.272L-1.30002 412.272C-1.30002 414.849 -1.39925 418.232 -1.59888 422.424L0.398849 422.519ZM0.699977 412.272C0.699977 409.45 0.599269 405.933 0.398848 401.724L-1.59889 401.819C-1.39931 406.011 -1.30002 409.493 -1.30002 412.272L0.699977 412.272ZM0.399764 401.751L0.249766 394.551L-1.7498 394.593L-1.5998 401.793L0.399764 401.751ZM0.249983 394.572C0.249983 394.672 0.222113 394.804 0.138285 394.93C0.0586304 395.049 -0.0341697 395.107 -0.0777984 395.129C-0.117517 395.149 -0.126375 395.144 -0.0793663 395.136C-0.0350547 395.129 0.0389618 395.122 0.149981 395.122L0.149981 393.122C-0.201093 393.122 -0.613271 393.16 -0.972234 393.34C-1.16586 393.437 -1.37116 393.588 -1.52582 393.82C-1.68465 394.059 -1.75002 394.322 -1.75002 394.572L0.249983 394.572ZM0.149981 395.122C0.261 395.122 0.335017 395.129 0.379328 395.136C0.426337 395.144 0.417475 395.149 0.37776 395.129C0.334132 395.107 0.241332 395.049 0.161677 394.93C0.077845 394.804 0.0499787 394.672 0.0499787 394.572L2.04998 394.572C2.04998 394.322 1.98461 394.059 1.82578 393.82C1.67113 393.588 1.46583 393.437 1.2722 393.34C0.913233 393.16 0.501055 393.122 0.149981 393.122L0.149981 395.122ZM0.0499787 394.572C0.0499788 398.298 0.348601 401.18 1.00129 403.138L2.89866 402.506C2.35136 400.864 2.04998 398.246 2.04998 394.572L0.0499787 394.572ZM1.00129 403.138C1.67634 405.163 2.90678 406.622 4.72859 407.35L5.47137 405.493C4.29319 405.022 3.42362 404.081 2.89866 402.506L1.00129 403.138ZM4.70606 407.341C6.30055 408.024 8.67041 408.322 11.7 408.322L11.7 406.322C8.72955 406.322 6.69941 406.019 5.4939 405.503L4.70606 407.341ZM11.7 408.322L54.15 408.322L54.15 406.322L11.7 406.322L11.7 408.322ZM54.15 408.322C65.9879 408.322 75.2507 405.642 81.7937 400.137L80.5062 398.607C74.4492 403.702 65.7121 406.322 54.15 406.322L54.15 408.322ZM81.8068 400.126C88.2622 394.504 91.45 386.708 91.45 376.872L89.45 376.872C89.45 386.236 86.4378 393.44 80.4932 398.618L81.8068 400.126ZM91.45 376.872C91.45 367.649 88.5706 360.353 82.716 355.126L81.384 356.618C86.7294 361.39 89.45 368.095 89.45 376.872L91.45 376.872ZM82.7094 355.12C76.7754 349.915 68.6639 347.372 58.5 347.372L58.5 349.372C68.336 349.372 75.9245 351.829 81.3905 356.624L82.7094 355.12ZM58.5 347.372L15.75 347.372L15.75 349.372L58.5 349.372L58.5 347.372ZM80.25 245.436L80.8703 246.22L80.8802 246.212L80.25 245.436ZM44.4 270.336L43.8606 269.493L43.2304 269.897L43.44 270.616L44.4 270.336ZM45.15 285.186L44.1529 285.109L44.0701 286.186L45.15 286.186L45.15 285.186ZM87.6 284.286L87.9939 285.205L87.9939 285.205L87.6 284.286ZM90.45 280.836L91.4093 281.118L91.4115 281.11L91.4135 281.103L90.45 280.836ZM92.85 279.786L91.8515 279.73L91.8504 279.751L91.8501 279.771L92.85 279.786ZM92.7 290.136L91.7001 290.121L91.6999 290.136L91.7001 290.15L92.7 290.136ZM92.85 300.336L91.8501 300.35L91.8504 300.371L91.8515 300.391L92.85 300.336ZM90.45 299.586L91.4135 299.318L91.4067 299.293L91.3987 299.269L90.45 299.586ZM87.45 295.836L87.0028 296.73L87.45 295.836ZM4.79998 295.836L5.1939 296.755L5.22091 296.743L5.24719 296.73L4.79998 295.836ZM1.94997 299.436L2.89296 299.768L2.90434 299.736L2.91349 299.703L1.94997 299.436ZM-0.750021 307.686L-1.74981 307.665L-1.75002 307.675L-1.75002 307.686L-0.750021 307.686ZM-0.600023 300.336L-1.59889 300.288L-1.59954 300.302L-1.59981 300.315L-0.600023 300.336ZM-0.750022 280.836L0.246576 280.753L0.245614 280.742L-0.750022 280.836ZM3.74997 253.386L4.54997 253.986L3.74997 253.386ZM31.2 250.986L31.7547 250.153L31.7456 250.148L31.2 250.986ZM41.25 262.086L40.3713 262.563L40.8949 263.526L41.8062 262.917L41.25 262.086ZM71.1 240.636L71.7273 241.414L71.7326 241.41L71.1 240.636ZM86.55 225.186L87.3649 225.765L87.3693 225.759L87.3735 225.753L86.55 225.186ZM41.4 285.186L41.4 286.186L42.2527 286.186L42.3874 285.344L41.4 285.186ZM37.65 261.486L38.369 260.791L38.3631 260.784L38.3571 260.778L37.65 261.486ZM1.79997 281.436L2.75575 281.141L2.7492 281.12L2.74172 281.099L1.79997 281.436ZM4.64997 284.286L5.04389 283.366L5.03269 283.362L5.02136 283.357L4.64997 284.286ZM92.2 211.986C92.2 212.089 92.1798 212.2 92.1332 212.309C92.087 212.417 92.0243 212.5 91.9633 212.561C91.8505 212.674 91.7472 212.707 91.7412 212.709C91.7276 212.714 91.7469 212.706 91.8167 212.698C91.8829 212.691 91.9758 212.686 92.1 212.686L92.1 210.686C91.7708 210.686 91.4151 210.71 91.1087 210.812C90.8281 210.905 90.2 211.221 90.2 211.986L92.2 211.986ZM92.1 212.686C92.2241 212.686 92.317 212.691 92.3833 212.698C92.4531 212.706 92.4724 212.714 92.4587 212.709C92.4528 212.707 92.3495 212.674 92.2366 212.561C92.1757 212.5 92.1129 212.417 92.0668 212.309C92.0201 212.2 92 212.089 92 211.986L94 211.986C94 211.221 93.3719 210.905 93.0912 210.812C92.7849 210.71 92.4292 210.686 92.1 210.686L92.1 212.686ZM92 211.986L92 231.336L94 231.336L94 211.986L92 211.986ZM92 231.336C92 231.699 91.8365 232.277 91.3419 233.115C90.8576 233.935 90.1086 234.917 89.0707 236.065C86.9961 238.359 83.8541 241.222 79.6197 244.659L80.8802 246.212C85.1459 242.749 88.3788 239.812 90.5542 237.406C91.6413 236.204 92.4861 235.111 93.0643 234.131C93.6322 233.169 94 232.222 94 231.336L92 231.336ZM79.6297 244.651C71.067 251.422 59.1482 259.701 43.8606 269.493L44.9393 271.178C60.2517 261.37 72.2329 253.049 80.8702 246.22L79.6297 244.651ZM43.44 270.616C44.1088 272.909 44.45 275.512 44.45 278.436L46.45 278.436C46.45 275.359 46.0912 272.563 45.36 270.056L43.44 270.616ZM44.45 278.436C44.45 280.303 44.3516 282.526 44.1529 285.109L46.147 285.262C46.3483 282.645 46.45 280.369 46.45 278.436L44.45 278.436ZM45.15 286.186L80.85 286.186L80.85 284.186L45.15 284.186L45.15 286.186ZM80.85 286.186C83.9742 286.186 86.3969 285.889 87.9939 285.205L87.2061 283.366C86.003 283.882 83.9258 284.186 80.85 284.186L80.85 286.186ZM87.9939 285.205C89.7142 284.467 90.8406 283.052 91.4093 281.118L89.4906 280.553C89.0594 282.019 88.2858 282.904 87.2061 283.366L87.9939 285.205ZM91.4135 281.103C91.9516 279.166 92.2 276.253 92.2 272.436L90.2 272.436C90.2 276.218 89.9484 278.905 89.4865 280.568L91.4135 281.103ZM92.2 272.436C92.2 272.536 92.1721 272.668 92.0883 272.793C92.0086 272.913 91.9158 272.971 91.8722 272.992C91.8325 273.012 91.8236 273.008 91.8706 273C91.9149 272.993 91.989 272.986 92.1 272.986L92.1 270.986C91.7489 270.986 91.3367 271.024 90.9778 271.204C90.7841 271.3 90.5788 271.452 90.4242 271.684C90.2653 271.922 90.2 272.186 90.2 272.436L92.2 272.436ZM92.1 272.986C92.211 272.986 92.285 272.993 92.3293 273C92.3763 273.008 92.3675 273.012 92.3278 272.992C92.2841 272.971 92.1913 272.913 92.1117 272.793C92.0278 272.668 92 272.536 92 272.436L94 272.436C94 272.186 93.9346 271.922 93.7758 271.684C93.6211 271.452 93.4158 271.3 93.2222 271.204C92.8632 271.024 92.4511 270.986 92.1 270.986L92.1 272.986ZM92 272.436C92 275.528 91.95 277.957 91.8515 279.73L93.8484 279.841C93.9499 278.014 94 275.543 94 272.436L92 272.436ZM91.8501 279.771L91.7001 290.121L93.6999 290.15L93.8499 279.8L91.8501 279.771ZM91.7001 290.15L91.8501 300.35L93.8499 300.321L93.6999 290.121L91.7001 290.15ZM91.8515 300.391C91.95 302.163 92 304.692 92 307.986L94 307.986C94 304.679 93.95 302.108 93.8484 300.28L91.8515 300.391ZM92 307.986C92 307.882 92.0201 307.771 92.0668 307.662C92.1129 307.554 92.1757 307.471 92.2366 307.41C92.3495 307.297 92.4528 307.264 92.4588 307.262C92.4724 307.257 92.4531 307.265 92.3833 307.273C92.317 307.28 92.2241 307.286 92.1 307.286L92.1 309.286C92.4292 309.286 92.7849 309.261 93.0912 309.159C93.3719 309.066 94 308.75 94 307.986L92 307.986ZM92.1 307.286C91.9758 307.286 91.8829 307.28 91.8167 307.273C91.7469 307.265 91.7276 307.257 91.7412 307.262C91.7472 307.264 91.8505 307.297 91.9633 307.41C92.0243 307.471 92.087 307.554 92.1332 307.662C92.1798 307.771 92.2 307.882 92.2 307.986L90.2 307.986C90.2 308.75 90.8281 309.066 91.1087 309.159C91.4151 309.261 91.7708 309.286 92.1 309.286L92.1 307.286ZM92.2 307.986C92.2 304.168 91.9516 301.255 91.4135 299.318L89.4865 299.853C89.9484 301.516 90.2 304.203 90.2 307.986L92.2 307.986ZM91.3987 299.269C90.7338 297.275 89.5832 295.784 87.8972 294.941L87.0028 296.73C88.1168 297.287 88.9662 298.296 89.5013 299.902L91.3987 299.269ZM87.8972 294.941C86.2819 294.133 83.888 293.786 80.85 293.786L80.85 295.786C83.812 295.786 85.818 296.138 87.0028 296.73L87.8972 294.941ZM80.85 293.786L11.4 293.786L11.4 295.786L80.85 295.786L80.85 293.786ZM11.4 293.786C8.362 293.786 5.96805 294.133 4.35277 294.941L5.24719 296.73C6.4319 296.138 8.43796 295.786 11.4 295.786L11.4 293.786ZM4.40606 294.916C2.66427 295.663 1.54737 297.149 0.986452 299.168L2.91349 299.703C3.35257 298.122 4.13568 297.208 5.1939 296.755L4.40606 294.916ZM1.00698 299.103C0.346697 300.974 0.0499747 303.869 0.0499749 307.686L2.04997 307.686C2.04997 303.902 2.35325 301.298 2.89296 299.768L1.00698 299.103ZM0.0499749 307.686C0.0499749 307.586 0.077845 307.453 0.161673 307.328C0.241332 307.208 0.334132 307.15 0.37776 307.129C0.417475 307.109 0.426333 307.113 0.379324 307.121C0.335013 307.128 0.260996 307.136 0.149977 307.136L0.149977 309.136C0.501051 309.136 0.913229 309.097 1.27219 308.917C1.46582 308.821 1.67112 308.669 1.82577 308.437C1.98461 308.199 2.04997 307.936 2.04997 307.686L0.0499749 307.686ZM0.149977 307.136C0.038958 307.136 -0.0350624 307.128 -0.0793739 307.121C-0.126379 307.113 -0.117521 307.109 -0.0778061 307.129C-0.0341774 307.15 0.0586228 307.208 0.138281 307.328C0.222109 307.453 0.249979 307.586 0.249979 307.686L-1.75002 307.686C-1.75002 307.936 -1.68465 308.199 -1.52582 308.437C-1.37116 308.669 -1.16586 308.821 -0.972234 308.917C-0.613275 309.097 -0.201097 309.136 0.149977 309.136L0.149977 307.136ZM0.24977 307.706L0.399771 300.356L-1.59981 300.315L-1.74981 307.665L0.24977 307.706ZM0.398844 300.383C0.599199 296.176 0.699972 292.758 0.699972 290.136L-1.30003 290.136C-1.30003 292.713 -1.39925 296.095 -1.59889 300.288L0.398844 300.383ZM0.699972 290.136C0.699972 288.317 0.649469 286.596 0.548028 284.973L-1.44808 285.098C-1.34952 286.675 -1.30003 288.354 -1.30003 290.136L0.699972 290.136ZM0.548028 284.973C0.447728 283.368 0.347249 281.961 0.246526 280.753L-1.74657 280.919C-1.6473 282.11 -1.54778 283.503 -1.44808 285.098L0.548028 284.973ZM0.245614 280.742C-0.0521306 277.566 -0.200027 274.698 -0.200027 272.136L-2.20003 272.136C-2.20003 274.773 -2.04792 277.705 -1.74566 280.929L0.245614 280.742ZM-0.200027 272.136C-0.200027 264.154 1.4283 258.148 4.54997 253.986L2.94997 252.786C-0.528358 257.423 -2.20003 263.917 -2.20003 272.136L-0.200027 272.136ZM4.54997 253.986C7.6457 249.858 11.9381 247.786 17.55 247.786L17.55 245.786C11.3618 245.786 6.45424 248.113 2.94997 252.786L4.54997 253.986ZM17.55 247.786C22.1427 247.786 26.5049 249.122 30.6543 251.824L31.7456 250.148C27.295 247.249 22.5573 245.786 17.55 245.786L17.55 247.786ZM30.6453 251.818C34.705 254.524 37.9459 258.1 40.3713 262.563L42.1286 261.608C39.554 256.871 36.095 253.047 31.7547 250.154L30.6453 251.818ZM41.8062 262.917C54.5171 254.409 64.4945 247.241 71.7273 241.414L70.4726 239.857C63.3055 245.63 53.3828 252.762 40.6938 261.255L41.8062 262.917ZM71.7326 241.41C78.8627 235.585 84.0903 230.37 87.3649 225.765L85.735 224.606C82.6096 229.001 77.5372 234.086 70.4673 239.861L71.7326 241.41ZM87.3735 225.753C90.5573 221.131 92.2 216.537 92.2 211.986L90.2 211.986C90.2 216.034 88.7426 220.24 85.7265 224.618L87.3735 225.753ZM42.3874 285.344C42.7981 282.777 43 279.772 43 276.336L41 276.336C41 279.699 40.8019 282.594 40.4125 285.028L42.3874 285.344ZM43 276.336C43 269.336 41.5361 264.067 38.369 260.791L36.931 262.181C39.5638 264.904 41 269.535 41 276.336L43 276.336ZM38.3571 260.778C35.0812 257.502 29.8064 255.986 22.8 255.986L22.8 257.986C29.5935 257.986 34.2188 259.469 36.9429 262.193L38.3571 260.778ZM22.8 255.986C15.4339 255.986 9.72303 257.531 5.84366 260.795C1.93121 264.087 0.0499732 268.982 0.0499734 275.286L2.04997 275.286C2.04997 269.389 3.79373 265.134 7.13128 262.326C10.5019 259.49 15.666 257.986 22.8 257.986L22.8 255.986ZM0.0499734 275.286C0.0499736 278.022 0.300164 280.209 0.858232 281.772L2.74172 281.099C2.29978 279.862 2.04997 277.949 2.04997 275.286L0.0499734 275.286ZM0.844194 281.73C1.35014 283.374 2.55657 284.525 4.27858 285.214L5.02136 283.357C3.74337 282.846 3.0498 282.097 2.75575 281.141L0.844194 281.73ZM4.25605 285.205C5.85751 285.891 8.38605 286.186 11.7 286.186L11.7 284.186C8.41389 284.186 6.24243 283.88 5.04389 283.366L4.25605 285.205ZM11.7 286.186L41.4 286.186L41.4 284.186L11.7 284.186L11.7 286.186ZM92.7 102.508L91.7012 102.458L92.7 102.508ZM92.7 119.608L91.7017 119.666L91.7019 119.67L92.7 119.608ZM90.15 118.858L89.2253 119.239L90.15 118.858ZM80.1 118.258L79.6909 117.345L79.683 117.349L79.6751 117.353L80.1 118.258ZM43.35 135.508L42.9251 134.603L42.35 134.872L42.35 135.508L43.35 135.508ZM43.35 163.858L42.35 163.858L42.35 164.521L42.9615 164.779L43.35 163.858ZM73.95 176.758L73.5615 177.679L73.5692 177.682L73.95 176.758ZM92.7 171.958L91.7017 171.899L91.7014 171.905L92.7 171.958ZM92.7 190.858L91.7017 190.917L91.7022 190.924L92.7 190.858ZM89.7 191.308L90.5849 190.842L90.5806 190.834L90.5762 190.826L89.7 191.308ZM84.15 185.758L83.5953 186.59L83.6027 186.595L84.15 185.758ZM72.6 179.908L72.2099 180.829L72.2127 180.83L72.6 179.908ZM-2.10003 148.258L-2.65472 149.09L-2.5766 149.142L-2.49015 149.179L-2.10003 148.258ZM-2.10003 146.308L-1.7838 147.256L-1.72606 147.237L-1.67108 147.211L-2.10003 146.308ZM72.45 110.908L72.0324 109.999L72.021 110.004L72.45 110.908ZM87.45 102.208L88.1283 102.943L88.1354 102.936L88.1425 102.929L87.45 102.208ZM40.2 162.508L39.8119 163.429L41.2 164.014L41.2 162.508L40.2 162.508ZM40.2 137.008L41.2 137.008L41.2 135.428L39.7719 136.104L40.2 137.008ZM11.7 150.508L11.2719 149.604L9.25059 150.562L11.3119 151.429L11.7 150.508ZM92.2 93.6578C92.2 93.6834 92.1947 93.7544 92.1507 93.8425C92.1045 93.9348 92.0383 94.0008 91.9797 94.0398C91.9278 94.0745 91.8991 94.0768 91.9231 94.0715C91.9468 94.0662 92.0024 94.0578 92.1 94.0578L92.1 92.0578C91.7204 92.0578 91.2609 92.1154 90.8703 92.3757C90.4081 92.6839 90.2 93.1665 90.2 93.6578L92.2 93.6578ZM92.1 94.0578C92.1976 94.0578 92.2531 94.0662 92.2768 94.0715C92.3008 94.0768 92.2722 94.0745 92.2203 94.0398C92.1617 94.0008 92.0954 93.9348 92.0493 93.8425C92.0052 93.7544 92 93.6834 92 93.6578L94 93.6578C94 93.1665 93.7919 92.6839 93.3297 92.3757C92.939 92.1154 92.4795 92.0578 92.1 92.0578L92.1 94.0578ZM92 93.6578C92 95.5314 91.9011 98.4605 91.7012 102.458L93.6987 102.558C93.8989 98.5551 94 95.5842 94 93.6578L92 93.6578ZM91.7012 102.458C91.5011 106.459 91.4 109.381 91.4 111.208L93.4 111.208C93.4 109.435 93.4988 106.556 93.6987 102.558L91.7012 102.458ZM91.4 111.208C91.4 113.435 91.5011 116.256 91.7017 119.666L93.6982 119.549C93.4988 116.159 93.4 113.381 93.4 111.208L91.4 111.208ZM91.7019 119.67C91.9015 122.864 92 125.289 92 126.958L94 126.958C94 125.226 93.8984 122.751 93.698 119.545L91.7019 119.67ZM92 126.958C92 126.932 92.0052 126.861 92.0493 126.773C92.0954 126.681 92.1617 126.615 92.2203 126.576C92.2722 126.541 92.3008 126.539 92.2768 126.544C92.2531 126.549 92.1976 126.558 92.1 126.558L92.1 128.558C92.4795 128.558 92.939 128.5 93.3297 128.24C93.7919 127.932 94 127.449 94 126.958L92 126.958ZM92.1 126.558C92.0024 126.558 91.9468 126.549 91.9232 126.544C91.8991 126.539 91.9278 126.541 91.9797 126.576C92.0383 126.615 92.1045 126.681 92.1507 126.773C92.1947 126.861 92.2 126.932 92.2 126.958L90.2 126.958C90.2 127.449 90.4081 127.932 90.8703 128.24C91.2609 128.5 91.7204 128.558 92.1 128.558L92.1 126.558ZM92.2 126.958C92.2 123.232 91.853 120.367 91.0746 118.477L89.2253 119.239C89.847 120.748 90.2 123.283 90.2 126.958L92.2 126.958ZM91.0746 118.477C90.6706 117.496 90.0918 116.688 89.303 116.129C88.5087 115.567 87.5737 115.308 86.55 115.308L86.55 117.308C87.2263 117.308 87.7413 117.474 88.147 117.761C88.5581 118.053 88.9294 118.52 89.2253 119.239L91.0746 118.477ZM86.55 115.308C84.918 115.308 82.5966 116.043 79.6909 117.345L80.509 119.17C83.4033 117.873 85.382 117.308 86.55 117.308L86.55 115.308ZM79.6751 117.353L42.9251 134.603L43.7749 136.413L80.5249 119.163L79.6751 117.353ZM42.35 135.508L42.35 163.858L44.35 163.858L44.35 135.508L42.35 135.508ZM42.9615 164.779L73.5615 177.679L74.3384 175.836L43.7384 162.936L42.9615 164.779ZM73.5692 177.682C77.0198 179.103 79.9603 179.858 82.35 179.858L82.35 177.858C80.3396 177.858 77.6802 177.212 74.3307 175.833L73.5692 177.682ZM82.35 179.858C85.6372 179.858 88.1814 178.461 89.8442 175.699C91.4581 173.018 92.2 169.126 92.2 164.158L90.2 164.158C90.2 168.99 89.4668 172.448 88.1308 174.667C86.8435 176.805 84.9628 177.858 82.35 177.858L82.35 179.858ZM92.2 164.158C92.2 164.131 92.2042 164.152 92.1847 164.201C92.1627 164.256 92.1222 164.316 92.0652 164.364C92.012 164.408 91.9716 164.419 91.9739 164.418C91.9786 164.417 92.0161 164.408 92.1 164.408L92.1 162.408C91.6857 162.408 91.1889 162.49 90.7848 162.827C90.3458 163.193 90.2 163.701 90.2 164.158L92.2 164.158ZM92.1 164.408C92.1838 164.408 92.2214 164.417 92.2261 164.418C92.2283 164.419 92.1879 164.408 92.1348 164.364C92.0778 164.316 92.0372 164.256 92.0152 164.201C91.9957 164.152 92 164.131 92 164.158L94 164.158C94 163.701 93.8542 163.193 93.4152 162.827C93.0111 162.49 92.5142 162.408 92.1 162.408L92.1 164.408ZM92 164.158C92 165.928 91.9014 168.505 91.7017 171.899L93.6982 172.017C93.8986 168.611 94 165.988 94 164.158L92 164.158ZM91.7014 171.905C91.5007 175.717 91.4 179.035 91.4 181.858L93.4 181.858C93.4 179.08 93.4992 175.799 93.6986 172.01L91.7014 171.905ZM91.4 181.858C91.4 184.482 91.5009 187.503 91.7017 190.916L93.6982 190.799C93.4991 187.413 93.4 184.433 93.4 181.858L91.4 181.858ZM91.7022 190.924C91.9014 193.912 92 196.388 92 198.358L94 198.358C94 196.328 93.8986 193.804 93.6978 190.791L91.7022 190.924ZM92 198.358C92 198.385 91.9957 198.363 92.0152 198.315C92.0372 198.26 92.0778 198.2 92.1348 198.152C92.1879 198.108 92.2283 198.097 92.2261 198.097C92.2214 198.099 92.1838 198.108 92.1 198.108L92.1 200.108C92.5142 200.108 93.0111 200.025 93.4152 199.689C93.8542 199.323 94 198.815 94 198.358L92 198.358ZM92.1 198.108C92.0161 198.108 91.9786 198.099 91.9739 198.097C91.9716 198.097 92.012 198.108 92.0652 198.152C92.1222 198.2 92.1627 198.26 92.1847 198.315C92.2042 198.363 92.2 198.385 92.2 198.358L90.2 198.358C90.2 198.815 90.3458 199.323 90.7848 199.689C91.1889 200.025 91.6857 200.108 92.1 200.108L92.1 198.108ZM92.2 198.358C92.2 195.443 91.68 192.923 90.5849 190.842L88.8151 191.774C89.72 193.493 90.2 195.672 90.2 198.358L92.2 198.358ZM90.5762 190.826C89.374 188.64 87.3871 186.68 84.6972 184.921L83.6027 186.595C86.1128 188.236 87.826 189.976 88.8238 191.79L90.5762 190.826ZM84.7047 184.926C81.9285 183.075 78.0124 181.096 72.9872 178.986L72.2127 180.83C77.1875 182.919 80.9715 184.841 83.5953 186.59L84.7047 184.926ZM72.9901 178.987L-1.7099 147.337L-2.49015 149.179L72.2099 180.829L72.9901 178.987ZM-1.54533 147.426C-1.53902 147.43 -1.53045 147.437 -1.52295 147.446C-1.51573 147.455 -1.51518 147.459 -1.51839 147.451C-1.52616 147.433 -1.55003 147.363 -1.55003 147.208L-3.55003 147.208C-3.55003 147.901 -3.33285 148.638 -2.65472 149.09L-1.54533 147.426ZM-1.55003 147.208C-1.55003 147.131 -1.54416 147.082 -1.53903 147.055C-1.5339 147.027 -1.53132 147.031 -1.5431 147.055C-1.55601 147.081 -1.58344 147.124 -1.63254 147.168C-1.68258 147.212 -1.73692 147.241 -1.7838 147.256L-2.41626 145.359C-3.34643 145.669 -3.55003 146.57 -3.55003 147.208L-1.55003 147.208ZM-1.67108 147.211L72.8789 111.811L72.021 110.004L-2.52897 145.404L-1.67108 147.211ZM72.8675 111.816C80.2713 108.415 85.4013 105.46 88.1283 102.943L86.7717 101.473C84.2987 103.756 79.4286 106.601 72.0325 109.999L72.8675 111.816ZM88.1425 102.929C90.8279 100.351 92.2 97.2451 92.2 93.6578L90.2 93.6578C90.2 96.6706 89.0721 99.2644 86.7574 101.486L88.1425 102.929ZM41.2 162.508L41.2 137.008L39.2 137.008L39.2 162.508L41.2 162.508ZM39.7719 136.104L11.2719 149.604L12.1281 151.412L40.6281 137.912L39.7719 136.104ZM11.3119 151.429L39.8119 163.429L40.588 161.586L12.088 149.586L11.3119 151.429ZM86.55 49.5355L86.1309 48.6276L86.55 49.5355ZM89.25 46.2355L90.2045 46.5338L90.2131 46.5062L90.2201 46.4781L89.25 46.2355ZM84.6 8.43554L85.2967 7.71826L84.6 8.43554ZM70.05 1.68554L70.2247 0.700923L70.138 0.685542L70.05 0.685542L70.05 1.68554ZM69.75 0.935542L70.7305 1.13165L70.75 1.03454L70.75 0.935542L69.75 0.935542ZM70.2 0.0355174L70.3078 -0.958623L70.254 -0.964483L70.2 -0.964483L70.2 0.0355174ZM92.55 1.83557L93.2571 1.12841L93.2068 1.07818L93.15 1.03552L92.55 1.83557ZM90.45 64.6855L89.4864 64.9532L89.4885 64.9604L89.4906 64.9677L90.45 64.6855ZM87.6 61.0856L87.9939 60.1664L87.9827 60.1616L87.9714 60.157L87.6 61.0856ZM4.79997 61.0856L5.19389 62.0047L4.79997 61.0856ZM1.94996 64.6855L2.89295 65.0184L2.90433 64.9861L2.91348 64.9532L1.94996 64.6855ZM-0.750031 72.9355L-1.74982 72.9152L-1.75003 72.9254L-1.75003 72.9355L-0.750031 72.9355ZM-0.600033 65.5856L-1.5989 65.538L-1.59955 65.5516L-1.59982 65.5651L-0.600033 65.5856ZM-0.600034 44.8856L-1.59982 44.9064L-1.59954 44.9197L-1.5989 44.9331L-0.600034 44.8856ZM-0.750032 37.6855L-1.75003 37.6855L-1.75003 37.696L-1.74981 37.7064L-0.750032 37.6855ZM1.94996 45.9355L2.90933 45.6534L2.90429 45.6362L2.89864 45.6193L1.94996 45.9355ZM4.94997 49.5355L4.52708 50.4417L4.54146 50.4484L4.55605 50.4547L4.94997 49.5355ZM80.25 51.4355C83.1762 51.4355 85.4612 51.1394 86.969 50.4435L86.1309 48.6276C85.0387 49.1316 83.1238 49.4355 80.25 49.4355L80.25 51.4355ZM86.969 50.4435C88.5701 49.7046 89.6359 48.3531 90.2045 46.5338L88.2955 45.9372C87.864 47.318 87.1299 48.1665 86.1309 48.6276L86.969 50.4435ZM90.2201 46.4781C90.6521 44.7502 90.85 42.0445 90.85 38.4355L88.85 38.4355C88.85 42.0265 88.6479 44.5208 88.2798 45.993L90.2201 46.4781ZM90.85 38.4355L90.85 22.0856L88.85 22.0856L88.85 38.4355L90.85 38.4355ZM90.85 22.0856C90.85 16.1645 89.0233 11.3383 85.2967 7.71826L83.9032 9.15283C87.1766 12.3328 88.85 16.6065 88.85 22.0856L90.85 22.0856ZM85.2967 7.71826C81.6169 4.14355 76.5647 1.82574 70.2247 0.700923L69.8753 2.67016C75.9352 3.74529 80.583 5.92748 83.9032 9.15283L85.2967 7.71826ZM70.05 0.685542C70.1119 0.685542 70.2456 0.698847 70.3925 0.790644C70.5474 0.887507 70.6362 1.02105 70.6784 1.12664C70.7153 1.21881 70.7125 1.27661 70.7125 1.26367C70.7125 1.25445 70.7142 1.21343 70.7305 1.13165L68.7694 0.739436C68.7101 1.0357 68.6595 1.46441 68.8215 1.86944C68.9137 2.09997 69.0776 2.32733 69.3325 2.48663C69.5793 2.64099 69.838 2.68554 70.05 2.68554L70.05 0.685542ZM70.75 0.935542C70.75 0.824519 70.7571 0.750483 70.7645 0.706172C70.7723 0.659175 70.7768 0.668025 70.7569 0.707759C70.7351 0.751399 70.6773 0.844172 70.5578 0.923823C70.432 1.00769 70.2999 1.03552 70.2 1.03552L70.2 -0.964483C69.95 -0.964483 69.6866 -0.899114 69.4484 -0.740239C69.2164 -0.585576 69.0649 -0.380315 68.968 -0.186651C68.7886 0.172297 68.75 0.584468 68.75 0.935542L70.75 0.935542ZM70.0922 1.02972C78.4109 1.93176 85.3001 2.38555 90.75 2.38555L90.75 0.385553C85.3998 0.385553 78.589 -0.0606744 70.3078 -0.958623L70.0922 1.02972ZM90.75 2.38555C91.4538 2.38555 91.7994 2.52258 91.95 2.63555L93.15 1.03552C92.5006 0.548517 91.6461 0.385553 90.75 0.385553L90.75 2.38555ZM91.8429 2.54266C91.819 2.51879 91.8674 2.55334 91.9173 2.75305C91.9657 2.94677 92 3.23382 92 3.63555L94 3.63555C94 3.13726 93.9592 2.67431 93.8576 2.268C93.7575 1.86773 93.5809 1.45233 93.2571 1.12841L91.8429 2.54266ZM92 3.63555L92 72.9355L94 72.9355L94 3.63555L92 3.63555ZM92 72.9355C92 72.8321 92.0201 72.7208 92.0668 72.6119C92.1129 72.5043 92.1757 72.4206 92.2366 72.3597C92.3495 72.2468 92.4528 72.2139 92.4587 72.2118C92.4724 72.2073 92.4531 72.2151 92.3833 72.2229C92.317 72.2303 92.2241 72.2355 92.1 72.2355L92.1 74.2355C92.4292 74.2355 92.7849 74.2114 93.0912 74.1092C93.3718 74.0157 94 73.6998 94 72.9355L92 72.9355ZM92.1 72.2355C91.9758 72.2355 91.8829 72.2303 91.8167 72.2229C91.7469 72.2151 91.7276 72.2073 91.7412 72.2118C91.7471 72.2139 91.8505 72.2468 91.9633 72.3597C92.0243 72.4206 92.087 72.5043 92.1332 72.6119C92.1798 72.7208 92.2 72.8321 92.2 72.9355L90.2 72.9355C90.2 73.6998 90.8281 74.0157 91.1087 74.1092C91.4151 74.2114 91.7708 74.2355 92.1 74.2355L92.1 72.2355ZM92.2 72.9355C92.2 69.1233 91.9526 66.2504 91.4093 64.4034L89.4906 64.9677C89.9474 66.5207 90.2 69.1477 90.2 72.9355L92.2 72.9355ZM91.4135 64.4179C90.8526 62.3986 89.7357 60.9129 87.9939 60.1664L87.2061 62.0047C88.2643 62.4582 89.0474 63.3725 89.4864 64.9532L91.4135 64.4179ZM87.9714 60.157C86.2914 59.4851 83.8871 59.1855 80.85 59.1855L80.85 61.1855C83.8128 61.1855 85.9085 61.486 87.2286 62.014L87.9714 60.157ZM80.85 59.1855L11.4 59.1855L11.4 61.1855L80.85 61.1855L80.85 59.1855ZM11.4 59.1855C8.3704 59.1855 6.00054 59.483 4.40605 60.1664L5.19389 62.0047C6.39939 61.488 8.42953 61.1855 11.4 61.1855L11.4 59.1855ZM4.40605 60.1664C2.66426 60.9129 1.54736 62.3986 0.986442 64.4179L2.91348 64.9532C3.35256 63.3725 4.13567 62.4582 5.19389 62.0047L4.40605 60.1664ZM1.00697 64.3527C0.346687 66.2235 0.0499644 69.1193 0.0499646 72.9355L2.04996 72.9355C2.04996 69.1518 2.35324 66.5475 2.89295 65.0184L1.00697 64.3527ZM0.0499646 72.9355C0.0499646 72.8321 0.07011 72.7208 0.116756 72.6119C0.162906 72.5043 0.225654 72.4207 0.286606 72.3597C0.399456 72.2468 0.502784 72.2139 0.508735 72.2119C0.52235 72.2073 0.50307 72.2151 0.433284 72.2229C0.367016 72.2303 0.274135 72.2355 0.149967 72.2355L0.149967 74.2355C0.479149 74.2355 0.834858 74.2114 1.14119 74.1093C1.42184 74.0157 2.04996 73.6998 2.04996 72.9355L0.0499646 72.9355ZM0.149967 72.2355C0.0257947 72.2355 -0.0670818 72.2303 -0.133351 72.2229C-0.203137 72.2151 -0.222416 72.2073 -0.208802 72.2119C-0.202851 72.2139 -0.099522 72.2468 0.0133282 72.3597C0.0742795 72.4207 0.137027 72.5043 0.183178 72.6119C0.229824 72.7208 0.249969 72.8321 0.249969 72.9355L-1.75003 72.9355C-1.75003 73.6998 -1.12191 74.0157 -0.841259 74.1093C-0.534924 74.2114 -0.179215 74.2355 0.149967 74.2355L0.149967 72.2355ZM0.249759 72.9559L0.399761 65.606L-1.59982 65.5651L-1.74982 72.9152L0.249759 72.9559ZM0.398834 65.6331C0.599189 61.4256 0.699962 58.008 0.699962 55.3856L-1.30004 55.3856C-1.30004 57.9631 -1.39926 61.3455 -1.5989 65.538L0.398834 65.6331ZM0.699962 55.3856C0.699961 52.564 0.599253 49.0468 0.398833 44.8379L-1.5989 44.9331C-1.39933 49.1243 -1.30004 52.6071 -1.30004 55.3856L0.699962 55.3856ZM0.399748 44.8647L0.24975 37.6647L-1.74981 37.7064L-1.59982 44.9064L0.399748 44.8647ZM0.249968 37.6855C0.249968 37.7855 0.222097 37.9176 0.13827 38.0434C0.058611 38.1628 -0.0341891 38.2206 -0.0778178 38.2425C-0.117533 38.2623 -0.126394 38.2579 -0.0793857 38.2501C-0.0350741 38.2427 0.0389462 38.2355 0.149965 38.2355L0.149965 36.2355C-0.201109 36.2355 -0.613287 36.2741 -0.972246 36.4536C-1.16588 36.5504 -1.37118 36.702 -1.52583 36.934C-1.68466 37.1722 -1.75003 37.4355 -1.75003 37.6855L0.249968 37.6855ZM0.149965 38.2355C0.260985 38.2355 0.335005 38.2427 0.379316 38.2501C0.426321 38.2579 0.417463 38.2623 0.377749 38.2425C0.33412 38.2206 0.24132 38.1628 0.161661 38.0434C0.0778333 37.9176 0.0499631 37.7855 0.0499631 37.6855L2.04996 37.6855C2.04996 37.4355 1.98459 37.1722 1.82576 36.934C1.67111 36.702 1.46581 36.5504 1.27218 36.4536C0.913214 36.2741 0.50104 36.2355 0.149965 36.2355L0.149965 38.2355ZM0.0499631 37.6855C0.0499632 41.4112 0.348585 44.2937 1.00128 46.2518L2.89864 45.6193C2.35134 43.9774 2.04996 41.3599 2.04996 37.6855L0.0499631 37.6855ZM0.990595 46.2177C1.56513 48.1711 2.74695 49.611 4.52708 50.4417L5.37285 48.6293C4.15297 48.0601 3.33479 47.1 2.90933 45.6534L0.990595 46.2177ZM4.55605 50.4547C6.15054 51.1381 8.5204 51.4355 11.55 51.4355L11.55 49.4355C8.57953 49.4355 6.5494 49.1331 5.34389 48.6164L4.55605 50.4547ZM11.55 51.4355L80.25 51.4355L80.25 49.4355L11.55 49.4355L11.55 51.4355Z" fill="url(#paint0_linear_958_19397)"/>
<defs>
<linearGradient id="paint0_linear_958_19397" x1="-46" y1="387.465" x2="136" y2="387.465" gradientUnits="userSpaceOnUse">
<stop stop-color="#915606" stop-opacity="0.45"/>
<stop offset="1" stop-color="#DBBF6D" stop-opacity="0.25"/>
</linearGradient>
</defs>
</svg>
