<svg width="97" height="640" viewBox="0 0 97 640" fill="none" xmlns="http://www.w3.org/2000/svg">
<path fill-rule="evenodd" clip-rule="evenodd" d="M3.24995 638.25L3.39995 630.9C3.59995 626.7 3.69995 623.3 3.69995 620.7C3.69995 618.9 3.64995 617.25 3.54995 615.75C3.44995 614.15 3.34995 612.8 3.24995 611.7C2.94995 608.6 2.79995 605.7 2.79995 603C2.79995 594.6 4.64995 588.3 8.34995 584.1C11.9499 579.9 16.6999 577.8 22.5999 577.8C27.3999 577.8 31.6999 579.35 35.4999 582.45C38.7433 585.167 41.3719 588.768 43.3858 593.253C43.6694 593.885 43.9408 594.533 44.1999 595.2C44.2541 594.487 44.3249 593.788 44.4123 593.1C45.2946 586.167 47.8738 580.517 52.1499 576.15C56.75 571.25 62.5 568.8 69.3999 568.8C74.6999 568.8 79.5 570.1 83.7999 572.7C88.1 575.3 91.5 578.9 94 583.5C96.3999 588 97.6 593.05 97.6 598.65C97.6 601.95 97.4499 605.55 97.1499 609.45C97.05 610.85 96.9499 612.5 96.85 614.4C96.75 616.3 96.7 618.4 96.7 620.7L96.85 630.9C96.95 632.7 97 635.25 97 638.55C97 638.75 96.7 638.85 96.1 638.85C95.5 638.85 95.2 638.75 95.2 638.55C95.2 634.75 94.95 631.95 94.45 630.15C93.85 628.35 92.85 627.1 91.45 626.4C90.05 625.7 87.85 625.35 84.85 625.35L15.3999 625.35C12.4 625.35 10.2 625.7 8.79995 626.4C7.39995 627 6.44995 628.2 5.94995 630C5.34995 631.8 5.04995 634.55 5.04995 638.25C5.04995 638.55 4.74995 638.7 4.14995 638.7C3.54995 638.7 3.24995 638.55 3.24995 638.25ZM93.4932 630.442C92.9577 628.851 92.1112 627.849 91.0027 627.294C89.818 626.702 87.812 626.35 84.85 626.35L15.3999 626.35C12.4379 626.35 10.4319 626.702 9.24717 627.294L9.22088 627.308L9.19387 627.319C8.13566 627.773 7.35255 628.687 6.91346 630.268L6.90667 630.292L6.89863 630.316C6.35133 631.958 6.04995 634.576 6.04995 638.25C6.04995 638.5 5.98458 638.763 5.82575 639.002C5.67109 639.234 5.46579 639.385 5.27216 639.482C4.9132 639.661 4.50103 639.7 4.14995 639.7C3.79888 639.7 3.3867 639.661 3.02774 639.482C2.83411 639.385 2.62881 639.234 2.47415 639.002C2.31532 638.763 2.24995 638.5 2.24995 638.25L2.24995 638.24L2.40044 630.866L2.40108 630.852C2.60072 626.66 2.69995 623.278 2.69995 620.7C2.69995 618.918 2.65043 617.291 2.55216 615.816L2.55189 615.812C2.45235 614.219 2.35311 612.881 2.25434 611.794C1.95187 608.667 1.79995 605.736 1.79995 603C1.79995 594.478 3.6734 587.899 7.59527 583.444C11.3986 579.01 16.4326 576.8 22.5999 576.8C27.6357 576.8 32.1578 578.433 36.1321 581.675L36.1422 581.683C39.1736 584.223 41.6698 587.489 43.6431 591.458C44.717 585.027 47.3004 579.677 51.4281 575.458C56.2215 570.356 62.2357 567.8 69.3999 567.8C74.8719 567.8 79.8526 569.145 84.3174 571.844C88.7757 574.54 92.2976 578.273 94.8786 583.022L94.8823 583.029C97.3669 587.688 98.6 592.902 98.6 598.65C98.6 601.979 98.4487 605.603 98.1473 609.523C98.0479 610.914 97.9483 612.557 97.8486 614.453C97.7498 616.33 97.7001 618.41 97.7 620.693C97.7 620.695 97.7 620.697 97.7 620.7L97.8496 630.865C97.9503 632.691 98 635.256 98 638.55C98 639.314 97.3718 639.63 97.0912 639.724C96.7849 639.826 96.4291 639.85 96.1 639.85C95.7708 639.85 95.4151 639.826 95.1087 639.724C94.8281 639.63 94.2 639.314 94.2 638.55C94.2 634.786 93.9508 632.107 93.4932 630.442ZM10.9624 592.949L10.9507 592.959C7.74874 595.704 6.04995 600.074 6.04995 606.3C6.04995 608.865 6.24944 610.69 6.60219 611.844C6.88671 612.687 7.56831 613.4 8.87134 613.921C10.1844 614.447 12.4224 614.75 15.6999 614.75L43.2219 614.75L43.35 608.989C43.3481 601.852 41.5396 596.771 38.1177 593.531C34.5385 590.237 29.7993 588.55 23.7999 588.55C18.3924 588.55 14.1514 590.042 10.9737 592.939L10.9624 592.949ZM44.2 615.75L15.6999 615.75C12.3999 615.75 9.99995 615.45 8.49995 614.85C6.99995 614.25 6.04995 613.35 5.64995 612.15C5.24995 610.85 5.04995 608.9 5.04995 606.3C5.04995 599.9 6.79995 595.2 10.3 592.2C13.6999 589.1 18.1999 587.55 23.7999 587.55C29.9999 587.55 35 589.3 38.7999 592.8C42.5 596.3 44.35 601.7 44.35 609L44.2 615.75ZM88.6622 585.426C85.1035 582.054 79.9824 580.3 73.15 580.3C65.7612 580.3 59.8744 582.48 55.3915 586.772L55.3834 586.78C50.9232 590.956 48.5972 596.773 48.4999 604.363L48.4997 604.372L48.4995 604.381C48.4079 607.312 48.486 610.767 48.7365 614.75L84.85 614.75C87.3672 614.75 89.1791 614.409 90.3777 613.818C91.4799 613.179 92.3962 611.985 93.0425 610.06C93.6028 607.989 93.8999 604.952 93.8999 600.9C93.8999 593.754 92.0891 588.668 88.6622 585.426ZM94 610.35C93.3 612.45 92.25 613.9 90.85 614.7C89.45 615.4 87.45 615.75 84.85 615.75L47.7999 615.75C47.5 611.35 47.3999 607.55 47.5 604.35C47.6 596.55 50 590.45 54.6999 586.05C59.4 581.55 65.5499 579.3 73.15 579.3C80.15 579.3 85.55 581.1 89.35 584.7C93.05 588.2 94.8999 593.6 94.8999 600.9C94.8999 605 94.6 608.15 94 610.35ZM84.8802 478.134L84.8702 478.142C76.3498 484.879 64.5752 493.067 49.5589 502.702C50.1563 505.02 50.4499 507.574 50.4499 510.357C50.4499 512.02 50.3747 513.938 50.2255 516.107L84.8499 516.107C87.9258 516.107 90.003 515.804 91.206 515.288C92.284 514.826 93.0569 513.944 93.4885 512.482C93.9491 510.819 94.1999 508.134 94.1999 504.357C94.1999 504.107 94.2653 503.844 94.4241 503.606C94.5788 503.374 94.7841 503.222 94.9777 503.125C95.3367 502.946 95.7489 502.907 96.1 502.907C96.451 502.907 96.8632 502.946 97.2222 503.125C97.4158 503.222 97.6211 503.374 97.7758 503.606C97.9346 503.844 97.9999 504.107 97.9999 504.357C97.9999 507.453 97.9503 509.917 97.8496 511.742L97.7001 522.057L97.8496 532.222C97.9503 534.049 97.9999 536.614 97.9999 539.907C97.9999 540.672 97.3718 540.988 97.0912 541.081C96.7848 541.183 96.4291 541.207 96.1 541.207C95.7708 541.207 95.4151 541.183 95.1087 541.081C94.8281 540.988 94.1999 540.672 94.1999 539.907C94.1999 536.143 93.9508 533.464 93.4932 531.8C92.9577 530.208 92.1112 529.206 91.0027 528.652C89.818 528.059 87.812 527.707 84.8499 527.707L15.3999 527.707C12.4379 527.707 10.4319 528.059 9.24716 528.652L9.22088 528.665L9.19387 528.677C8.13565 529.13 7.35254 530.044 6.91346 531.625L6.90431 531.658L6.89293 531.69C6.35322 533.219 6.04995 535.824 6.04995 539.607C6.04995 539.857 5.98458 540.121 5.82574 540.359C5.67109 540.591 5.46579 540.743 5.27216 540.839C4.9132 541.019 4.50102 541.057 4.14995 541.057C3.79887 541.057 3.3867 541.019 3.02774 540.839C2.83411 540.743 2.62881 540.591 2.47415 540.359C2.31532 540.121 2.24995 539.857 2.24995 539.607L2.24995 539.597L2.40043 532.223L2.40108 532.21C2.60072 528.017 2.69994 524.635 2.69994 522.057C2.69994 520.276 2.65045 518.597 2.55189 517.02C2.45233 515.427 2.35296 514.036 2.25382 512.846C1.95189 509.623 1.79994 506.693 1.79994 504.057C1.79994 495.839 3.47161 489.345 6.94994 484.707C10.4542 480.035 15.3618 477.707 21.5499 477.707C26.5572 477.707 31.295 479.171 35.7456 482.069L35.7547 482.075C39.7995 484.772 43.079 488.276 45.5906 492.575C57.8491 484.348 67.4718 477.418 74.469 471.782C81.5346 466.01 86.605 460.927 89.7305 456.534C92.7439 452.158 94.1999 447.954 94.1999 443.907C94.1999 443.143 94.8281 442.827 95.1087 442.734C95.415 442.632 95.7708 442.607 96.1 442.607C96.4291 442.607 96.7848 442.632 97.0912 442.734C97.3718 442.827 97.9999 443.143 97.9999 443.907L97.9999 463.257C97.9999 464.144 97.6322 465.091 97.0642 466.053C96.486 467.033 95.6413 468.126 94.5542 469.328C92.3788 471.734 89.1458 474.671 84.8802 478.134ZM90.5499 457.107C87.35 461.607 82.1999 466.757 75.0999 472.557C68.0583 478.23 58.3864 485.193 46.0841 493.448C45.8074 493.634 45.5293 493.82 45.2499 494.007C45.0895 493.712 44.9257 493.421 44.7583 493.133C42.3166 488.936 39.1305 485.528 35.1999 482.907C30.8999 480.107 26.3499 478.707 21.5499 478.707C15.6499 478.707 11.0499 480.907 7.74994 485.307C4.44994 489.707 2.79994 495.957 2.79994 504.057C2.79994 506.657 2.94995 509.557 3.24995 512.757C3.34995 513.957 3.44995 515.357 3.54994 516.957C3.64994 518.557 3.69994 520.257 3.69994 522.057C3.69994 524.657 3.59994 528.057 3.39995 532.257L3.24995 539.607C3.24995 539.907 3.54995 540.057 4.14995 540.057C4.74995 540.057 5.04995 539.907 5.04995 539.607C5.04995 535.807 5.34994 533.057 5.94994 531.357C6.44994 529.557 7.39994 528.357 8.79995 527.757C10.2 527.057 12.3999 526.707 15.3999 526.707L84.8499 526.707C87.85 526.707 90.05 527.057 91.4499 527.757C92.85 528.457 93.85 529.707 94.4499 531.507C94.9499 533.307 95.1999 536.107 95.1999 539.907C95.1999 540.107 95.4999 540.207 96.1 540.207C96.6999 540.207 96.9999 540.107 96.9999 539.907C96.9999 536.607 96.9499 534.057 96.85 532.257L96.6999 522.057L96.85 511.707C96.9499 509.907 96.9999 507.457 96.9999 504.357C96.9999 504.057 96.6999 503.907 96.1 503.907C95.4999 503.907 95.1999 504.057 95.1999 504.357C95.1999 508.157 94.9499 510.957 94.4499 512.757C93.9499 514.457 92.9999 515.607 91.6 516.207C90.1999 516.807 87.9499 517.107 84.8499 517.107L49.15 517.107C49.1761 516.768 49.2004 516.435 49.2231 516.107C49.3743 513.926 49.4499 512.009 49.4499 510.357C49.4499 507.357 49.0999 504.657 48.3999 502.257C63.6999 492.457 75.6499 484.157 84.2499 477.357C92.7499 470.457 96.9999 465.757 96.9999 463.257L96.9999 443.907C96.9999 443.707 96.6999 443.607 96.1 443.607C95.4999 443.607 95.1999 443.707 95.1999 443.907C95.1999 448.207 93.6499 452.607 90.5499 457.107ZM6.74917 513.042L6.75572 513.063C7.04977 514.019 7.74334 514.768 9.02133 515.279L9.03266 515.283L9.04386 515.288C10.2424 515.802 12.4139 516.107 15.6999 516.107L44.5371 516.107C44.8441 513.856 44.9999 511.241 44.9999 508.257C44.9999 501.462 43.5659 496.833 40.9367 494.108C38.2118 491.388 33.5884 489.907 26.7999 489.907C19.666 489.907 14.5019 491.412 11.1313 494.248C7.7937 497.056 6.04994 501.311 6.04994 507.207C6.04994 509.87 6.29975 511.784 6.74169 513.021L6.74917 513.042ZM41.6499 493.407C44.5499 496.407 45.9999 501.357 45.9999 508.257C45.9999 511.657 45.7999 514.607 45.4 517.107L15.6999 517.107C12.3999 517.107 10.0499 516.807 8.64994 516.207C7.14994 515.607 6.19994 514.657 5.79994 513.357C5.29994 511.957 5.04994 509.907 5.04994 507.207C5.04994 495.007 12.2999 488.907 26.7999 488.907C33.6999 488.907 38.6499 490.407 41.6499 493.407ZM76.5999 411.83L1.89994 380.18C1.59994 379.98 1.44994 379.63 1.44994 379.13C1.44994 378.63 1.59994 378.33 1.89994 378.23L76.4499 342.83C83.8499 339.43 88.8499 336.53 91.4499 334.13C93.9499 331.73 95.1999 328.88 95.1999 325.58C95.1999 325.18 95.4999 324.98 96.0999 324.98C96.6999 324.98 96.9999 325.18 96.9999 325.58C96.9999 327.48 96.8999 330.43 96.6999 334.43C96.4999 338.43 96.3999 341.33 96.3999 343.13C96.3999 345.33 96.4999 348.13 96.6999 351.53C96.8999 354.73 96.9999 357.18 96.9999 358.88C96.9999 359.28 96.6999 359.48 96.0999 359.48C95.4999 359.48 95.1999 359.28 95.1999 358.88C95.1999 355.18 94.8499 352.48 94.1499 350.78C93.4499 349.08 92.2499 348.23 90.5499 348.23C89.1499 348.23 86.9999 348.88 84.0999 350.18L47.3499 367.43L47.3499 395.78L77.9499 408.68C81.3499 410.08 84.1499 410.78 86.35 410.78C92.2499 410.78 95.1999 405.88 95.1999 396.08C95.1999 395.58 95.4999 395.33 96.0999 395.33C96.6999 395.33 96.9999 395.58 96.9999 396.08C96.9999 397.88 96.8999 400.48 96.6999 403.88C96.4999 407.68 96.3999 410.98 96.3999 413.78C96.3999 416.38 96.4999 419.38 96.6999 422.78C96.8999 425.78 96.9999 428.28 96.9999 430.28C96.9999 430.78 96.6999 431.03 96.1 431.03C95.4999 431.03 95.1999 430.78 95.1999 430.28C95.1999 427.48 94.6999 425.13 93.6999 423.23C92.6 421.23 90.7499 419.38 88.1499 417.68C85.4499 415.88 81.5999 413.93 76.5999 411.83ZM92.8194 423.704C91.821 421.892 90.1092 420.155 87.6027 418.517L87.5952 418.512C84.9715 416.763 81.1875 414.841 76.2127 412.752L76.2098 412.75L1.42337 381.064L1.34525 381.012C0.667122 380.56 0.44994 379.823 0.44994 379.13C0.44994 378.508 0.643433 377.636 1.51489 377.305L76.0324 341.921C83.4217 338.526 88.2896 335.683 90.7648 333.401C93.0744 331.181 94.1999 328.589 94.1999 325.58C94.1999 325.088 94.408 324.606 94.8702 324.298C95.2609 324.037 95.7204 323.98 96.0999 323.98C96.4795 323.98 96.939 324.037 97.3296 324.298C97.7918 324.606 97.9999 325.088 97.9999 325.58C97.9999 327.506 97.8988 330.477 97.6987 334.48C97.4988 338.478 97.3999 341.357 97.3999 343.13C97.3999 345.302 97.4987 348.079 97.698 351.467C97.8984 354.673 97.9999 357.148 97.9999 358.88C97.9999 359.371 97.7918 359.854 97.3296 360.162C96.939 360.422 96.4795 360.48 96.0999 360.48C95.7204 360.48 95.2609 360.422 94.8702 360.162C94.408 359.854 94.1999 359.371 94.1999 358.88C94.1999 355.205 93.847 352.67 93.2253 351.16C92.9294 350.442 92.5581 349.974 92.1469 349.683C91.7412 349.396 91.2263 349.23 90.5499 349.23C89.3831 349.23 87.4071 349.794 84.5174 351.088C84.5146 351.09 84.5118 351.091 84.509 351.092L48.3499 368.065L48.3499 395.116L78.3307 407.755C78.3318 407.755 78.3329 407.756 78.334 407.756C81.6819 409.135 84.3402 409.78 86.35 409.78C88.9628 409.78 90.8435 408.727 92.1307 406.589C93.4668 404.37 94.1999 400.912 94.1999 396.08C94.1999 395.623 94.3457 395.115 94.7848 394.749C95.1889 394.412 95.6857 394.33 96.0999 394.33C96.5142 394.33 97.011 394.412 97.4151 394.749C97.8541 395.115 97.9999 395.623 97.9999 396.08C97.9999 397.909 97.8986 400.531 97.6985 403.934C97.4992 407.722 97.3999 411.003 97.3999 413.78C97.3999 416.354 97.499 419.333 97.698 422.717C97.8986 425.728 97.9999 428.25 97.9999 430.28C97.9999 430.737 97.8541 431.245 97.4151 431.61C97.011 431.947 96.5142 432.03 96.1 432.03C95.6857 432.03 95.1889 431.947 94.7848 431.61C94.3457 431.245 94.1999 430.737 94.1999 430.28C94.1999 427.599 93.7215 425.422 92.8194 423.704ZM44.1999 368.93L15.6999 382.43L44.1999 394.43L44.1999 368.93ZM43.1999 392.924L43.1999 370.51L18.1493 382.376L43.1999 392.924ZM2.24994 204.52L2.24994 204.507C2.24994 204.257 2.31531 203.994 2.47414 203.756C2.6288 203.524 2.83409 203.372 3.02773 203.275C3.38668 203.096 3.79886 203.057 4.14993 203.057C4.501 203.057 4.91318 203.096 5.27214 203.275C5.46577 203.372 5.67107 203.524 5.82573 203.756C5.98456 203.994 6.04993 204.257 6.04993 204.507C6.04993 208.536 7.14949 211.245 9.13681 212.886C11.166 214.563 14.6264 215.507 19.7499 215.507L98.7999 215.507C99.397 215.507 99.7545 215.905 99.9199 216.18C100.082 216.451 100.172 216.77 100.231 217.061C100.345 217.632 100.382 218.439 99.807 219.014L99.7734 219.048L16.6965 287.657L80.6499 287.657C85.7653 287.657 89.2298 286.766 91.2644 285.185C93.1541 283.542 94.1999 280.878 94.1999 276.957C94.1999 276.707 94.2653 276.444 94.4241 276.206C94.5788 275.974 94.7841 275.822 94.9777 275.725C95.3367 275.546 95.7489 275.507 96.0999 275.507C96.451 275.507 96.8632 275.546 97.2222 275.725C97.4158 275.822 97.6211 275.974 97.7757 276.206C97.9346 276.444 97.9999 276.707 97.9999 276.957C97.9999 279.447 97.9507 281.368 97.8492 282.706L97.7001 290.157L97.8492 297.762C97.9506 299.198 97.9999 301.267 97.9999 303.957C97.9999 304.722 97.3718 305.038 97.0912 305.131C96.7848 305.233 96.4291 305.257 96.0999 305.257C95.7708 305.257 95.4151 305.233 95.1087 305.131C94.8281 305.038 94.1999 304.722 94.1999 303.957C94.1999 299.807 93.1391 297.119 91.2753 295.588C89.242 294.002 85.7744 293.107 80.6499 293.107L10.8921 293.107C7.60595 296.774 6.04993 300.386 6.04993 303.957C6.04993 304.207 5.98457 304.471 5.82573 304.709C5.67108 304.941 5.46578 305.092 5.27215 305.189C4.91319 305.369 4.50101 305.407 4.14994 305.407C3.79886 305.407 3.38669 305.369 3.02773 305.189C2.8341 305.092 2.6288 304.941 2.47414 304.709C2.31531 304.471 2.24994 304.207 2.24994 303.957L2.24994 303.944L2.40106 298.352L2.40339 298.324C2.50001 297.165 2.54993 295.547 2.54993 293.457C2.54993 291.269 2.50012 289.496 2.40248 288.129C2.30184 286.72 2.24994 285.592 2.24994 284.757C2.24994 283.88 2.45447 282.984 3.13542 282.399C3.35943 282.13 3.66686 281.853 4.01274 281.577C4.41848 281.252 4.93181 280.884 5.54524 280.475C7.32289 279.29 8.94817 278.108 10.4222 276.929C10.4232 276.928 10.4242 276.927 10.4252 276.927L79.1872 220.957L19.7499 220.957C14.6185 220.957 11.1483 221.855 9.11624 223.445L9.10539 223.453L9.09432 223.462C7.14734 224.901 6.04993 227.429 6.04993 231.357C6.04993 232.122 5.42182 232.438 5.14116 232.531C4.83482 232.633 4.47912 232.657 4.14993 232.657C3.82075 232.657 3.46504 232.633 3.1587 232.531C2.87805 232.438 2.24994 232.122 2.24994 231.357L2.24994 231.345L2.40079 225.461L2.40215 225.441C2.60141 222.452 2.69993 220.026 2.69993 218.157C2.69993 216.388 2.60141 213.912 2.40188 210.72L2.4007 210.701L2.24994 204.52ZM81.9999 219.957L11.0499 277.707C9.54994 278.907 7.89994 280.107 6.09994 281.307C4.89994 282.107 4.14993 282.707 3.84993 283.107C3.44994 283.407 3.24994 283.957 3.24994 284.757C3.24994 285.557 3.29994 286.657 3.39994 288.057C3.49994 289.457 3.54993 291.257 3.54993 293.457C3.54993 295.557 3.49994 297.207 3.39994 298.407L3.24994 303.957C3.24994 304.257 3.54994 304.407 4.14994 304.407C4.74994 304.407 5.04993 304.257 5.04993 303.957C5.04993 299.957 6.84993 296.007 10.4499 292.107L80.6499 292.107C85.8499 292.107 89.5999 293.007 91.8999 294.807C94.0999 296.607 95.1999 299.657 95.1999 303.957C95.1999 304.157 95.4999 304.257 96.0999 304.257C96.6999 304.257 96.9999 304.157 96.9999 303.957C96.9999 301.257 96.9499 299.207 96.8499 297.807L96.6999 290.157L96.8499 282.657C96.9499 281.357 96.9999 279.457 96.9999 276.957C96.9999 276.657 96.6999 276.507 96.0999 276.507C95.4999 276.507 95.1999 276.657 95.1999 276.957C95.1999 281.057 94.0999 284.057 91.8999 285.957C89.5999 287.757 85.8499 288.657 80.6499 288.657L14.0499 288.657L15.5499 287.307L99.0999 218.307C99.2999 218.107 99.3499 217.757 99.2499 217.257C99.1499 216.757 98.9999 216.507 98.7999 216.507L19.7499 216.507C14.5499 216.507 10.7999 215.557 8.49993 213.657C6.19993 211.757 5.04993 208.707 5.04993 204.507C5.04993 204.207 4.74993 204.057 4.14993 204.057C3.54993 204.057 3.24994 204.207 3.24994 204.507L3.39993 210.657C3.59993 213.857 3.69993 216.357 3.69993 218.157C3.69993 220.057 3.59993 222.507 3.39993 225.507L3.24994 231.357C3.24994 231.557 3.54994 231.657 4.14993 231.657C4.74993 231.657 5.04993 231.557 5.04993 231.357C5.04993 227.257 6.19993 224.357 8.49993 222.657C10.7999 220.857 14.5499 219.957 19.7499 219.957L81.9999 219.957ZM97.8489 156.168L97.8488 156.171C97.7498 158.25 97.7 160.581 97.6999 163.166C97.6999 163.168 97.6999 163.171 97.6999 163.173L97.8495 173.338C97.9503 175.164 97.9999 177.678 97.9999 180.873C97.9999 181.637 97.3718 181.953 97.0912 182.047C96.7848 182.149 96.4291 182.173 96.0999 182.173C95.7707 182.173 95.415 182.149 95.1087 182.047C94.8281 181.953 94.1999 181.637 94.1999 180.873C94.1999 177.085 93.9473 174.458 93.4906 172.905L93.4884 172.898L93.4864 172.891C93.0473 171.31 92.2642 170.396 91.206 169.942L91.1914 169.936L91.177 169.929C89.8772 169.323 87.8038 168.973 84.8499 168.973L15.3999 168.973C12.4295 168.973 10.3994 169.276 9.19385 169.792C8.13564 170.246 7.35253 171.16 6.91344 172.741L6.9043 172.774L6.89292 172.806C6.3532 174.335 6.04993 176.939 6.04993 180.723C6.04993 181.487 5.42181 181.803 5.14116 181.897C4.83482 181.999 4.47911 182.023 4.14993 182.023C3.82075 182.023 3.46504 181.999 3.15871 181.897C2.87805 181.803 2.24993 181.487 2.24993 180.723L2.24993 180.713L2.40041 173.189L2.40106 173.175C2.60074 168.982 2.69993 165.65 2.69993 163.173C2.69993 159.399 2.55097 155.676 2.2532 152.004L2.25177 151.986L2.25096 151.968C2.05102 147.57 1.94993 144.499 1.94993 142.773C1.94993 132.243 3.9756 122.886 8.0555 114.726C12.128 106.581 17.6938 100.238 24.7587 95.7321C31.8273 91.1235 39.7669 88.8231 48.5499 88.8231C58.415 88.8231 67.1996 91.1644 74.8728 95.8706C82.4289 100.466 88.3029 106.751 92.4851 114.708L92.4898 114.717C96.5658 122.665 98.5999 131.322 98.5999 140.673C98.5999 143.605 98.4484 146.981 98.1471 150.798C98.0481 152.185 97.9486 153.975 97.8489 156.168ZM97.1499 150.723C97.4499 146.923 97.5999 143.573 97.5999 140.673C97.5999 131.473 95.5999 122.973 91.5999 115.173C87.4999 107.373 81.7499 101.223 74.3499 96.723C66.8499 92.123 58.2499 89.8231 48.5499 89.8231C39.9499 89.8231 32.1999 92.0731 25.2999 96.5731C18.3999 100.973 12.9499 107.173 8.94993 115.173C4.94993 123.173 2.94993 132.373 2.94993 142.773C2.94993 144.473 3.04993 147.523 3.24993 151.923C3.54993 155.623 3.69993 159.373 3.69993 163.173C3.69993 165.673 3.59993 169.023 3.39993 173.223L3.24993 180.723C3.24993 180.923 3.54993 181.023 4.14993 181.023C4.74993 181.023 5.04993 180.923 5.04993 180.723C5.04993 176.923 5.34993 174.173 5.94993 172.473C6.44993 170.673 7.39993 169.473 8.79993 168.873C10.1999 168.273 12.3999 167.973 15.3999 167.973L84.8499 167.973C87.8499 167.973 90.0999 168.323 91.5999 169.023C92.9999 169.623 93.9499 170.823 94.4499 172.623C94.9499 174.323 95.1999 177.073 95.1999 180.873C95.1999 181.073 95.4999 181.173 96.0999 181.173C96.6999 181.173 96.9999 181.073 96.9999 180.873C96.9999 177.673 96.9499 175.173 96.8499 173.373L96.6999 163.173C96.6999 160.573 96.7499 158.223 96.8499 156.123C96.9499 153.923 97.0499 152.123 97.1499 150.723ZM75.0864 107.359L75.0814 107.357C68.6554 103.949 60.9239 102.223 51.8499 102.223C43.2792 102.223 35.5253 103.848 28.5714 107.08C21.6256 110.308 16.1714 114.892 12.1799 120.831C8.20055 126.751 6.19993 133.603 6.19993 141.423C6.19993 145.695 6.44922 148.964 6.92798 151.265C7.39062 153.389 8.28682 154.847 9.5413 155.767C10.7933 156.685 12.7926 157.223 15.6999 157.223L83.1999 157.223C86.1169 157.223 88.2927 156.833 89.8025 156.128C91.2218 155.37 92.376 154 93.2093 151.882C93.9545 149.632 94.3499 146.414 94.3499 142.173C94.3499 134.316 92.7311 127.383 89.5202 121.349C86.2188 115.331 81.4167 110.67 75.0864 107.359ZM90.3999 120.873C93.6999 127.073 95.3499 134.173 95.3499 142.173C95.3499 146.473 94.9499 149.823 94.1499 152.223C93.2499 154.523 91.9499 156.123 90.2499 157.023C88.5499 157.823 86.1999 158.223 83.1999 158.223L15.6999 158.223C12.6999 158.223 10.4499 157.673 8.94993 156.573C7.44993 155.473 6.44993 153.773 5.94993 151.473C5.44993 149.073 5.19993 145.723 5.19993 141.423C5.19993 133.423 7.24992 126.373 11.3499 120.273C15.4499 114.173 21.0499 109.473 28.1499 106.173C35.2499 102.873 43.1499 101.223 51.8499 101.223C61.0499 101.223 68.9499 102.973 75.5499 106.473C82.0499 109.873 86.9999 114.673 90.3999 120.873ZM24.9999 7.41211C19.7999 8.2121 14.9999 10.3621 10.5999 13.8621C6.09992 17.3621 3.84992 22.4121 3.84992 29.0121C3.84992 34.6121 5.49992 38.8121 8.79993 41.6121C11.9999 44.3121 15.9999 45.6621 20.7999 45.6621C24.6999 45.6621 28.0999 44.7121 30.9999 42.8121C33.8999 40.9121 36.3499 38.6121 38.3499 35.9121C40.2499 33.2121 42.6999 29.4121 45.6999 24.5121C48.7999 19.3121 51.3999 15.2621 53.4999 12.3621C55.5999 9.46209 58.2999 7.01208 61.5999 5.01208C64.7999 2.91211 68.6499 1.86212 73.1499 1.86212C77.9499 1.86212 82.2999 3.06213 86.1999 5.46209C90.0999 7.86212 93.1999 11.4121 95.4999 16.1121C97.6999 20.7121 98.7999 26.2621 98.7999 32.7621C98.7999 40.4621 97.0499 47.5121 93.5499 53.9121C93.2499 54.4121 92.8999 54.7621 92.4999 54.9621C92.0999 55.0621 91.4999 55.1621 90.6999 55.2621L70.2999 57.2121C69.8999 57.3121 69.6499 57.1121 69.5499 56.6121C69.4499 56.0121 69.5999 55.6621 69.9999 55.5621C77.1999 53.9621 83.3999 51.0121 88.5999 46.7121C93.7999 42.3121 96.3999 36.5121 96.3999 29.3121C96.3999 24.3121 95.0499 20.1121 92.3499 16.7121C89.5499 13.2121 85.1499 11.4621 79.1499 11.4621C74.6499 11.4621 70.7499 12.4621 67.4499 14.4621C64.1499 16.4621 61.4499 18.9121 59.3499 21.8121C57.1499 24.6121 54.5999 28.4621 51.6999 33.3621C48.7999 38.1621 46.2999 41.9621 44.1999 44.7621C42.0999 47.4621 39.4499 49.7621 36.2499 51.6621C33.0499 53.5621 29.2999 54.5121 24.9999 54.5121C19.9999 54.5121 15.7499 53.2121 12.2499 50.6121C8.64993 47.9121 5.99992 44.4621 4.29992 40.2621C2.49992 35.9621 1.59992 31.4121 1.59992 26.6121C1.59992 20.7121 2.79992 14.8621 5.19992 9.06213C5.69992 7.56213 6.54992 6.81213 7.74992 6.81213L24.9999 5.76208C25.3999 5.76208 25.5999 6.01208 25.5999 6.51208C25.5999 7.01208 25.3999 7.31213 24.9999 7.41211ZM7.71693 5.81226L24.9392 4.76398L24.9695 4.76208L24.9999 4.76208C25.4206 4.76208 25.8946 4.90466 26.2308 5.32489C26.5329 5.70257 26.5999 6.15527 26.5999 6.51208C26.5999 6.88574 26.5263 7.30035 26.282 7.66681C26.0241 8.05353 25.6467 8.28119 25.2425 8.38226L25.1976 8.39343L25.152 8.40045C20.1359 9.17218 15.4959 11.2454 11.2224 14.6447L11.2139 14.6515C6.99778 17.9307 4.84992 22.6657 4.84992 29.0121C4.84992 34.411 6.43293 38.2923 9.4469 40.8496C12.44 43.3741 16.2004 44.6621 20.7999 44.6621C24.5303 44.6621 27.7346 43.756 30.4519 41.9756C33.2527 40.1406 35.6127 37.9248 37.5388 35.3271C39.4195 32.6538 41.8538 28.8788 44.845 23.9933C47.9496 18.7858 50.5656 14.7092 52.69 11.7756C54.871 8.76367 57.6682 6.22802 61.0667 4.16595C64.4535 1.94806 68.4969 0.862119 73.1499 0.862118C78.1256 0.862118 82.6586 2.1087 86.724 4.61047C90.8073 7.12323 94.0271 10.8274 96.3982 15.6725L96.4021 15.6807C98.6817 20.4471 99.7999 26.1525 99.7999 32.7621C99.7999 40.6202 98.0123 47.8365 94.4273 54.3919L94.4177 54.4095L94.4074 54.4266C94.0388 55.041 93.5618 55.5492 92.9471 55.8565L92.849 55.9056L92.7425 55.9322C92.2822 56.0473 91.6338 56.1531 90.824 56.2544L90.8095 56.2562L90.7951 56.2576L70.4556 58.2018C70.064 58.2801 69.5936 58.2427 69.1877 57.918C68.7975 57.6058 68.6398 57.1603 68.5693 56.8082L68.5662 56.7924L68.5635 56.7765C68.4992 56.3906 68.4853 55.9326 68.6683 55.5057C68.8777 55.017 69.2832 54.7105 69.7574 54.592L69.7702 54.5887L69.783 54.5859C76.8412 53.0175 82.8921 50.1332 87.9582 45.9451C92.9165 41.7476 95.3999 36.2351 95.3999 29.3121C95.3999 24.5024 94.1058 20.5316 91.5675 17.3348C89.0166 14.1479 84.9549 12.4621 79.1499 12.4621C74.8019 12.4621 71.0875 13.4268 67.9682 15.3173C64.7734 17.2535 62.1756 19.6149 60.1599 22.3986L60.1484 22.4145L60.1362 22.4299C57.9744 25.1813 55.4497 28.9897 52.5605 33.8714L52.5559 33.8793C49.6475 38.693 47.1281 42.5245 44.9999 45.3621L44.9947 45.3691L44.9893 45.376C42.806 48.1831 40.0585 50.5638 36.7605 52.522C33.3833 54.5272 29.4513 55.5121 24.9999 55.5121C19.818 55.5121 15.3507 54.1613 11.6536 51.4149L11.6499 51.4121C7.90457 48.6031 5.1427 45.0073 3.37483 40.6419C1.52383 36.2178 0.599922 31.5383 0.599922 26.6121C0.599922 20.5835 1.8246 14.6145 4.2628 8.71143C4.54726 7.87158 4.95946 7.14655 5.5508 6.62476C6.1616 6.08582 6.90185 5.81927 7.71693 5.81226Z" fill="url(#paint0_linear_741_13205)"/>
<defs>
<linearGradient id="paint0_linear_741_13205" x1="-42" y1="318.553" x2="140" y2="318.553" gradientUnits="userSpaceOnUse">
<stop stop-color="#915606" stop-opacity="0.45"/>
<stop offset="1" stop-color="#DBBF6D" stop-opacity="0.25"/>
</linearGradient>
</defs>
</svg>
