<svg width="99" height="817" viewBox="0 0 99 817" fill="none" xmlns="http://www.w3.org/2000/svg">
<path d="M93.3 793L93.7706 793.882L93.8065 793.863L93.8408 793.841L93.3 793ZM96.3 788.05L97.2702 788.293L97.2724 788.283L96.3 788.05ZM98.85 785.95L97.8509 785.907L97.8502 785.923L97.8501 785.939L98.85 785.95ZM98.7 799L97.7001 798.988L97.6999 799.002L97.7001 799.015L98.7 799ZM98.85 809.05L97.8501 809.065L97.8504 809.084L97.8514 809.103L98.85 809.05ZM96.45 808.45L95.4865 808.718L95.4885 808.725L95.4906 808.732L96.45 808.45ZM93.6 804.85L93.9939 803.931L93.9827 803.926L93.9714 803.922L93.6 804.85ZM10.8 804.85L11.1939 805.769L10.8 804.85ZM7.94999 808.45L8.89298 808.783L8.90436 808.751L8.91351 808.718L7.94999 808.45ZM5.25 816.7L4.2502 816.68L4.25 816.69L4.25 816.7L5.25 816.7ZM5.4 809.2L4.40113 809.152L4.40047 809.166L4.4002 809.18L5.4 809.2ZM5.25 790.75L4.25 790.75L4.25 790.798L4.25465 790.846L5.25 790.75ZM5.09999 785.05L6.09925 785.012L6.09852 784.992L6.09704 784.973L5.09999 785.05ZM10.95 756.25L11.7518 756.848L11.7569 756.841L10.95 756.25ZM46.35 752.8L45.7586 753.606L45.7645 753.611L45.7705 753.615L46.35 752.8ZM56.4 765.25L57.3182 764.854L56.4 765.25ZM58.95 788.2L57.9829 787.946L57.95 788.071L57.95 788.2L58.95 788.2ZM57.3 788.5L56.7453 789.332L56.8567 789.406L56.9838 789.449L57.3 788.5ZM57 787.9L57.8944 788.347L57.9435 788.249L57.9701 788.143L57 787.9ZM51.15 765.85L50.4194 766.533L50.427 766.541L51.15 765.85ZM13.95 765.4L14.6329 766.131L14.6409 766.123L13.95 765.4ZM7.65 789.7L8.62014 789.457L7.65 789.7ZM10.5 793.15L10.9472 792.256L10.9351 792.25L10.9229 792.244L10.5 793.15ZM86.25 795.2C89.4932 795.2 92.0474 794.801 93.7706 793.882L92.8294 792.118C91.5526 792.799 89.4068 793.2 86.25 793.2L86.25 795.2ZM93.8408 793.841C95.539 792.749 96.6379 790.821 97.2701 788.293L95.3299 787.807C94.7621 790.079 93.861 791.451 92.7592 792.159L93.8408 793.841ZM97.2724 788.283C97.9014 785.663 98.2 781.664 98.2 776.35L96.2 776.35C96.2 781.636 95.8986 785.437 95.3276 787.817L97.2724 788.283ZM98.2 776.35C98.2 776.45 98.1721 776.582 98.0883 776.708C98.0086 776.827 97.9158 776.885 97.8722 776.907C97.8325 776.927 97.8236 776.922 97.8706 776.915C97.915 776.907 97.989 776.9 98.1 776.9L98.1 774.9C97.7489 774.9 97.3367 774.939 96.9778 775.118C96.7842 775.215 96.5789 775.366 96.4242 775.598C96.2654 775.837 96.2 776.1 96.2 776.35L98.2 776.35ZM98.1 776.9C98.211 776.9 98.285 776.907 98.3293 776.915C98.3764 776.922 98.3675 776.927 98.3278 776.907C98.2842 776.885 98.1914 776.827 98.1117 776.708C98.0279 776.582 98 776.45 98 776.35L100 776.35C100 776.1 99.9346 775.837 99.7758 775.598C99.6211 775.366 99.4158 775.215 99.2222 775.118C98.8632 774.939 98.4511 774.9 98.1 774.9L98.1 776.9ZM98 776.35C98 780.445 97.95 783.628 97.8509 785.907L99.8491 785.993C99.95 783.672 100 780.455 100 776.35L98 776.35ZM97.8501 785.939L97.7001 798.988L99.6999 799.011L99.8499 785.961L97.8501 785.939ZM97.7001 799.015L97.8501 809.065L99.8499 809.035L99.6999 798.985L97.7001 799.015ZM97.8514 809.103C97.9501 810.977 98 813.507 98 816.7L100 816.7C100 813.493 99.95 810.923 99.8486 808.997L97.8514 809.103ZM98 816.7C98 816.597 98.0201 816.485 98.0668 816.376C98.1129 816.269 98.1757 816.185 98.2366 816.124C98.3495 816.011 98.4528 815.978 98.4588 815.976C98.4724 815.972 98.4531 815.98 98.3833 815.987C98.317 815.995 98.2242 816 98.1 816L98.1 818C98.4292 818 98.7849 817.976 99.0912 817.874C99.3719 817.78 100 817.464 100 816.7L98 816.7ZM98.1 816C97.9758 816 97.8829 815.995 97.8167 815.987C97.7469 815.98 97.7276 815.972 97.7412 815.976C97.7472 815.978 97.8505 816.011 97.9634 816.124C98.0243 816.185 98.0871 816.269 98.1332 816.376C98.1799 816.485 98.2 816.597 98.2 816.7L96.2 816.7C96.2 817.464 96.8281 817.78 97.1088 817.874C97.4151 817.976 97.7708 818 98.1 818L98.1 816ZM98.2 816.7C98.2 812.888 97.9526 810.015 97.4094 808.168L95.4906 808.732C95.9474 810.285 96.2 812.912 96.2 816.7L98.2 816.7ZM97.4135 808.182C96.8526 806.163 95.7357 804.677 93.9939 803.931L93.2061 805.769C94.2643 806.223 95.0474 807.137 95.4865 808.718L97.4135 808.182ZM93.9714 803.922C92.2915 803.25 89.8872 802.95 86.85 802.95L86.85 804.95C89.8128 804.95 91.9085 805.25 93.2286 805.778L93.9714 803.922ZM86.85 802.95L17.4 802.95L17.4 804.95L86.85 804.95L86.85 802.95ZM17.4 802.95C14.3704 802.95 12.0006 803.247 10.4061 803.931L11.1939 805.769C12.3994 805.252 14.4296 804.95 17.4 804.95L17.4 802.95ZM10.4061 803.931C8.66429 804.677 7.54739 806.163 6.98647 808.182L8.91351 808.718C9.35259 807.137 10.1357 806.223 11.1939 805.769L10.4061 803.931ZM7.007 808.117C6.34672 809.988 6.04999 812.884 6.05 816.7L8.05 816.7C8.04999 812.916 8.35327 810.312 8.89298 808.783L7.007 808.117ZM6.05 816.7C6.05 816.597 6.07014 816.485 6.11679 816.376C6.16294 816.269 6.22568 816.185 6.28664 816.124C6.39949 816.011 6.50281 815.978 6.50877 815.976C6.52238 815.972 6.5031 815.98 6.43331 815.987C6.36705 815.995 6.27417 816 6.15 816L6.15 818C6.47918 818 6.83489 817.976 7.14122 817.874C7.42187 817.78 8.05 817.464 8.05 816.7L6.05 816.7ZM6.15 816C6.02583 816 5.93295 815.995 5.86668 815.987C5.79689 815.98 5.77761 815.972 5.79123 815.976C5.79718 815.978 5.90051 816.011 6.01336 816.124C6.07431 816.185 6.13706 816.269 6.18321 816.376C6.22985 816.485 6.25 816.597 6.25 816.7L4.25 816.7C4.25 817.464 4.87812 817.78 5.15877 817.874C5.46511 817.976 5.82082 818 6.15 818L6.15 816ZM6.2498 816.72L6.3998 809.22L4.4002 809.18L4.2502 816.68L6.2498 816.72ZM6.39886 809.248C6.59919 805.041 6.69999 801.673 6.69999 799.15L4.69999 799.15C4.69999 801.627 4.60081 804.959 4.40113 809.152L6.39886 809.248ZM6.69999 799.15C6.69999 796.611 6.54773 793.778 6.24535 790.654L4.25465 790.846C4.55226 793.922 4.69999 796.689 4.69999 799.15L6.69999 799.15ZM6.25 790.75C6.25 789.529 6.19932 787.613 6.09925 785.012L4.10073 785.088C4.20067 787.687 4.25 789.571 4.25 790.75L6.25 790.75ZM6.09704 784.973C5.89834 782.39 5.79999 780.167 5.79999 778.3L3.79999 778.3C3.79999 780.233 3.90164 782.51 4.10294 785.127L6.09704 784.973ZM5.79999 778.3C5.79999 769.243 7.81804 762.125 11.7517 756.848L10.1482 755.652C5.88195 761.375 3.79999 768.957 3.79999 778.3L5.79999 778.3ZM11.7569 756.841C15.628 751.553 21.5433 748.85 29.7 748.85L29.7 746.85C21.0567 746.85 14.472 749.747 10.1431 755.659L11.7569 756.841ZM29.7 748.85C36.1273 748.85 41.4598 750.454 45.7586 753.606L46.9414 751.994C42.2401 748.546 36.4726 746.85 29.7 746.85L29.7 748.85ZM45.7705 753.615C50.1205 756.708 53.3538 760.713 55.4818 765.646L57.3182 764.854C55.0462 759.587 51.5795 755.292 46.9295 751.985L45.7705 753.615ZM55.4818 765.646C57.6294 770.625 58.7 775.74 58.7 781L60.7 781C60.7 775.46 59.5706 770.075 57.3182 764.854L55.4818 765.646ZM58.7 781C58.7 783.851 58.4534 786.158 57.9829 787.946L59.9171 788.454C60.4466 786.442 60.7 783.949 60.7 781L58.7 781ZM57.95 788.2C57.95 788.133 57.9649 788.026 58.029 787.911C58.0937 787.795 58.1804 787.721 58.248 787.68C58.3091 787.643 58.3464 787.638 58.332 787.641C58.319 787.644 58.278 787.65 58.2 787.65L58.2 789.65C58.5174 789.65 58.9216 789.608 59.277 789.395C59.7138 789.133 59.95 788.689 59.95 788.2L57.95 788.2ZM58.2 787.65C58.0132 787.65 57.8198 787.619 57.6162 787.551L56.9838 789.449C57.3802 789.581 57.7868 789.65 58.2 789.65L58.2 787.65ZM57.8547 787.668C57.7698 787.611 57.8328 787.629 57.8944 787.753C57.9306 787.825 57.9625 787.927 57.9625 788.05C57.9625 788.173 57.9306 788.275 57.8944 788.347L56.1056 787.453C55.9148 787.834 55.9148 788.266 56.1056 788.647C56.2672 788.971 56.5302 789.189 56.7453 789.332L57.8547 787.668ZM57.9701 788.143C58.3936 786.449 58.6 784.565 58.6 782.5L56.6 782.5C56.6 784.435 56.4064 786.151 56.0299 787.657L57.9701 788.143ZM58.6 782.5C58.6 775.66 56.3623 769.857 51.873 765.159L50.427 766.541C54.5377 770.843 56.6 776.14 56.6 782.5L58.6 782.5ZM51.8805 765.167C47.3409 760.311 40.8431 757.95 32.55 757.95L32.55 759.95C40.4569 759.95 46.3591 762.189 50.4195 766.533L51.8805 765.167ZM32.55 757.95C24.465 757.95 17.9916 760.155 13.2591 764.677L14.6409 766.123C18.9084 762.045 24.835 759.95 32.55 759.95L32.55 757.95ZM13.2671 764.669C8.45074 769.172 6.04999 774.943 6.04999 781.9L8.04999 781.9C8.04999 775.457 10.2492 770.228 14.6329 766.131L13.2671 764.669ZM6.04999 781.9C6.04999 785.509 6.2479 788.215 6.67985 789.943L8.62014 789.457C8.25209 787.985 8.04999 785.491 8.04999 781.9L6.04999 781.9ZM6.67985 789.943C7.15326 791.836 8.30517 793.229 10.0771 794.056L10.9229 792.244C9.69482 791.671 8.94673 790.764 8.62014 789.457L6.67985 789.943ZM10.0528 794.044C11.6785 794.857 14.2858 795.2 17.7 795.2L17.7 793.2C14.3142 793.2 12.1215 792.843 10.9472 792.256L10.0528 794.044ZM17.7 795.2L86.25 795.2L86.25 793.2L17.7 793.2L17.7 795.2ZM98.7 637.293L97.7012 637.243L98.7 637.293ZM98.7 654.393L97.7017 654.452L97.7019 654.455L98.7 654.393ZM96.15 653.643L95.2253 654.024L96.15 653.643ZM86.1 653.043L85.6909 652.13L85.683 652.134L85.6751 652.138L86.1 653.043ZM49.35 670.293L48.9251 669.388L48.35 669.658L48.35 670.293L49.35 670.293ZM49.35 698.643L48.35 698.643L48.35 699.307L48.9615 699.564L49.35 698.643ZM79.95 711.543L79.5615 712.464L79.5692 712.468L79.95 711.543ZM98.7 706.743L97.7017 706.684L97.7014 706.69L98.7 706.743ZM98.7 725.643L97.7017 725.702L97.7022 725.709L98.7 725.643ZM95.7 726.093L96.5849 725.627L96.5806 725.619L96.5762 725.611L95.7 726.093ZM90.15 720.543L89.5953 721.375L89.6027 721.38L90.15 720.543ZM78.6 714.693L78.2099 715.614L78.2128 715.615L78.6 714.693ZM3.89999 683.043L3.3453 683.875L3.42342 683.927L3.50987 683.964L3.89999 683.043ZM3.89999 681.093L4.21622 682.042L4.27396 682.022L4.32894 681.996L3.89999 681.093ZM78.45 645.693L78.0325 644.784L78.021 644.79L78.45 645.693ZM93.45 636.993L94.1283 637.728L94.1355 637.721L94.1425 637.714L93.45 636.993ZM46.2 697.293L45.8119 698.215L47.2 698.799L47.2 697.293L46.2 697.293ZM46.2 671.793L47.2 671.793L47.2 670.213L45.7719 670.889L46.2 671.793ZM17.7 685.293L17.2719 684.389L15.2506 685.347L17.3119 686.215L17.7 685.293ZM98.2 628.443C98.2 628.469 98.1947 628.54 98.1507 628.628C98.1045 628.72 98.0383 628.786 97.9797 628.825C97.9278 628.86 97.8991 628.862 97.9232 628.857C97.9468 628.851 98.0024 628.843 98.1 628.843L98.1 626.843C97.7205 626.843 97.2609 626.9 96.8703 627.161C96.4081 627.469 96.2 627.952 96.2 628.443L98.2 628.443ZM98.1 628.843C98.1976 628.843 98.2531 628.851 98.2768 628.857C98.3009 628.862 98.2722 628.86 98.2203 628.825C98.1617 628.786 98.0955 628.72 98.0493 628.628C98.0052 628.54 98 628.469 98 628.443L100 628.443C100 627.952 99.7919 627.469 99.3297 627.161C98.939 626.9 98.4795 626.843 98.1 626.843L98.1 628.843ZM98 628.443C98 630.317 97.9011 633.246 97.7012 637.243L99.6987 637.343C99.8989 633.34 100 630.369 100 628.443L98 628.443ZM97.7012 637.243C97.5012 641.245 97.4 644.166 97.4 645.993L99.4 645.993C99.4 644.22 99.4988 641.341 99.6987 637.343L97.7012 637.243ZM97.4 645.993C97.4 648.22 97.5011 651.041 97.7017 654.452L99.6983 654.334C99.4989 650.944 99.4 648.166 99.4 645.993L97.4 645.993ZM97.7019 654.455C97.9016 657.649 98 660.075 98 661.743L100 661.743C100 660.011 99.8984 657.537 99.6981 654.331L97.7019 654.455ZM98 661.743C98 661.717 98.0052 661.646 98.0493 661.558C98.0955 661.466 98.1617 661.4 98.2203 661.361C98.2722 661.326 98.3009 661.324 98.2768 661.329C98.2531 661.335 98.1976 661.343 98.1 661.343L98.1 663.343C98.4795 663.343 98.939 663.285 99.3297 663.025C99.7919 662.717 100 662.234 100 661.743L98 661.743ZM98.1 661.343C98.0024 661.343 97.9468 661.335 97.9232 661.329C97.8991 661.324 97.9278 661.326 97.9797 661.361C98.0383 661.4 98.1045 661.466 98.1507 661.558C98.1947 661.646 98.2 661.717 98.2 661.743L96.2 661.743C96.2 662.234 96.4081 662.717 96.8703 663.025C97.2609 663.285 97.7205 663.343 98.1 663.343L98.1 661.343ZM98.2 661.743C98.2 658.018 97.853 655.152 97.0747 653.262L95.2253 654.024C95.847 655.534 96.2 658.068 96.2 661.743L98.2 661.743ZM97.0747 653.262C96.6706 652.281 96.0919 651.473 95.303 650.914C94.5087 650.352 93.5737 650.093 92.55 650.093L92.55 652.093C93.2263 652.093 93.7413 652.259 94.147 652.546C94.5581 652.838 94.9294 653.305 95.2253 654.024L97.0747 653.262ZM92.55 650.093C90.918 650.093 88.5966 650.828 85.6909 652.13L86.509 653.955C89.4034 652.658 91.382 652.093 92.55 652.093L92.55 650.093ZM85.6751 652.138L48.9251 669.388L49.7749 671.198L86.5249 653.948L85.6751 652.138ZM48.35 670.293L48.35 698.643L50.35 698.643L50.35 670.293L48.35 670.293ZM48.9615 699.564L79.5615 712.464L80.3385 710.621L49.7385 697.722L48.9615 699.564ZM79.5692 712.468C83.0198 713.888 85.9604 714.643 88.35 714.643L88.35 712.643C86.3396 712.643 83.6802 711.997 80.3307 710.618L79.5692 712.468ZM88.35 714.643C91.6372 714.643 94.1814 713.246 95.8442 710.484C97.4581 707.803 98.2 703.911 98.2 698.943L96.2 698.943C96.2 703.775 95.4669 707.233 94.1308 709.452C92.8436 711.59 90.9628 712.643 88.35 712.643L88.35 714.643ZM98.2 698.943C98.2 698.916 98.2042 698.937 98.1847 698.986C98.1627 699.041 98.1222 699.101 98.0652 699.149C98.012 699.193 97.9717 699.204 97.9739 699.203C97.9786 699.202 98.0162 699.193 98.1 699.193L98.1 697.193C97.6858 697.193 97.1889 697.275 96.7848 697.612C96.3458 697.978 96.2 698.486 96.2 698.943L98.2 698.943ZM98.1 699.193C98.1838 699.193 98.2214 699.202 98.2261 699.203C98.2283 699.204 98.188 699.193 98.1348 699.149C98.0778 699.101 98.0372 699.041 98.0153 698.986C97.9957 698.937 98 698.916 98 698.943L100 698.943C100 698.486 99.8542 697.978 99.4152 697.612C99.0111 697.275 98.5142 697.193 98.1 697.193L98.1 699.193ZM98 698.943C98 700.713 97.9014 703.29 97.7017 706.684L99.6983 706.802C99.8986 703.396 100 700.773 100 698.943L98 698.943ZM97.7014 706.69C97.5008 710.502 97.4 713.82 97.4 716.643L99.4 716.643C99.4 713.865 99.4992 710.584 99.6986 706.796L97.7014 706.69ZM97.4 716.643C97.4 719.267 97.5009 722.288 97.7017 725.702L99.6983 725.584C99.4991 722.198 99.4 719.218 99.4 716.643L97.4 716.643ZM97.7022 725.709C97.9014 728.697 98 731.173 98 733.143L100 733.143C100 731.113 99.8986 728.589 99.6978 725.576L97.7022 725.709ZM98 733.143C98 733.17 97.9957 733.149 98.0153 733.1C98.0372 733.045 98.0778 732.985 98.1348 732.937C98.188 732.893 98.2283 732.882 98.2261 732.883C98.2214 732.884 98.1838 732.893 98.1 732.893L98.1 734.893C98.5142 734.893 99.0111 734.81 99.4152 734.474C99.8542 734.108 100 733.6 100 733.143L98 733.143ZM98.1 732.893C98.0162 732.893 97.9786 732.884 97.9739 732.883C97.9717 732.882 98.012 732.893 98.0652 732.937C98.1222 732.985 98.1627 733.045 98.1847 733.1C98.2043 733.149 98.2 733.17 98.2 733.143L96.2 733.143C96.2 733.6 96.3458 734.108 96.7848 734.474C97.1889 734.81 97.6858 734.893 98.1 734.893L98.1 732.893ZM98.2 733.143C98.2 730.228 97.68 727.708 96.5849 725.627L94.8151 726.559C95.72 728.278 96.2 730.458 96.2 733.143L98.2 733.143ZM96.5762 725.611C95.374 723.425 93.3871 721.465 90.6972 719.706L89.6027 721.38C92.1128 723.021 93.826 724.761 94.8238 726.575L96.5762 725.611ZM90.7047 719.711C87.9285 717.86 84.0124 715.882 78.9872 713.771L78.2128 715.615C83.1875 717.704 86.9715 719.626 89.5953 721.375L90.7047 719.711ZM78.9901 713.772L4.29012 682.122L3.50987 683.964L78.2099 715.614L78.9901 713.772ZM4.45469 682.211C4.461 682.215 4.46957 682.222 4.47707 682.232C4.4843 682.24 4.48484 682.244 4.48163 682.237C4.47386 682.218 4.44999 682.148 4.44999 681.993L2.44999 681.993C2.44999 682.686 2.66717 683.423 3.3453 683.875L4.45469 682.211ZM4.44999 681.993C4.44999 681.916 4.45586 681.867 4.46099 681.84C4.46612 681.812 4.46871 681.817 4.45692 681.84C4.44401 681.866 4.41658 681.909 4.36748 681.953C4.31744 681.997 4.2631 682.026 4.21622 682.042L3.58376 680.144C2.6536 680.454 2.44999 681.355 2.44999 681.993L4.44999 681.993ZM4.32894 681.996L78.8789 646.596L78.021 644.79L3.47105 680.19L4.32894 681.996ZM78.8675 646.602C86.2713 643.2 91.4013 640.245 94.1283 637.728L92.7717 636.258C90.2987 638.541 85.4286 641.386 78.0325 644.784L78.8675 646.602ZM94.1425 637.714C96.8279 635.136 98.2 632.03 98.2 628.443L96.2 628.443C96.2 631.456 95.0721 634.05 92.7575 636.272L94.1425 637.714ZM47.2 697.293L47.2 671.793L45.2 671.793L45.2 697.293L47.2 697.293ZM45.7719 670.889L17.2719 684.389L18.1281 686.197L46.6281 672.697L45.7719 670.889ZM17.3119 686.215L45.8119 698.215L46.588 696.371L18.088 684.371L17.3119 686.215ZM86.25 543.971L86.8703 544.755L86.8802 544.747L86.25 543.971ZM50.4 568.871L49.8606 568.029L49.2304 568.432L49.44 569.151L50.4 568.871ZM51.15 583.721L50.1529 583.644L50.0701 584.721L51.15 584.721L51.15 583.721ZM93.6 582.821L93.9939 583.74L93.9939 583.74L93.6 582.821ZM96.45 579.371L97.4094 579.653L97.4115 579.646L97.4135 579.638L96.45 579.371ZM98.85 578.321L97.8515 578.265L97.8504 578.286L97.8501 578.306L98.85 578.321ZM98.7 588.671L97.7001 588.656L97.6999 588.671L97.7001 588.685L98.7 588.671ZM98.85 598.871L97.8501 598.885L97.8504 598.906L97.8515 598.926L98.85 598.871ZM96.45 598.121L97.4135 597.853L97.4067 597.829L97.3987 597.804L96.45 598.121ZM93.45 594.371L93.0028 595.265L93.45 594.371ZM10.8 594.371L11.1939 595.29L11.2209 595.278L11.2472 595.265L10.8 594.371ZM7.94998 597.971L8.89297 598.304L8.90435 598.271L8.9135 598.238L7.94998 597.971ZM5.24999 606.221L4.2502 606.2L4.24999 606.21L4.24999 606.221L5.24999 606.221ZM5.39999 598.871L4.40112 598.823L4.40047 598.837L4.4002 598.85L5.39999 598.871ZM5.24999 579.371L6.24659 579.288L6.24563 579.277L5.24999 579.371ZM9.74998 551.921L10.55 552.521L9.74998 551.921ZM37.2 549.521L37.7547 548.689L37.7457 548.683L37.2 549.521ZM47.25 560.621L46.3714 561.098L46.895 562.062L47.8062 561.452L47.25 560.621ZM77.1 539.171L77.7273 539.949L77.7326 539.945L77.1 539.171ZM92.55 523.721L93.3649 524.3L93.3693 524.294L93.3735 524.288L92.55 523.721ZM47.4 583.721L47.4 584.721L48.2527 584.721L48.3874 583.879L47.4 583.721ZM43.65 560.021L44.369 559.326L44.3631 559.32L44.3571 559.314L43.65 560.021ZM7.79998 579.971L8.75576 579.677L8.74921 579.655L8.74173 579.634L7.79998 579.971ZM10.65 582.821L11.0439 581.902L11.0327 581.897L11.0214 581.892L10.65 582.821ZM98.2 510.521C98.2 510.624 98.1798 510.735 98.1332 510.844C98.0871 510.952 98.0243 511.036 97.9634 511.097C97.8505 511.209 97.7472 511.242 97.7412 511.244C97.7276 511.249 97.7469 511.241 97.8167 511.233C97.8829 511.226 97.9758 511.221 98.1 511.221L98.1 509.221C97.7708 509.221 97.4151 509.245 97.1088 509.347C96.8281 509.441 96.2 509.756 96.2 510.521L98.2 510.521ZM98.1 511.221C98.2242 511.221 98.317 511.226 98.3833 511.233C98.4531 511.241 98.4724 511.249 98.4588 511.244C98.4528 511.242 98.3495 511.209 98.2366 511.097C98.1757 511.036 98.1129 510.952 98.0668 510.844C98.0201 510.735 98 510.624 98 510.521L100 510.521C100 509.756 99.3719 509.441 99.0912 509.347C98.7849 509.245 98.4292 509.221 98.1 509.221L98.1 511.221ZM98 510.521L98 529.871L100 529.871L100 510.521L98 510.521ZM98 529.871C98 530.234 97.8365 530.812 97.342 531.65C96.8576 532.47 96.1087 533.452 95.0708 534.6C92.9961 536.894 89.8541 539.757 85.6197 543.194L86.8802 544.747C91.1459 541.284 94.3788 538.347 96.5542 535.941C97.6413 534.739 98.4861 533.646 99.0643 532.667C99.6322 531.704 100 530.757 100 529.871L98 529.871ZM85.6297 543.186C77.067 549.957 65.1483 558.237 49.8606 568.029L50.9394 569.713C66.2517 559.905 78.233 551.585 86.8702 544.755L85.6297 543.186ZM49.44 569.151C50.1088 571.444 50.45 574.047 50.45 576.971L52.45 576.971C52.45 573.894 52.0912 571.098 51.36 568.591L49.44 569.151ZM50.45 576.971C50.45 578.838 50.3516 581.061 50.1529 583.644L52.147 583.797C52.3483 581.181 52.45 578.904 52.45 576.971L50.45 576.971ZM51.15 584.721L86.85 584.721L86.85 582.721L51.15 582.721L51.15 584.721ZM86.85 584.721C89.9742 584.721 92.3969 584.424 93.9939 583.74L93.2061 581.902C92.003 582.417 89.9258 582.721 86.85 582.721L86.85 584.721ZM93.9939 583.74C95.7142 583.003 96.8406 581.587 97.4094 579.653L95.4906 579.089C95.0594 580.555 94.2858 581.439 93.2061 581.902L93.9939 583.74ZM97.4135 579.638C97.9516 577.701 98.2 574.788 98.2 570.971L96.2 570.971C96.2 574.753 95.9484 577.44 95.4865 579.103L97.4135 579.638ZM98.2 570.971C98.2 571.071 98.1721 571.203 98.0883 571.329C98.0086 571.448 97.9158 571.506 97.8722 571.528C97.8325 571.547 97.8236 571.543 97.8706 571.535C97.915 571.528 97.989 571.521 98.1 571.521L98.1 569.521C97.7489 569.521 97.3367 569.559 96.9778 569.739C96.7841 569.836 96.5788 569.987 96.4242 570.219C96.2654 570.457 96.2 570.721 96.2 570.971L98.2 570.971ZM98.1 571.521C98.211 571.521 98.285 571.528 98.3293 571.535C98.3763 571.543 98.3675 571.547 98.3278 571.528C98.2841 571.506 98.1913 571.448 98.1117 571.329C98.0279 571.203 98 571.071 98 570.971L100 570.971C100 570.721 99.9346 570.457 99.7758 570.219C99.6211 569.987 99.4158 569.836 99.2222 569.739C98.8632 569.559 98.4511 569.521 98.1 569.521L98.1 571.521ZM98 570.971C98 574.063 97.95 576.492 97.8515 578.265L99.8485 578.376C99.9499 576.549 100 574.078 100 570.971L98 570.971ZM97.8501 578.306L97.7001 588.656L99.6999 588.685L99.8499 578.335L97.8501 578.306ZM97.7001 588.685L97.8501 598.885L99.8499 598.856L99.6999 588.656L97.7001 588.685ZM97.8515 598.926C97.95 600.698 98 603.227 98 606.521L100 606.521C100 603.215 99.95 600.643 99.8485 598.815L97.8515 598.926ZM98 606.521C98 606.417 98.0201 606.306 98.0668 606.197C98.1129 606.089 98.1757 606.006 98.2366 605.945C98.3495 605.832 98.4528 605.799 98.4588 605.797C98.4724 605.792 98.4531 605.8 98.3833 605.808C98.317 605.815 98.2242 605.821 98.1 605.821L98.1 607.821C98.4292 607.821 98.7849 607.796 99.0912 607.694C99.3719 607.601 100 607.285 100 606.521L98 606.521ZM98.1 605.821C97.9758 605.821 97.8829 605.815 97.8167 605.808C97.7469 605.8 97.7276 605.792 97.7412 605.797C97.7472 605.799 97.8505 605.832 97.9634 605.945C98.0243 606.006 98.087 606.089 98.1332 606.197C98.1798 606.306 98.2 606.417 98.2 606.521L96.2 606.521C96.2 607.285 96.8281 607.601 97.1088 607.694C97.4151 607.796 97.7708 607.821 98.1 607.821L98.1 605.821ZM98.2 606.521C98.2 602.703 97.9516 599.79 97.4135 597.853L95.4865 598.388C95.9484 600.051 96.2 602.738 96.2 606.521L98.2 606.521ZM97.3987 597.804C96.7338 595.81 95.5832 594.319 93.8972 593.476L93.0028 595.265C94.1168 595.822 94.9662 596.832 95.5013 598.437L97.3987 597.804ZM93.8972 593.476C92.2819 592.669 89.888 592.321 86.85 592.321L86.85 594.321C89.812 594.321 91.8181 594.673 93.0028 595.265L93.8972 593.476ZM86.85 592.321L17.4 592.321L17.4 594.321L86.85 594.321L86.85 592.321ZM17.4 592.321C14.362 592.321 11.9681 592.669 10.3528 593.476L11.2472 595.265C12.4319 594.673 14.438 594.321 17.4 594.321L17.4 592.321ZM10.4061 593.452C8.66428 594.198 7.54738 595.684 6.98646 597.703L8.9135 598.238C9.35258 596.658 10.1357 595.743 11.1939 595.29L10.4061 593.452ZM7.00699 597.638C6.34671 599.509 6.04999 602.404 6.04999 606.221L8.04999 606.221C8.04999 602.437 8.35326 599.833 8.89297 598.304L7.00699 597.638ZM6.04999 606.221C6.04999 606.121 6.07786 605.989 6.16168 605.863C6.24134 605.743 6.33414 605.686 6.37777 605.664C6.41749 605.644 6.42634 605.648 6.37934 605.656C6.33502 605.664 6.26101 605.671 6.14999 605.671L6.14999 607.671C6.50106 607.671 6.91324 607.632 7.2722 607.453C7.46583 607.356 7.67113 607.204 7.82578 606.972C7.98462 606.734 8.04999 606.471 8.04999 606.221L6.04999 606.221ZM6.14999 605.671C6.03897 605.671 5.96495 605.664 5.92064 605.656C5.87363 605.648 5.88249 605.644 5.92221 605.664C5.96583 605.686 6.05863 605.743 6.13829 605.863C6.22212 605.989 6.24999 606.121 6.24999 606.221L4.24999 606.221C4.24999 606.471 4.31536 606.734 4.47419 606.972C4.62885 607.204 4.83415 607.356 5.02778 607.453C5.38674 607.632 5.79891 607.671 6.14999 607.671L6.14999 605.671ZM6.24978 606.241L6.39978 598.891L4.4002 598.85L4.2502 606.2L6.24978 606.241ZM6.39885 598.918C6.59921 594.711 6.69998 591.293 6.69998 588.671L4.69998 588.671C4.69998 591.248 4.60076 594.631 4.40112 598.823L6.39885 598.918ZM6.69998 588.671C6.69998 586.852 6.64948 585.131 6.54804 583.508L4.55193 583.633C4.65049 585.21 4.69998 586.889 4.69998 588.671L6.69998 588.671ZM6.54804 583.508C6.44774 581.904 6.34726 580.496 6.24654 579.288L4.25344 579.454C4.35272 580.645 4.45223 582.038 4.55193 583.633L6.54804 583.508ZM6.24563 579.277C5.94788 576.101 5.79998 573.233 5.79998 570.671L3.79998 570.671C3.79998 573.308 3.95209 576.24 4.25435 579.464L6.24563 579.277ZM5.79998 570.671C5.79998 562.689 7.42831 556.683 10.55 552.521L8.94999 551.321C5.47165 555.958 3.79998 562.452 3.79998 570.671L5.79998 570.671ZM10.55 552.521C13.6457 548.393 17.9381 546.321 23.55 546.321L23.55 544.321C17.3618 544.321 12.4542 546.648 8.94999 551.321L10.55 552.521ZM23.55 546.321C28.1427 546.321 32.5049 547.657 36.6543 550.359L37.7457 548.683C33.295 545.785 28.5573 544.321 23.55 544.321L23.55 546.321ZM36.6453 550.353C40.705 553.059 43.9459 556.635 46.3714 561.098L48.1286 560.143C45.554 555.406 42.095 551.582 37.7547 548.689L36.6453 550.353ZM47.8062 561.452C60.5171 552.944 70.4945 545.776 77.7273 539.949L76.4727 538.392C69.3055 544.165 59.3829 551.297 46.6938 559.79L47.8062 561.452ZM77.7326 539.945C84.8627 534.121 90.0903 528.905 93.3649 524.3L91.735 523.141C88.6096 527.536 83.5373 532.621 76.4673 538.396L77.7326 539.945ZM93.3735 524.288C96.5573 519.666 98.2 515.072 98.2 510.521L96.2 510.521C96.2 514.569 94.7426 518.775 91.7265 523.153L93.3735 524.288ZM48.3874 583.879C48.7981 581.312 49 578.307 49 574.871L47 574.871C47 578.234 46.8019 581.129 46.4125 583.563L48.3874 583.879ZM49 574.871C49 567.871 47.5361 562.602 44.369 559.326L42.931 560.716C45.5639 563.439 47 568.07 47 574.871L49 574.871ZM44.3571 559.314C41.0812 556.038 35.8065 554.521 28.8 554.521L28.8 556.521C35.5935 556.521 40.2188 558.004 42.9429 560.728L44.3571 559.314ZM28.8 554.521C21.4339 554.521 15.723 556.066 11.8437 559.331C7.93122 562.622 6.04998 567.517 6.04998 573.821L8.04998 573.821C8.04998 567.924 9.79374 563.669 13.1313 560.861C16.5019 558.025 21.666 556.521 28.8 556.521L28.8 554.521ZM6.04998 573.821C6.04998 576.558 6.30018 578.744 6.85824 580.307L8.74173 579.634C8.29979 578.397 8.04998 576.484 8.04998 573.821L6.04998 573.821ZM6.8442 580.265C7.35016 581.909 8.55658 583.06 10.2786 583.749L11.0214 581.892C9.74338 581.381 9.04981 580.632 8.75576 579.677L6.8442 580.265ZM10.2561 583.74C11.8575 584.426 14.3861 584.721 17.7 584.721L17.7 582.721C14.4139 582.721 12.2424 582.415 11.0439 581.902L10.2561 583.74ZM17.7 584.721L47.4 584.721L47.4 582.721L17.7 582.721L17.7 584.721ZM12.75 495.248L12.0429 495.955L12.0485 495.96L12.0542 495.966L12.75 495.248ZM29.1 501.998L28.9211 502.982L29.0098 502.998L29.1 502.998L29.1 501.998ZM29.1 503.648L28.9895 504.642L29.0446 504.648L29.1 504.648L29.1 503.648ZM15 502.298L15.0859 501.301L15 502.298ZM5.24999 491.798L4.25061 491.762L4.24999 491.78L4.24999 491.798L5.24999 491.798ZM5.39998 442.898L4.40009 442.912L4.4002 442.92L4.40044 442.928L5.39998 442.898ZM5.24998 432.698L4.24998 432.698L4.24998 432.705L4.25009 432.712L5.24998 432.698ZM4.49997 424.748L3.53645 425.015L3.53848 425.023L3.54061 425.03L4.49997 424.748ZM1.49998 421.298L1.81621 420.349L1.77977 420.337L1.74251 420.328L1.49998 421.298ZM1.49998 419.648L1.60288 418.653L1.55156 418.648L1.49998 418.648L1.49998 419.648ZM14.7 420.548L14.6492 421.546L14.7 420.548ZM29.1 422.798L29.1 421.798L29.0808 421.798L29.0615 421.798L29.1 422.798ZM12.75 427.598L13.4215 428.339L13.4274 428.333L13.4331 428.328L12.75 427.598ZM93.6 455.498L93.1528 454.603L93.6 455.498ZM96.45 451.448L97.4201 451.69L96.45 451.448ZM98.85 449.948L97.8512 449.898L97.8503 449.916L97.8501 449.935L98.85 449.948ZM98.7 461.648L97.7001 461.635L97.6999 461.648L97.7001 461.661L98.7 461.648ZM98.85 472.898L97.8501 472.911L97.8503 472.929L97.8512 472.948L98.85 472.898ZM93.6 467.648L93.1294 468.53L93.141 468.536L93.1528 468.542L93.6 467.648ZM10.95 467.498L11.4241 468.378L11.4391 468.37L11.4539 468.361L10.95 467.498ZM8.54998 471.398L9.52853 471.604L9.53377 471.579L9.53774 471.554L8.54998 471.398ZM6.94998 480.998C6.94998 487.457 8.59186 492.504 12.0429 495.955L13.4571 494.541C10.5081 491.592 8.94998 487.138 8.94998 480.998L6.94998 480.998ZM12.0542 495.966C15.4681 499.273 21.1558 501.57 28.9211 502.982L29.2789 501.014C21.6442 499.626 16.4318 497.422 13.4458 494.529L12.0542 495.966ZM29.1 502.998C28.9965 502.998 28.8852 502.978 28.7764 502.931C28.6687 502.885 28.5851 502.822 28.5241 502.761C28.4113 502.648 28.3783 502.545 28.3763 502.539C28.3718 502.525 28.3796 502.545 28.3874 502.614C28.3947 502.681 28.4 502.773 28.4 502.898L30.4 502.898C30.4 502.568 30.3758 502.213 30.2737 501.906C30.1801 501.626 29.8642 500.998 29.1 500.998L29.1 502.998ZM28.4 502.898C28.4 502.992 28.3952 503.055 28.39 503.094C28.3844 503.136 28.3812 503.127 28.3965 503.089C28.411 503.053 28.4618 502.94 28.5911 502.833C28.738 502.71 28.9222 502.648 29.1 502.648L29.1 504.648C29.3777 504.648 29.6495 504.554 29.8714 504.369C30.0756 504.199 30.189 503.993 30.2535 503.832C30.3754 503.527 30.4 503.185 30.4 502.898L28.4 502.898ZM29.2104 502.654C25.5989 502.252 20.8898 501.802 15.0859 501.301L14.9141 503.294C20.7102 503.794 25.4011 504.243 28.9895 504.642L29.2104 502.654ZM15.0859 501.301C9.27968 500.801 4.89466 500.548 1.94998 500.548L1.94998 502.548C4.8053 502.548 9.12029 502.794 14.9141 503.294L15.0859 501.301ZM1.94998 500.548C1.85413 500.548 1.96591 500.524 2.09459 500.653C2.22327 500.782 2.19998 500.894 2.19998 500.798L0.199983 500.798C0.199983 501.202 0.301698 501.689 0.680375 502.067C1.05906 502.446 1.54584 502.548 1.94998 502.548L1.94998 500.548ZM2.19998 500.798C2.19998 500.714 2.20907 500.676 2.21038 500.672C2.211 500.669 2.19999 500.71 2.15571 500.763C2.10819 500.82 2.04817 500.86 1.99325 500.882C1.94444 500.902 1.92293 500.898 1.94998 500.898L1.94998 498.898C1.49305 498.898 0.985116 499.043 0.619264 499.482C0.28251 499.887 0.199983 500.383 0.199983 500.798L2.19998 500.798ZM1.94998 500.898C2.72282 500.898 3.42971 500.654 4.02697 500.165C4.60742 499.69 5.03517 499.025 5.35108 498.25C5.97537 496.718 6.24999 494.536 6.24999 491.798L4.24999 491.798C4.24999 494.46 3.9746 496.328 3.49889 497.495C3.2648 498.07 3.00504 498.417 2.7605 498.617C2.53276 498.804 2.27715 498.898 1.94998 498.898L1.94998 500.898ZM6.24936 491.833C6.54989 483.318 6.69998 473.256 6.69998 461.648L4.69998 461.648C4.69998 473.24 4.55007 483.277 4.25061 491.762L6.24936 491.833ZM6.69998 461.648C6.69998 455.736 6.59979 449.476 6.39952 442.867L4.40044 442.928C4.60017 449.519 4.69998 455.759 4.69998 461.648L6.69998 461.648ZM6.39987 442.883L6.24988 432.683L4.25009 432.712L4.40009 442.912L6.39987 442.883ZM6.24998 432.698C6.24998 429.079 6.00174 426.31 5.45934 424.465L3.54061 425.03C3.99822 426.586 4.24998 429.116 4.24998 432.698L6.24998 432.698ZM5.46349 424.48C4.89308 422.427 3.69258 420.974 1.81621 420.349L1.18375 422.246C2.30738 422.621 3.10687 423.469 3.53645 425.015L5.46349 424.48ZM1.74251 420.328C1.73797 420.326 1.75918 420.331 1.79218 420.353C1.82703 420.376 1.85879 420.408 1.88203 420.443C1.92634 420.509 1.89998 420.524 1.89998 420.398L-0.100024 420.398C-0.100024 420.771 -0.0263886 421.186 0.217924 421.552C0.475752 421.939 0.853197 422.167 1.25744 422.268L1.74251 420.328ZM1.89998 420.398C1.89998 420.254 1.93298 420.332 1.83084 420.46C1.77427 420.531 1.69969 420.585 1.62209 420.618C1.5506 420.647 1.50242 420.648 1.49998 420.648L1.49998 418.648C1.07927 418.648 0.605333 418.79 0.269109 419.21C-0.0330262 419.588 -0.100024 420.041 -0.100024 420.398L1.89998 420.398ZM1.39708 420.642C4.32418 420.945 8.7456 421.246 14.6492 421.546L14.7508 419.549C8.85435 419.249 4.47577 418.95 1.60288 418.653L1.39708 420.642ZM14.6492 421.546C20.5574 421.847 25.3761 421.998 29.1 421.998L29.1 419.998C25.4238 419.998 20.6425 419.849 14.7508 419.549L14.6492 421.546ZM29.1 421.998C28.9965 421.998 28.8852 421.978 28.7764 421.931C28.6687 421.885 28.5851 421.822 28.5241 421.761C28.4113 421.648 28.3783 421.545 28.3763 421.539C28.3718 421.525 28.3796 421.545 28.3873 421.614C28.3947 421.681 28.4 421.773 28.4 421.898L30.4 421.898C30.4 421.568 30.3758 421.213 30.2737 420.906C30.1801 420.626 29.8642 419.998 29.1 419.998L29.1 421.998ZM28.4 421.898C28.4 422.022 28.3947 422.115 28.3873 422.181C28.3796 422.251 28.3718 422.27 28.3763 422.256C28.3783 422.25 28.4113 422.147 28.5241 422.034C28.5851 421.973 28.6687 421.911 28.7764 421.864C28.8852 421.818 28.9965 421.798 29.1 421.798L29.1 423.798C29.8642 423.798 30.1801 423.17 30.2737 422.889C30.3758 422.583 30.4 422.227 30.4 421.898L28.4 421.898ZM29.0615 421.798C21.1999 422.101 15.4394 423.712 12.0668 426.867L13.4331 428.328C16.2605 425.683 21.4001 424.095 29.1384 423.797L29.0615 421.798ZM12.0785 426.857C8.57733 430.03 6.94998 435.169 6.94998 441.998L8.94998 441.998C8.94998 435.426 10.5226 430.966 13.4215 428.339L12.0785 426.857ZM6.94998 441.998C6.94998 446.5 7.14802 449.792 7.57143 451.804L9.52853 451.392C9.15193 449.603 8.94998 446.495 8.94998 441.998L6.94998 441.998ZM7.57143 451.804C8.01169 453.895 8.99057 455.498 10.6259 456.378L11.5741 454.617C10.6094 454.098 9.88827 453.1 9.52853 451.392L7.57143 451.804ZM10.6259 456.378C12.1604 457.204 14.5787 457.548 17.7 457.548L17.7 455.548C14.6213 455.548 12.6396 455.191 11.5741 454.617L10.6259 456.378ZM17.7 457.548L86.85 457.548L86.85 455.548L17.7 455.548L17.7 457.548ZM86.85 457.548C89.9817 457.548 92.429 457.201 94.0472 456.392L93.1528 454.603C91.9709 455.194 89.9182 455.548 86.85 455.548L86.85 457.548ZM94.0472 456.392C95.7851 455.523 96.8732 453.878 97.4201 451.69L95.4798 451.205C95.0268 453.017 94.2148 454.072 93.1528 454.603L94.0472 456.392ZM97.4201 451.69C97.9516 449.564 98.2 446.311 98.2 441.998L96.2 441.998C96.2 446.284 95.9484 449.331 95.4798 451.205L97.4201 451.69ZM98.2 441.998C98.2 442.098 98.1721 442.23 98.0883 442.355C98.0086 442.475 97.9158 442.533 97.8722 442.555C97.8325 442.574 97.8236 442.57 97.8706 442.562C97.9149 442.555 97.989 442.548 98.1 442.548L98.1 440.548C97.7489 440.548 97.3367 440.586 96.9778 440.766C96.7841 440.863 96.5788 441.014 96.4242 441.246C96.2653 441.484 96.2 441.748 96.2 441.998L98.2 441.998ZM98.1 442.548C98.211 442.548 98.285 442.555 98.3293 442.562C98.3763 442.57 98.3675 442.574 98.3278 442.555C98.2841 442.533 98.1913 442.475 98.1117 442.355C98.0278 442.23 98 442.098 98 441.998L100 441.998C100 441.748 99.9346 441.484 99.7758 441.246C99.6211 441.014 99.4158 440.863 99.2222 440.766C98.8632 440.586 98.4511 440.548 98.1 440.548L98.1 442.548ZM98 441.998C98 445.29 97.95 447.922 97.8512 449.898L99.8487 449.998C99.9499 447.974 100 445.305 100 441.998L98 441.998ZM97.8501 449.935L97.7001 461.635L99.6999 461.66L99.8499 449.96L97.8501 449.935ZM97.7001 461.661L97.8501 472.911L99.8499 472.884L99.6999 461.634L97.7001 461.661ZM97.8512 472.948C97.95 474.923 98 477.654 98 481.148L100 481.148C100 477.641 99.95 474.872 99.8487 472.848L97.8512 472.948ZM98 481.148C98 481.044 98.0201 480.933 98.0668 480.824C98.1129 480.716 98.1757 480.633 98.2366 480.572C98.3495 480.459 98.4528 480.426 98.4588 480.424C98.4724 480.419 98.4531 480.427 98.3833 480.435C98.317 480.442 98.2242 480.448 98.1 480.448L98.1 482.448C98.4292 482.448 98.7849 482.423 99.0912 482.321C99.3719 482.228 100 481.912 100 481.148L98 481.148ZM98.1 480.448C97.9758 480.448 97.8829 480.442 97.8167 480.435C97.7469 480.427 97.7276 480.419 97.7412 480.424C97.7472 480.426 97.8505 480.459 97.9633 480.572C98.0243 480.633 98.087 480.716 98.1332 480.824C98.1798 480.933 98.2 481.044 98.2 481.148L96.2 481.148C96.2 481.912 96.8281 482.228 97.1087 482.321C97.4151 482.423 97.7708 482.448 98.1 482.448L98.1 480.448ZM98.2 481.148C98.2 476.834 97.9516 473.581 97.4201 471.455L95.4798 471.94C95.9484 473.814 96.2 476.861 96.2 481.148L98.2 481.148ZM97.4201 471.455C96.8732 469.267 95.7851 467.622 94.0472 466.753L93.1528 468.542C94.2148 469.073 95.0268 470.128 95.4798 471.94L97.4201 471.455ZM94.0706 466.765C92.3536 465.85 89.9062 465.448 86.85 465.448L86.85 467.448C89.7937 467.448 91.8463 467.846 93.1294 468.53L94.0706 466.765ZM86.85 465.448L17.4 465.448L17.4 467.448L86.85 467.448L86.85 465.448ZM17.4 465.448C14.2914 465.448 11.8981 465.787 10.4461 466.634L11.4539 468.361C12.4019 467.808 14.3086 467.448 17.4 467.448L17.4 465.448ZM10.4759 466.617C8.82132 467.508 7.89484 469.135 7.56221 471.242L9.53774 471.554C9.80512 469.86 10.4786 468.887 11.4241 468.378L10.4759 466.617ZM7.57143 471.192C7.14802 473.203 6.94998 476.495 6.94998 480.998L8.94998 480.998C8.94998 476.5 9.15194 473.392 9.52853 471.604L7.57143 471.192ZM5.24998 293.679L4.24998 293.679L4.24998 293.691L4.25027 293.704L5.24998 293.679ZM10.5 302.829L9.86309 303.6L10.5 302.829ZM101.1 307.479L101.737 308.25L101.773 308.22L101.807 308.186L101.1 307.479ZM17.55 376.479L16.9132 375.708L16.8968 375.722L16.881 375.736L17.55 376.479ZM16.05 377.829L15.381 377.086L13.444 378.829L16.05 378.829L16.05 377.829ZM93.9 375.129L94.5163 375.917L94.5353 375.902L94.5536 375.886L93.9 375.129ZM98.85 371.829L97.8529 371.753L97.8507 371.781L97.8502 371.809L98.85 371.829ZM98.7 379.329L97.7002 379.309L97.6998 379.329L97.7002 379.349L98.7 379.329ZM98.85 386.979L97.8502 386.999L97.8507 387.025L97.8525 387.051L98.85 386.979ZM93.9 383.979L94.5332 383.205L94.5248 383.198L94.5163 383.192L93.9 383.979ZM12.45 381.279L12.45 380.279L12.0121 380.279L11.7152 380.601L12.45 381.279ZM5.24998 393.129L4.25035 393.102L4.24998 393.116L4.24998 393.129L5.24998 393.129ZM5.39998 387.579L4.40343 387.496L4.4011 387.524L4.40034 387.552L5.39998 387.579ZM5.39998 377.229L4.40252 377.301L5.39998 377.229ZM5.84997 372.279L6.44998 373.079L6.56426 372.994L6.64997 372.879L5.84997 372.279ZM8.09998 370.479L8.65468 371.311L8.65468 371.311L8.09998 370.479ZM13.05 366.879L13.6747 367.66L13.6813 367.655L13.05 366.879ZM84 309.129L84.6312 309.905L86.8127 308.129L84 308.129L84 309.129ZM10.5 311.829L11.0944 312.633L11.1054 312.625L11.1163 312.617L10.5 311.829ZM5.24998 320.529L4.25031 320.504L4.24998 320.516L4.24998 320.529L5.24998 320.529ZM5.39998 314.679L4.40219 314.613L4.40083 314.633L4.4003 314.654L5.39998 314.679ZM5.39997 299.829L4.40027 299.854L4.40074 299.873L4.40192 299.892L5.39997 299.829ZM6.24998 293.679C6.24998 293.779 6.22211 293.911 6.13827 294.037C6.05862 294.157 5.96582 294.214 5.92219 294.236C5.88247 294.256 5.87362 294.252 5.92062 294.244C5.96494 294.236 6.03896 294.229 6.14997 294.229L6.14997 292.229C5.7989 292.229 5.38673 292.268 5.02777 292.447C4.83414 292.544 4.62884 292.696 4.47418 292.928C4.31535 293.166 4.24998 293.429 4.24998 293.679L6.24998 293.679ZM6.14997 294.229C6.26099 294.229 6.33501 294.236 6.37933 294.244C6.42633 294.252 6.41748 294.256 6.37776 294.236C6.33413 294.214 6.24133 294.157 6.16167 294.037C6.07784 293.911 6.04997 293.779 6.04997 293.679L8.04997 293.679C8.04997 293.429 7.9846 293.166 7.82577 292.928C7.67111 292.696 7.46581 292.544 7.27218 292.447C6.91322 292.268 6.50104 292.229 6.14997 292.229L6.14997 294.229ZM6.04997 293.679C6.04997 298.05 7.25041 301.442 9.86309 303.6L11.1369 302.058C9.14954 300.417 8.04997 297.708 8.04997 293.679L6.04997 293.679ZM9.86309 303.6C12.4339 305.724 16.4735 306.679 21.75 306.679L21.75 304.679C16.6265 304.679 13.166 303.735 11.1369 302.058L9.86309 303.6ZM21.75 306.679L100.8 306.679L100.8 304.679L21.75 304.679L21.75 306.679ZM100.8 306.679C100.626 306.679 100.472 306.62 100.359 306.54C100.259 306.468 100.214 306.397 100.205 306.381C100.194 306.364 100.201 306.37 100.217 306.417C100.232 306.462 100.25 306.53 100.269 306.625L102.231 306.233C102.172 305.942 102.082 305.623 101.92 305.352C101.755 305.077 101.397 304.679 100.8 304.679L100.8 306.679ZM100.269 306.625C100.287 306.714 100.296 306.783 100.299 306.835C100.302 306.887 100.299 306.916 100.298 306.925C100.296 306.934 100.297 306.918 100.311 306.887C100.326 306.854 100.352 306.813 100.393 306.772L101.807 308.186C102.382 307.611 102.345 306.804 102.231 306.233L100.269 306.625ZM100.463 306.708L16.9132 375.708L18.1867 377.25L101.737 308.25L100.463 306.708ZM16.881 375.736L15.381 377.086L16.7189 378.573L18.2189 377.223L16.881 375.736ZM16.05 378.829L82.65 378.829L82.65 376.829L16.05 376.829L16.05 378.829ZM82.65 378.829C87.9185 378.829 91.9483 377.926 94.5163 375.917L93.2837 374.342C91.2516 375.932 87.7815 376.829 82.65 376.829L82.65 378.829ZM94.5536 375.886C97.0524 373.728 98.2 370.396 98.2 366.129L96.2 366.129C96.2 370.062 95.1475 372.731 93.2464 374.372L94.5536 375.886ZM98.2 366.129C98.2 366.229 98.1721 366.361 98.0883 366.487C98.0086 366.607 97.9158 366.664 97.8722 366.686C97.8325 366.706 97.8236 366.702 97.8706 366.694C97.9149 366.686 97.989 366.679 98.1 366.679L98.1 364.679C97.7489 364.679 97.3367 364.718 96.9778 364.897C96.7841 364.994 96.5788 365.146 96.4242 365.378C96.2653 365.616 96.2 365.879 96.2 366.129L98.2 366.129ZM98.1 366.679C98.211 366.679 98.285 366.686 98.3293 366.694C98.3763 366.702 98.3675 366.706 98.3278 366.686C98.2841 366.664 98.1913 366.607 98.1117 366.487C98.0278 366.361 98 366.229 98 366.129L100 366.129C100 365.879 99.9346 365.616 99.7758 365.378C99.6211 365.146 99.4158 364.994 99.2222 364.897C98.8632 364.718 98.4511 364.679 98.1 364.679L98.1 366.679ZM98 366.129C98 368.622 97.9499 370.492 97.8529 371.753L99.847 371.906C99.95 370.567 100 368.636 100 366.129L98 366.129ZM97.8502 371.809L97.7002 379.309L99.6998 379.349L99.8498 371.849L97.8502 371.809ZM97.7002 379.349L97.8502 386.999L99.8498 386.96L99.6998 379.31L97.7002 379.349ZM97.8525 387.051C97.9499 388.414 98 390.436 98 393.129L100 393.129C100 390.423 99.95 388.344 99.8474 386.908L97.8525 387.051ZM98 393.129C98 393.026 98.0201 392.915 98.0668 392.806C98.1129 392.698 98.1757 392.614 98.2366 392.553C98.3495 392.441 98.4528 392.408 98.4588 392.406C98.4724 392.401 98.4531 392.409 98.3833 392.417C98.317 392.424 98.2241 392.429 98.1 392.429L98.1 394.429C98.4292 394.429 98.7849 394.405 99.0912 394.303C99.3719 394.209 100 393.894 100 393.129L98 393.129ZM98.1 392.429C97.9758 392.429 97.8829 392.424 97.8167 392.417C97.7469 392.409 97.7276 392.401 97.7412 392.406C97.7472 392.408 97.8505 392.441 97.9633 392.553C98.0243 392.614 98.087 392.698 98.1332 392.806C98.1798 392.915 98.2 393.026 98.2 393.129L96.2 393.129C96.2 393.894 96.8281 394.209 97.1087 394.303C97.4151 394.405 97.7708 394.429 98.1 394.429L98.1 392.429ZM98.2 393.129C98.2 388.686 97.0641 385.276 94.5332 383.205L93.2668 384.753C95.1359 386.283 96.2 388.973 96.2 393.129L98.2 393.129ZM94.5163 383.192C91.9483 381.182 87.9185 380.279 82.65 380.279L82.65 382.279C87.7815 382.279 91.2516 383.176 93.2837 384.767L94.5163 383.192ZM82.65 380.279L12.45 380.279L12.45 382.279L82.65 382.279L82.65 380.279ZM11.7152 380.601C8.00165 384.624 6.04998 388.805 6.04998 393.129L8.04998 393.129C8.04998 389.454 9.6983 385.735 13.1848 381.958L11.7152 380.601ZM6.04998 393.129C6.04998 393.029 6.07785 392.897 6.16167 392.771C6.24133 392.652 6.33413 392.594 6.37776 392.572C6.41748 392.553 6.42633 392.557 6.37933 392.565C6.33501 392.572 6.261 392.579 6.14998 392.579L6.14998 394.579C6.50105 394.579 6.91323 394.541 7.27219 394.361C7.46582 394.264 7.67112 394.113 7.82578 393.881C7.98461 393.643 8.04998 393.379 8.04998 393.129L6.04998 393.129ZM6.14998 392.579C6.03896 392.579 5.96494 392.572 5.92063 392.565C5.87362 392.557 5.88248 392.553 5.9222 392.572C5.96582 392.594 6.05862 392.652 6.13828 392.771C6.22211 392.897 6.24998 393.029 6.24998 393.129L4.24998 393.129C4.24998 393.379 4.31535 393.643 4.47418 393.881C4.62884 394.113 4.83414 394.264 5.02777 394.361C5.38673 394.541 5.7989 394.579 6.14998 394.579L6.14998 392.579ZM6.24961 393.156L6.39961 387.606L4.40034 387.552L4.25035 393.102L6.24961 393.156ZM6.39653 387.662C6.4999 386.422 6.54998 384.74 6.54998 382.629L4.54998 382.629C4.54998 384.719 4.50005 386.337 4.40343 387.496L6.39653 387.662ZM6.54998 382.629C6.54998 380.417 6.4998 378.591 6.39744 377.158L4.40252 377.301C4.50016 378.668 4.54998 380.441 4.54998 382.629L6.54998 382.629ZM6.39744 377.158C6.29808 375.767 6.24998 374.694 6.24998 373.929L4.24998 373.929C4.24998 374.764 4.30188 375.892 4.40252 377.301L6.39744 377.158ZM6.24998 373.929C6.24998 373.254 6.42276 373.1 6.44998 373.079L5.24997 371.479C4.4772 372.059 4.24998 373.005 4.24998 373.929L6.24998 373.929ZM6.64997 372.879C6.72222 372.783 6.9044 372.596 7.26217 372.31C7.60643 372.035 8.06811 371.702 8.65468 371.311L7.54528 369.647C6.93185 370.056 6.41852 370.424 6.01278 370.748C5.62054 371.062 5.27772 371.376 5.04998 371.679L6.64997 372.879ZM8.65468 371.311C10.4758 370.097 12.1495 368.88 13.6747 367.66L12.4253 366.098C10.9505 367.278 9.32416 368.461 7.54528 369.647L8.65468 371.311ZM13.6813 367.655L84.6312 309.905L83.3687 308.354L12.4187 366.104L13.6813 367.655ZM84 308.129L21.75 308.129L21.75 310.129L84 310.129L84 308.129ZM21.75 308.129C16.4814 308.129 12.4516 309.032 9.88366 311.042L11.1163 312.617C13.1483 311.026 16.6185 310.129 21.75 310.129L21.75 308.129ZM9.90558 311.025C7.25256 312.986 6.04997 316.258 6.04997 320.529L8.04997 320.529C8.04997 316.601 9.14739 314.073 11.0944 312.633L9.90558 311.025ZM6.04997 320.529C6.04997 320.426 6.07012 320.315 6.11676 320.206C6.16291 320.098 6.22566 320.014 6.28661 319.953C6.39946 319.841 6.50279 319.808 6.50874 319.806C6.52236 319.801 6.50308 319.809 6.43329 319.817C6.36702 319.824 6.27414 319.829 6.14998 319.829L6.14998 321.829C6.47916 321.829 6.83487 321.805 7.14121 321.703C7.42186 321.609 8.04997 321.294 8.04997 320.529L6.04997 320.529ZM6.14998 319.829C6.0258 319.829 5.93293 319.824 5.86666 319.817C5.79687 319.809 5.7776 319.801 5.79121 319.806C5.79717 319.808 5.90049 319.841 6.01334 319.953C6.0743 320.014 6.13704 320.098 6.18319 320.206C6.22983 320.315 6.24998 320.426 6.24998 320.529L4.24998 320.529C4.24998 321.294 4.87809 321.609 5.15875 321.703C5.46508 321.805 5.82079 321.829 6.14998 321.829L6.14998 319.829ZM6.24965 320.555L6.39965 314.705L4.4003 314.654L4.25031 320.504L6.24965 320.555ZM6.39776 314.746C6.59849 311.735 6.69997 309.26 6.69997 307.329L4.69997 307.329C4.69997 309.198 4.60145 311.624 4.40219 314.613L6.39776 314.746ZM6.69997 307.329C6.69997 305.498 6.59849 302.974 6.39803 299.767L4.40192 299.892C4.60146 303.084 4.69997 305.56 4.69997 307.329L6.69997 307.329ZM6.39968 299.805L6.24968 293.655L4.25027 293.704L4.40027 299.854L6.39968 299.805ZM76.65 204.045L76.8303 203.061L76.7409 203.045L76.65 203.045L76.65 204.045ZM76.5 202.695L77.3944 203.142L77.4262 203.079L77.4487 203.011L76.5 202.695ZM76.95 202.245L77.0914 201.255L77.021 201.245L76.95 201.245L76.95 202.245ZM98.55 204.195L99.2571 203.488L98.55 204.195ZM96.45 260.595L95.4865 260.863L95.4885 260.87L95.4906 260.877L96.45 260.595ZM93.6 256.995L93.1771 257.901L93.1915 257.908L93.2061 257.914L93.6 256.995ZM10.8 256.995L11.1939 257.914L11.2209 257.902L11.2472 257.889L10.8 256.995ZM7.94997 260.595L8.89296 260.928L8.90434 260.896L8.91348 260.863L7.94997 260.595ZM6.59996 207.195L6.59996 208.195L6.60809 208.195L6.61622 208.195L6.59996 207.195ZM25.05 206.895L25.05 205.895L25.0418 205.895L25.0337 205.895L25.05 206.895ZM25.65 207.645L26.65 207.645L26.65 207.546L26.6306 207.449L25.65 207.645ZM25.2 208.545L25.2565 209.543L25.3897 209.536L25.5162 209.494L25.2 208.545ZM12.9 213.345L13.595 214.064L13.6011 214.058L13.6071 214.052L12.9 213.345ZM9.29997 241.845L10.2544 241.547L10.249 241.529L10.243 241.512L9.29997 241.845ZM12.15 245.295L11.7028 246.189L11.7167 246.196L11.7309 246.203L12.15 245.295ZM48.6 246.195L48.6 247.195L49.6 247.195L49.6 246.195L48.6 246.195ZM46.2 217.695L45.4045 218.301L45.4117 218.31L45.4191 218.32L46.2 217.695ZM38.1 212.745L38.1123 211.745L38.1 211.745L38.1 212.745ZM50.25 212.895L50.2376 213.895L50.25 213.895L50.25 212.895ZM56.85 212.745L56.8291 211.745L56.8063 211.746L56.7835 211.747L56.85 212.745ZM64.05 212.595L64.05 211.595L64.0396 211.595L64.0291 211.595L64.05 212.595ZM54.6 217.695L55.3415 218.366L55.3493 218.357L55.3568 218.349L54.6 217.695ZM51.75 246.195L50.75 246.195L50.75 247.195L51.75 247.195L51.75 246.195ZM92.4 245.295L92.819 246.203L92.4 245.295ZM95.1 241.995L94.1455 241.697L95.1 241.995ZM90.75 210.495L90.0646 211.223L90.75 210.495ZM76.65 203.045C76.775 203.045 76.9289 203.079 77.0734 203.175C77.2117 203.268 77.2851 203.379 77.3194 203.448C77.3518 203.512 77.3567 203.553 77.3551 203.543C77.354 203.536 77.35 203.506 77.35 203.445L75.35 203.445C75.35 203.696 75.3761 204.033 75.5305 204.342C75.6149 204.511 75.7508 204.697 75.964 204.839C76.1835 204.986 76.425 205.045 76.65 205.045L76.65 203.045ZM77.35 203.445C77.35 203.25 77.3834 203.164 77.3944 203.142L75.6055 202.248C75.4166 202.626 75.35 203.04 75.35 203.445L77.35 203.445ZM77.4487 203.011C77.4717 202.942 77.4699 202.989 77.3946 203.065C77.3524 203.107 77.2891 203.155 77.2033 203.192C77.1163 203.229 77.0284 203.245 76.95 203.245L76.95 201.245C76.0857 201.245 75.6948 201.948 75.5513 202.379L77.4487 203.011ZM76.8086 203.235C83.1591 204.142 89.8066 204.595 96.75 204.595L96.75 202.595C89.8934 202.595 83.3408 202.148 77.0914 201.255L76.8086 203.235ZM96.75 204.595C97.3958 204.595 97.6966 204.756 97.8429 204.902L99.2571 203.488C98.6034 202.834 97.7041 202.595 96.75 202.595L96.75 204.595ZM97.8429 204.902C97.819 204.878 97.8674 204.913 97.9173 205.112C97.9657 205.306 98 205.593 98 205.995L100 205.995C100 205.497 99.9592 205.034 99.8576 204.627C99.7576 204.227 99.581 203.812 99.2571 203.488L97.8429 204.902ZM98 205.995L98 268.845L100 268.845L100 205.995L98 205.995ZM98 268.845C98 268.741 98.0201 268.63 98.0668 268.521C98.1129 268.414 98.1757 268.33 98.2366 268.269C98.3495 268.156 98.4528 268.123 98.4587 268.121C98.4724 268.117 98.4531 268.125 98.3833 268.132C98.317 268.14 98.2241 268.145 98.1 268.145L98.1 270.145C98.4292 270.145 98.7849 270.121 99.0912 270.019C99.3718 269.925 100 269.609 100 268.845L98 268.845ZM98.1 268.145C97.9758 268.145 97.8829 268.14 97.8167 268.132C97.7469 268.125 97.7276 268.117 97.7412 268.121C97.7472 268.123 97.8505 268.156 97.9633 268.269C98.0243 268.33 98.087 268.414 98.1332 268.521C98.1798 268.63 98.2 268.741 98.2 268.845L96.2 268.845C96.2 269.609 96.8281 269.925 97.1087 270.019C97.4151 270.121 97.7708 270.145 98.1 270.145L98.1 268.145ZM98.2 268.845C98.2 265.033 97.9526 262.16 97.4093 260.313L95.4906 260.877C95.9474 262.43 96.2 265.057 96.2 268.845L98.2 268.845ZM97.4135 260.327C96.8526 258.308 95.7357 256.822 93.9939 256.076L93.2061 257.914C94.2643 258.368 95.0474 259.282 95.4865 260.863L97.4135 260.327ZM94.0229 256.089C92.3227 255.295 89.8962 254.945 86.85 254.945L86.85 256.945C89.8038 256.945 91.8772 257.294 93.1771 257.901L94.0229 256.089ZM86.85 254.945L17.4 254.945L17.4 256.945L86.85 256.945L86.85 254.945ZM17.4 254.945C14.362 254.945 11.968 255.293 10.3528 256.1L11.2472 257.889C12.4319 257.297 14.438 256.945 17.4 256.945L17.4 254.945ZM10.4061 256.076C8.66426 256.822 7.54737 258.308 6.98645 260.327L8.91348 260.863C9.35257 259.282 10.1357 258.368 11.1939 257.914L10.4061 256.076ZM7.00698 260.262C6.34669 262.133 6.04997 265.029 6.04997 268.845L8.04997 268.845C8.04997 265.061 8.35324 262.457 8.89296 260.928L7.00698 260.262ZM6.04997 268.845C6.04997 268.741 6.07012 268.63 6.11676 268.521C6.16291 268.414 6.22566 268.33 6.28661 268.269C6.39946 268.156 6.50279 268.123 6.50874 268.121C6.52236 268.117 6.50308 268.125 6.43329 268.132C6.36702 268.14 6.27414 268.145 6.14997 268.145L6.14997 270.145C6.47916 270.145 6.83486 270.121 7.1412 270.019C7.42185 269.925 8.04997 269.609 8.04997 268.845L6.04997 268.845ZM6.14997 268.145C6.0258 268.145 5.93292 268.14 5.86666 268.132C5.79687 268.125 5.77759 268.117 5.7912 268.121C5.79716 268.123 5.90048 268.156 6.01333 268.269C6.07429 268.33 6.13703 268.414 6.18318 268.521C6.22983 268.63 6.24998 268.741 6.24998 268.845L4.24998 268.845C4.24998 269.609 4.8781 269.925 5.15875 270.019C5.46508 270.121 5.82079 270.145 6.14997 270.145L6.14997 268.145ZM6.24998 268.845L6.24997 208.545L4.24997 208.545L4.24998 268.845L6.24998 268.845ZM6.24997 208.545C6.24997 208.249 6.32326 208.211 6.29458 208.239C6.2659 208.268 6.30412 208.195 6.59996 208.195L6.59996 206.195C5.99582 206.195 5.35904 206.347 4.88036 206.825C4.40168 207.304 4.24997 207.941 4.24997 208.545L6.24997 208.545ZM6.61622 208.195L25.0662 207.895L25.0337 205.895L6.58371 206.195L6.61622 208.195ZM25.05 207.895C24.9814 207.895 24.8954 207.879 24.809 207.836C24.7245 207.794 24.6714 207.741 24.6441 207.707C24.6191 207.676 24.6177 207.663 24.6277 207.688C24.6376 207.713 24.6534 207.761 24.6694 207.841L26.6306 207.449C26.5659 207.125 26.4479 206.76 26.2058 206.458C25.9307 206.114 25.5265 205.895 25.05 205.895L25.05 207.895ZM24.65 207.645C24.65 207.721 24.6441 207.771 24.639 207.798C24.6338 207.825 24.6313 207.821 24.643 207.798C24.6559 207.772 24.6834 207.729 24.7325 207.685C24.7825 207.641 24.8369 207.612 24.8837 207.596L25.5162 209.494C26.4464 209.184 26.65 208.283 26.65 207.645L24.65 207.645ZM25.1435 207.547C19.6723 207.856 15.3127 209.518 12.1929 212.638L13.6071 214.052C16.2872 211.372 20.1277 209.834 25.2565 209.543L25.1435 207.547ZM12.205 212.626C8.98024 215.743 7.39997 219.868 7.39997 224.895L9.39997 224.895C9.39997 220.322 10.8197 216.747 13.595 214.064L12.205 212.626ZM7.39997 224.895L7.39997 234.045L9.39997 234.045L9.39997 224.895L7.39997 224.895ZM7.39997 234.045C7.39997 237.572 7.69854 240.312 8.35698 242.178L10.243 241.512C9.70139 239.978 9.39997 237.517 9.39997 234.045L7.39997 234.045ZM8.34549 242.143C8.92014 243.982 10.0411 245.359 11.7028 246.189L12.5972 244.401C11.4588 243.831 10.6798 242.908 10.2544 241.547L8.34549 242.143ZM11.7309 246.203C13.2329 246.896 15.4112 247.195 18.15 247.195L18.15 245.195C15.4888 245.195 13.6671 244.894 12.569 244.387L11.7309 246.203ZM18.15 247.195L48.6 247.195L48.6 245.195L18.15 245.195L18.15 247.195ZM49.6 246.195L49.6 227.895L47.6 227.895L47.6 246.195L49.6 246.195ZM49.6 227.895C49.6 223.04 48.8021 219.347 46.9808 217.07L45.4191 218.32C46.7978 220.043 47.6 223.149 47.6 227.895L49.6 227.895ZM46.9954 217.089C45.1333 214.645 42.068 213.545 38.1 213.545L38.1 215.545C41.732 215.545 44.0666 216.545 45.4045 218.301L46.9954 217.089ZM38.1 213.545C38.2034 213.545 38.3147 213.565 38.4236 213.612C38.5313 213.658 38.6149 213.721 38.6758 213.782C38.7887 213.894 38.8217 213.998 38.8237 214.004C38.8282 214.017 38.8204 213.998 38.8126 213.928C38.8052 213.862 38.8 213.769 38.8 213.645L36.8 213.645C36.8 213.974 36.8242 214.33 36.9263 214.636C37.0198 214.917 37.3357 215.545 38.1 215.545L38.1 213.545ZM38.8 213.645C38.8 213.521 38.8052 213.428 38.8126 213.362C38.8204 213.292 38.8282 213.273 38.8237 213.286C38.8217 213.292 38.7887 213.395 38.6758 213.508C38.6149 213.569 38.5313 213.632 38.4236 213.678C38.3147 213.725 38.2034 213.745 38.1 213.745L38.1 211.745C37.3357 211.745 37.0198 212.373 36.9263 212.654C36.8242 212.96 36.8 213.316 36.8 213.645L38.8 213.645ZM38.0876 213.745L50.2376 213.895L50.2623 211.895L38.1123 211.745L38.0876 213.745ZM50.25 213.895C53.1558 213.895 55.3825 213.845 56.9165 213.743L56.7835 211.747C55.3174 211.845 53.1441 211.895 50.25 211.895L50.25 213.895ZM56.8708 213.745L64.0708 213.595L64.0291 211.595L56.8291 211.745L56.8708 213.745ZM64.05 213.595C63.9465 213.595 63.8352 213.575 63.7264 213.528C63.6187 213.482 63.5351 213.419 63.4741 213.358C63.3613 213.245 63.3283 213.142 63.3263 213.136C63.3218 213.123 63.3296 213.142 63.3373 213.212C63.3447 213.278 63.35 213.371 63.35 213.495L65.35 213.495C65.35 213.166 65.3258 212.81 65.2237 212.504C65.1301 212.223 64.8142 211.595 64.05 211.595L64.05 213.595ZM63.35 213.495C63.35 213.619 63.3447 213.712 63.3373 213.778C63.3296 213.848 63.3218 213.867 63.3263 213.854C63.3283 213.848 63.3613 213.744 63.4741 213.632C63.5351 213.571 63.6187 213.508 63.7264 213.462C63.8352 213.415 63.9465 213.395 64.05 213.395L64.05 215.395C64.8142 215.395 65.1301 214.767 65.2237 214.486C65.3258 214.18 65.35 213.824 65.35 213.495L63.35 213.495ZM64.05 213.395C59.5098 213.395 56.0133 214.529 53.8432 217.041L55.3568 218.349C56.9867 216.461 59.7901 215.395 64.05 215.395L64.05 213.395ZM53.8584 217.024C51.7045 219.405 50.75 223.269 50.75 228.345L52.75 228.345C52.75 223.42 53.6955 220.185 55.3415 218.366L53.8584 217.024ZM50.75 228.345L50.75 246.195L52.75 246.195L52.75 228.345L50.75 228.345ZM51.75 247.195L86.25 247.195L86.25 245.195L51.75 245.195L51.75 247.195ZM86.25 247.195C89.0824 247.195 91.314 246.898 92.819 246.203L91.9809 244.387C90.8859 244.892 89.0176 245.195 86.25 245.195L86.25 247.195ZM92.819 246.203C94.42 245.464 95.4859 244.112 96.0544 242.293L94.1455 241.697C93.714 243.077 92.9799 243.926 91.9809 244.387L92.819 246.203ZM96.0544 242.293C96.6019 240.541 96.85 237.914 96.85 234.495L94.85 234.495C94.85 237.875 94.598 240.249 94.1455 241.697L96.0544 242.293ZM96.85 234.495L96.85 222.495L94.85 222.495L94.85 234.495L96.85 234.495ZM96.85 222.495C96.85 217.428 95.0424 213.162 91.4353 209.767L90.0646 211.223C93.2575 214.228 94.85 217.962 94.85 222.495L96.85 222.495ZM91.4353 209.767C87.8581 206.4 82.9626 204.186 76.8303 203.061L76.4696 205.028C82.3373 206.104 86.8419 208.19 90.0646 211.223L91.4353 209.767ZM86.25 110.729L86.8703 111.513L86.8802 111.505L86.25 110.729ZM50.4 135.629L49.8606 134.786L49.2304 135.19L49.44 135.909L50.4 135.629ZM51.15 150.479L50.1529 150.402L50.0701 151.479L51.15 151.479L51.15 150.479ZM93.6 149.578L93.9939 150.498L93.9939 150.498L93.6 149.578ZM96.45 146.129L97.4093 146.411L97.4115 146.403L97.4135 146.396L96.45 146.129ZM98.85 145.078L97.8515 145.023L97.8504 145.044L97.8501 145.064L98.85 145.078ZM98.7 155.429L97.7001 155.414L97.6999 155.429L97.7001 155.443L98.7 155.429ZM98.85 165.629L97.8501 165.643L97.8504 165.664L97.8515 165.684L98.85 165.629ZM96.45 164.879L97.4135 164.611L97.4067 164.586L97.3987 164.562L96.45 164.879ZM93.45 161.129L93.0028 162.023L93.45 161.129ZM10.8 161.129L11.1939 162.048L11.2209 162.036L11.2472 162.023L10.8 161.129ZM7.94996 164.729L8.89295 165.061L8.90433 165.029L8.91348 164.996L7.94996 164.729ZM5.24997 172.979L4.25018 172.958L4.24997 172.968L4.24997 172.979L5.24997 172.979ZM5.39997 165.629L4.4011 165.581L4.40045 165.595L4.40018 165.608L5.39997 165.629ZM5.24997 146.129L6.24657 146.045L6.24561 146.035L5.24997 146.129ZM9.74997 118.679L10.55 119.279L9.74997 118.679ZM37.2 116.279L37.7547 115.446L37.7456 115.44L37.2 116.279ZM47.25 127.379L46.3713 127.856L46.8949 128.819L47.8062 128.21L47.25 127.379ZM77.1 105.929L77.7273 106.707L77.7326 106.703L77.1 105.929ZM92.55 90.4785L93.3649 91.058L93.3692 91.0519L93.3735 91.0458L92.55 90.4785ZM47.4 150.479L47.4 151.479L48.2527 151.479L48.3874 150.637L47.4 150.479ZM43.65 126.778L44.369 126.083L44.3631 126.077L44.3571 126.071L43.65 126.778ZM7.79997 146.729L8.75574 146.434L8.7492 146.413L8.74171 146.392L7.79997 146.729ZM10.65 149.578L11.0439 148.659L11.0327 148.655L11.0214 148.65L10.65 149.578ZM98.2 77.2785C98.2 77.382 98.1798 77.4933 98.1332 77.6021C98.087 77.7098 98.0243 77.7934 97.9633 77.8544C97.8505 77.9672 97.7472 78.0002 97.7412 78.0022C97.7276 78.0067 97.7469 77.9989 97.8166 77.9911C97.8829 77.9838 97.9758 77.9785 98.1 77.9785L98.1 75.9785C97.7708 75.9785 97.4151 76.0027 97.1087 76.1048C96.8281 76.1984 96.2 76.5143 96.2 77.2785L98.2 77.2785ZM98.1 77.9785C98.2241 77.9785 98.317 77.9838 98.3833 77.9911C98.4531 77.9989 98.4723 78.0067 98.4587 78.0022C98.4528 78.0002 98.3495 77.9672 98.2366 77.8544C98.1757 77.7934 98.1129 77.7098 98.0668 77.6021C98.0201 77.4933 98 77.382 98 77.2785L100 77.2785C100 76.5143 99.3719 76.1984 99.0912 76.1048C98.7849 76.0027 98.4292 75.9785 98.1 75.9785L98.1 77.9785ZM98 77.2785L98 96.6285L100 96.6285L100 77.2785L98 77.2785ZM98 96.6285C98 96.9919 97.8365 97.5698 97.3419 98.4077C96.8576 99.2281 96.1086 100.21 95.0707 101.358C92.9961 103.652 89.8541 106.515 85.6197 109.952L86.8802 111.505C91.1459 108.042 94.3788 105.105 96.5542 102.699C97.6413 101.497 98.4861 100.404 99.0643 99.4243C99.6322 98.4622 100 97.5151 100 96.6285L98 96.6285ZM85.6297 109.944C77.067 116.715 65.1482 124.994 49.8606 134.786L50.9393 136.471C66.2517 126.663 78.2329 118.342 86.8702 111.513L85.6297 109.944ZM49.44 135.909C50.1088 138.202 50.45 140.805 50.45 143.729L52.45 143.729C52.45 140.652 52.0912 137.856 51.36 135.349L49.44 135.909ZM50.45 143.729C50.45 145.596 50.3516 147.819 50.1529 150.402L52.147 150.555C52.3483 147.938 52.45 145.661 52.45 143.729L50.45 143.729ZM51.15 151.479L86.85 151.479L86.85 149.479L51.15 149.479L51.15 151.479ZM86.85 151.479C89.9742 151.479 92.3969 151.182 93.9939 150.498L93.2061 148.659C92.003 149.175 89.9258 149.479 86.85 149.479L86.85 151.479ZM93.9939 150.498C95.7142 149.76 96.8405 148.345 97.4093 146.411L95.4906 145.846C95.0594 147.312 94.2858 148.197 93.2061 148.659L93.9939 150.498ZM97.4135 146.396C97.9516 144.459 98.2 141.546 98.2 137.729L96.2 137.729C96.2 141.511 95.9484 144.198 95.4865 145.861L97.4135 146.396ZM98.2 137.729C98.2 137.828 98.1721 137.961 98.0883 138.086C98.0086 138.206 97.9158 138.264 97.8722 138.285C97.8325 138.305 97.8236 138.301 97.8706 138.293C97.9149 138.286 97.989 138.278 98.1 138.278L98.1 136.278C97.7489 136.278 97.3367 136.317 96.9778 136.497C96.7841 136.593 96.5788 136.745 96.4242 136.977C96.2653 137.215 96.2 137.479 96.2 137.729L98.2 137.729ZM98.1 138.278C98.211 138.278 98.285 138.286 98.3293 138.293C98.3763 138.301 98.3675 138.305 98.3278 138.285C98.2841 138.264 98.1913 138.206 98.1117 138.086C98.0278 137.961 98 137.828 98 137.729L100 137.729C100 137.479 99.9346 137.215 99.7758 136.977C99.6211 136.745 99.4158 136.593 99.2222 136.497C98.8632 136.317 98.4511 136.278 98.1 136.278L98.1 138.278ZM98 137.729C98 140.821 97.95 143.25 97.8515 145.023L99.8484 145.134C99.9499 143.307 100 140.836 100 137.729L98 137.729ZM97.8501 145.064L97.7001 155.414L99.6999 155.443L99.8499 145.093L97.8501 145.064ZM97.7001 155.443L97.8501 165.643L99.8499 165.614L99.6999 155.414L97.7001 155.443ZM97.8515 165.684C97.95 167.456 98 169.985 98 173.278L100 173.278C100 169.972 99.95 167.401 99.8484 165.573L97.8515 165.684ZM98 173.278C98 173.175 98.0201 173.064 98.0668 172.955C98.1129 172.847 98.1757 172.764 98.2366 172.703C98.3495 172.59 98.4528 172.557 98.4587 172.555C98.4724 172.55 98.4531 172.558 98.3833 172.566C98.317 172.573 98.2241 172.578 98.1 172.578L98.1 174.578C98.4292 174.578 98.7849 174.554 99.0912 174.452C99.3718 174.359 100 174.043 100 173.278L98 173.278ZM98.1 172.578C97.9758 172.578 97.8829 172.573 97.8167 172.566C97.7469 172.558 97.7276 172.55 97.7412 172.555C97.7471 172.557 97.8505 172.59 97.9633 172.703C98.0243 172.764 98.087 172.847 98.1332 172.955C98.1798 173.064 98.2 173.175 98.2 173.278L96.2 173.278C96.2 174.043 96.8281 174.359 97.1087 174.452C97.4151 174.554 97.7708 174.578 98.1 174.578L98.1 172.578ZM98.2 173.278C98.2 169.461 97.9516 166.548 97.4135 164.611L95.4865 165.146C95.9484 166.809 96.2 169.496 96.2 173.278L98.2 173.278ZM97.3987 164.562C96.7338 162.568 95.5832 161.077 93.8972 160.234L93.0028 162.023C94.1167 162.58 94.9662 163.589 95.5013 165.195L97.3987 164.562ZM93.8972 160.234C92.2819 159.426 89.888 159.078 86.85 159.078L86.85 161.078C89.812 161.078 91.818 161.431 93.0028 162.023L93.8972 160.234ZM86.85 159.078L17.4 159.078L17.4 161.078L86.85 161.078L86.85 159.078ZM17.4 159.078C14.362 159.078 11.968 159.426 10.3528 160.234L11.2472 162.023C12.4319 161.431 14.4379 161.078 17.4 161.078L17.4 159.078ZM10.4061 160.209C8.66426 160.956 7.54736 162.442 6.98644 164.461L8.91348 164.996C9.35256 163.415 10.1357 162.501 11.1939 162.048L10.4061 160.209ZM7.00697 164.396C6.34669 166.266 6.04997 169.162 6.04997 172.979L8.04997 172.979C8.04997 169.195 8.35324 166.591 8.89295 165.061L7.00697 164.396ZM6.04997 172.979C6.04997 172.879 6.07784 172.746 6.16167 172.621C6.24132 172.501 6.33412 172.443 6.37775 172.422C6.41747 172.402 6.42633 172.406 6.37932 172.414C6.335 172.421 6.26099 172.429 6.14997 172.429L6.14997 174.429C6.50104 174.429 6.91322 174.39 7.27218 174.21C7.46581 174.114 7.67111 173.962 7.82577 173.73C7.9846 173.492 8.04997 173.229 8.04997 172.979L6.04997 172.979ZM6.14997 172.429C6.03895 172.429 5.96493 172.421 5.92062 172.414C5.87361 172.406 5.88247 172.402 5.92219 172.422C5.96581 172.443 6.05861 172.501 6.13827 172.621C6.2221 172.746 6.24997 172.879 6.24997 172.979L4.24997 172.979C4.24997 173.229 4.31534 173.492 4.47417 173.73C4.62883 173.962 4.83413 174.114 5.02776 174.21C5.38672 174.39 5.7989 174.429 6.14997 174.429L6.14997 172.429ZM6.24976 172.999L6.39976 165.649L4.40018 165.608L4.25018 172.958L6.24976 172.999ZM6.39884 165.676C6.59919 161.469 6.69996 158.051 6.69996 155.429L4.69996 155.429C4.69996 158.006 4.60074 161.388 4.4011 165.581L6.39884 165.676ZM6.69996 155.429C6.69996 153.61 6.64946 151.889 6.54802 150.266L4.55192 150.391C4.65047 151.968 4.69996 153.647 4.69996 155.429L6.69996 155.429ZM6.54802 150.266C6.44772 148.661 6.34724 147.254 6.24652 146.045L4.25342 146.212C4.3527 147.403 4.45221 148.796 4.55192 150.391L6.54802 150.266ZM6.24561 146.035C5.94786 142.859 5.79997 139.991 5.79997 137.429L3.79997 137.429C3.79997 140.066 3.95207 142.998 4.25433 146.222L6.24561 146.035ZM5.79997 137.429C5.79997 129.447 7.4283 123.441 10.55 119.279L8.94997 118.078C5.47163 122.716 3.79997 129.21 3.79997 137.429L5.79997 137.429ZM10.55 119.279C13.6457 115.151 17.9381 113.078 23.55 113.078L23.55 111.078C17.3618 111.078 12.4542 113.406 8.94997 118.078L10.55 119.279ZM23.55 113.078C28.1427 113.078 32.5049 114.415 36.6543 117.117L37.7456 115.44C33.295 112.542 28.5573 111.078 23.55 111.078L23.55 113.078ZM36.6453 117.111C40.705 119.817 43.9459 123.393 46.3713 127.856L48.1286 126.901C45.554 122.164 42.0949 118.34 37.7547 115.446L36.6453 117.111ZM47.8062 128.21C60.5171 119.702 70.4945 112.534 77.7273 106.707L76.4726 105.15C69.3055 110.923 59.3828 118.055 46.6938 126.547L47.8062 128.21ZM77.7326 106.703C84.8627 100.878 90.0903 95.663 93.3649 91.058L91.735 89.899C88.6096 94.2941 83.5372 99.3787 76.4673 105.154L77.7326 106.703ZM93.3735 91.0458C96.5573 86.4241 98.2 81.8298 98.2 77.2785L96.2 77.2785C96.2 81.3272 94.7426 85.5329 91.7265 89.9112L93.3735 91.0458ZM48.3874 150.637C48.7981 148.07 49 145.065 49 141.629L47 141.629C47 144.992 46.8019 147.887 46.4125 150.32L48.3874 150.637ZM49 141.629C49 134.629 47.5361 129.36 44.369 126.083L42.931 127.474C45.5638 130.197 47 134.828 47 141.629L49 141.629ZM44.3571 126.071C41.0812 122.795 35.8064 121.279 28.8 121.279L28.8 123.279C35.5935 123.279 40.2188 124.762 42.9429 127.486L44.3571 126.071ZM28.8 121.279C21.4339 121.279 15.723 122.824 11.8437 126.088C7.93121 129.38 6.04997 134.275 6.04997 140.578L8.04997 140.578C8.04997 134.682 9.79372 130.427 13.1313 127.619C16.5019 124.783 21.666 123.279 28.8 123.279L28.8 121.279ZM6.04997 140.578C6.04997 143.315 6.30016 145.502 6.85822 147.065L8.74171 146.392C8.29978 145.155 8.04997 143.242 8.04997 140.578L6.04997 140.578ZM6.84419 147.023C7.35014 148.667 8.55657 149.818 10.2786 150.507L11.0214 148.65C9.74336 148.139 9.04979 147.39 8.75574 146.434L6.84419 147.023ZM10.256 150.498C11.8575 151.184 14.386 151.479 17.7 151.479L17.7 149.479C14.4139 149.479 12.2424 149.173 11.0439 148.659L10.256 150.498ZM17.7 151.479L47.4 151.479L47.4 149.479L17.7 149.479L17.7 151.479ZM33 41.8375L32.4519 41.001L33 41.8375ZM40.35 34.9375L41.1535 35.5327L41.1608 35.5229L41.1678 35.513L40.35 34.9375ZM47.7 23.5375L48.5529 24.0597L48.5589 24.0496L47.7 23.5375ZM55.5 11.3875L56.3099 11.974L55.5 11.3875ZM63.6 4.03747L64.1183 4.8927L64.1336 4.88342L64.1486 4.87353L63.6 4.03747ZM97.5 15.1375L98.4021 14.706L98.3982 14.6979L97.5 15.1375ZM95.55 52.9375L96.4075 53.452L96.4178 53.4349L96.4273 53.4173L95.55 52.9375ZM94.5 53.9875L94.7425 54.9576L94.849 54.931L94.9472 54.8819L94.5 53.9875ZM92.7 54.2875L92.7951 55.283L92.8096 55.2815L92.824 55.2798L92.7 54.2875ZM72.3 56.2375L72.2048 55.2421L72.1302 55.2491L72.0574 55.2673L72.3 56.2375ZM71.55 55.6375L70.5636 55.8019L70.5662 55.8178L70.5694 55.8336L71.55 55.6375ZM72 54.5875L71.783 53.6113L71.7702 53.6141L71.7574 53.6174L72 54.5875ZM90.6 45.7375L91.2373 46.5082L91.2459 46.5008L90.6 45.7375ZM94.35 15.7375L95.1331 15.1156L95.1308 15.1128L94.35 15.7375ZM69.45 13.4875L68.9317 12.6323L69.45 13.4875ZM61.35 20.8375L62.1363 21.4553L62.1484 21.4399L62.1599 21.424L61.35 20.8375ZM53.7 32.3875L54.5559 32.9047L54.5605 32.8968L53.7 32.3875ZM46.2 43.7875L46.9893 44.4014L46.9947 44.3945L47 44.3875L46.2 43.7875ZM38.25 50.6875L37.7394 49.8276L38.25 50.6875ZM14.25 49.6375L13.65 50.4375L13.6536 50.4402L14.25 49.6375ZM6.29996 39.2875L7.22697 38.9123L7.2224 38.9014L6.29996 39.2875ZM7.19996 8.08752L8.12397 8.46985L8.13747 8.43719L8.14864 8.40375L7.19996 8.08752ZM9.74996 5.83752L9.74996 6.83752L9.78037 6.83752L9.81072 6.83563L9.74996 5.83752ZM27 4.78747L27 3.78747L26.9696 3.78747L26.9392 3.78936L27 4.78747ZM27 6.4375L27.152 7.42584L27.1977 7.41882L27.2425 7.40765L27 6.4375ZM12.6 12.8875L13.2139 13.6769L13.2225 13.6701L12.6 12.8875ZM10.8 40.6375L10.153 41.4L10.1551 41.4018L10.8 40.6375ZM22.8 45.6875C26.8695 45.6875 30.4653 44.6937 33.548 42.6739L32.4519 41.001C29.7346 42.7814 26.5304 43.6875 22.8 43.6875L22.8 45.6875ZM33.548 42.6739C36.5435 40.7114 39.081 38.3306 41.1535 35.5327L39.5464 34.3423C37.6189 36.9444 35.2564 39.1636 32.4519 41.001L33.548 42.6739ZM41.1678 35.513C43.0857 32.7875 45.5485 28.9667 48.5528 24.0596L46.8471 23.0153C43.8514 27.9083 41.4142 31.6876 39.5322 34.362L41.1678 35.513ZM48.5589 24.0496C51.6525 18.8603 54.2351 14.8392 56.3099 11.974L54.69 10.801C52.5648 13.7358 49.9474 17.8147 46.841 23.0254L48.5589 24.0496ZM56.3099 11.974C58.3257 9.1903 60.9235 6.82891 64.1183 4.8927L63.0817 3.18231C59.6765 5.24603 56.8742 7.78466 54.69 10.801L56.3099 11.974ZM64.1486 4.87353C67.1587 2.89819 70.81 1.88751 75.15 1.88751L75.15 -0.112493C70.4899 -0.112493 66.4412 0.976802 63.0513 3.20147L64.1486 4.87353ZM75.15 1.88751C79.7742 1.88751 83.9412 3.04095 87.6759 5.33917L88.7241 3.63586C84.6587 1.13409 80.1257 -0.112493 75.15 -0.112493L75.15 1.88751ZM87.6759 5.33917C91.3926 7.6264 94.3728 11.0222 96.6017 15.577L98.3982 14.6979C96.0272 9.85278 92.8073 6.14861 88.7241 3.63586L87.6759 5.33917ZM96.5978 15.569C98.7182 20.0025 99.8 25.3971 99.8 31.7875L101.8 31.7875C101.8 25.1779 100.682 19.4725 98.4021 14.706L96.5978 15.569ZM99.8 31.7875C99.8 39.3295 98.0876 46.2131 94.6726 52.4577L96.4273 53.4173C100.012 46.8619 101.8 39.6456 101.8 31.7875L99.8 31.7875ZM94.6925 52.423C94.4611 52.8086 94.2381 53.0004 94.0527 53.0931L94.9472 54.8819C95.5618 54.5746 96.0388 54.0663 96.4075 53.452L94.6925 52.423ZM94.2574 53.0173C93.9177 53.1023 93.3661 53.1965 92.5759 53.2952L92.824 55.2798C93.6339 55.1785 94.2823 55.0727 94.7425 54.9576L94.2574 53.0173ZM92.6048 53.292L72.2048 55.2421L72.3951 57.233L92.7951 55.283L92.6048 53.292ZM72.0574 55.2673C72.0548 55.268 72.1012 55.2557 72.1801 55.2679C72.267 55.2812 72.3592 55.3192 72.4372 55.3816C72.5099 55.4398 72.5406 55.4952 72.5475 55.509C72.5534 55.5208 72.5431 55.504 72.5305 55.4414L70.5694 55.8336C70.6398 56.1857 70.7976 56.6312 71.1878 56.9434C71.6242 57.2925 72.1351 57.3095 72.5425 57.2076L72.0574 55.2673ZM72.5364 55.4731C72.5202 55.376 72.5189 55.3163 72.5205 55.2869C72.522 55.2576 72.5254 55.275 72.5066 55.3189C72.4854 55.3683 72.4446 55.4305 72.3801 55.4833C72.3177 55.5344 72.2627 55.5525 72.2425 55.5576L71.7574 53.6174C71.2833 53.7359 70.8778 54.0424 70.6683 54.5311C70.4854 54.9579 70.4992 55.4159 70.5636 55.8019L72.5364 55.4731ZM72.2169 55.5637C79.5566 53.9326 85.9043 50.9181 91.2372 46.5081L89.9627 44.9669C84.8956 49.1569 78.8433 52.0424 71.783 53.6113L72.2169 55.5637ZM91.2459 46.5008C96.6847 41.8989 99.4 35.8125 99.4 28.3375L97.4 28.3375C97.4 35.2625 94.9152 40.7761 89.954 44.9741L91.2459 46.5008ZM99.4 28.3375C99.4 23.1476 97.9943 18.7187 95.1331 15.1156L93.5669 16.3594C96.1056 19.5563 97.4 23.5274 97.4 28.3375L99.4 28.3375ZM95.1308 15.1128C92.0815 11.3012 87.3436 9.48748 81.15 9.48748L81.15 11.4875C86.9563 11.4875 91.0184 13.1738 93.5691 16.3622L95.1308 15.1128ZM81.15 9.48748C76.498 9.48748 72.4123 10.5228 68.9317 12.6323L69.9683 14.3427C73.0876 12.4522 76.8019 11.4875 81.15 11.4875L81.15 9.48748ZM68.9317 12.6323C65.5265 14.696 62.7242 17.2347 60.54 20.251L62.1599 21.424C64.1757 18.6403 66.7735 16.2789 69.9683 14.3427L68.9317 12.6323ZM60.5636 20.2197C58.3255 23.0683 55.7502 26.9599 52.8394 31.8782L54.5605 32.8968C57.4497 28.0151 59.9745 24.2067 62.1363 21.4553L60.5636 20.2197ZM52.8441 31.8704C49.9524 36.6566 47.4717 40.4251 45.4 43.1875L47 44.3875C49.1282 41.5499 51.6476 37.7184 54.5559 32.9046L52.8441 31.8704ZM45.4106 43.1736C43.3939 45.7665 40.8414 47.9858 37.7394 49.8276L38.7605 51.5474C42.0585 49.5892 44.8061 47.2085 46.9893 44.4014L45.4106 43.1736ZM37.7394 49.8276C34.7166 51.6224 31.1486 52.5375 27 52.5375L27 54.5375C31.4513 54.5375 35.3833 53.5525 38.7605 51.5474L37.7394 49.8276ZM27 52.5375C22.1819 52.5375 18.1492 51.2884 14.8463 48.8348L13.6536 50.4402C17.3507 53.1866 21.818 54.5375 27 54.5375L27 52.5375ZM14.85 48.8375C11.3966 46.2475 8.85912 42.9448 7.22691 38.9123L5.37301 39.6627C7.14081 44.0302 9.9033 47.6275 13.65 50.4375L14.85 48.8375ZM7.2224 38.9014C5.47513 34.7273 4.59996 30.309 4.59996 25.6375L2.59996 25.6375C2.59996 30.566 3.52479 35.2477 5.37752 39.6736L7.2224 38.9014ZM4.59996 25.6375C4.59996 19.877 5.77089 14.1564 8.12397 8.46985L6.27594 7.70514C3.82902 13.6185 2.59996 19.5981 2.59996 25.6375L4.59996 25.6375ZM8.14864 8.40375C8.36383 7.75818 8.62347 7.37097 8.87408 7.14984C9.10504 6.94604 9.37805 6.83752 9.74996 6.83752L9.74996 4.83752C8.92187 4.83752 8.16987 5.10394 7.55084 5.65014C6.95145 6.17901 6.53609 6.91681 6.25127 7.77124L8.14864 8.40375ZM9.81072 6.83563L27.0607 5.78564L26.9392 3.78936L9.6892 4.83935L9.81072 6.83563ZM27 5.78747C26.9975 5.78747 26.9493 5.78723 26.8778 5.75744C26.8002 5.72509 26.7257 5.67041 26.6691 5.59967C26.567 5.47204 26.6 5.39435 26.6 5.53747L28.6 5.53747C28.6 5.18066 28.533 4.72796 28.2308 4.35028C27.8946 3.93005 27.4207 3.78747 27 3.78747L27 5.78747ZM26.6 5.53747C26.6 5.66388 26.5736 5.64929 26.6179 5.58282C26.6411 5.54797 26.6729 5.51617 26.7078 5.49292C26.7408 5.47094 26.762 5.46624 26.7574 5.46734L27.2425 7.40765C27.6467 7.30658 28.0242 7.07892 28.282 6.6922C28.5263 6.32574 28.6 5.91113 28.6 5.53747L26.6 5.53747ZM26.8479 5.44915C21.464 6.2774 16.504 8.50421 11.9774 12.1049L13.2225 13.6701C17.4959 10.2707 22.1359 8.19757 27.152 7.42584L26.8479 5.44915ZM11.986 12.0981C7.2021 15.819 4.84996 21.1839 4.84996 28.0375L6.84996 28.0375C6.84996 21.6911 8.99781 16.9561 13.2139 13.6768L11.986 12.0981ZM4.84996 28.0375C4.84996 33.8386 6.56695 38.3573 10.153 41.4L11.4469 39.875C8.43297 37.3177 6.84996 33.4364 6.84996 28.0375L4.84996 28.0375ZM10.1551 41.4018C13.5616 44.2761 17.8005 45.6875 22.8 45.6875L22.8 43.6875C18.1994 43.6875 14.4383 42.3989 11.4448 39.8732L10.1551 41.4018Z" fill="url(#paint0_linear_793_13030)"/>
<defs>
<linearGradient id="paint0_linear_793_13030" x1="-40" y1="406.93" x2="142" y2="406.93" gradientUnits="userSpaceOnUse">
<stop stop-color="#915606" stop-opacity="0.45"/>
<stop offset="1" stop-color="#DBBF6D" stop-opacity="0.25"/>
</linearGradient>
</defs>
</svg>
