<svg width="95" height="725" viewBox="0 0 95 725" fill="none" xmlns="http://www.w3.org/2000/svg">
<path d="M6.74999 715.9L6.04288 716.607L6.0485 716.613L6.0542 716.618L6.74999 715.9ZM23.1 722.65L22.9211 723.634L23.0098 723.65L23.1 723.65L23.1 722.65ZM23.1 724.3L22.9896 725.294L23.0446 725.3L23.1 725.3L23.1 724.3ZM9 722.95L9.08589 721.954L9 722.95ZM-0.750001 712.45L-1.74938 712.415L-1.75 712.432L-1.75 712.45L-0.750001 712.45ZM-0.600005 663.55L-1.5999 663.565L-1.59978 663.572L-1.59955 663.58L-0.600005 663.55ZM-0.750003 653.35L-1.75 653.35L-1.75 653.357L-1.7499 653.365L-0.750003 653.35ZM-1.50001 645.4L-2.46353 645.668L-2.46151 645.675L-2.45938 645.682L-1.50001 645.4ZM-4.50001 641.95L-4.18378 641.001L-4.22022 640.989L-4.25748 640.98L-4.50001 641.95ZM-4.50001 640.3L-4.39711 639.305L-4.44842 639.3L-4.50001 639.3L-4.50001 640.3ZM8.69999 641.2L8.64921 642.199L8.69999 641.2ZM23.1 643.45L23.1 642.45L23.0808 642.45L23.0616 642.451L23.1 643.45ZM6.74999 648.25L7.42151 648.991L7.42737 648.986L7.43315 648.98L6.74999 648.25ZM87.6 676.15L87.1528 675.256L87.6 676.15ZM90.45 672.1L91.4201 672.343L90.45 672.1ZM92.85 670.6L91.8512 670.55L91.8503 670.569L91.8501 670.587L92.85 670.6ZM92.7 682.3L91.7001 682.287L91.6999 682.3L91.7001 682.313L92.7 682.3ZM92.85 693.55L91.8501 693.563L91.8503 693.582L91.8512 693.6L92.85 693.55ZM87.6 688.3L87.1294 689.182L87.141 689.189L87.1528 689.194L87.6 688.3ZM4.95 688.15L5.4241 689.03L5.43912 689.022L5.45387 689.014L4.95 688.15ZM2.54999 692.05L3.52854 692.256L3.53379 692.231L3.53776 692.206L2.54999 692.05ZM0.949992 701.65C0.949992 708.109 2.59188 713.156 6.04288 716.607L7.4571 715.193C4.50811 712.244 2.94999 707.791 2.94999 701.65L0.949992 701.65ZM6.0542 716.618C9.46815 719.926 15.1558 722.222 22.9211 723.634L23.2789 721.666C15.6442 720.278 10.4318 718.074 7.44579 715.182L6.0542 716.618ZM23.1 723.65C22.9965 723.65 22.8852 723.63 22.7764 723.583C22.6687 723.537 22.5851 723.474 22.5241 723.413C22.4113 723.301 22.3783 723.197 22.3763 723.191C22.3718 723.178 22.3796 723.197 22.3874 723.267C22.3947 723.333 22.4 723.426 22.4 723.55L24.4 723.55C24.4 723.221 24.3758 722.865 24.2737 722.559C24.1801 722.278 23.8642 721.65 23.1 721.65L23.1 723.65ZM22.4 723.55C22.4 723.644 22.3952 723.707 22.39 723.746C22.3844 723.788 22.3812 723.779 22.3965 723.741C22.411 723.705 22.4619 723.593 22.5911 723.485C22.738 723.362 22.9223 723.3 23.1 723.3L23.1 725.3C23.3777 725.3 23.6495 725.206 23.8714 725.021C24.0756 724.851 24.189 724.645 24.2535 724.484C24.3754 724.179 24.4 723.837 24.4 723.55L22.4 723.55ZM23.2104 723.306C19.5989 722.905 14.8898 722.454 9.08589 721.954L8.91411 723.946C14.7102 724.446 19.4011 724.895 22.9896 725.294L23.2104 723.306ZM9.08589 721.954C3.27969 721.453 -1.10532 721.2 -4.05 721.2L-4.05 723.2C-1.19468 723.2 3.1203 723.447 8.91411 723.946L9.08589 721.954ZM-4.05 721.2C-4.14586 721.2 -4.03407 721.177 -3.9054 721.305C-3.77671 721.434 -3.8 721.546 -3.8 721.45L-5.8 721.45C-5.8 721.854 -5.69829 722.341 -5.31961 722.72C-4.94093 723.098 -4.45415 723.2 -4.05 723.2L-4.05 721.2ZM-3.8 721.45C-3.8 721.366 -3.79091 721.329 -3.78961 721.324C-3.78899 721.322 -3.8 721.362 -3.84428 721.415C-3.89179 721.472 -3.95181 721.513 -4.00674 721.535C-4.05555 721.554 -4.07706 721.55 -4.05 721.55L-4.05 719.55C-4.50694 719.55 -5.01487 719.696 -5.38072 720.135C-5.71748 720.539 -5.8 721.036 -5.8 721.45L-3.8 721.45ZM-4.05 721.55C-3.27717 721.55 -2.57028 721.306 -1.97302 720.818C-1.39256 720.343 -0.964817 719.678 -0.648907 718.902C-0.0246206 717.37 0.249999 715.188 0.249999 712.45L-1.75 712.45C-1.75 715.112 -2.02538 716.98 -2.50109 718.148C-2.73518 718.722 -2.99494 719.07 -3.23949 719.27C-3.46723 719.456 -3.72284 719.55 -4.05 719.55L-4.05 721.55ZM0.249377 712.485C0.549907 703.97 0.699992 693.908 0.699991 682.3L-1.30001 682.3C-1.30001 693.892 -1.44991 703.93 -1.74938 712.415L0.249377 712.485ZM0.699991 682.3C0.699991 676.389 0.599805 670.129 0.399537 663.52L-1.59955 663.58C-1.39982 670.171 -1.30001 676.411 -1.30001 682.3L0.699991 682.3ZM0.399888 663.535L0.24989 653.335L-1.7499 653.365L-1.5999 663.565L0.399888 663.535ZM0.249997 653.35C0.249996 649.732 0.00175113 646.962 -0.540649 645.118L-2.45938 645.682C-2.00176 647.238 -1.75 649.768 -1.75 653.35L0.249997 653.35ZM-0.536495 645.132C-1.10691 643.079 -2.30741 641.627 -4.18378 641.001L-4.81624 642.899C-3.69261 643.273 -2.89311 644.121 -2.46353 645.668L-0.536495 645.132ZM-4.25748 640.98C-4.26201 640.979 -4.2408 640.983 -4.20781 641.005C-4.17295 641.029 -4.14119 641.06 -4.11796 641.095C-4.07365 641.162 -4.10001 641.176 -4.10001 641.05L-6.10001 641.05C-6.10001 641.424 -6.02637 641.838 -5.78206 642.205C-5.52423 642.591 -5.14679 642.819 -4.74254 642.92L-4.25748 640.98ZM-4.10001 641.05C-4.10001 640.907 -4.06701 640.985 -4.16914 641.112C-4.22572 641.183 -4.3003 641.238 -4.3779 641.27C-4.44939 641.3 -4.49757 641.3 -4.50001 641.3L-4.50001 639.3C-4.92072 639.3 -5.39465 639.443 -5.73088 639.863C-6.03301 640.24 -6.10001 640.693 -6.10001 641.05L-4.10001 641.05ZM-4.60291 641.295C-1.67581 641.597 2.74562 641.899 8.64921 642.199L8.75077 640.201C2.85436 639.901 -1.52421 639.602 -4.39711 639.305L-4.60291 641.295ZM8.64921 642.199C14.5575 642.499 19.3762 642.65 23.1 642.65L23.1 640.65C19.4238 640.65 14.6425 640.501 8.75077 640.201L8.64921 642.199ZM23.1 642.65C22.9965 642.65 22.8852 642.63 22.7764 642.583C22.6687 642.537 22.5851 642.474 22.5241 642.413C22.4113 642.3 22.3783 642.197 22.3763 642.191C22.3718 642.178 22.3796 642.197 22.3874 642.267C22.3947 642.333 22.4 642.426 22.4 642.55L24.4 642.55C24.4 642.221 24.3758 641.865 24.2737 641.559C24.1801 641.278 23.8643 640.65 23.1 640.65L23.1 642.65ZM22.4 642.55C22.4 642.674 22.3947 642.767 22.3874 642.833C22.3796 642.903 22.3718 642.922 22.3763 642.909C22.3783 642.903 22.4113 642.799 22.5241 642.687C22.5851 642.626 22.6687 642.563 22.7764 642.517C22.8852 642.47 22.9965 642.45 23.1 642.45L23.1 644.45C23.8642 644.45 24.1801 643.822 24.2737 643.541C24.3758 643.235 24.4 642.879 24.4 642.55L22.4 642.55ZM23.0616 642.451C15.1999 642.753 9.43943 644.365 6.06683 647.52L7.43315 648.98C10.2606 646.335 15.4001 644.747 23.1384 644.449L23.0616 642.451ZM6.07847 647.509C2.57734 650.682 0.94999 655.822 0.94999 662.65L2.94999 662.65C2.94999 656.078 4.52264 651.618 7.42151 648.991L6.07847 647.509ZM0.94999 662.65C0.94999 667.153 1.14803 670.445 1.57144 672.456L3.52854 672.044C3.15195 670.255 2.94999 667.147 2.94999 662.65L0.94999 662.65ZM1.57144 672.456C2.0117 674.547 2.99058 676.15 4.62589 677.03L5.57409 675.27C4.60941 674.75 3.88828 673.753 3.52854 672.044L1.57144 672.456ZM4.62589 677.03C6.16036 677.857 8.57868 678.2 11.7 678.2L11.7 676.2C8.62131 676.2 6.63963 675.843 5.57409 675.27L4.62589 677.03ZM11.7 678.2L80.85 678.2L80.85 676.2L11.7 676.2L11.7 678.2ZM80.85 678.2C83.9817 678.2 86.4291 677.853 88.0472 677.044L87.1528 675.256C85.9709 675.846 83.9182 676.2 80.85 676.2L80.85 678.2ZM88.0472 677.044C89.7851 676.175 90.8732 674.53 91.4201 672.343L89.4799 671.857C89.0268 673.67 88.2149 674.725 87.1528 675.256L88.0472 677.044ZM91.4201 672.343C91.9516 670.217 92.2 666.963 92.2 662.65L90.2 662.65C90.2 666.937 89.9484 669.983 89.4799 671.857L91.4201 672.343ZM92.2 662.65C92.2 662.75 92.1721 662.882 92.0883 663.008C92.0086 663.127 91.9158 663.185 91.8722 663.207C91.8325 663.227 91.8236 663.222 91.8706 663.215C91.915 663.207 91.989 663.2 92.1 663.2L92.1 661.2C91.7489 661.2 91.3367 661.239 90.9778 661.418C90.7842 661.515 90.5789 661.666 90.4242 661.898C90.2654 662.137 90.2 662.4 90.2 662.65L92.2 662.65ZM92.1 663.2C92.211 663.2 92.285 663.207 92.3293 663.215C92.3764 663.222 92.3675 663.227 92.3278 663.207C92.2842 663.185 92.1914 663.127 92.1117 663.008C92.0279 662.882 92 662.75 92 662.65L94 662.65C94 662.4 93.9346 662.137 93.7758 661.898C93.6211 661.666 93.4158 661.515 93.2222 661.418C92.8632 661.239 92.4511 661.2 92.1 661.2L92.1 663.2ZM92 662.65C92 665.942 91.9501 668.574 91.8512 670.55L93.8488 670.65C93.9499 668.626 94 665.957 94 662.65L92 662.65ZM91.8501 670.587L91.7001 682.287L93.6999 682.313L93.8499 670.613L91.8501 670.587ZM91.7001 682.313L91.8501 693.563L93.8499 693.537L93.6999 682.287L91.7001 682.313ZM91.8512 693.6C91.95 695.575 92 698.306 92 701.8L94 701.8C94 698.294 93.95 695.525 93.8488 693.5L91.8512 693.6ZM92 701.8C92 701.697 92.0201 701.585 92.0668 701.476C92.1129 701.369 92.1757 701.285 92.2366 701.224C92.3495 701.111 92.4528 701.078 92.4588 701.076C92.4724 701.072 92.4531 701.08 92.3833 701.087C92.317 701.095 92.2242 701.1 92.1 701.1L92.1 703.1C92.4292 703.1 92.7849 703.076 93.0912 702.974C93.3719 702.88 94 702.564 94 701.8L92 701.8ZM92.1 701.1C91.9758 701.1 91.8829 701.095 91.8167 701.087C91.7469 701.08 91.7276 701.072 91.7412 701.076C91.7472 701.078 91.8505 701.111 91.9634 701.224C92.0243 701.285 92.0871 701.369 92.1332 701.476C92.1799 701.585 92.2 701.697 92.2 701.8L90.2 701.8C90.2 702.564 90.8281 702.88 91.1088 702.974C91.4151 703.076 91.7708 703.1 92.1 703.1L92.1 701.1ZM92.2 701.8C92.2 697.487 91.9516 694.233 91.4201 692.107L89.4799 692.593C89.9484 694.467 90.2 697.513 90.2 701.8L92.2 701.8ZM91.4201 692.107C90.8732 689.92 89.7851 688.275 88.0472 687.406L87.1528 689.194C88.2149 689.725 89.0268 690.78 89.4799 692.593L91.4201 692.107ZM88.0706 687.418C86.3537 686.502 83.9062 686.1 80.85 686.1L80.85 688.1C83.7938 688.1 85.8463 688.498 87.1294 689.182L88.0706 687.418ZM80.85 686.1L11.4 686.1L11.4 688.1L80.85 688.1L80.85 686.1ZM11.4 686.1C8.29138 686.1 5.89809 686.439 4.44612 687.286L5.45387 689.014C6.4019 688.461 8.3086 688.1 11.4 688.1L11.4 686.1ZM4.4759 687.27C2.82134 688.16 1.89485 689.787 1.56223 691.894L3.53776 692.206C3.80514 690.513 4.47866 689.54 5.4241 689.03L4.4759 687.27ZM1.57144 691.844C1.14804 693.855 0.949992 697.147 0.949992 701.65L2.94999 701.65C2.94999 697.153 3.15195 694.045 3.52854 692.256L1.57144 691.844ZM92.7 534.479L91.7012 534.429L92.7 534.479ZM92.7 551.579L91.7017 551.637L91.7019 551.641L92.7 551.579ZM90.15 550.829L89.2253 551.209L90.15 550.829ZM80.1 550.229L79.6909 549.316L79.683 549.32L79.6751 549.323L80.1 550.229ZM43.35 567.479L42.9251 566.573L42.35 566.843L42.35 567.479L43.35 567.479ZM43.35 595.829L42.35 595.829L42.35 596.492L42.9615 596.75L43.35 595.829ZM73.95 608.729L73.5615 609.65L73.5692 609.653L73.95 608.729ZM92.7 603.929L91.7017 603.87L91.7014 603.876L92.7 603.929ZM92.7 622.829L91.7017 622.887L91.7022 622.895L92.7 622.829ZM89.7 623.279L90.5849 622.813L90.5806 622.805L90.5762 622.797L89.7 623.279ZM84.15 617.729L83.5953 618.561L83.6027 618.565L84.15 617.729ZM72.6 611.879L72.2099 612.799L72.2128 612.8L72.6 611.879ZM-2.10001 580.229L-2.6547 581.061L-2.57658 581.113L-2.49013 581.149L-2.10001 580.229ZM-2.10001 578.279L-1.78378 579.227L-1.72604 579.208L-1.67106 579.182L-2.10001 578.279ZM72.45 542.879L72.0325 541.97L72.021 541.975L72.45 542.879ZM87.45 534.179L88.1283 534.913L88.1355 534.907L88.1425 534.9L87.45 534.179ZM40.2 594.479L39.8119 595.4L41.2 595.985L41.2 594.479L40.2 594.479ZM40.2 568.979L41.2 568.979L41.2 567.398L39.7719 568.075L40.2 568.979ZM11.7 582.479L11.2719 581.575L9.25061 582.532L11.3119 583.4L11.7 582.479ZM92.2 525.629C92.2 525.654 92.1947 525.725 92.1507 525.813C92.1045 525.905 92.0383 525.972 91.9797 526.011C91.9278 526.045 91.8991 526.048 91.9232 526.042C91.9468 526.037 92.0024 526.029 92.1 526.029L92.1 524.029C91.7205 524.029 91.2609 524.086 90.8703 524.346C90.4081 524.655 90.2 525.137 90.2 525.629L92.2 525.629ZM92.1 526.029C92.1976 526.029 92.2531 526.037 92.2768 526.042C92.3009 526.048 92.2722 526.045 92.2203 526.011C92.1617 525.972 92.0955 525.905 92.0493 525.813C92.0052 525.725 92 525.654 92 525.629L94 525.629C94 525.137 93.7919 524.655 93.3297 524.346C92.939 524.086 92.4795 524.029 92.1 524.029L92.1 526.029ZM92 525.629C92 527.502 91.9011 530.431 91.7012 534.429L93.6987 534.528C93.8989 530.526 94 527.555 94 525.629L92 525.629ZM91.7012 534.429C91.5012 538.43 91.4 541.352 91.4 543.179L93.4 543.179C93.4 541.405 93.4988 538.527 93.6987 534.528L91.7012 534.429ZM91.4 543.179C91.4 545.406 91.5011 548.227 91.7017 551.637L93.6983 551.52C93.4989 548.13 93.4 545.351 93.4 543.179L91.4 543.179ZM91.7019 551.641C91.9016 554.835 92 557.26 92 558.929L94 558.929C94 557.197 93.8984 554.722 93.6981 551.516L91.7019 551.641ZM92 558.929C92 558.903 92.0052 558.832 92.0493 558.744C92.0955 558.652 92.1617 558.586 92.2203 558.546C92.2722 558.512 92.3009 558.509 92.2768 558.515C92.2531 558.52 92.1976 558.529 92.1 558.529L92.1 560.529C92.4795 560.529 92.939 560.471 93.3297 560.211C93.7919 559.902 94 559.42 94 558.929L92 558.929ZM92.1 558.529C92.0024 558.529 91.9468 558.52 91.9232 558.515C91.8991 558.509 91.9278 558.512 91.9797 558.546C92.0383 558.586 92.1045 558.652 92.1507 558.744C92.1947 558.832 92.2 558.903 92.2 558.929L90.2 558.929C90.2 559.42 90.4081 559.902 90.8703 560.211C91.2609 560.471 91.7205 560.529 92.1 560.529L92.1 558.529ZM92.2 558.929C92.2 555.203 91.853 552.338 91.0747 550.448L89.2253 551.209C89.847 552.719 90.2 555.254 90.2 558.929L92.2 558.929ZM91.0747 550.448C90.6706 549.466 90.0918 548.659 89.303 548.1C88.5087 547.537 87.5737 547.278 86.55 547.278L86.55 549.278C87.2263 549.278 87.7413 549.445 88.147 549.732C88.5581 550.023 88.9294 550.491 89.2253 551.209L91.0747 550.448ZM86.55 547.278C84.918 547.278 82.5966 548.013 79.6909 549.316L80.509 551.141C83.4034 549.844 85.382 549.278 86.55 549.278L86.55 547.278ZM79.6751 549.323L42.9251 566.573L43.7749 568.384L80.5249 551.134L79.6751 549.323ZM42.35 567.479L42.35 595.829L44.35 595.829L44.35 567.479L42.35 567.479ZM42.9615 596.75L73.5615 609.65L74.3385 607.807L43.7385 594.907L42.9615 596.75ZM73.5692 609.653C77.0198 611.074 79.9604 611.829 82.35 611.829L82.35 609.829C80.3396 609.829 77.6802 609.183 74.3307 607.804L73.5692 609.653ZM82.35 611.829C85.6372 611.829 88.1814 610.431 89.8442 607.669C91.4581 604.989 92.2 601.096 92.2 596.129L90.2 596.129C90.2 600.961 89.4669 604.418 88.1308 606.638C86.8436 608.776 84.9628 609.829 82.35 609.829L82.35 611.829ZM92.2 596.129C92.2 596.101 92.2042 596.123 92.1847 596.172C92.1627 596.227 92.1222 596.287 92.0652 596.334C92.012 596.379 91.9717 596.39 91.9739 596.389C91.9786 596.388 92.0162 596.379 92.1 596.379L92.1 594.379C91.6858 594.379 91.1889 594.461 90.7848 594.798C90.3458 595.164 90.2 595.672 90.2 596.129L92.2 596.129ZM92.1 596.379C92.1838 596.379 92.2214 596.388 92.2261 596.389C92.2283 596.39 92.188 596.379 92.1348 596.334C92.0778 596.287 92.0372 596.227 92.0153 596.172C91.9957 596.123 92 596.101 92 596.129L94 596.129C94 595.672 93.8542 595.164 93.4152 594.798C93.0111 594.461 92.5142 594.379 92.1 594.379L92.1 596.379ZM92 596.129C92 597.899 91.9014 600.475 91.7017 603.87L93.6983 603.987C93.8986 600.582 94 597.958 94 596.129L92 596.129ZM91.7014 603.876C91.5008 607.688 91.4 611.006 91.4 613.829L93.4 613.829C93.4 611.051 93.4992 607.769 93.6986 603.981L91.7014 603.876ZM91.4 613.829C91.4 616.453 91.5009 619.473 91.7017 622.887L93.6983 622.77C93.4991 619.384 93.4 616.404 93.4 613.829L91.4 613.829ZM91.7022 622.895C91.9014 625.883 92 628.359 92 630.329L94 630.329C94 628.298 93.8986 625.774 93.6978 622.762L91.7022 622.895ZM92 630.329C92 630.356 91.9957 630.334 92.0153 630.285C92.0372 630.23 92.0778 630.17 92.1348 630.123C92.188 630.079 92.2283 630.067 92.2261 630.068C92.2214 630.069 92.1838 630.079 92.1 630.079L92.1 632.079C92.5142 632.079 93.0111 631.996 93.4152 631.659C93.8542 631.293 94 630.785 94 630.329L92 630.329ZM92.1 630.079C92.0162 630.079 91.9786 630.069 91.9739 630.068C91.9717 630.067 92.012 630.079 92.0652 630.123C92.1222 630.17 92.1627 630.23 92.1847 630.285C92.2042 630.334 92.2 630.356 92.2 630.329L90.2 630.329C90.2 630.785 90.3458 631.293 90.7848 631.659C91.1889 631.996 91.6858 632.079 92.1 632.079L92.1 630.079ZM92.2 630.329C92.2 627.414 91.68 624.893 90.5849 622.813L88.8151 623.744C89.72 625.464 90.2 627.643 90.2 630.329L92.2 630.329ZM90.5762 622.797C89.374 620.611 87.3871 618.65 84.6972 616.892L83.6027 618.565C86.1128 620.207 87.826 621.946 88.8238 623.76L90.5762 622.797ZM84.7047 616.896C81.9285 615.046 78.0124 613.067 72.9872 610.957L72.2128 612.8C77.1875 614.89 80.9715 616.811 83.5953 618.561L84.7047 616.896ZM72.9901 610.958L-1.70988 579.308L-2.49013 581.149L72.2099 612.799L72.9901 610.958ZM-1.54531 579.396C-1.539 579.401 -1.53043 579.408 -1.52293 579.417C-1.5157 579.426 -1.51516 579.43 -1.51837 579.422C-1.52614 579.404 -1.55001 579.333 -1.55001 579.179L-3.55001 579.179C-3.55001 579.872 -3.33283 580.608 -2.6547 581.061L-1.54531 579.396ZM-1.55001 579.179C-1.55001 579.102 -1.54414 579.053 -1.53901 579.025C-1.53388 578.998 -1.53129 579.002 -1.54308 579.026C-1.55599 579.052 -1.58342 579.095 -1.63252 579.138C-1.68256 579.183 -1.7369 579.212 -1.78378 579.227L-2.41624 577.33C-3.3464 577.64 -3.55001 578.541 -3.55001 579.179L-1.55001 579.179ZM-1.67106 579.182L72.8789 543.782L72.021 541.975L-2.52895 577.375L-1.67106 579.182ZM72.8675 543.787C80.2713 540.385 85.4013 537.431 88.1283 534.913L86.7717 533.444C84.2987 535.726 79.4286 538.572 72.0325 541.97L72.8675 543.787ZM88.1425 534.9C90.8279 532.322 92.2 529.216 92.2 525.629L90.2 525.629C90.2 528.641 89.0721 531.235 86.7575 533.457L88.1425 534.9ZM41.2 594.479L41.2 568.979L39.2 568.979L39.2 594.479L41.2 594.479ZM39.7719 568.075L11.2719 581.575L12.1281 583.382L40.6281 569.882L39.7719 568.075ZM11.3119 583.4L39.8119 595.4L40.588 593.557L12.088 581.557L11.3119 583.4ZM88.35 481.914L89.2033 482.436L89.2075 482.429L89.2116 482.422L88.35 481.914ZM70.65 498.714L71.1113 499.601L71.1185 499.598L71.1255 499.594L70.65 498.714ZM19.8 496.764L20.3802 495.95L20.3749 495.946L19.8 496.764ZM3.14998 476.814L2.23847 477.225L2.24039 477.23L3.14998 476.814ZM4.34999 426.714L5.19802 427.244L5.20326 427.236L4.34999 426.714ZM21.9 410.214L22.3617 411.101L22.3712 411.096L21.9 410.214ZM88.2 430.914L87.3212 431.391L87.3238 431.396L88.2 430.914ZM86.7 433.464L85.8425 433.979L85.8467 433.985L86.7 433.464ZM72.15 420.564L71.7027 421.459L71.7141 421.464L72.15 420.564ZM24.3 421.014L24.7323 421.916L24.3 421.014ZM7.19998 435.864L8.03815 436.41L8.04201 436.403L7.19998 435.864ZM11.7 483.864L11.0422 484.617L11.7 483.864ZM66.75 487.914L67.1594 488.826L67.1638 488.824L66.75 487.914ZM85.05 473.214L85.8638 473.795L85.8698 473.787L85.05 473.214ZM93.8 457.014C93.8 466.154 91.6891 474.275 87.4884 481.407L89.2116 482.422C93.6109 474.953 95.8 466.475 95.8 457.014L93.8 457.014ZM87.4967 481.393C83.1885 488.442 77.4186 493.919 70.1745 497.834L71.1255 499.594C78.6814 495.51 84.7115 489.786 89.2033 482.436L87.4967 481.393ZM70.1886 497.827C62.837 501.65 54.8462 503.564 46.2 503.564L46.2 505.564C55.1538 505.564 63.4629 503.578 71.1113 499.601L70.1886 497.827ZM46.2 503.564C36.0758 503.564 27.4863 501.012 20.3802 495.95L19.2198 497.579C26.7136 502.917 35.7241 505.564 46.2 505.564L46.2 503.564ZM20.3749 495.946C13.1179 490.846 7.68457 484.334 4.05958 476.399L2.24039 477.23C6.0154 485.494 11.6821 492.282 19.225 497.582L20.3749 495.946ZM4.06149 476.403C0.416348 468.324 -1.40002 460.114 -1.40002 451.764L-3.40002 451.764C-3.40002 460.414 -1.51638 468.904 2.23848 477.225L4.06149 476.403ZM-1.40002 451.764C-1.40002 442.429 0.80881 434.267 5.19798 427.244L3.50199 426.184C-1.10885 433.561 -3.40002 442.1 -3.40002 451.764L-1.40002 451.764ZM5.20326 427.236C9.51094 420.187 15.2273 414.815 22.3617 411.101L21.4382 409.327C13.9727 413.213 7.98902 418.842 3.4967 426.193L5.20326 427.236ZM22.3712 411.096C29.5276 407.273 37.116 405.364 45.15 405.364L45.15 403.364C36.784 403.364 28.8723 405.355 21.4288 409.332L22.3712 411.096ZM45.15 405.364C54.0634 405.364 62.2279 407.712 69.666 412.41L70.734 410.719C62.9721 405.816 54.4365 403.364 45.15 403.364L45.15 405.364ZM69.666 412.41C77.1177 417.116 83.0007 423.438 87.3213 431.391L89.0787 430.437C84.5993 422.191 78.4822 415.612 70.734 410.719L69.666 412.41ZM87.3238 431.396C91.6401 439.244 93.8 447.777 93.8 457.014L95.8 457.014C95.8 447.451 93.5599 438.584 89.0762 430.432L87.3238 431.396ZM92.65 451.764C92.65 444.794 90.9564 438.511 87.5533 432.943L85.8467 433.985C89.0436 439.217 90.65 445.134 90.65 451.764L92.65 451.764ZM87.5575 432.95C84.1467 427.265 79.1412 422.839 72.5859 419.664L71.7141 421.464C77.9588 424.489 82.6533 428.663 85.8425 433.979L87.5575 432.95ZM72.5972 419.67C66.0301 416.386 58.2702 414.764 49.35 414.764L49.35 416.764C58.0298 416.764 65.4699 418.342 71.7028 421.458L72.5972 419.67ZM49.35 414.764C39.8244 414.764 31.3227 416.538 23.8677 420.112L24.7323 421.916C31.8773 418.49 40.0756 416.764 49.35 416.764L49.35 414.764ZM23.8677 420.112C16.4115 423.687 10.5648 428.758 6.35795 435.325L8.04201 436.403C12.0352 430.17 17.5885 425.341 24.7323 421.916L23.8677 420.112ZM6.36185 435.319C2.14282 441.801 0.0499832 449.397 0.0499835 458.064L2.04998 458.064C2.04998 449.732 4.05715 442.527 8.03812 436.41L6.36185 435.319ZM0.0499835 458.064C0.049984 469.3 3.68765 478.195 11.0422 484.617L12.3577 483.111C5.51231 477.133 2.04998 468.829 2.04998 458.064L0.0499835 458.064ZM11.0422 484.617C18.3755 491.021 28.3858 494.164 40.95 494.164L40.95 492.164C28.7142 492.164 19.2245 489.107 12.3577 483.111L11.0422 484.617ZM40.95 494.164C50.4769 494.164 59.2183 492.39 67.1594 488.826L66.3406 487.002C58.6817 490.438 50.223 492.164 40.95 492.164L40.95 494.164ZM67.1638 488.824C75.0085 485.259 81.2523 480.251 85.8637 473.795L84.2363 472.633C79.8476 478.777 73.8915 483.569 66.3362 487.004L67.1638 488.824ZM85.8698 473.787C90.3921 467.312 92.65 459.96 92.65 451.764L90.65 451.764C90.65 459.568 88.5079 466.517 84.2302 472.641L85.8698 473.787ZM-0.750019 285.236L-1.75002 285.236L-1.75002 285.248L-1.74974 285.26L-0.750019 285.236ZM3.74998 294.086L2.93844 294.67L3.74998 294.086ZM12.9 300.386L13.2711 299.457L13.2676 299.456L12.9 300.386ZM92.85 332.336L92.4789 333.265L92.5418 333.29L92.6075 333.306L92.85 332.336ZM92.85 335.636L93.2681 336.544L93.3648 336.5L93.45 336.436L92.85 335.636ZM11.7 372.986L12.0996 373.903L12.1089 373.899L12.1181 373.894L11.7 372.986ZM3.44999 378.386L4.21489 379.03L4.2149 379.03L3.44999 378.386ZM-0.750015 385.736L-1.74967 385.71L-1.75002 385.723L-1.75002 385.736L-0.750015 385.736ZM-0.600018 380.036L-1.59748 379.965L-1.59908 379.987L-1.59967 380.01L-0.600018 380.036ZM-0.600018 360.386L-1.59972 360.41L-1.59949 360.42L-1.59907 360.429L-0.600018 360.386ZM-0.750016 354.236L-1.75002 354.236L-1.75002 354.248L-1.74972 354.26L-0.750016 354.236ZM2.24998 361.286L1.35556 361.733L1.36144 361.745L1.36763 361.757L2.24998 361.286ZM11.1 362.186L11.5104 363.098L11.5151 363.096L11.1 362.186ZM79.8 330.836L80.2151 331.746L82.3436 330.774L80.1707 329.907L79.8 330.836ZM12.15 303.836L12.5207 302.907L12.5133 302.904L12.506 302.901L12.15 303.836ZM-0.750018 314.336L-1.74975 314.313L-1.75002 314.324L-1.75002 314.336L-0.750018 314.336ZM-0.600021 307.886L-1.5983 307.827L-1.59934 307.845L-1.59975 307.863L-0.600021 307.886ZM-0.600021 291.536L-1.59974 291.56L-1.59911 291.586L-1.59708 291.613L-0.600021 291.536ZM0.249981 285.236C0.249981 285.336 0.22211 285.468 0.138282 285.594C0.0586277 285.713 -0.0341724 285.771 -0.0778011 285.793C-0.11752 285.813 -0.126377 285.808 -0.0793689 285.8C-0.0350574 285.793 0.0389592 285.786 0.149978 285.786L0.149978 283.786C-0.201096 283.786 -0.613274 283.825 -0.972237 284.004C-1.16587 284.101 -1.37117 284.252 -1.52582 284.484C-1.68465 284.723 -1.75002 284.986 -1.75002 285.236L0.249981 285.236ZM0.149978 285.786C0.260997 285.786 0.335014 285.793 0.379326 285.8C0.426334 285.808 0.417472 285.813 0.377758 285.793C0.334129 285.771 0.241329 285.713 0.161674 285.594C0.0778424 285.468 0.049976 285.336 0.049976 285.236L2.04998 285.236C2.04998 284.986 1.98461 284.723 1.82578 284.484C1.67112 284.252 1.46582 284.101 1.27219 284.004C0.91323 283.825 0.501052 283.786 0.149978 283.786L0.149978 285.786ZM0.049976 285.236C0.0499761 288.823 1.00322 291.982 2.93844 294.67L4.56151 293.502C2.89674 291.189 2.04998 288.449 2.04998 285.236L0.049976 285.236ZM2.93844 294.67C4.8931 297.385 8.13765 299.578 12.5323 301.316L13.2676 299.456C9.06231 297.793 6.20686 295.787 4.56151 293.502L2.93844 294.67ZM12.5289 301.315L92.4789 333.265L93.2211 331.407L13.2711 299.457L12.5289 301.315ZM92.6075 333.306C92.5045 333.28 92.4248 333.225 92.3777 333.174C92.3387 333.131 92.3416 333.114 92.3602 333.165C92.4018 333.28 92.45 333.532 92.45 333.986L94.45 333.986C94.45 333.44 94.3981 332.917 94.2398 332.482C94.0776 332.036 93.7377 331.527 93.0925 331.366L92.6075 333.306ZM92.45 333.986C92.45 334.662 92.2772 334.816 92.25 334.836L93.45 336.436C94.2228 335.856 94.45 334.91 94.45 333.986L92.45 333.986ZM92.4319 334.728L11.2819 372.078L12.1181 373.894L93.2681 336.544L92.4319 334.728ZM11.3004 372.069C7.34642 373.793 4.43127 375.668 2.68507 377.742L4.2149 379.03C5.66869 377.304 8.25353 375.579 12.0996 373.903L11.3004 372.069ZM2.68507 377.742C0.903336 379.858 0.0499802 382.551 0.0499804 385.736L2.04998 385.736C2.04998 382.921 2.79662 380.714 4.21489 379.03L2.68507 377.742ZM0.0499804 385.736C0.0499804 385.636 0.0778505 385.504 0.161679 385.378C0.241337 385.259 0.334133 385.201 0.377766 385.179C0.417481 385.159 0.426338 385.164 0.37933 385.171C0.335018 385.179 0.261002 385.186 0.149983 385.186L0.149983 387.186C0.501057 387.186 0.913235 387.147 1.27219 386.968C1.46582 386.871 1.67112 386.719 1.82578 386.488C1.98461 386.249 2.04998 385.986 2.04998 385.736L0.0499804 385.736ZM0.149983 385.186C0.0389635 385.186 -0.0350569 385.179 -0.0793684 385.171C-0.126373 385.164 -0.117515 385.159 -0.0778006 385.179C-0.0341719 385.201 0.0586283 385.259 0.138287 385.378C0.222115 385.504 0.249985 385.636 0.249985 385.736L-1.75002 385.736C-1.75002 385.986 -1.68465 386.249 -1.52582 386.488C-1.37116 386.719 -1.16586 386.871 -0.972229 386.968C-0.61327 387.147 -0.201091 387.186 0.149983 387.186L0.149983 385.186ZM0.249638 385.762L0.399635 380.062L-1.59967 380.01L-1.74967 385.71L0.249638 385.762ZM0.397442 380.107C0.598198 377.297 0.699978 375.02 0.699978 373.286L-1.30002 373.286C-1.30002 374.952 -1.39824 377.175 -1.59748 379.965L0.397442 380.107ZM0.699978 373.286C0.699977 369.269 0.599574 364.955 0.399039 360.342L-1.59907 360.429C-1.39961 365.017 -1.30002 369.302 -1.30002 373.286L0.699978 373.286ZM0.399684 360.362L0.249686 354.212L-1.74972 354.26L-1.59972 360.41L0.399684 360.362ZM0.249984 354.236C0.249984 354.336 0.222113 354.468 0.138285 354.594C0.0586269 354.713 -0.0341694 354.771 -0.0778019 354.793C-0.117517 354.813 -0.126374 354.808 -0.0793697 354.8C-0.0350582 354.793 0.0389622 354.786 0.149981 354.786L0.149981 352.786C-0.201093 352.786 -0.613271 352.825 -0.972234 353.004C-1.16586 353.101 -1.37116 353.252 -1.52582 353.484C-1.68465 353.723 -1.75002 353.986 -1.75002 354.236L0.249984 354.236ZM0.149981 354.786C0.261 354.786 0.335017 354.793 0.379329 354.8C0.426337 354.808 0.417479 354.813 0.377765 354.793C0.334132 354.771 0.241332 354.713 0.161677 354.594C0.0778492 354.468 0.049979 354.336 0.049979 354.236L2.04998 354.236C2.04998 353.986 1.98461 353.723 1.82578 353.484C1.67112 353.252 1.46582 353.101 1.27219 353.004C0.913233 352.825 0.501055 352.786 0.149981 352.786L0.149981 354.786ZM0.049979 354.236C0.0499791 357.393 0.452598 359.927 1.35556 361.733L3.14441 360.839C2.44736 359.445 2.04998 357.279 2.04998 354.236L0.049979 354.236ZM1.36763 361.757C1.84877 362.659 2.51672 363.37 3.37684 363.848C4.23094 364.322 5.21878 364.536 6.29998 364.536L6.29998 362.536C5.48119 362.536 4.84402 362.375 4.34812 362.099C3.85825 361.827 3.45119 361.413 3.13233 360.815L1.36763 361.757ZM6.29998 364.536C7.71446 364.536 9.4707 364.016 11.5103 363.098L10.6896 361.274C8.72926 362.156 7.2855 362.536 6.29998 362.536L6.29998 364.536ZM11.5151 363.096L80.2151 331.746L79.3848 329.926L10.6848 361.276L11.5151 363.096ZM80.1707 329.907L12.5207 302.907L11.7793 304.765L79.4293 331.765L80.1707 329.907ZM12.506 302.901C10.3737 302.089 8.58583 301.636 7.19998 301.636L7.19998 303.636C8.21413 303.636 9.72623 303.983 11.794 304.77L12.506 302.901ZM7.19998 301.636C5.99466 301.636 4.89529 301.91 3.93991 302.496C2.98575 303.081 2.23354 303.94 1.66505 305.02L3.43489 305.952C3.8664 305.132 4.38919 304.566 4.98504 304.201C5.57966 303.837 6.30529 303.636 7.19998 303.636L7.19998 301.636ZM1.66505 305.02C0.549111 307.14 0.0499771 310.291 0.0499773 314.336L2.04998 314.336C2.04998 310.381 2.55084 307.631 3.43489 305.952L1.66505 305.02ZM0.0499773 314.336C0.0499772 314.236 0.0778474 314.104 0.161675 313.978C0.241334 313.859 0.334134 313.801 0.377763 313.779C0.417478 313.759 0.426335 313.764 0.379331 313.771C0.335019 313.779 0.260999 313.786 0.14998 313.786L0.14998 315.786C0.501054 315.786 0.913228 315.747 1.27219 315.568C1.46582 315.471 1.67112 315.319 1.82578 315.087C1.98461 314.849 2.04998 314.586 2.04998 314.336L0.0499773 314.336ZM0.14998 313.786C0.0389604 313.786 -0.03506 313.779 -0.0793715 313.771C-0.12638 313.764 -0.117518 313.759 -0.0778037 313.779C-0.034175 313.801 0.0586252 313.859 0.138284 313.978C0.222112 314.104 0.249982 314.236 0.249982 314.336L-1.75002 314.336C-1.75002 314.586 -1.68465 314.849 -1.52582 315.087C-1.37116 315.319 -1.16586 315.471 -0.972232 315.568C-0.613273 315.747 -0.201095 315.786 0.14998 315.786L0.14998 313.786ZM0.249711 314.359L0.399708 307.909L-1.59975 307.863L-1.74975 314.313L0.249711 314.359ZM0.398255 307.945C0.599167 304.529 0.699974 301.409 0.699974 298.586L-1.30003 298.586C-1.30003 301.363 -1.39921 304.443 -1.5983 307.827L0.398255 307.945ZM0.699974 298.586C0.699974 296.455 0.598549 294.079 0.397034 291.459L-1.59708 291.613C-1.39859 294.193 -1.30003 296.517 -1.30003 298.586L0.699974 298.586ZM0.399696 291.512L0.249698 285.212L-1.74974 285.26L-1.59974 291.56L0.399696 291.512ZM87.6 239.934L87.9714 240.862L87.9827 240.858L87.9939 240.853L87.6 239.934ZM90.45 236.484L91.4093 236.766L91.4115 236.759L91.4135 236.751L90.45 236.484ZM92.85 235.284L91.8515 235.228L91.8504 235.249L91.8501 235.269L92.85 235.284ZM92.7 245.934L91.7001 245.919L91.6999 245.934L91.7001 245.948L92.7 245.934ZM92.85 256.284L91.8501 256.298L91.8504 256.319L91.8515 256.339L92.85 256.284ZM90.45 255.384L89.4865 255.651L89.4885 255.659L89.4906 255.666L90.45 255.384ZM87.6 251.784L87.1771 252.69L87.1915 252.696L87.2061 252.703L87.6 251.784ZM4.79998 251.784L5.1939 252.703L5.22091 252.691L5.24719 252.678L4.79998 251.784ZM1.94997 255.384L2.89296 255.716L2.90434 255.684L2.91349 255.651L1.94997 255.384ZM-0.75002 263.634L-1.74981 263.613L-1.75002 263.623L-1.75002 263.634L-0.75002 263.634ZM-0.600023 256.284L-1.59889 256.236L-1.59954 256.25L-1.59981 256.263L-0.600023 256.284ZM-0.600024 235.134L-1.5998 235.155L-1.59952 235.168L-1.59889 235.181L-0.600024 235.134ZM-0.750022 228.084L-1.75002 228.084L-1.75002 228.094L-1.7498 228.105L-0.750022 228.084ZM1.94997 236.334L1.00129 236.65L1.00406 236.658L1.00698 236.666L1.94997 236.334ZM5.09997 239.934L4.67709 240.84L4.69147 240.846L4.70606 240.853L5.09997 239.934ZM80.85 241.834C83.8872 241.834 86.2914 241.534 87.9714 240.862L87.2286 239.005C85.9085 239.533 83.8128 239.834 80.85 239.834L80.85 241.834ZM87.9939 240.853C89.7142 240.115 90.8406 238.7 91.4093 236.766L89.4906 236.201C89.0594 237.668 88.2858 238.552 87.2061 239.014L87.9939 240.853ZM91.4135 236.751C91.9516 234.814 92.2 231.901 92.2 228.084L90.2 228.084C90.2 231.866 89.9484 234.553 89.4865 236.216L91.4135 236.751ZM92.2 228.084C92.2 228.184 92.1721 228.316 92.0883 228.441C92.0086 228.561 91.9158 228.619 91.8722 228.641C91.8325 228.66 91.8236 228.656 91.8706 228.648C91.9149 228.641 91.989 228.634 92.1 228.634L92.1 226.634C91.7489 226.634 91.3367 226.672 90.9778 226.852C90.7841 226.948 90.5788 227.1 90.4242 227.332C90.2653 227.57 90.2 227.834 90.2 228.084L92.2 228.084ZM92.1 228.634C92.211 228.634 92.285 228.641 92.3293 228.648C92.3763 228.656 92.3675 228.66 92.3278 228.641C92.2841 228.619 92.1913 228.561 92.1117 228.441C92.0278 228.316 92 228.184 92 228.084L94 228.084C94 227.834 93.9346 227.57 93.7758 227.332C93.6211 227.1 93.4158 226.948 93.2222 226.852C92.8632 226.672 92.4511 226.634 92.1 226.634L92.1 228.634ZM92 228.084C92 231.075 91.95 233.455 91.8515 235.228L93.8484 235.339C93.9499 233.513 94 231.092 94 228.084L92 228.084ZM91.8501 235.269L91.7001 245.919L93.6999 245.948L93.8499 235.298L91.8501 235.269ZM91.7001 245.948L91.8501 256.298L93.8499 256.269L93.6999 245.919L91.7001 245.948ZM91.8515 256.339C91.95 258.112 92 260.541 92 263.634L94 263.634C94 260.526 93.9499 258.055 93.8484 256.228L91.8515 256.339ZM92 263.634C92 263.534 92.0278 263.402 92.1117 263.276C92.1913 263.156 92.2841 263.098 92.3278 263.077C92.3675 263.057 92.3763 263.061 92.3293 263.069C92.285 263.076 92.211 263.084 92.1 263.084L92.1 265.084C92.4511 265.084 92.8632 265.045 93.2222 264.866C93.4158 264.769 93.6211 264.617 93.7758 264.385C93.9346 264.147 94 263.884 94 263.634L92 263.634ZM92.1 263.084C91.989 263.084 91.9149 263.076 91.8706 263.069C91.8236 263.061 91.8325 263.057 91.8722 263.077C91.9158 263.098 92.0086 263.156 92.0883 263.276C92.1721 263.402 92.2 263.534 92.2 263.634L90.2 263.634C90.2 263.884 90.2653 264.147 90.4242 264.385C90.5788 264.617 90.7841 264.769 90.9778 264.866C91.3367 265.045 91.7489 265.084 92.1 265.084L92.1 263.084ZM92.2 263.634C92.2 259.821 91.9526 256.948 91.4093 255.101L89.4906 255.666C89.9474 257.219 90.2 259.846 90.2 263.634L92.2 263.634ZM91.4135 255.116C90.8526 253.097 89.7357 251.611 87.9939 250.864L87.2061 252.703C88.2643 253.156 89.0474 254.071 89.4865 255.651L91.4135 255.116ZM88.0229 250.877C86.3227 250.084 83.8962 249.734 80.85 249.734L80.85 251.734C83.8038 251.734 85.8772 252.083 87.1771 252.69L88.0229 250.877ZM80.85 249.734L11.4 249.734L11.4 251.734L80.85 251.734L80.85 249.734ZM11.4 249.734C8.362 249.734 5.96805 250.082 4.35277 250.889L5.24719 252.678C6.4319 252.086 8.43796 251.734 11.4 251.734L11.4 249.734ZM4.40606 250.864C2.66427 251.611 1.54737 253.097 0.986452 255.116L2.91349 255.651C3.35257 254.071 4.13568 253.156 5.1939 252.703L4.40606 250.864ZM1.00698 255.051C0.346697 256.922 0.0499749 259.817 0.049975 263.634L2.04998 263.634C2.04997 259.85 2.35325 257.246 2.89296 255.716L1.00698 255.051ZM0.049975 263.634C0.049975 263.534 0.0778452 263.402 0.161673 263.276C0.241332 263.156 0.334132 263.098 0.377761 263.077C0.417475 263.057 0.426333 263.061 0.379325 263.069C0.335013 263.076 0.260996 263.084 0.149977 263.084L0.149977 265.084C0.501052 265.084 0.91323 265.045 1.27219 264.866C1.46582 264.769 1.67112 264.617 1.82577 264.385C1.98461 264.147 2.04998 263.884 2.04998 263.634L0.049975 263.634ZM0.149977 263.084C0.0389582 263.084 -0.0350622 263.076 -0.0793737 263.069C-0.126378 263.061 -0.117521 263.057 -0.0778059 263.077C-0.0341772 263.098 0.0586229 263.156 0.138281 263.276C0.222109 263.402 0.24998 263.534 0.24998 263.634L-1.75002 263.634C-1.75002 263.884 -1.68465 264.147 -1.52582 264.385C-1.37116 264.617 -1.16586 264.769 -0.972234 264.866C-0.613275 265.045 -0.201097 265.084 0.149977 265.084L0.149977 263.084ZM0.24977 263.654L0.399771 256.304L-1.59981 256.263L-1.74981 263.613L0.24977 263.654ZM0.398844 256.331C0.599234 252.123 0.699972 248.656 0.699972 245.934L-1.30003 245.934C-1.30003 248.612 -1.39928 252.044 -1.59889 256.236L0.398844 256.331ZM0.699972 245.934C0.699972 242.913 0.599325 239.296 0.398843 235.086L-1.59889 235.181C-1.39937 239.371 -1.30003 242.954 -1.30003 245.934L0.699972 245.934ZM0.399751 235.112L0.249753 228.062L-1.7498 228.105L-1.5998 235.155L0.399751 235.112ZM0.249978 228.084C0.249978 228.184 0.222108 228.316 0.13828 228.441C0.0586214 228.561 -0.0341787 228.619 -0.0778074 228.641C-0.117522 228.66 -0.126384 228.656 -0.0793752 228.648C-0.0350637 228.641 0.0389567 228.634 0.149976 228.634L0.149976 226.634C-0.201099 226.634 -0.613277 226.672 -0.972236 226.852C-1.16587 226.948 -1.37117 227.1 -1.52582 227.332C-1.68465 227.57 -1.75002 227.834 -1.75002 228.084L0.249978 228.084ZM0.149976 228.634C0.260995 228.634 0.335015 228.641 0.379327 228.648C0.426332 228.656 0.417474 228.66 0.377759 228.641C0.33413 228.619 0.24133 228.561 0.161672 228.441C0.0778437 228.316 0.0499735 228.184 0.0499735 228.084L2.04997 228.084C2.04997 227.834 1.9846 227.57 1.82577 227.332C1.67112 227.1 1.46582 226.948 1.27219 226.852C0.913224 226.672 0.50105 226.634 0.149976 226.634L0.149976 228.634ZM0.0499735 228.084C0.0499736 231.809 0.348596 234.692 1.00129 236.65L2.89865 236.017C2.35135 234.375 2.04997 231.758 2.04997 228.084L0.0499735 228.084ZM1.00698 236.666C1.68755 238.595 2.91082 240.016 4.67709 240.84L5.52286 239.027C4.28913 238.452 3.4124 237.473 2.89296 236.001L1.00698 236.666ZM4.70606 240.853C6.30055 241.536 8.6704 241.834 11.7 241.834L11.7 239.834C8.72954 239.834 6.6994 239.531 5.49389 239.014L4.70606 240.853ZM11.7 241.834L80.85 241.834L80.85 239.834L11.7 239.834L11.7 241.834ZM6.74997 191.779L6.04286 192.486L6.04847 192.492L6.05418 192.497L6.74997 191.779ZM23.1 198.529L22.9211 199.513L23.0098 199.529L23.1 199.529L23.1 198.529ZM23.1 200.179L22.9895 201.173L23.0446 201.179L23.1 201.179L23.1 200.179ZM8.99998 198.829L9.08586 197.833L8.99998 198.829ZM-0.750024 188.329L-1.7494 188.294L-1.75002 188.311L-1.75002 188.329L-0.750024 188.329ZM-0.600028 139.429L-1.59992 139.444L-1.59981 139.451L-1.59957 139.459L-0.600028 139.429ZM-0.750026 129.229L-1.75003 129.229L-1.75003 129.236L-1.74992 129.244L-0.750026 129.229ZM-1.50003 121.279L-2.46355 121.547L-2.46153 121.554L-2.4594 121.561L-1.50003 121.279ZM-4.50003 117.829L-4.1838 116.88L-4.22024 116.868L-4.2575 116.859L-4.50003 117.829ZM-4.50003 116.179L-4.39713 115.184L-4.44844 115.179L-4.50003 115.179L-4.50003 116.179ZM8.69997 117.079L8.64919 118.078L8.69997 117.079ZM23.1 119.329L23.1 118.329L23.0807 118.329L23.0615 118.33L23.1 119.329ZM6.74997 124.129L7.42149 124.87L7.42735 124.865L7.43312 124.859L6.74997 124.129ZM87.6 152.029L87.1528 151.134L87.6 152.029ZM90.45 147.979L91.4201 148.221L90.45 147.979ZM92.85 146.479L91.8512 146.429L91.8503 146.448L91.8501 146.466L92.85 146.479ZM92.7 158.179L91.7001 158.166L91.6999 158.179L91.7001 158.192L92.7 158.179ZM92.85 169.429L91.8501 169.442L91.8503 169.461L91.8512 169.479L92.85 169.429ZM87.6 164.179L87.1294 165.061L87.141 165.067L87.1528 165.073L87.6 164.179ZM4.94997 164.029L5.42407 164.909L5.4391 164.901L5.45384 164.893L4.94997 164.029ZM2.54997 167.929L3.52852 168.135L3.53376 168.11L3.53773 168.085L2.54997 167.929ZM0.949969 177.529C0.949969 183.988 2.59185 189.035 6.04286 192.486L7.45708 191.072C4.50808 188.123 2.94997 183.669 2.94997 177.529L0.949969 177.529ZM6.05418 192.497C9.46813 195.804 15.1558 198.101 22.9211 199.513L23.2789 197.545C15.6442 196.157 10.4318 193.953 7.44577 191.061L6.05418 192.497ZM23.1 199.529C22.9965 199.529 22.8852 199.509 22.7764 199.462C22.6687 199.416 22.5851 199.353 22.5241 199.292C22.4113 199.179 22.3783 199.076 22.3763 199.07C22.3717 199.057 22.3796 199.076 22.3873 199.146C22.3947 199.212 22.4 199.305 22.4 199.429L24.4 199.429C24.4 199.1 24.3758 198.744 24.2737 198.438C24.1801 198.157 23.8642 197.529 23.1 197.529L23.1 199.529ZM22.4 199.429C22.4 199.523 22.3951 199.586 22.39 199.625C22.3844 199.667 22.3812 199.658 22.3965 199.62C22.411 199.584 22.4618 199.471 22.591 199.364C22.738 199.241 22.9222 199.179 23.1 199.179L23.1 201.179C23.3777 201.179 23.6495 201.085 23.8714 200.9C24.0756 200.73 24.189 200.524 24.2534 200.363C24.3754 200.058 24.4 199.716 24.4 199.429L22.4 199.429ZM23.2104 199.185C19.5989 198.784 14.8898 198.333 9.08586 197.833L8.91409 199.825C14.7102 200.325 19.4011 200.774 22.9895 201.173L23.2104 199.185ZM9.08586 197.833C3.27967 197.332 -1.10535 197.079 -4.05003 197.079L-4.05003 199.079C-1.19471 199.079 3.12028 199.326 8.91409 199.825L9.08586 197.833ZM-4.05003 197.079C-4.14588 197.079 -4.0341 197.056 -3.90542 197.184C-3.77674 197.313 -3.80003 197.425 -3.80003 197.329L-5.80003 197.329C-5.80003 197.733 -5.69831 198.22 -5.31963 198.599C-4.94095 198.977 -4.45417 199.079 -4.05003 199.079L-4.05003 197.079ZM-3.80003 197.329C-3.80003 197.245 -3.79094 197.208 -3.78963 197.203C-3.78901 197.201 -3.80002 197.241 -3.8443 197.294C-3.89182 197.351 -3.95184 197.392 -4.00676 197.414C-4.05557 197.433 -4.07708 197.429 -4.05003 197.429L-4.05003 195.429C-4.50696 195.429 -5.01489 195.575 -5.38075 196.014C-5.7175 196.418 -5.80003 196.915 -5.80003 197.329L-3.80003 197.329ZM-4.05003 197.429C-3.27719 197.429 -2.5703 197.185 -1.97304 196.697C-1.39259 196.222 -0.96484 195.557 -0.64893 194.781C-0.0246435 193.249 0.249976 191.067 0.249976 188.329L-1.75002 188.329C-1.75002 190.991 -2.02541 192.859 -2.50111 194.027C-2.73521 194.601 -2.99497 194.949 -3.23951 195.149C-3.46725 195.335 -3.72286 195.429 -4.05003 195.429L-4.05003 197.429ZM0.249355 188.364C0.549884 179.849 0.699969 169.787 0.699968 158.179L-1.30003 158.179C-1.30003 169.771 -1.44994 179.809 -1.7494 188.294L0.249355 188.364ZM0.699968 158.179C0.699968 152.268 0.599782 146.008 0.399514 139.399L-1.59957 139.459C-1.39984 146.05 -1.30003 152.29 -1.30003 158.179L0.699968 158.179ZM0.399865 139.414L0.249867 129.214L-1.74992 129.244L-1.59992 139.444L0.399865 139.414ZM0.249974 129.229C0.249974 125.611 0.00172822 122.841 -0.540672 120.997L-2.4594 121.561C-2.00179 123.117 -1.75003 125.647 -1.75003 129.229L0.249974 129.229ZM-0.536518 121.011C-1.10693 118.958 -2.30743 117.506 -4.1838 116.88L-4.81626 118.778C-3.69263 119.152 -2.89314 120 -2.46355 121.547L-0.536518 121.011ZM-4.2575 116.859C-4.26204 116.858 -4.24083 116.862 -4.20783 116.884C-4.17298 116.908 -4.14122 116.939 -4.11798 116.974C-4.07367 117.041 -4.10003 117.055 -4.10003 116.929L-6.10003 116.929C-6.10003 117.303 -6.0264 117.717 -5.78209 118.084C-5.52426 118.47 -5.14681 118.698 -4.74257 118.799L-4.2575 116.859ZM-4.10003 116.929C-4.10003 116.786 -4.06703 116.863 -4.16917 116.991C-4.22574 117.062 -4.30032 117.117 -4.37792 117.149C-4.44941 117.179 -4.49759 117.179 -4.50003 117.179L-4.50003 115.179C-4.92074 115.179 -5.39468 115.321 -5.7309 115.742C-6.03304 116.119 -6.10003 116.572 -6.10003 116.929L-4.10003 116.929ZM-4.60293 117.174C-1.67583 117.476 2.74559 117.777 8.64919 118.078L8.75075 116.08C2.85434 115.78 -1.52423 115.481 -4.39713 115.184L-4.60293 117.174ZM8.64919 118.078C14.5574 118.378 19.3761 118.529 23.1 118.529L23.1 116.529C19.4238 116.529 14.6425 116.38 8.75075 116.08L8.64919 118.078ZM23.1 118.529C22.9965 118.529 22.8852 118.509 22.7764 118.462C22.6687 118.416 22.5851 118.353 22.5241 118.292C22.4113 118.179 22.3783 118.076 22.3763 118.07C22.3717 118.057 22.3796 118.076 22.3873 118.146C22.3947 118.212 22.4 118.305 22.4 118.429L24.4 118.429C24.4 118.1 24.3758 117.744 24.2737 117.438C24.1801 117.157 23.8642 116.529 23.1 116.529L23.1 118.529ZM22.4 118.429C22.4 118.553 22.3947 118.646 22.3873 118.712C22.3796 118.782 22.3717 118.801 22.3763 118.788C22.3783 118.782 22.4113 118.678 22.5241 118.566C22.5851 118.505 22.6687 118.442 22.7764 118.396C22.8852 118.349 22.9965 118.329 23.1 118.329L23.1 120.329C23.8642 120.329 24.1801 119.701 24.2737 119.42C24.3758 119.114 24.4 118.758 24.4 118.429L22.4 118.429ZM23.0615 118.33C15.1999 118.632 9.43941 120.244 6.06681 123.399L7.43312 124.859C10.2605 122.214 15.4001 120.626 23.1384 120.328L23.0615 118.33ZM6.07845 123.388C2.57732 126.561 0.949967 131.701 0.949967 138.529L2.94997 138.529C2.94997 131.957 4.52261 127.497 7.42149 124.87L6.07845 123.388ZM0.949967 138.529C0.949967 143.032 1.14801 146.324 1.57142 148.335L3.52852 147.923C3.15193 146.134 2.94997 143.026 2.94997 138.529L0.949967 138.529ZM1.57142 148.335C2.01168 150.426 2.99056 152.029 4.62587 152.909L5.57407 151.148C4.60938 150.629 3.88826 149.632 3.52852 147.923L1.57142 148.335ZM4.62587 152.909C6.16034 153.736 8.57866 154.079 11.7 154.079L11.7 152.079C8.62128 152.079 6.6396 151.722 5.57407 151.148L4.62587 152.909ZM11.7 154.079L80.85 154.079L80.85 152.079L11.7 152.079L11.7 154.079ZM80.85 154.079C83.9817 154.079 86.429 153.732 88.0472 152.923L87.1528 151.134C85.9709 151.725 83.9182 152.079 80.85 152.079L80.85 154.079ZM88.0472 152.923C89.7851 152.054 90.8732 150.409 91.4201 148.221L89.4798 147.736C89.0268 149.549 88.2148 150.603 87.1528 151.134L88.0472 152.923ZM91.4201 148.221C91.9516 146.096 92.2 142.842 92.2 138.529L90.2 138.529C90.2 142.815 89.9484 145.862 89.4798 147.736L91.4201 148.221ZM92.2 138.529C92.2 138.629 92.1721 138.761 92.0883 138.887C92.0086 139.006 91.9158 139.064 91.8722 139.086C91.8325 139.106 91.8236 139.101 91.8706 139.093C91.9149 139.086 91.989 139.079 92.1 139.079L92.1 137.079C91.7489 137.079 91.3367 137.117 90.9778 137.297C90.7841 137.394 90.5788 137.545 90.4242 137.777C90.2653 138.016 90.2 138.279 90.2 138.529L92.2 138.529ZM92.1 139.079C92.211 139.079 92.285 139.086 92.3293 139.093C92.3763 139.101 92.3675 139.106 92.3278 139.086C92.2841 139.064 92.1913 139.006 92.1117 138.887C92.0278 138.761 92 138.629 92 138.529L94 138.529C94 138.279 93.9346 138.016 93.7758 137.777C93.6211 137.545 93.4158 137.394 93.2222 137.297C92.8632 137.117 92.4511 137.079 92.1 137.079L92.1 139.079ZM92 138.529C92 141.821 91.95 144.453 91.8512 146.429L93.8487 146.529C93.9499 144.505 94 141.836 94 138.529L92 138.529ZM91.8501 146.466L91.7001 158.166L93.6999 158.192L93.8499 146.492L91.8501 146.466ZM91.7001 158.192L91.8501 169.442L93.8499 169.416L93.6999 158.166L91.7001 158.192ZM91.8512 169.479C91.95 171.454 92 174.185 92 177.679L94 177.679C94 174.173 93.95 171.403 93.8487 169.379L91.8512 169.479ZM92 177.679C92 177.575 92.0201 177.464 92.0668 177.355C92.1129 177.248 92.1757 177.164 92.2366 177.103C92.3495 176.99 92.4528 176.957 92.4587 176.955C92.4724 176.951 92.4531 176.958 92.3833 176.966C92.317 176.974 92.2241 176.979 92.1 176.979L92.1 178.979C92.4292 178.979 92.7849 178.955 93.0912 178.853C93.3718 178.759 94 178.443 94 177.679L92 177.679ZM92.1 176.979C91.9758 176.979 91.8829 176.974 91.8167 176.966C91.7469 176.958 91.7276 176.951 91.7412 176.955C91.7472 176.957 91.8505 176.99 91.9633 177.103C92.0243 177.164 92.087 177.248 92.1332 177.355C92.1798 177.464 92.2 177.575 92.2 177.679L90.2 177.679C90.2 178.443 90.8281 178.759 91.1087 178.853C91.4151 178.955 91.7708 178.979 92.1 178.979L92.1 176.979ZM92.2 177.679C92.2 173.365 91.9516 170.112 91.4201 167.986L89.4798 168.471C89.9484 170.346 90.2 173.392 90.2 177.679L92.2 177.679ZM91.4201 167.986C90.8732 165.799 89.7851 164.153 88.0472 163.284L87.1528 165.073C88.2148 165.604 89.0268 166.659 89.4798 168.471L91.4201 167.986ZM88.0706 163.297C86.3536 162.381 83.9062 161.979 80.85 161.979L80.85 163.979C83.7937 163.979 85.8463 164.377 87.1294 165.061L88.0706 163.297ZM80.85 161.979L11.4 161.979L11.4 163.979L80.85 163.979L80.85 161.979ZM11.4 161.979C8.29136 161.979 5.89807 162.318 4.4461 163.165L5.45384 164.893C6.40187 164.34 8.30858 163.979 11.4 163.979L11.4 161.979ZM4.47587 163.148C2.82131 164.039 1.89483 165.666 1.5622 167.773L3.53773 168.085C3.80511 166.391 4.47863 165.418 5.42407 164.909L4.47587 163.148ZM1.57142 167.723C1.14801 169.734 0.949969 173.026 0.949969 177.529L2.94997 177.529C2.94997 173.032 3.15193 169.924 3.52852 168.135L1.57142 167.723ZM92.7 10.3574L91.7012 10.3075L92.7 10.3574ZM92.7 27.4574L91.7017 27.5161L91.7019 27.5198L92.7 27.4574ZM90.15 26.7074L89.2253 27.0882L90.15 26.7074ZM80.1 26.1074L79.6909 25.1949L79.683 25.1985L79.6751 25.2022L80.1 26.1074ZM43.35 43.3574L42.9251 42.4522L42.35 42.7221L42.35 43.3574L43.35 43.3574ZM43.35 71.7074L42.35 71.7074L42.35 72.3711L42.9615 72.6289L43.35 71.7074ZM73.95 84.6074L73.5615 85.5289L73.5692 85.5321L73.95 84.6074ZM92.7 79.8074L91.7017 79.7487L91.7014 79.7549L92.7 79.8074ZM92.7 98.7074L91.7017 98.7662L91.7022 98.7739L92.7 98.7074ZM89.7 99.1574L90.5849 98.6916L90.5806 98.6835L90.5762 98.6755L89.7 99.1574ZM84.15 93.6074L83.5952 94.4395L83.6027 94.4444L84.15 93.6074ZM72.6 87.7574L72.2098 88.6782L72.2127 88.6794L72.6 87.7574ZM-2.10003 56.1074L-2.65473 56.9395L-2.57661 56.9916L-2.49015 57.0282L-2.10003 56.1074ZM-2.10003 54.1574L-1.7838 55.1061L-1.72606 55.0869L-1.67108 55.0607L-2.10003 54.1574ZM72.45 18.7574L72.0324 17.8487L72.021 17.8541L72.45 18.7574ZM87.45 10.0574L88.1282 10.7922L88.1354 10.7856L88.1425 10.7788L87.45 10.0574ZM40.2 70.3574L39.8119 71.279L41.2 71.8635L41.2 70.3574L40.2 70.3574ZM40.2 44.8574L41.2 44.8574L41.2 43.2772L39.7719 43.9537L40.2 44.8574ZM11.7 58.3574L11.2719 57.4537L9.25059 58.4111L11.3119 59.2791L11.7 58.3574ZM92.2 1.50738C92.2 1.53301 92.1947 1.604 92.1506 1.69213C92.1045 1.78442 92.0383 1.8504 91.9797 1.88946C91.9277 1.92407 91.8991 1.92645 91.9231 1.92108C91.9468 1.91583 92.0024 1.9074 92.1 1.9074L92.1 -0.0925964C91.7204 -0.0925964 91.2609 -0.0350402 90.8703 0.225336C90.4081 0.533502 90.2 1.01611 90.2 1.50738L92.2 1.50738ZM92.1 1.9074C92.1976 1.9074 92.2531 1.91583 92.2768 1.92108C92.3008 1.92645 92.2722 1.92407 92.2203 1.88946C92.1617 1.8504 92.0954 1.78442 92.0493 1.69213C92.0052 1.604 92 1.53301 92 1.50738L94 1.50738C94 1.01611 93.7919 0.533502 93.3297 0.225336C92.939 -0.0350403 92.4795 -0.0925964 92.1 -0.0925964L92.1 1.9074ZM92 1.50738C92 3.38098 91.9011 6.31011 91.7012 10.3075L93.6987 10.4073C93.8988 6.40472 94 3.43383 94 1.50738L92 1.50738ZM91.7012 10.3075C91.5011 14.3091 91.4 17.2305 91.4 19.0574L93.4 19.0574C93.4 17.2843 93.4988 14.4058 93.6987 10.4073L91.7012 10.3075ZM91.4 19.0574C91.4 21.2845 91.5011 24.1059 91.7017 27.5161L93.6982 27.3987C93.4988 24.0089 93.4 21.2303 93.4 19.0574L91.4 19.0574ZM91.7019 27.5198C91.9015 30.7137 92 33.139 92 34.8074L94 34.8074C94 33.0758 93.8984 30.6011 93.698 27.395L91.7019 27.5198ZM92 34.8074C92 34.7818 92.0052 34.7108 92.0493 34.6227C92.0954 34.5305 92.1617 34.4644 92.2203 34.4253C92.2722 34.3907 92.3008 34.3884 92.2768 34.3937C92.2531 34.399 92.1976 34.4074 92.1 34.4074L92.1 36.4074C92.4795 36.4074 92.939 36.3499 93.3297 36.0895C93.7919 35.7813 94 35.2987 94 34.8074L92 34.8074ZM92.1 34.4074C92.0024 34.4074 91.9468 34.399 91.9232 34.3937C91.8991 34.3884 91.9277 34.3907 91.9797 34.4253C92.0383 34.4644 92.1045 34.5305 92.1507 34.6227C92.1947 34.7108 92.2 34.7818 92.2 34.8074L90.2 34.8074C90.2 35.2987 90.4081 35.7813 90.8703 36.0895C91.2609 36.3499 91.7204 36.4074 92.1 36.4074L92.1 34.4074ZM92.2 34.8074C92.2 31.0821 91.853 28.2169 91.0746 26.3267L89.2253 27.0882C89.847 28.598 90.2 31.1327 90.2 34.8074L92.2 34.8074ZM91.0746 26.3267C90.6706 25.3453 90.0918 24.5377 89.303 23.9789C88.5087 23.4163 87.5737 23.1574 86.55 23.1574L86.55 25.1574C87.2263 25.1574 87.7413 25.3236 88.147 25.611C88.5581 25.9022 88.9294 26.3695 89.2253 27.0882L91.0746 26.3267ZM86.55 23.1574C84.918 23.1574 82.5966 23.8923 79.6909 25.1949L80.509 27.0199C83.4033 25.7225 85.382 25.1574 86.55 25.1574L86.55 23.1574ZM79.6751 25.2022L42.9251 42.4522L43.7749 44.2626L80.5249 27.0126L79.6751 25.2022ZM42.35 43.3574L42.35 71.7074L44.35 71.7074L44.35 43.3574L42.35 43.3574ZM42.9615 72.6289L73.5615 85.5289L74.3384 83.686L43.7384 70.7859L42.9615 72.6289ZM73.5692 85.5321C77.0198 86.9529 79.9603 87.7074 82.35 87.7074L82.35 85.7074C80.3396 85.7074 77.6802 85.0619 74.3307 83.6827L73.5692 85.5321ZM82.35 87.7074C85.6371 87.7074 88.1814 86.3101 89.8442 83.5482C91.4581 80.8675 92.2 76.9752 92.2 72.0074L90.2 72.0074C90.2 76.8397 89.4668 80.2974 88.1308 82.5167C86.8435 84.6547 84.9628 85.7074 82.35 85.7074L82.35 87.7074ZM92.2 72.0074C92.2 71.9803 92.2042 72.0019 92.1847 72.0507C92.1627 72.1056 92.1222 72.1656 92.0652 72.2131C92.012 72.2574 91.9716 72.2684 91.9739 72.2678C91.9786 72.2665 92.0161 72.2574 92.1 72.2574L92.1 70.2574C91.6857 70.2574 91.1889 70.34 90.7848 70.6767C90.3458 71.0425 90.2 71.5505 90.2 72.0074L92.2 72.0074ZM92.1 72.2574C92.1838 72.2574 92.2214 72.2665 92.2261 72.2678C92.2283 72.2684 92.1879 72.2574 92.1348 72.2131C92.0778 72.1656 92.0372 72.1056 92.0152 72.0507C91.9957 72.0019 92 71.9803 92 72.0074L94 72.0074C94 71.5505 93.8542 71.0425 93.4152 70.6767C93.011 70.34 92.5142 70.2574 92.1 70.2574L92.1 72.2574ZM92 72.0074C92 73.7776 91.9014 76.3543 91.7017 79.7487L93.6982 79.8661C93.8986 76.4605 94 73.8372 94 72.0074L92 72.0074ZM91.7014 79.7549C91.5007 83.5666 91.4 86.8849 91.4 89.7074L93.4 89.7074C93.4 86.9299 93.4992 83.6482 93.6986 79.86L91.7014 79.7549ZM91.4 89.7074C91.4 92.3319 91.5009 95.3522 91.7017 98.7661L93.6982 98.6487C93.4991 95.2626 93.4 92.2829 93.4 89.7074L91.4 89.7074ZM91.7022 98.7739C91.9014 101.762 92 104.238 92 106.207L94 106.207C94 104.177 93.8986 101.653 93.6978 98.6409L91.7022 98.7739ZM92 106.207C92 106.234 91.9957 106.213 92.0152 106.164C92.0372 106.109 92.0778 106.049 92.1348 106.002C92.1879 105.957 92.2283 105.946 92.2261 105.947C92.2214 105.948 92.1838 105.957 92.1 105.957L92.1 107.957C92.5142 107.957 93.0111 107.875 93.4152 107.538C93.8542 107.172 94 106.664 94 106.207L92 106.207ZM92.1 105.957C92.0161 105.957 91.9786 105.948 91.9739 105.947C91.9716 105.946 92.012 105.957 92.0652 106.002C92.1222 106.049 92.1627 106.109 92.1847 106.164C92.2042 106.213 92.2 106.234 92.2 106.207L90.2 106.207C90.2 106.664 90.3458 107.172 90.7848 107.538C91.1889 107.875 91.6857 107.957 92.1 107.957L92.1 105.957ZM92.2 106.207C92.2 103.293 91.6799 100.772 90.5849 98.6916L88.8151 99.6232C89.72 101.343 90.2 103.522 90.2 106.207L92.2 106.207ZM90.5762 98.6755C89.3739 96.4896 87.3871 94.5292 84.6972 92.7704L83.6027 94.4444C86.1128 96.0856 87.826 97.8252 88.8237 99.6393L90.5762 98.6755ZM84.7047 92.7754C81.9285 90.9246 78.0124 88.946 72.9872 86.8354L72.2127 88.6794C77.1875 90.7688 80.9715 92.6903 83.5953 94.4394L84.7047 92.7754ZM72.9901 86.8367L-1.70991 55.1866L-2.49015 57.0282L72.2098 88.6782L72.9901 86.8367ZM-1.54533 55.2754C-1.53902 55.2796 -1.53045 55.2869 -1.52295 55.2961C-1.51573 55.3049 -1.51519 55.3085 -1.51839 55.301C-1.52616 55.2829 -1.55003 55.2123 -1.55003 55.0574L-3.55003 55.0574C-3.55003 55.7505 -3.33285 56.4874 -2.65473 56.9395L-1.54533 55.2754ZM-1.55003 55.0574C-1.55003 54.9808 -1.54416 54.9315 -1.53903 54.9042C-1.5339 54.8768 -1.53132 54.881 -1.54311 54.9047C-1.55601 54.9305 -1.58344 54.9737 -1.63254 55.0173C-1.68259 55.0618 -1.73693 55.0905 -1.7838 55.1061L-2.41626 53.2087C-3.34643 53.5188 -3.55003 54.4197 -3.55003 55.0574L-1.55003 55.0574ZM-1.67108 55.0607L72.8789 19.6608L72.021 17.8541L-2.52898 53.2541L-1.67108 55.0607ZM72.8675 19.6661C80.2713 16.2643 85.4013 13.3094 88.1282 10.7922L86.7717 9.32263C84.2987 11.6054 79.4286 14.4505 72.0325 17.8487L72.8675 19.6661ZM88.1425 10.7788C90.8279 8.2008 92.2 5.09466 92.2 1.50738L90.2 1.50738C90.2 4.5202 89.0721 7.11401 86.7574 9.33605L88.1425 10.7788ZM41.2 70.3574L41.2 44.8574L39.2 44.8574L39.2 70.3574L41.2 70.3574ZM39.7719 43.9537L11.2719 57.4537L12.128 59.2612L40.6281 45.7612L39.7719 43.9537ZM11.3119 59.2791L39.8119 71.279L40.588 69.4358L12.088 57.4358L11.3119 59.2791Z" fill="url(#paint0_linear_793_13016)"/>
<defs>
<linearGradient id="paint0_linear_793_13016" x1="-46" y1="365" x2="136" y2="365" gradientUnits="userSpaceOnUse">
<stop stop-color="#915606" stop-opacity="0.45"/>
<stop offset="1" stop-color="#DBBF6D" stop-opacity="0.25"/>
</linearGradient>
</defs>
</svg>
