<svg width="28" height="28" viewBox="0 0 28 28" fill="none" xmlns="http://www.w3.org/2000/svg">
<path d="M2.33325 2.33325H4.36326C5.62326 2.33325 6.61492 3.41825 6.50992 4.66659L5.54159 16.2866C5.37825 18.1882 6.88324 19.8216 8.79658 19.8216H21.2216C22.9016 19.8216 24.3716 18.4449 24.4999 16.7766L25.1299 8.02659C25.2699 6.08992 23.7999 4.51491 21.8516 4.51491H6.78993" stroke="#111111" stroke-width="1.5" stroke-miterlimit="10" stroke-linecap="round" stroke-linejoin="round"/>
<path d="M18.9583 25.6667C19.7637 25.6667 20.4167 25.0137 20.4167 24.2083C20.4167 23.4029 19.7637 22.75 18.9583 22.75C18.1529 22.75 17.5 23.4029 17.5 24.2083C17.5 25.0137 18.1529 25.6667 18.9583 25.6667Z" stroke="#111111" stroke-width="1.5" stroke-miterlimit="10" stroke-linecap="round" stroke-linejoin="round"/>
<path d="M9.62508 25.6667C10.4305 25.6667 11.0834 25.0137 11.0834 24.2083C11.0834 23.4029 10.4305 22.75 9.62508 22.75C8.81967 22.75 8.16675 23.4029 8.16675 24.2083C8.16675 25.0137 8.81967 25.6667 9.62508 25.6667Z" stroke="#111111" stroke-width="1.5" stroke-miterlimit="10" stroke-linecap="round" stroke-linejoin="round"/>
<path d="M10.5 9.33325H24.5" stroke="#111111" stroke-width="1.5" stroke-miterlimit="10" stroke-linecap="round" stroke-linejoin="round"/>
</svg>
