<svg width="26" height="26" viewBox="0 0 26 26" fill="none" xmlns="http://www.w3.org/2000/svg">
<mask id="mask0_3798_1468" style="mask-type:alpha" maskUnits="userSpaceOnUse" x="0" y="0" width="26" height="26">
<path d="M13 25C19.6274 25 25 19.6274 25 13C25 6.37258 19.6274 1 13 1C6.37258 1 1 6.37258 1 13C1 19.6274 6.37258 25 13 25Z" fill="white" stroke="#D7D7D9"/>
</mask>
<g mask="url(#mask0_3798_1468)">
<path d="M13 25C19.6274 25 25 19.6274 25 13C25 6.37258 19.6274 1 13 1C6.37258 1 1 6.37258 1 13C1 19.6274 6.37258 25 13 25Z" stroke="#F2F2F2"/>
<path d="M-11 1H37V25H-11V1Z" fill="#012169"/>
<path d="M-11 1V3.68125L31.6328 25H37V22.3187L-5.63281 1H-11ZM37 1V3.68125L-5.63281 25H-11V22.3187L31.6328 1H37Z" fill="white"/>
<path d="M9.00157 1V25H16.9984V1H9.00157ZM-11 9.00156V16.9984H37V9.00156H-11Z" fill="white"/>
<path d="M-11 10.6V15.4H37V10.6H-11ZM10.6 1V25H15.4V1H10.6ZM-11 25L4.99844 16.9984H8.57969L-7.42344 25H-11ZM-11 1L4.99844 9.00156H1.42188L-11 2.79063V1ZM17.425 9.00156L33.4235 1H37L21.0016 9.00156H17.425ZM37 25L21.0016 16.9984H24.5781L37 23.2094V25Z" fill="#C8102E"/>
<path d="M13 25C19.6274 25 25 19.6274 25 13C25 6.37258 19.6274 1 13 1C6.37258 1 1 6.37258 1 13C1 19.6274 6.37258 25 13 25Z" stroke="#E2E0E0"/>
</g>
</svg>
