<svg width="87" height="88" viewBox="0 0 87 88" fill="none" xmlns="http://www.w3.org/2000/svg">
<path d="M41.5543 14.4492C41.158 14.8565 40.7518 15.256 40.3495 15.6366C40.1908 15.7875 40.0317 15.9363 39.8709 16.0822C39.7175 16.225 39.5641 16.3642 39.4075 16.503C39.1944 16.694 38.9775 16.8851 38.7612 17.0715C38.6636 17.1574 38.5631 17.2416 38.463 17.3261L38.2986 17.4649C38.2577 17.4994 38.2162 17.5338 38.1743 17.5668C38.0387 17.6797 37.908 17.7887 37.777 17.8942L37.6467 17.9982C37.4894 18.1271 37.3381 18.2486 37.1851 18.3668L37.1566 18.4112L37.1279 18.4123C36.9535 18.5483 36.7785 18.6835 36.6017 18.8178C36.416 18.9605 36.2246 19.1018 36.0328 19.2435C35.8887 19.3511 35.7427 19.4562 35.5957 19.5613L35.4622 19.6575C35.225 19.8248 34.9857 19.9909 34.745 20.1564L34.7048 20.1841C34.5642 20.2782 34.4233 20.3719 34.2812 20.4667L34.2521 20.4884L33.8814 20.7299C33.9308 20.7615 33.9787 20.7934 34.0273 20.8254L34.2894 21.0008C34.598 21.206 35.0162 21.4887 35.4345 21.7869C35.5521 21.8682 35.6703 21.9538 35.7875 22.0387L35.9192 22.1328C35.9831 22.1796 36.0467 22.2276 36.1102 22.2759C36.2285 22.3593 36.3478 22.4513 36.4667 22.5429C36.6315 22.6618 36.7966 22.789 36.9585 22.9182C37.1201 23.04 37.282 23.1685 37.4435 23.3006C37.9268 23.6841 38.4186 24.0935 38.9019 24.515C39.0446 24.6357 39.1898 24.7621 39.3308 24.891C39.524 25.0615 39.7121 25.2319 39.9014 25.4066L39.9603 25.4606C40.1361 25.625 40.3122 25.789 40.483 25.9523C40.6669 26.127 40.847 26.3042 41.0277 26.4818C41.2333 26.6852 41.4165 26.8688 41.598 27.0573C41.746 27.2083 41.8941 27.3613 42.0404 27.5147C42.2719 27.759 42.5009 28.0058 42.7278 28.255C42.8521 28.3907 42.9739 28.5284 43.0957 28.6658C43.2182 28.5256 43.341 28.3892 43.4632 28.2536C43.7128 27.9784 43.9617 27.7032 44.2184 27.4366C44.3406 27.3048 44.4666 27.1735 44.5938 27.0446C44.7372 26.8947 44.8696 26.7573 45.0042 26.6259C45.1171 26.5105 45.2336 26.3962 45.3504 26.2819L45.3859 26.2467C45.4012 26.23 45.4214 26.2098 45.4435 26.1892L45.883 25.7642C45.9427 25.708 45.985 25.6683 46.0251 25.6324C46.1596 25.5028 46.3017 25.3714 46.4434 25.2422C46.5939 25.1016 46.7498 24.9606 46.9039 24.8246C47.0441 24.6971 47.189 24.5704 47.3325 24.4465C47.5682 24.2405 47.8069 24.0371 48.0462 23.8357C48.2273 23.6852 48.4116 23.5336 48.5948 23.3844C48.7411 23.2662 48.8866 23.1476 49.0358 23.0318C49.089 22.9885 49.1473 22.9423 49.2062 22.8969L49.5474 22.6331C49.9565 22.321 50.3393 22.0373 50.7196 21.7667C50.8499 21.6712 50.9845 21.5778 51.1183 21.4865C51.4152 21.2763 51.7177 21.0697 52.0255 20.8655C52.158 20.7764 52.2911 20.6883 52.4243 20.602C52.2954 20.5179 52.1654 20.4327 52.038 20.3489L52.017 20.3315C51.8146 20.1994 51.6271 20.0733 51.4429 19.9444C51.25 19.8123 51.0587 19.6788 50.8673 19.5432C50.6833 19.4125 50.4998 19.2811 50.3151 19.1451C50.3144 19.1444 50.3048 19.1377 50.2917 19.1274L49.9164 18.8483C49.6696 18.6647 49.4253 18.4783 49.1828 18.2862C49.0255 18.1637 48.8692 18.0409 48.7134 17.9152C48.5692 17.799 48.4282 17.6858 48.2869 17.5665C48.1676 17.4695 48.0462 17.3687 47.9276 17.2675C47.7674 17.135 47.608 16.998 47.4511 16.8595C47.3268 16.7551 47.2029 16.6465 47.0807 16.5371C46.944 16.4153 46.808 16.2928 46.6717 16.1714L46.6273 16.1312C46.4934 16.0098 46.3624 15.8887 46.2314 15.7652C45.2993 14.8966 44.3992 13.9844 43.5566 13.0548C43.3748 12.8546 43.0445 12.8549 42.8638 13.0548C42.551 13.4021 42.2261 13.7522 41.898 14.0963C41.7837 14.2152 41.6704 14.3335 41.5543 14.4492ZM43.2938 17.0115C45.2741 17.0115 46.8844 18.6214 46.8844 20.602C46.8844 22.5816 45.2741 24.1926 43.2938 24.1926C41.3139 24.1926 39.7036 22.5816 39.7036 20.602C39.7036 18.6218 41.3139 17.0115 43.2938 17.0115Z" fill="#0097A0"/>
<path d="M41.4119 30.7017C41.6402 30.4095 41.6306 30.0008 41.3881 29.7316C38.8937 26.9613 36.0502 24.5248 32.9355 22.4902C32.6383 22.2952 32.2931 22.1926 31.9366 22.1926C31.6295 22.1926 31.3259 22.2704 31.0567 22.4177C29.407 23.3214 27.697 24.1257 25.9731 24.8064C25.4103 25.0276 25.0328 25.585 25.0328 26.1933V57.7636C25.0328 59.1832 26.1876 60.3383 27.6072 60.3383H31.1821C31.399 60.3383 31.6018 60.2531 31.7527 60.0976C31.9025 59.9435 31.9817 59.7393 31.9757 59.5241C31.964 59.1037 31.9579 58.6691 31.9579 58.232C31.9583 48.1534 35.2275 38.6334 41.4119 30.7017Z" fill="#0097A0"/>
<path d="M25.5639 22.8232C27.1611 22.1791 28.7245 21.4348 30.2119 20.6114C30.7946 20.2883 31.3709 19.9527 31.9234 19.6129C35.6887 17.2975 39.063 14.4277 41.9533 11.0847V11.0829L41.9885 11.0417C42.0399 10.9838 42.0896 10.9259 42.139 10.8677V0.645008C42.139 0.337866 41.8894 0.0878906 41.5822 0.0878906H27.6081C26.1885 0.0878906 25.0338 1.2426 25.0338 2.66256V22.4589C25.0335 22.7255 25.3118 22.9261 25.5639 22.8232Z" fill="#0097A0"/>
<path d="M43.294 22.2613C44.2091 22.2613 44.953 21.5171 44.953 20.6024C44.953 19.6874 44.2087 18.9431 43.294 18.9431C42.3786 18.9431 41.6348 19.6874 41.6348 20.6024C41.6348 21.5171 42.3786 22.2613 43.294 22.2613Z" fill="#0097A0"/>
<path d="M43.1055 32.0391C42.9681 32.0391 42.8424 32.1001 42.76 32.2081C36.9939 39.7329 33.9459 48.7331 33.9459 58.2317C33.9459 58.6159 33.9509 58.9984 33.9608 59.3786C33.9757 59.9162 34.4086 60.3377 34.9469 60.3377H51.3635C51.894 60.3377 52.3364 59.907 52.3489 59.3779C52.357 59.0399 52.3613 58.7008 52.3613 58.3603C52.3613 48.8023 49.2785 39.7581 43.4471 32.2059C43.3661 32.0998 43.2408 32.0391 43.1055 32.0391Z" fill="#0097A0"/>
<path d="M58.7 0.0883789H44.723C44.4159 0.0883789 44.1663 0.338354 44.1663 0.645496V10.7404L44.4262 11.0411C47.3023 14.3515 50.6525 17.1932 54.3843 19.4856C54.9482 19.8314 55.5252 20.1673 56.0979 20.484C57.6077 21.3171 59.1715 22.0613 60.7431 22.6951C60.9934 22.796 61.2743 22.5953 61.2743 22.329V2.66305C61.2743 1.24309 60.1196 0.0883789 58.7 0.0883789Z" fill="#0097A0"/>
<path d="M60.334 24.6749C58.5892 23.985 56.8784 23.1807 55.25 22.2866C54.9823 22.1389 54.6794 22.0615 54.3726 22.0615C54.0147 22.0615 53.6689 22.1649 53.3692 22.3612C50.2047 24.4313 47.3254 26.9087 44.8118 29.7259C44.5711 29.9979 44.5622 30.4059 44.7916 30.6952C51.0434 38.6547 54.3489 48.2205 54.3489 58.3597C54.3489 58.7485 54.3432 59.1366 54.3336 59.5233C54.3272 59.7385 54.4078 59.9427 54.5584 60.0975C54.7089 60.2519 54.9106 60.3372 55.1272 60.3372H58.7003C60.1199 60.3372 61.2746 59.1821 61.2746 57.7625V26.0625C61.2743 25.4458 60.9054 24.9014 60.334 24.6749Z" fill="#0097A0"/>
<path d="M1.13019 79.6563H5.4593V87.6381H8.4732V79.6563H12.8091V77.1768H1.13019V79.6563Z" fill="#005356"/>
<path d="M23.8624 77.8768C23.3298 77.5742 22.6886 77.3473 21.9564 77.2046C20.8596 76.9905 19.5965 76.9362 18.1862 77.0477C17.7139 77.0842 17.2367 77.134 16.7694 77.1961C16.3007 77.2586 15.8462 77.3332 15.4169 77.4166C14.9862 77.5007 14.5917 77.5888 14.2441 77.6772L14.1468 77.7024V80.4429L14.3233 80.3744C14.6542 80.2469 15.0224 80.1226 15.4191 80.0069C15.8171 79.8908 16.2464 79.7867 16.6959 79.698C17.1405 79.6099 17.6113 79.54 18.0949 79.4878C18.5753 79.437 19.0682 79.4104 19.5621 79.4104C20.1856 79.4104 20.7033 79.4498 21.101 79.5268C21.4944 79.6032 21.8062 79.7026 22.0299 79.8222C22.2408 79.9355 22.386 80.0648 22.4638 80.2075C22.5416 80.3534 22.5817 80.5012 22.5817 80.6467V80.7401C21.0257 80.8282 19.6544 80.9507 18.5026 81.1055C17.3187 81.2639 16.3234 81.4936 15.5451 81.7883C14.7544 82.0873 14.1568 82.4786 13.7679 82.9519C13.3738 83.4313 13.1743 84.0377 13.1743 84.7525C13.1743 85.3196 13.3017 85.8082 13.5542 86.2034C13.8038 86.5954 14.1401 86.9167 14.5527 87.1585C14.9582 87.3975 15.4297 87.5725 15.9545 87.6787C16.474 87.7845 17.019 87.8371 17.5733 87.8371C18.0452 87.8371 18.5214 87.8111 18.9876 87.7586C19.4545 87.7057 19.9136 87.6258 20.3507 87.5217C20.7875 87.4181 21.2164 87.2892 21.6233 87.1386C21.9596 87.0151 22.2813 86.8744 22.5817 86.7203V87.6368H25.5952V80.7433C25.5952 80.0921 25.4397 79.5219 25.1329 79.0471C24.8279 78.577 24.4004 78.1828 23.8624 77.8768ZM22.5813 82.9871V84.1286C22.3338 84.2987 22.0526 84.461 21.7444 84.6108C21.4128 84.7727 21.0531 84.9155 20.6746 85.0344C20.2971 85.153 19.8909 85.2478 19.4677 85.3164C19.0469 85.3838 18.6091 85.4176 18.1666 85.4176C17.7704 85.4176 17.438 85.3941 17.1806 85.3455C16.9274 85.2993 16.7236 85.2361 16.5752 85.1584C16.4371 85.0863 16.3408 85.0039 16.2894 84.9148C16.2361 84.8225 16.2095 84.7305 16.2095 84.6346C16.2095 84.5466 16.2247 84.4482 16.2542 84.3413C16.2787 84.2494 16.3508 84.1514 16.4687 84.0502C16.5961 83.9412 16.7953 83.8311 17.0609 83.7228C17.3315 83.6127 17.7121 83.5072 18.1922 83.41C18.6776 83.3123 19.2944 83.2253 20.0244 83.1522C20.7268 83.0815 21.5864 83.0265 22.5813 82.9871Z" fill="#005356"/>
<path d="M39.634 78.3094C39.0236 77.8506 38.2758 77.4998 37.4098 77.2669C36.549 77.0343 35.5697 76.9167 34.4992 76.9167C33.429 76.9167 32.4475 77.0343 31.5812 77.2669C30.7109 77.4994 29.9581 77.8506 29.3435 78.3086C28.7256 78.7688 28.2427 79.3512 27.9079 80.0379C27.5745 80.7235 27.4051 81.5235 27.4051 82.4148C27.4051 83.306 27.5745 84.1064 27.9079 84.7913C28.2427 85.478 28.7253 86.0596 29.3435 86.5205C29.9577 86.9786 30.7109 87.3287 31.5808 87.5623C32.4472 87.7938 33.429 87.9121 34.4992 87.9121C35.5701 87.9121 36.549 87.7938 37.4098 87.5623C38.2758 87.329 39.0243 86.9786 39.634 86.5198C40.2472 86.0589 40.7248 85.4766 41.0536 84.7906C41.3824 84.1053 41.5493 83.306 41.5493 82.4148C41.5493 81.5235 41.3824 80.7232 41.0536 80.0382C40.724 79.3515 40.2468 78.7699 39.634 78.3094ZM34.4992 85.4624C33.9549 85.4624 33.4712 85.4198 33.0629 85.336C32.6546 85.2518 32.2981 85.135 32.0026 84.9898C31.7086 84.8456 31.4604 84.6748 31.2641 84.4824C31.0656 84.2889 30.9069 84.079 30.7904 83.8575C30.6732 83.6348 30.5884 83.3987 30.5394 83.1533C30.4893 82.9058 30.4637 82.6569 30.4637 82.4148C30.4637 82.1772 30.4893 81.9326 30.5394 81.6865C30.5884 81.4443 30.6729 81.2089 30.7904 80.9859C30.9072 80.7637 31.0663 80.5517 31.2641 80.3571C31.4619 80.1618 31.7108 79.9885 32.0033 79.8426C32.2998 79.6945 32.656 79.5773 33.0629 79.4935C33.4727 79.4094 33.9563 79.3664 34.4992 79.3664C35.307 79.3664 35.9799 79.4587 36.4979 79.6413C37.0124 79.8223 37.4229 80.0595 37.7169 80.3471C38.0098 80.633 38.2158 80.9579 38.3298 81.3147C38.4466 81.6787 38.5059 82.049 38.5059 82.4151C38.5059 82.7805 38.4466 83.1508 38.3298 83.5152C38.2161 83.8713 38.0102 84.1976 37.7169 84.4831C37.4232 84.77 37.0128 85.0075 36.4979 85.1886C35.9806 85.3701 35.3077 85.4624 34.4992 85.4624Z" fill="#005356"/>
<path d="M48.3751 84.6852L44.7441 77.1768H41.3779L46.6693 87.6377H50.0365L55.3652 77.1768H51.9987L48.3751 84.6852Z" fill="#005356"/>
<path d="M59.4702 77.1768H56.4563V87.6377H59.4702V77.1768Z" fill="#005356"/>
<path d="M60.7123 79.6563H65.0414V87.6381H68.0553V79.6563H72.3911V77.1768H60.7123V79.6563Z" fill="#005356"/>
<path d="M84.7139 79.0477C84.4092 78.5769 83.9824 78.1828 83.4437 77.8767C82.9118 77.5742 82.2702 77.348 81.5377 77.2045C80.4412 76.9904 79.1778 76.9368 77.7678 77.0476C77.2955 77.0842 76.8183 77.1339 76.35 77.196C75.8823 77.2585 75.4275 77.3331 74.9985 77.4165C74.5693 77.5007 74.1744 77.5884 73.8254 77.6772L73.7281 77.7024V80.4429L73.9038 80.3743C74.2337 80.2468 74.6023 80.1233 75 80.0068C75.3984 79.8907 75.8276 79.7867 76.2768 79.6979C76.7217 79.6098 77.1929 79.5399 77.6765 79.4877C78.1566 79.4369 78.6498 79.4103 79.1434 79.4103C79.7669 79.4103 80.2846 79.4497 80.6823 79.5267C81.0761 79.6031 81.3882 79.7025 81.6108 79.8222C81.8221 79.9354 81.9673 80.0647 82.0447 80.2074C82.1232 80.3534 82.163 80.5011 82.163 80.6467V80.74C80.6074 80.8281 79.2357 80.9506 78.0842 81.1054C76.8996 81.2638 75.9043 81.4935 75.126 81.7882C74.3356 82.0872 73.738 82.4785 73.3488 82.9518C72.9554 83.4312 72.7559 84.0377 72.7559 84.7524C72.7559 85.3202 72.8833 85.8084 73.1358 86.2033C73.3854 86.5953 73.7206 86.9166 74.1339 87.1584C74.5398 87.3974 75.0113 87.5725 75.5358 87.6786C76.0549 87.7844 76.5999 87.837 77.1546 87.837C77.6261 87.837 78.1023 87.8111 78.5685 87.7585C79.0361 87.7056 79.4946 87.6257 79.9313 87.5217C80.3691 87.4173 80.7973 87.2891 81.2046 87.1386C81.5405 87.015 81.8626 86.8737 82.163 86.7203V87.6367H85.1769V80.7432C85.1769 80.0931 85.021 79.5225 84.7139 79.0477ZM82.1626 82.987V84.1286C81.9148 84.2986 81.6339 84.4609 81.3257 84.6108C80.9941 84.7727 80.6344 84.9154 80.2558 85.0344C79.878 85.153 79.4722 85.2478 79.0496 85.3163C78.6285 85.3838 78.1907 85.4175 77.7483 85.4175C77.3513 85.4175 77.0193 85.3941 76.7619 85.3454C76.509 85.2992 76.3049 85.2361 76.1557 85.1583C76.0183 85.0862 75.9228 85.0038 75.8706 84.9147C75.8174 84.8224 75.7914 84.7311 75.7914 84.6345C75.7914 84.5458 75.806 84.4478 75.8351 84.3412C75.8596 84.2493 75.932 84.1513 76.0503 84.0501C76.1774 83.9411 76.3762 83.831 76.6426 83.7227C76.9124 83.6126 77.2931 83.5072 77.7738 83.4099C78.2592 83.3122 78.876 83.2252 79.6057 83.1521C80.308 83.0814 81.1673 83.0264 82.1626 82.987Z" fill="#005356"/>
</svg>
