<svg width="49" height="81" viewBox="0 0 49 81" fill="none" xmlns="http://www.w3.org/2000/svg">
<path d="M22.2112 19.3073C21.6785 19.8549 21.1324 20.3919 20.5915 20.9036C20.3781 21.1065 20.1643 21.3065 19.948 21.5027C19.7418 21.6946 19.5356 21.8818 19.3251 22.0684C19.0387 22.3252 18.747 22.582 18.4563 22.8327C18.325 22.9482 18.1899 23.0613 18.0553 23.1749L17.8343 23.3616C17.7794 23.4079 17.7235 23.4542 17.6672 23.4986C17.4848 23.6504 17.3092 23.7969 17.133 23.9387L16.9578 24.0786C16.7464 24.2519 16.543 24.4151 16.3373 24.5741L16.2991 24.6338L16.2604 24.6352C16.026 24.818 15.7907 24.9999 15.5529 25.1803C15.3033 25.3722 15.046 25.5622 14.7882 25.7527C14.5944 25.8973 14.3982 26.0386 14.2006 26.1799L14.0211 26.3093C13.7022 26.5341 13.3805 26.7575 13.0568 26.98L13.0029 27.0172C12.8138 27.1437 12.6243 27.2697 12.4334 27.3972L12.3942 27.4263L11.8959 27.7509C11.9622 27.7934 12.0267 27.8364 12.0921 27.8793L12.4444 28.1152C12.8592 28.3911 13.4215 28.7711 13.9839 29.172C14.1419 29.2814 14.3008 29.3964 14.4584 29.5105L14.6355 29.637C14.7214 29.7 14.8068 29.7644 14.8923 29.8294C15.0512 29.9416 15.2116 30.0652 15.3716 30.1883C15.5931 30.3483 15.815 30.5192 16.0327 30.6929C16.2499 30.8567 16.4676 31.0295 16.6848 31.207C17.3345 31.7226 17.9956 32.273 18.6453 32.8396C18.8372 33.0019 19.0325 33.1719 19.222 33.3451C19.4816 33.5743 19.7346 33.8034 19.9891 34.0383L20.0683 34.1108C20.3046 34.3319 20.5414 34.5524 20.771 34.772C21.0183 35.0068 21.2603 35.2451 21.5033 35.4837C21.7797 35.7573 22.026 36.0041 22.2699 36.2575C22.469 36.4604 22.668 36.6662 22.8647 36.8724C23.176 37.2008 23.4839 37.5326 23.7889 37.8677C23.956 38.05 24.1197 38.2353 24.2834 38.42C24.4481 38.2314 24.6133 38.0481 24.7775 37.8658C25.1131 37.4958 25.4477 37.1259 25.7929 36.7674C25.9571 36.5903 26.1265 36.4136 26.2974 36.2404C26.4903 36.0389 26.6683 35.8542 26.8493 35.6775C27.0011 35.5224 27.1576 35.3687 27.3147 35.215L27.3624 35.1677C27.383 35.1453 27.4102 35.1181 27.4398 35.0904L28.0307 34.519C28.1109 34.4436 28.1677 34.3901 28.2217 34.3419C28.4026 34.1676 28.5936 33.991 28.784 33.8173C28.9864 33.6282 29.196 33.4387 29.4032 33.2559C29.5917 33.0845 29.7865 32.9141 29.9793 32.7475C30.2963 32.4706 30.6171 32.1971 30.9388 31.9264C31.1823 31.724 31.43 31.5202 31.6764 31.3197C31.873 31.1607 32.0688 31.0013 32.2692 30.8457C32.3409 30.7874 32.4191 30.7254 32.4984 30.6643L32.9571 30.3096C33.507 29.89 34.0217 29.5086 34.5329 29.1448C34.7081 29.0164 34.889 28.8909 35.069 28.7682C35.4681 28.4856 35.8748 28.2078 36.2886 27.9333C36.4667 27.8135 36.6457 27.6951 36.8247 27.5791C36.6514 27.4659 36.4767 27.3514 36.3054 27.2387L36.2772 27.2153C36.0051 27.0377 35.753 26.8683 35.5053 26.695C35.2461 26.5174 34.9888 26.3379 34.7315 26.1556C34.4842 25.9799 34.2374 25.8033 33.9892 25.6205C33.9882 25.6195 33.9753 25.6104 33.9577 25.5966L33.4531 25.2214C33.1213 24.9746 32.7929 24.724 32.4669 24.4657C32.2554 24.301 32.0454 24.1359 31.8358 23.9669C31.642 23.8108 31.4525 23.6585 31.2625 23.4981C31.1021 23.3678 30.9388 23.2322 30.7794 23.0962C30.5641 22.9181 30.3498 22.7338 30.1388 22.5477C29.9717 22.4073 29.8051 22.2613 29.6409 22.1142C29.4571 21.9505 29.2743 21.7858 29.091 21.6225L29.0313 21.5686C28.8513 21.4053 28.6752 21.2426 28.499 21.0764C27.246 19.9088 26.0358 18.6825 24.9031 17.4327C24.6587 17.1635 24.2147 17.164 23.9717 17.4327C23.5512 17.8996 23.1144 18.3703 22.6733 18.8328C22.5196 18.9928 22.3673 19.1517 22.2112 19.3073ZM24.5498 22.752C27.2121 22.752 29.3769 24.9163 29.3769 27.5791C29.3769 30.2404 27.2121 32.4062 24.5498 32.4062C21.888 32.4062 19.7232 30.2404 19.7232 27.5791C19.7232 24.9168 21.888 22.752 24.5498 22.752Z" fill="#0097A0"/>
<path d="M22.0198 41.1569C22.3267 40.764 22.3139 40.2146 21.9878 39.8527C18.6343 36.1284 14.8116 32.8527 10.6242 30.1174C10.2246 29.8553 9.76064 29.7174 9.28137 29.7174C8.86845 29.7174 8.4603 29.8219 8.09846 30.02C5.88063 31.2349 3.58166 32.3161 1.26406 33.2312C0.507438 33.5286 0 34.2781 0 35.0958V77.5387C0 79.4471 1.55238 81 3.46088 81H8.26697C8.55864 81 8.83122 80.8854 9.0341 80.6764C9.23554 80.4692 9.34199 80.1947 9.33388 79.9054C9.31812 79.3402 9.31001 78.7559 9.31001 78.1683C9.31049 64.6188 13.7056 51.8202 22.0198 41.1569Z" fill="#0097A0"/>
<path d="M0.713679 30.5651C2.86086 29.6991 4.96269 28.6986 6.96237 27.5916C7.74572 27.1572 8.52048 26.7061 9.26326 26.2492C14.3252 23.1364 18.8616 19.2783 22.7474 14.7839V14.7815L22.7946 14.7262C22.8638 14.6484 22.9307 14.5705 22.997 14.4923V0.748983C22.997 0.336064 22.6614 0 22.2485 0H3.46186C1.55336 0 0.000977019 1.55238 0.000977019 3.46136V30.0753C0.000499655 30.4338 0.374751 30.7035 0.713679 30.5651Z" fill="#0097A0"/>
<path d="M24.5502 29.8098C25.7803 29.8098 26.7804 28.8092 26.7804 27.5796C26.7804 26.3494 25.7799 25.3488 24.5502 25.3488C23.3195 25.3488 22.3195 26.3494 22.3195 27.5796C22.3195 28.8092 23.3195 29.8098 24.5502 29.8098Z" fill="#0097A0"/>
<path d="M24.2967 42.9547C24.112 42.9547 23.943 43.0368 23.8322 43.182C16.0803 53.2982 11.9827 65.398 11.9827 78.1679C11.9827 78.6844 11.9893 79.1985 12.0027 79.7098C12.0228 80.4325 12.6047 80.9991 13.3284 80.9991H35.3987C36.1119 80.9991 36.7067 80.4201 36.7234 79.7088C36.7344 79.2544 36.7401 78.7985 36.7401 78.3407C36.7401 65.4911 32.5956 53.3321 24.7559 43.1791C24.6471 43.0364 24.4786 42.9547 24.2967 42.9547Z" fill="#0097A0"/>
<path d="M45.2617 0.000488281H26.4713C26.0584 0.000488281 25.7228 0.336552 25.7228 0.749471V14.3209L26.0722 14.7252C29.9388 19.1757 34.4428 22.996 39.4599 26.0779C40.2179 26.5428 40.9936 26.9944 41.7636 27.4202C43.7934 28.5401 45.8957 29.5407 48.0085 30.3927C48.345 30.5283 48.7226 30.2586 48.7226 29.9006V3.46185C48.7226 1.55287 47.1702 0.000488281 45.2617 0.000488281Z" fill="#0097A0"/>
<path d="M47.4585 33.0544C45.1127 32.1269 42.8128 31.0457 40.6236 29.8437C40.2637 29.6451 39.8565 29.541 39.444 29.541C38.9628 29.541 38.4979 29.68 38.095 29.9439C33.8407 32.727 29.9698 36.0575 26.5906 39.8449C26.2669 40.2106 26.255 40.7591 26.5634 41.1481C34.9683 51.8487 39.412 64.7089 39.412 78.34C39.412 78.8627 39.4044 79.3844 39.3915 79.9043C39.3829 80.1936 39.4913 80.468 39.6937 80.6762C39.8961 80.8838 40.1672 80.9984 40.4584 80.9984H45.2621C47.1706 80.9984 48.723 79.4455 48.723 77.537V34.92C48.7225 34.0908 48.2265 33.359 47.4585 33.0544Z" fill="#0097A0"/>
</svg>
